<?xml version="1.0" encoding="utf-8"?>
<!-- Generator: Adobe Illustrator 21.0.2, SVG Export Plug-In . SVG Version: 6.00 Build 0)  -->
<svg version="1.1" id="Layer_1" xmlns="http://www.w3.org/2000/svg" xmlns:xlink="http://www.w3.org/1999/xlink" x="0px" y="0px"
	 viewBox="0 0 100 100" style="enable-background:new 0 0 100 100;" xml:space="preserve">
<style type="text/css">
	.st0{fill:#2F6FB7;}
	.st1{fill:#306FB7;}
	.st2{fill:#C569A9;}
	.st3{fill:#316FB7;}
	.st4{fill:#326FB7;}
</style>
<g>
	<path class="st0" d="M60.5,55.4c-0.1-0.9-0.2-1.8-0.5-2.5c-0.3-0.7-0.7-1.4-1.1-1.9c-0.5-0.5-1-1-1.6-1.4c-0.6-0.4-1.2-0.7-1.9-0.9
		c-0.7-0.3-1.3-0.5-2.1-0.7c-0.5-0.1-0.9-0.3-1.4-0.4l0-10.6c0.5,0.1,0.9,0.1,1.3,0.3c0.6,0.2,1.1,0.4,1.6,0.7
		c0.4,0.2,0.8,0.5,1,0.6c0.5,0.3,0.9,0.5,1.2,0.5c0.3,0,0.9-0.1,1.2-0.8l0.4-0.7c0.2-0.3,0.1-0.8-0.2-1c-1-0.9-2.1-1.6-3.3-2.1
		c-1-0.4-2.1-0.7-3.3-0.8l0-3.5c0-0.2-0.1-0.5-0.3-0.6c-0.2-0.2-0.4-0.2-0.6-0.2l-0.8,0c-0.4,0-0.8,0.2-1.1,0.5
		c-0.2,0.3-0.3,0.6-0.3,1l0,2.8c-1.1,0.2-2.2,0.5-3.1,0.9c-1.1,0.5-2.1,1.2-2.8,2.1c-0.7,0.8-1.3,1.8-1.7,2.8
		c-0.4,1-0.5,2.1-0.4,3.2c0.1,1.4,0.4,2.6,0.9,3.5c0.5,0.9,1.2,1.7,2.1,2.3c0.8,0.6,1.7,1,2.7,1.4c0.7,0.3,1.5,0.5,2.3,0.7l0,12
		c-0.4,0-0.8-0.1-1.1-0.2c-0.6-0.1-1.1-0.3-1.6-0.5c-0.5-0.2-0.9-0.4-1.2-0.6c-0.4-0.2-0.7-0.5-0.9-0.7c-0.3-0.2-0.5-0.4-0.7-0.6
		c-0.4-0.3-0.7-0.4-1-0.4c-0.3,0-0.8,0.2-1.2,0.7l-0.5,0.9c-0.2,0.3-0.2,0.8,0.1,1c1.1,1.1,2.5,2,3.9,2.7c1.3,0.6,2.7,0.9,4.3,1
		l0,4.3c0,0.2,0.1,0.4,0.3,0.6c0.2,0.1,0.4,0.2,0.6,0.2c0,0,0,0,0,0l0.8,0c0.4,0,0.8-0.2,1.1-0.6c0.2-0.3,0.3-0.6,0.3-1l0-3.7
		c1.2-0.2,2.3-0.5,3.3-1c1.2-0.6,2.2-1.4,3-2.3c0.8-0.9,1.4-2,1.8-3.2C60.4,58,60.6,56.8,60.5,55.4z M48.9,46.8
		c-0.4-0.1-0.8-0.3-1.1-0.4c-0.6-0.3-1.2-0.6-1.7-0.9c-0.5-0.3-0.8-0.8-1.1-1.3c-0.3-0.5-0.4-1.1-0.5-1.8c0-0.6,0-1.2,0.2-1.8
		c0.2-0.6,0.5-1.1,0.9-1.6c0.4-0.5,1-0.9,1.7-1.2c0.5-0.2,1-0.4,1.6-0.5L48.9,46.8z M57,56c0,0.8,0,1.6-0.3,2.4
		c-0.2,0.7-0.6,1.4-1.1,2c-0.5,0.6-1.1,1.1-1.9,1.4c-0.5,0.3-1.1,0.5-1.8,0.6l0-11c0.5,0.1,0.9,0.3,1.4,0.4c0.7,0.2,1.3,0.5,1.9,0.9
		c0.5,0.3,0.9,0.8,1.3,1.3C56.7,54.5,56.9,55.2,57,56z"/>
	<path class="st0" d="M86,47.6c-0.6-8.4-4.4-16.2-10.8-21.7c-6.2-5.4-14-8.1-22.1-7.8l2.9-3.3c0.4-0.5,0.4-1.3-0.1-1.7
		c-0.5-0.4-1.3-0.4-1.7,0.1l-4.9,5.6c-0.4,0.5-0.4,1.3,0.1,1.7l5.6,4.9c0.2,0.2,0.5,0.3,0.8,0.3c0.3,0,0.7-0.1,0.9-0.4
		c0.4-0.5,0.4-1.3-0.1-1.7L53,20.4c15.9-0.8,29.6,11.4,30.7,27.4c0.5,7.8-2,15.4-7.2,21.3c-5.2,5.9-12.3,9.4-20.1,10
		c-0.1,0-0.2,0.1-0.3,0.2c-0.1,0.1-0.1,0.2-0.1,0.3l0.1,1.4c0,0.3,0.2,0.4,0.5,0.4c0,0,0,0,0,0c8.4-0.6,16.2-4.4,21.7-10.8
		C83.8,64.1,86.6,56,86,47.6z"/>
	<path class="st0" d="M50.8,79.6l-5.6-4.9c-0.5-0.4-1.3-0.4-1.7,0.1c-0.4,0.5-0.4,1.3,0.1,1.7l3.6,3.2c-7.6,0.4-15-2.2-20.7-7.2
		c-5.9-5.2-9.4-12.3-10-20.1s2-15.4,7.2-21.3s12.3-9.4,20.1-10c0.1,0,0.2-0.1,0.3-0.2c0.1-0.1,0.1-0.2,0.1-0.3l-0.1-1.4
		c0-0.3-0.2-0.5-0.5-0.4c-8.4,0.6-16.2,4.4-21.7,10.8c-5.6,6.4-8.3,14.5-7.8,23c0.6,8.4,4.4,16.2,10.8,21.7
		c5.8,5.1,13.2,7.9,20.8,7.9c0.4,0,0.9,0,1.3,0l-2.9,3.3c-0.4,0.5-0.4,1.3,0.1,1.7c0.2,0.2,0.5,0.3,0.8,0.3c0.3,0,0.7-0.1,0.9-0.4
		l4.9-5.6C51.3,80.8,51.3,80,50.8,79.6z"/>
</g>
</svg>
