<?xml version="1.0" encoding="utf-8"?>
<!-- Generator: Adobe Illustrator 21.0.2, SVG Export Plug-In . SVG Version: 6.00 Build 0)  -->
<svg version="1.1" id="Layer_1" xmlns="http://www.w3.org/2000/svg" xmlns:xlink="http://www.w3.org/1999/xlink" x="0px" y="0px"
	 viewBox="0 0 100 100" style="enable-background:new 0 0 100 100;" xml:space="preserve">
<style type="text/css">
	.st0{fill:#2F6FB7;}
	.st1{fill:#306FB7;}
	.st2{fill:#C569A9;}
	.st3{fill:#316FB7;}
	.st4{fill:#326FB7;}
</style>
<path class="st0" d="M79.2,44.5L79.2,44.5c-0.1,0-0.1,0-0.2,0l-5.7-0.4L56.7,32.4c-0.1-0.1-0.2-0.1-0.3-0.1
	C55.6,32,37.9,27.4,20,33.2c-0.3,0.1-0.5,0.2-0.6,0.5C15.7,38.7,11.2,46.4,11,54c-0.2,4.9,1.5,7.4,1.5,7.4c0.2,0.3,0.6,0.5,1,0.5
	h3.8c0.6,4.7,4.7,8.3,9.4,8.3s8.8-3.6,9.4-8.3h25.6c0.6,4.7,4.7,8.3,9.4,8.3s8.8-3.6,9.4-8.3H87c0.3,0,0.6-0.1,0.9-0.3
	c0.1-0.1,3.4-3.2,3.4-8.5C91.2,47.4,80.4,44.8,79.2,44.5z M26.7,67.6c-3.5,0-6.5-2.6-6.9-6.1c0-0.3-0.1-0.6-0.1-0.9
	c0-0.2,0-0.4,0-0.6c0-0.1,0-0.2,0-0.3c0,0,0,0,0,0c0,0,0,0,0,0l0,0c0,0,0,0,0,0c0.4-3.5,3.4-6.1,6.9-6.1c3.8,0,7,3.1,7,7
	S30.6,67.6,26.7,67.6z M78.1,61.5c-0.4,3.1-2.7,5.5-5.6,6.1c-0.4,0.1-0.9,0.1-1.3,0.1c-3.5,0-6.5-2.7-6.9-6.2c0-0.3,0-0.6,0-0.8
	c0-0.3,0-0.6,0.1-0.9c0.5-3.4,3.4-6,6.9-6s6.4,2.6,6.9,6c0,0.4,0.1,0.7,0.1,0.9C78.1,61,78.1,61.2,78.1,61.5z M86.4,59.4h-5.8
	c-0.7-4.7-4.7-8.2-9.4-8.2s-8.8,3.5-9.4,8.2H36.2c-0.7-4.7-4.7-8.2-9.4-8.2c-4.7,0-8.8,3.5-9.4,8.2h-3.1c-0.4-0.8-3.5-9.3,7-23.9
	c0.5-0.2,1-0.3,1.5-0.5c6.1-1.7,12.1-2.2,17.3-2.2c8.2,0.1,14.3,1.6,15.5,1.8l16.8,11.8c0.2,0.1,0.3,0.2,0.5,0.2l5.8,0.4
	c1.3,0.3,3.8,1.1,5.9,2.1c0,0,0,0,0.1,0c0.3,0.1,0.5,0.3,0.7,0.4c0,0,0.1,0,0.1,0.1c0.2,0.1,0.4,0.3,0.6,0.4c0.1,0,0.1,0.1,0.2,0.1
	c0.2,0.1,0.4,0.2,0.5,0.4c0.1,0,0.1,0.1,0.2,0.2c0.1,0.1,0.3,0.2,0.4,0.3c0.1,0.1,0.1,0.1,0.2,0.2c0.1,0.1,0.2,0.2,0.3,0.3
	c0.1,0.1,0.1,0.2,0.2,0.2c0.1,0.1,0.2,0.2,0.2,0.3c0.1,0.1,0.1,0.2,0.1,0.3c0,0.1,0.1,0.2,0.1,0.3c0.1,0.2,0.1,0.4,0.1,0.6
	C88.7,56.3,87.1,58.5,86.4,59.4z"/>
</svg>
