<?xml version="1.0" encoding="utf-8"?>
<!-- Generator: Adobe Illustrator 21.0.2, SVG Export Plug-In . SVG Version: 6.00 Build 0)  -->
<svg version="1.1" id="Layer_1" xmlns="http://www.w3.org/2000/svg" xmlns:xlink="http://www.w3.org/1999/xlink" x="0px" y="0px"
	 viewBox="0 0 100 100" style="enable-background:new 0 0 100 100;" xml:space="preserve">
<style type="text/css">
	.st0{fill:#2F6FB7;}
	.st1{fill:#306FB7;}
	.st2{fill:#C569A9;}
	.st3{fill:#316FB7;}
	.st4{fill:#326FB7;}
</style>
<path class="st0" d="M86.4,23.8C86.4,23.8,86.4,23.8,86.4,23.8c-11.3,0.2-21.8,5.8-28.3,15l-29.3,0.5c-0.7,0-1.2,0.4-1.4,1.1
	l-10,33.5l-0.8-46.1c0-0.3,0.1-0.6,0.3-0.9c0.2-0.2,0.5-0.4,0.9-0.4L37,26.1c0,0,0,0,0,0c0.7,0,1.2,0.5,1.2,1.2l0.1,4.7
	c0,0.8,0.7,1.5,1.5,1.5c0,0,0,0,0,0l15.6-0.3c0.8,0,1.5-0.7,1.5-1.5c0-0.4-0.2-0.8-0.5-1c-0.3-0.3-0.6-0.4-1-0.4c0,0,0,0,0,0
	l-14.1,0.3l-0.1-3.2c0-2.3-1.9-4.1-4.2-4.1c0,0-0.1,0-0.1,0l-19.1,0.3c-1.1,0-2.2,0.5-3,1.3c-0.8,0.8-1.2,1.9-1.2,3L14.5,77
	c0,0.8,0.7,1.5,1.5,1.5c0,0,0,0,0,0c0.4,0,0.7-0.2,1-0.4c0.3,0.3,0.7,0.4,1,0.4l56-1c0.7,0,1.2-0.4,1.4-1.1l10.8-36.2
	c0.1-0.5,0-1-0.2-1.3c-0.3-0.4-0.7-0.6-1.2-0.6c0,0,0,0,0,0l-23,0.4c6-7.4,15-11.8,24.6-11.9c0.8,0,1.5-0.7,1.5-1.5
	C87.9,24.4,87.2,23.8,86.4,23.8z M82.9,41.3L73,74.5l-52.9,0.9L30,42.2l26.2-0.5c-3,5.3-4.5,11.3-4.4,17.4c0,0.4,0,0.8,0,1.2
	l-5.6-5.4c-0.6-0.6-1.5-0.6-2.1,0c-0.3,0.3-0.4,0.7-0.4,1.1c0,0.4,0.2,0.8,0.5,1l8.4,8.1c0.3,0.3,0.6,0.4,1,0.4c0,0,0,0,0,0
	c0.4,0,0.8-0.2,1-0.5l8.1-8.4c0.3-0.3,0.4-0.7,0.4-1.1c0-0.4-0.2-0.8-0.5-1c-0.6-0.6-1.5-0.6-2.1,0l-5.8,6c0-0.6-0.1-1.1-0.1-1.5
	c-0.1-6.2,1.6-12.2,4.9-17.4L82.9,41.3z"/>
</svg>
