<?xml version="1.0" encoding="utf-8"?>
<!-- Generator: Adobe Illustrator 21.0.2, SVG Export Plug-In . SVG Version: 6.00 Build 0)  -->
<svg version="1.1" id="Layer_1" xmlns="http://www.w3.org/2000/svg" xmlns:xlink="http://www.w3.org/1999/xlink" x="0px" y="0px"
	 viewBox="0 0 100 100" style="enable-background:new 0 0 100 100;" xml:space="preserve">
<style type="text/css">
	.st0{fill:#2F6FB7;}
	.st1{fill:#306FB7;}
	.st2{fill:#C569A9;}
	.st3{fill:#316FB7;}
	.st4{fill:#326FB7;}
</style>
<g>
	<path class="st3" d="M15,63.4h44.3V25.8H15V63.4z M18.3,29.1H56v31H18.3V29.1z"/>
	<path class="st3" d="M56.9,68.5H40.1c-0.9,0-1.6,0.7-1.6,1.6c0,0.9,0.7,1.6,1.6,1.6h16.8c0.9,0,1.6-0.7,1.6-1.6
		C58.5,69.3,57.8,68.5,56.9,68.5z"/>
	<path class="st3" d="M27,66.5c-4.3,0-7.8,3.5-7.8,7.8c0,4.3,3.5,7.8,7.8,7.8c4.3,0,7.8-3.5,7.8-7.8C34.8,70,31.3,66.5,27,66.5z
		 M27,78.9c-2.5,0-4.5-2-4.5-4.5c0-2.5,2-4.5,4.5-4.5s4.5,2,4.5,4.5C31.5,76.9,29.5,78.9,27,78.9z"/>
	<path class="st3" d="M80.2,38H63.3v27.2c1.7-1.2,3.8-1.8,6.1-1.8c5.7,0,10.4,4.3,10.9,9.9H89v-18L80.2,38z M85.7,70H83
		c-1.9-5.8-7.3-9.9-13.6-9.9c-0.9,0-1.9,0.1-2.8,0.3V41.2h11.6L85.7,56V70z"/>
	<path class="st3" d="M69.4,66.5c-4.3,0-7.8,3.5-7.8,7.8c0,4.3,3.5,7.8,7.8,7.8c4.3,0,7.8-3.5,7.8-7.8C77.2,70,73.7,66.5,69.4,66.5z
		 M69.4,78.9c-2.5,0-4.5-2-4.5-4.5c0-2.5,2-4.5,4.5-4.5s4.5,2,4.5,4.5C73.9,76.9,71.9,78.9,69.4,78.9z"/>
</g>
</svg>
