<?xml version="1.0" encoding="utf-8"?>
<!-- Generator: Adobe Illustrator 21.0.2, SVG Export Plug-In . SVG Version: 6.00 Build 0)  -->
<svg version="1.1" id="Layer_1" xmlns="http://www.w3.org/2000/svg" xmlns:xlink="http://www.w3.org/1999/xlink" x="0px" y="0px"
	 viewBox="0 0 100 100" style="enable-background:new 0 0 100 100;" xml:space="preserve">
<style type="text/css">
	.st0{fill:#2F6FB7;}
	.st1{fill:#306FB7;}
	.st2{fill:#C569A9;}
	.st3{fill:#316FB7;}
	.st4{fill:#326FB7;}
</style>
<g>
	<path class="st3" d="M55,44c-0.5-0.3-1.2-0.4-1.9-0.3c-0.6,0-1.5,0.2-2.5,0.4v-5.4c1-0.1,1.6,0.3,1.9,1.2c0.1,0.4,0.4,0.7,0.7,0.8
		c0.3,0.1,0.7,0.1,1.2-0.1c0.5-0.2,0.9-0.6,1.3-1.1c0.3-0.5,0.5-1,0.5-1.5c0-0.4-0.1-0.9-0.3-1.3c-0.2-0.4-0.6-0.8-1-1
		c-0.5-0.4-1.2-0.6-1.9-0.6c-0.7,0-1.4,0.2-2.4,0.5v-1.3c0-0.4-0.1-0.7-0.3-0.9c-0.2-0.1-0.4-0.1-0.7,0c-0.6,0.3-0.9,0.9-0.9,1.7
		v1.4c-1.9,1-3.3,2.3-4.3,3.7c-1,1.5-1.5,3-1.5,4.6c0,1.2,0.3,2.1,0.8,2.7c0.5,0.6,1.2,0.9,2.1,0.9c0.8,0,1.8-0.1,2.9-0.3v6.1
		c-0.5,0.1-1,0.1-1.3-0.1c-0.3-0.2-0.6-0.4-0.8-0.6c-0.2-0.3-0.4-0.8-0.6-1.4c-0.1-0.3-0.4-0.5-0.7-0.6c-0.3-0.1-0.7,0-1.1,0.2
		c-0.5,0.2-1,0.6-1.3,1.1c-0.4,0.5-0.5,1-0.5,1.5c0,0.6,0.1,1.2,0.4,1.7c0.3,0.5,0.7,1,1.2,1.3c0.5,0.3,1.2,0.5,2.1,0.5
		c0,0,0.1,0,0.1,0c0.7,0,1.6-0.2,2.6-0.5v3.5c0,0.5,0.1,0.8,0.2,0.9C49,62,49.1,62,49.2,62c0.1,0,0.3,0,0.5-0.1
		c0.4-0.2,0.6-0.4,0.8-0.8c0.1-0.3,0.2-0.7,0.2-1.3v-3.3c1.3-0.7,2.4-1.6,3.3-2.6c1-1,1.7-2.1,2.2-3.2c0.5-1.1,0.7-2.2,0.7-3.3
		c0-0.8-0.2-1.6-0.5-2.1C56.1,44.7,55.6,44.3,55,44z M53.2,49.4c0,0.7-0.2,1.4-0.7,2.2c-0.4,0.7-1.1,1.4-1.9,1.9v-5.6
		c0.9-0.1,1.5-0.1,2,0.1C53,48.2,53.2,48.7,53.2,49.4z M46.5,43.1c0-0.7,0.2-1.4,0.6-1.9c0.4-0.5,0.9-1,1.6-1.6v4.8
		c-0.7,0.1-1.3,0-1.6-0.1C46.6,44.2,46.5,43.8,46.5,43.1z"/>
	<path class="st3" d="M84.1,25.6c-4.1-3-8.5-4.4-13.3-4.4c-7.4,0-14.7,3.5-21.8,6.8c-6.8,3.2-13.8,6.5-20.5,6.5
		c-4.2,0-7.9-1.3-11.5-3.8c-0.5-0.3-1.1-0.4-1.6-0.1c-0.5,0.3-0.8,0.8-0.8,1.4v36.8c0,0.5,0.2,1,0.6,1.3c4.1,3,8.5,4.4,13.3,4.4
		c7.4,0,14.7-3.5,21.8-6.8l0,0C57,64.3,64,61,70.7,61c4.2,0,7.9,1.3,11.5,3.8c0.5,0.3,1.1,0.4,1.6,0.1c0.5-0.3,0.8-0.8,0.8-1.4V26.8
		C84.7,26.3,84.5,25.9,84.1,25.6z M81.6,27.6v33.2c-3.4-1.9-7-2.9-10.9-2.9c-7.4,0-14.7,3.5-21.8,6.8c-6.8,3.2-13.8,6.5-20.5,6.5
		c-3.9,0-7.5-1.1-10.9-3.4V34.8c3.4,1.9,7,2.9,10.9,2.9c7.4,0,14.7-3.5,21.8-6.8c6.8-3.2,13.8-6.5,20.5-6.5
		C74.7,24.2,78.2,25.4,81.6,27.6z"/>
	<path class="st3" d="M84.1,68.4c-11.9-8.6-23.7-3-35.1,2.4C37.8,76,27.4,81,16.9,73.5c-0.3-0.2-0.7-0.3-1.1-0.3
		c-0.4,0.1-0.8,0.3-1,0.6c-0.5,0.7-0.3,1.7,0.4,2.1c4.1,3,8.5,4.4,13.3,4.4c7.4,0,14.7-3.5,21.9-6.9c11.1-5.3,21.6-10.2,32-2.7
		c0.7,0.5,1.7,0.3,2.1-0.4C84.9,69.8,84.8,68.9,84.1,68.4z"/>
	<path class="st3" d="M40.5,39.9c-0.4-0.2-0.8-0.2-1.2,0c-5.9,2.2-10.6,2.8-14.9,1.9c-0.8-0.2-1.6,0.4-1.8,1.2
		c-0.2,0.8,0.4,1.6,1.2,1.8c1.5,0.3,3,0.5,4.6,0.5c3.6,0,7.5-0.8,12-2.5c0.8-0.3,1.2-1.2,0.9-2C41.2,40.4,40.9,40.1,40.5,39.9z"/>
	<path class="st3" d="M57.9,32.1c-0.2,0.4-0.2,0.8,0,1.2c0.2,0.6,0.8,1,1.4,1c0.2,0,0.4,0,0.5-0.1c5.9-2.2,10.6-2.8,14.9-1.9
		c0.9,0.2,1.6-0.4,1.8-1.2c0.2-0.8-0.4-1.6-1.2-1.8c-4.9-1-10.1-0.4-16.6,2C58.4,31.4,58.1,31.7,57.9,32.1z"/>
	<path class="st3" d="M40.5,61.4c-0.4-0.2-0.8-0.2-1.2,0c-5.9,2.2-10.6,2.8-14.9,1.9c-0.8-0.2-1.7,0.4-1.8,1.2
		c-0.2,0.8,0.4,1.6,1.2,1.8c1.5,0.3,3,0.5,4.6,0.5c3.6,0,7.5-0.8,12-2.5c0.8-0.3,1.2-1.2,0.9-2C41.2,61.9,40.9,61.6,40.5,61.4z"/>
	<path class="st3" d="M75.4,50.8c-4.9-1-10.1-0.4-16.6,2c-0.4,0.1-0.7,0.4-0.9,0.8s-0.2,0.8,0,1.2c0.2,0.6,0.8,1,1.4,1
		c0.2,0,0.4,0,0.5-0.1c5.9-2.2,10.6-2.8,14.9-1.9c0.9,0.2,1.6-0.4,1.8-1.2C76.7,51.8,76.2,51,75.4,50.8z"/>
</g>
</svg>
