<?xml version="1.0" encoding="utf-8"?>
<!-- Generator: Adobe Illustrator 21.0.2, SVG Export Plug-In . SVG Version: 6.00 Build 0)  -->
<svg version="1.1" id="Layer_1" xmlns="http://www.w3.org/2000/svg" xmlns:xlink="http://www.w3.org/1999/xlink" x="0px" y="0px"
	 viewBox="0 0 100 100" style="enable-background:new 0 0 100 100;" xml:space="preserve">
<style type="text/css">
	.st0{fill:#2F6FB7;}
	.st1{fill:#306FB7;}
	.st2{fill:#C569A9;}
	.st3{fill:#316FB7;}
	.st4{fill:#326FB7;}
</style>
<g>
	<path class="st3" d="M19,45.5h6.2v23.6h-2.7c-0.9,0-1.6,0.7-1.6,1.6s0.7,1.6,1.6,1.6h54.6c0.9,0,1.6-0.7,1.6-1.6s-0.7-1.6-1.6-1.6
		h-2.7V45.5h6.2c0.7,0,1.3-0.5,1.5-1.1c0.2-0.7,0-1.4-0.6-1.8l-30.8-21c-0.5-0.4-1.3-0.4-1.8,0l-30.7,21c-0.6,0.4-0.8,1.1-0.6,1.8
		C17.7,45.1,18.3,45.5,19,45.5z M59.7,69.2h-8.3V45.5h8.3V69.2z M48.2,69.2h-8.3V45.5h8.3V69.2z M36.7,69.2h-8.3V45.5h8.3V69.2z
		 M62.9,69.2V45.5h8.3v23.6H62.9z M24.2,42.4l25.6-17.5l25.6,17.5H24.2z"/>
	<path class="st3" d="M82.4,76.9H17.1c-0.9,0-1.6,0.7-1.6,1.6s0.7,1.6,1.6,1.6h65.3c0.9,0,1.6-0.7,1.6-1.6S83.3,76.9,82.4,76.9z"/>
</g>
</svg>
