<?xml version="1.0" encoding="utf-8"?>
<!-- Generator: Adobe Illustrator 21.0.2, SVG Export Plug-In . SVG Version: 6.00 Build 0)  -->
<svg version="1.1" id="Layer_1" xmlns="http://www.w3.org/2000/svg" xmlns:xlink="http://www.w3.org/1999/xlink" x="0px" y="0px"
	 viewBox="0 0 100 100" style="enable-background:new 0 0 100 100;" xml:space="preserve">
<style type="text/css">
	.st0{fill:#2F6FB7;}
	.st1{fill:#306FB7;}
	.st2{fill:#306FB7;stroke:#2F6FB7;stroke-width:0.25;stroke-miterlimit:10;}
	.st3{fill:#C569A9;}
	.st4{fill:#316FB7;}
	.st5{fill:none;}
	.st6{fill:none;stroke:#C569A9;stroke-width:0.5;}
</style>
<g>
	<path class="st4" d="M73.9,20.9c-15.3-5.1-32.2-5.1-47.5,0c-3.6,1.1-6.4,4.8-6.4,8.6v27.7c0,3.3,1.8,8.7,4.7,11.7
		c11.3,11.6,18.3,17.4,25.5,17.4c7.2,0,14.2-5.9,25.5-17.4c2.8-3,4.6-8.4,4.6-11.7V29.5C80.2,25.8,77.4,22.1,73.9,20.9z M77.1,57.2
		c0,2.7-1.6,7.3-3.8,9.6c-10.7,11-17.2,16.5-23.3,16.5c-6.1,0-12.6-5.6-23.3-16.5c-2.2-2.3-3.8-6.9-3.8-9.6V29.5
		c0-2.4,1.9-5,4.2-5.7c7.4-2.4,15.1-3.7,22.8-3.7c7.8,0,15.4,1.2,22.8,3.7c2.3,0.7,4.2,3.3,4.2,5.7V57.2z"/>
	<path class="st4" d="M70.7,28.8c-13.3-4.3-27.9-4.3-41.3,0c-0.6,0.2-1.1,0.8-1.1,1.5v27c0,1.5,1.2,4.7,2.3,5.8
		c7.3,7.5,14.9,14.9,19.4,14.9c4.5,0,12.1-7.3,19.4-14.9c1.1-1.2,2.3-4.4,2.3-5.8v-27C71.8,29.6,71.3,29,70.7,28.8z M48.5,74.5
		c-4.3-1.9-12.3-10-15.7-13.6c-0.5-0.5-1.4-2.9-1.4-3.7V31.3c5.5-1.7,11.3-2.6,17.1-2.7V74.5z M68.7,57.2c0,0.8-0.9,3.2-1.5,3.8l0,0
		c-3.7,3.8-11.3,11.6-15.6,13.4V28.6c5.8,0.1,11.6,1.1,17.1,2.7V57.2z"/>
</g>
</svg>
