<?xml version="1.0" encoding="utf-8"?>
<!-- Generator: Adobe Illustrator 21.0.2, SVG Export Plug-In . SVG Version: 6.00 Build 0)  -->
<svg version="1.1" id="Layer_1" xmlns="http://www.w3.org/2000/svg" xmlns:xlink="http://www.w3.org/1999/xlink" x="0px" y="0px"
	 viewBox="0 0 100 100" style="enable-background:new 0 0 100 100;" xml:space="preserve">
<style type="text/css">
	.st0{fill:#2F6FB7;}
	.st1{fill:#306FB7;}
	.st2{fill:#C569A9;}
	.st3{fill:#316FB7;}
	.st4{fill:#326FB7;}
</style>
<path class="st3" d="M88.6,50.1L51.2,23.3c-0.6-0.4-1.4-0.4-2,0L11.8,50.1c-0.8,0.5-0.9,1.6-0.4,2.3c0.5,0.8,1.6,0.9,2.3,0.4
	l6.7-4.8v31.4c0,0.9,0.8,1.7,1.7,1.7h19.9c0.9,0,1.7-0.8,1.7-1.7V58.3h12.9v21.1c0,0.9,0.8,1.7,1.7,1.7h19.9c0.9,0,1.7-0.8,1.7-1.7
	V48l6.7,4.8c0.3,0.2,0.6,0.3,1,0.3c0.5,0,1.1-0.3,1.4-0.7C89.6,51.7,89.4,50.7,88.6,50.1z M76.6,47v30.7H60V56.6
	c0-0.9-0.8-1.7-1.7-1.7H42.1c-0.9,0-1.7,0.8-1.7,1.7v21.1H23.8V47c0-0.4-0.1-0.8-0.4-1.1l26.8-19.2L77,45.9
	C76.7,46.2,76.6,46.6,76.6,47z"/>
</svg>
