<?xml version="1.0" encoding="utf-8"?>
<!-- Generator: Adobe Illustrator 21.0.2, SVG Export Plug-In . SVG Version: 6.00 Build 0)  -->
<svg version="1.1" id="Layer_1" xmlns="http://www.w3.org/2000/svg" xmlns:xlink="http://www.w3.org/1999/xlink" x="0px" y="0px"
	 viewBox="0 0 100 100" style="enable-background:new 0 0 100 100;" xml:space="preserve">
<style type="text/css">
	.st0{fill:#2F6FB7;}
	.st1{fill:#306FB7;}
	.st2{fill:#C569A9;}
	.st3{fill:#316FB7;}
	.st4{fill:#326FB7;}
</style>
<path class="st1" d="M77.9,41.7c0.7,0,1.3-0.6,1.3-1.3V21.8c0-0.7-0.6-1.3-1.3-1.3H59.2c-0.7,0-1.3,0.6-1.3,1.3
	c0,0.7,0.6,1.3,1.3,1.3h15.7L58.4,39.1l-5.7-1.9C52,37,51.3,37.3,51.1,38l-9.8,24.5L37,60.3c-0.5-0.3-1.2-0.1-1.5,0.3L22.8,74.8
	v-7.6h4.4c0.7,0,1.3-0.6,1.3-1.3c0-0.7-0.6-1.3-1.3-1.3h-4.4v-8.5h4.4c0.7,0,1.3-0.6,1.3-1.3c0-0.7-0.6-1.3-1.3-1.3h-4.4v-8.5h4.4
	c0.7,0,1.3-0.6,1.3-1.3c0-0.7-0.6-1.3-1.3-1.3h-4.4v-8.5h4.4c0.7,0,1.3-0.6,1.3-1.3c0-0.7-0.6-1.3-1.3-1.3h-4.4v-8.4h4.4
	c0.7,0,1.3-0.6,1.3-1.3c0-0.7-0.6-1.3-1.3-1.3h-5.6c0,0,0,0-0.1,0c0,0,0,0-0.1,0c-0.7,0-1.3,0.6-1.3,1.3v56.4c0,0.7,0.6,1.3,1.3,1.3
	h56.4c0.7,0,1.3-0.6,1.3-1.3c0,0,0,0,0-0.1c0,0,0,0,0-0.1v-5.6c0-0.7-0.6-1.3-1.3-1.3c-0.7,0-1.3,0.6-1.3,1.3v4.4h-8.5v-4.4
	c0-0.7-0.6-1.3-1.3-1.3c-0.7,0-1.3,0.6-1.3,1.3v4.4h-8.5v-4.4c0-0.7-0.6-1.3-1.3-1.3c-0.7,0-1.3,0.6-1.3,1.3v4.4h-8.5v-4.4
	c0-0.7-0.6-1.3-1.3-1.3c-0.7,0-1.3,0.6-1.3,1.3v4.4H35v-4.4c0-0.7-0.6-1.3-1.3-1.3s-1.3,0.6-1.3,1.3v4.4h-8.1L36.7,63l4.7,2.4
	c0.3,0.2,0.7,0.2,1,0.1c0.3-0.1,0.6-0.4,0.7-0.7L53,40.1l5.3,1.8c0.5,0.1,1,0,1.3-0.3l17-16.5v15.4C76.6,41.2,77.2,41.7,77.9,41.7z"
	/>
</svg>
