<?xml version="1.0" encoding="utf-8"?>
<!-- Generator: Adobe Illustrator 21.0.2, SVG Export Plug-In . SVG Version: 6.00 Build 0)  -->
<svg version="1.1" id="Layer_1" xmlns="http://www.w3.org/2000/svg" xmlns:xlink="http://www.w3.org/1999/xlink" x="0px" y="0px"
	 viewBox="0 0 100 100" style="enable-background:new 0 0 100 100;" xml:space="preserve">
<style type="text/css">
	.st0{fill:#2F6FB7;}
	.st1{fill:#306FB7;}
	.st2{fill:#C569A9;}
	.st3{fill:#316FB7;}
	.st4{fill:#326FB7;}
</style>
<g>
	<path class="st3" d="M28.2,62.6c-0.7-1.2-1.9-2.1-3.2-2.5c-2.8-0.7-5.8,1-6.5,3.8c-0.4,1.4-0.2,2.8,0.5,4c0.7,1.2,1.8,2.2,3.2,2.6
		c0.5,0.1,1,0.2,1.5,0.2c0.9,0,1.7-0.2,2.5-0.7c1.2-0.7,2.2-1.8,2.6-3.2c0.4-1.4,0.2-2.8-0.4-4C28.3,62.8,28.3,62.7,28.2,62.6z
		 M24.7,67.4c-0.3,0.2-0.7,0.3-1.1,0.3c0,0,0,0,0,0c-0.6,0-1.2-0.2-1.7-0.7c-0.4-0.4-0.7-1-0.7-1.7c0-0.8,0.4-1.6,1.2-2.1
		c0.4-0.2,0.8-0.3,1.2-0.3c1.3,0,2.4,1.1,2.4,2.4c0,0.8-0.5,1.6-1.2,2L24.7,67.4z"/>
	<path class="st3" d="M19.6,55.5c2.9,0,5.3-2.4,5.3-5.3c0-13.6,11.1-24.7,24.7-24.7c2.9,0,5.3-2.4,5.3-5.3s-2.4-5.3-5.3-5.3
		c-19.5,0-35.4,15.9-35.4,35.4C14.2,53.1,16.6,55.5,19.6,55.5L19.6,55.5z M49.6,17.8c1.3,0,2.4,1.1,2.4,2.4c0,1.3-1.1,2.4-2.4,2.4
		c-15.3,0-27.7,12.4-27.7,27.7c0,1.3-1.1,2.4-2.4,2.4c-1.3,0-2.4-1.1-2.4-2.4C17.2,32.4,31.8,17.8,49.6,17.8z"/>
	<path class="st3" d="M62,28.8c0.8,0.5,1.7,0.7,2.6,0.7c0.5,0,0.9-0.1,1.4-0.2c1.4-0.4,2.5-1.3,3.2-2.5c0.7-1.2,0.9-2.6,0.5-4
		c-0.4-1.4-1.3-2.5-2.5-3.2l-0.1,0c-2.5-1.4-5.7-0.5-7.2,2c-0.7,1.2-0.9,2.7-0.5,4C59.9,26.9,60.8,28.1,62,28.8z M65.8,22.1l0.2-0.3
		L65.8,22.1c1.2,0.7,1.5,2.1,0.9,3.2c-0.4,0.7-1.2,1.2-2,1.2c-0.4,0-0.8-0.1-1.2-0.3c-1.1-0.6-1.5-2.1-0.9-3.2
		c0.3-0.5,0.8-0.9,1.4-1.1C64.6,21.7,65.3,21.8,65.8,22.1z"/>
	<path class="st3" d="M61.5,54.1c-0.6-3.2-2.6-5.9-5.5-7.5c-1.4-0.8-2.9-1.4-4.4-2L51,44.4c-0.8-0.3-1.5-0.7-2.1-1.2
		c-0.1-0.1-0.2-0.2-0.2-0.3c0,0,0.1-0.1,0.3-0.2c0.3-0.1,0.6-0.2,0.9-0.2c1.7-0.1,3.4,0.2,4.9,1c0.8,0.5,1.8,0.6,2.8,0.2
		c0.8-0.4,1.5-1.2,1.7-2.1c0.2-0.6,0.4-1.3,0.6-2l0.3-1.2c0.5-1.6-0.3-3.3-1.9-3.9c-1.4-0.6-2.8-1-4.3-1.3c0-3.1-0.6-4.4-4.2-4.4
		h-1.4c-2.2,0.1-3.3,1.1-3.4,3.4v1.6l-0.1,0c-4.5,1.6-7,4.8-7.3,9.3c-0.2,3.9,1.6,7,5.3,9.2c1.3,0.7,2.6,1.4,4,1.9
		c0.5,0.2,1.1,0.4,1.6,0.7c0.5,0.2,1,0.5,1.5,0.9c0.2,0.2,0.4,0.4,0.4,0.7c-0.1,0.3-0.2,0.5-0.5,0.6c-0.8,0.3-1.6,0.4-2.4,0.3
		c-1.6-0.2-3.1-0.7-4.6-1.4c-0.5-0.3-1.2-0.5-1.8-0.5c-0.9,0-2.1,0.4-2.7,2.4c-0.3,0.9-0.5,1.8-0.8,2.8c-0.6,2.2,0,3.5,2.1,4.5
		c1.6,0.7,3.2,1.2,4.9,1.5v1.4c0,0.8,0.3,1.6,0.8,2.3s1.3,1,2.2,1c0.1,0,0.1,0,0.2,0h2.7c0,0,0,0,0.1,0c1.7,0,3-1.3,3.1-3
		c0-0.1,0-0.2,0-0.2v-2.1c2.1-0.6,4-1.8,5.4-3.5C61.2,60.2,62,57.1,61.5,54.1z M51,65.8v2.5c0,0.2,0,0.2,0,0.2c0,0,0,0-0.2,0h-2.7
		c-0.2,0-0.3,0-0.3-0.4l0-1.7c0.1-0.5,0-1.1-0.3-1.6c-0.1-0.2-0.2-0.3-0.4-0.5c-0.4-0.3-0.9-0.4-1.4-0.4c-1.6-0.2-3.1-0.6-4.5-1.3
		c-0.7-0.3-0.7-0.3-0.5-1l0.1-0.4c0.2-0.8,0.4-1.6,0.7-2.3c0-0.1,0.1-0.2,0.1-0.3c0.1,0,0.2,0.1,0.2,0.1c1.8,0.9,3.6,1.5,5.6,1.7
		c1.3,0.2,2.7,0,3.9-0.5c0.9-0.3,1.6-1,2-1.9c0.4-0.9,0.4-1.9,0.1-2.8c-0.3-0.7-0.7-1.2-1.2-1.6c-0.7-0.5-1.4-1-2.2-1.3
		c-0.3-0.1-0.5-0.2-0.8-0.3c-0.3-0.1-0.6-0.3-1-0.4c-1.2-0.5-2.4-1-3.6-1.7c-2.8-1.7-4.1-3.8-3.9-6.5c0.2-3.3,1.9-5.5,5.3-6.7
		c1.7-0.6,2-1.1,2.1-2.9l0-1.5c0-0.1,0-0.3,0-0.4c0.1,0,0.3,0,0.4,0l1.4,0c0.4,0,0.7,0,1.1,0.1c0.1,0.5,0.1,1,0.1,1.4
		c0,1.9,0.5,2.5,2.5,2.9c1.2,0.2,2.4,0.6,3.5,1.1c0.3,0.1,0.3,0.1,0.2,0.4L57,38.9c-0.2,0.6-0.4,1.2-0.6,1.9c0,0.1,0,0.1-0.1,0.2
		c-0.1,0-0.2-0.1-0.2-0.1c-2-1-4.2-1.4-6.4-1.3c-0.7,0-1.3,0.1-1.9,0.4c-1.1,0.4-1.9,1.4-2.1,2.6c-0.1,1.1,0.4,2.3,1.3,3
		c0.9,0.7,1.8,1.2,2.8,1.6l0.6,0.2c1.4,0.5,2.7,1.2,4.1,1.9c2.1,1.1,3.6,3.1,4,5.4c0.4,2.2-0.2,4.4-1.6,6.1
		c-1.1,1.3-2.5,2.2-4.1,2.7l-0.1,0C51.6,63.6,50.8,64.7,51,65.8z"/>
	<path class="st3" d="M37.3,71.7L37.3,71.7c-2.5-1.5-5.8-0.6-7.3,2c-1.5,2.5-0.6,5.8,2,7.3c0.8,0.5,1.7,0.7,2.6,0.7
		c0.5,0,0.9-0.1,1.4-0.2c1.4-0.4,2.5-1.2,3.2-2.5C40.7,76.4,39.8,73.1,37.3,71.7z M36.7,77.4L36.7,77.4l0,0.1
		c-0.4,0.7-1.2,1.1-2,1.1c-1.3,0-2.3-1.1-2.3-2.4c0-1.3,1.1-2.3,2.4-2.3c0,0,0,0,0.1,0c0.4,0,0.7,0.1,1,0.3
		C36.9,74.8,37.3,76.3,36.7,77.4z"/>
	<path class="st3" d="M83.4,46.4c-1-1-2.3-1.6-3.7-1.6l0,0l-0.1,0c-2.9,0-5.3,2.4-5.3,5.4c0,2.9,2.4,5.3,5.3,5.3c0,0,0,0,0,0
		c2.9,0,5.3-2.4,5.3-5.3C85,48.8,84.4,47.5,83.4,46.4z M78,51.8c-0.4-0.5-0.7-1-0.7-1.7c0-1.3,1.1-2.3,2.4-2.3c0,0,0,0,0,0
		c1.3,0,2.3,1.1,2.3,2.4c0,1.3-1.1,2.3-2.3,2.3l-0.1,0C79,52.5,78.4,52.3,78,51.8z"/>
	<path class="st3" d="M74.2,40.3c0.5,0.1,0.9,0.2,1.4,0.2c0.9,0,1.8-0.2,2.6-0.7l0,0c2.5-1.5,3.4-4.7,1.9-7.3
		c-1.5-2.5-4.7-3.4-7.3-1.9c-1.2,0.7-2.1,1.9-2.5,3.2c-0.4,1.4-0.2,2.8,0.5,4C71.7,39.1,72.9,39.9,74.2,40.3z M74.4,33.1
		c0.5-0.3,1.2-0.4,1.8-0.2c0.6,0.2,1.1,0.6,1.4,1.1c0.3,0.5,0.4,1.2,0.2,1.8c-0.2,0.6-0.6,1.1-1.1,1.4c-0.4,0.2-0.8,0.3-1.2,0.3
		c-0.8,0-1.6-0.5-2-1.2C72.9,35.2,73.3,33.8,74.4,33.1z"/>
	<path class="st3" d="M77.9,60.7c-2.4-1.2-5.4-0.5-6.9,1.9c-1.5,2.5-0.6,5.8,1.9,7.3h0c0.9,0.5,1.8,0.7,2.7,0.7
		c1.8,0,3.5-0.9,4.5-2.5l0.1-0.1C81.6,65.2,80.6,62,77.9,60.7z M74.5,67.3c-1.1-0.6-1.5-2.1-0.9-3.2l0.4-0.4l-0.1,0
		c0.3-0.3,0.7-0.6,1.2-0.7c0.2-0.1,0.4-0.1,0.6-0.1c0.4,0,0.8,0.1,1.2,0.3c1.1,0.6,1.5,2,0.9,3.1l-0.1,0.1c-0.4,0.7-1.2,1.2-2,1.2
		c0,0,0,0,0,0C75.3,67.6,74.8,67.5,74.5,67.3z"/>
	<path class="st3" d="M49.7,74.9L49.7,74.9c-2.9,0-5.3,2.4-5.3,5.3c0,2.9,2.4,5.3,5.3,5.3c0,0,0,0,0,0c1.4,0,2.8-0.6,3.8-1.6
		c1-1,1.6-2.3,1.6-3.8C55,77.3,52.6,74.9,49.7,74.9z M49.6,77.9C49.6,77.9,49.6,77.9,49.6,77.9c1.3,0,2.4,1.1,2.4,2.4
		c0,1.3-1,2.3-2.3,2.4l0,0h-0.1c0,0,0,0,0,0c-0.6,0-1.2-0.2-1.7-0.7c-0.4-0.4-0.7-1-0.7-1.7C47.3,79,48.3,77.9,49.6,77.9z"/>
	<path class="st3" d="M64.7,70.9C64.7,70.9,64.7,70.9,64.7,70.9c-0.9,0-1.9,0.2-2.7,0.7c-2.5,1.5-3.4,4.7-1.9,7.3
		c0.9,1.6,2.7,2.7,4.6,2.7c0,0,0,0,0,0c0,0,0,0,0,0c2.9,0,5.3-2.4,5.3-5.3c0-1.4-0.6-2.8-1.6-3.8C67.4,71.4,66.1,70.9,64.7,70.9z
		 M62.3,76.2c0-0.9,0.4-1.7,1.2-2.1l0,0c0.4-0.2,0.8-0.3,1.2-0.3c0.2,0,0.4,0,0.6,0.1c0.6,0.2,1.1,0.6,1.4,1.1
		c0.6,1.1,0.3,2.6-0.9,3.2c-0.3,0.2-0.7,0.3-1.1,0.3c0,0,0,0,0,0C63.4,78.6,62.3,77.5,62.3,76.2z"/>
</g>
</svg>
