<?xml version="1.0" encoding="utf-8"?>
<!-- Generator: Adobe Illustrator 21.0.2, SVG Export Plug-In . SVG Version: 6.00 Build 0)  -->
<svg version="1.1" id="Layer_1" xmlns="http://www.w3.org/2000/svg" xmlns:xlink="http://www.w3.org/1999/xlink" x="0px" y="0px"
	 viewBox="0 0 100 100" style="enable-background:new 0 0 100 100;" xml:space="preserve">
<style type="text/css">
	.st0{fill:#2F6FB7;}
	.st1{fill:#306FB7;}
	.st2{fill:#C569A9;}
	.st3{fill:#316FB7;}
	.st4{fill:#326FB7;}
</style>
<g>
	<path class="st1" d="M66.2,18.1l-0.4,0c-6.5,0.1-12.4,3.2-16.2,8.5c-3.9-5.1-9.8-8.1-16.4-8.1h0c-5.2,0-10.1,2.1-13.9,6
		C15,28.8,12.7,34.8,12.8,41c0,2.3,0.4,4.6,1.1,6.7c1.3,5.7,8.7,13.7,22.6,24.6c3.7,2.9,9.3,6.8,11.7,8.5c0.6,0.4,1,0.7,1.1,0.8
		c0.1,0.1,0.1,0.1,0.2,0.2c0.2,0.1,0.5,0.2,0.7,0.2c0.3,0,0.6-0.1,0.8-0.2c3.2-2,7.5-5.3,12.8-9.6c13.4-11,20.8-19.5,21.9-25
		c0.6-2.2,1-4.5,0.9-6.8C86.6,28,77.4,18.1,66.2,18.1z M82.8,46.2c-0.7,3.4-4.9,10.3-20.9,23.4c-4.6,3.8-8.6,6.9-11.6,8.9
		c-0.1-0.1-0.2-0.2-0.4-0.3c-2.4-1.7-8-5.6-11.6-8.4C21.9,57.1,17.6,50.4,16.8,46.9C16.2,45,15.9,43,15.8,41
		c-0.1-5.4,2-10.7,5.6-14.3c3.2-3.2,7.4-5,12-5.1c6.1,0,11.7,3.2,14.9,8.6c0.3,0.5,0.9,0.8,1.3,0.7c0.5,0,1-0.3,1.3-0.8
		c3.1-5.5,8.7-8.9,14.9-9l0.3,0c9.5,0,17.3,8.5,17.5,18.9C83.7,42.2,83.4,44.2,82.8,46.2z"/>
	<path class="st1" d="M66,28L66,28c-0.9,0-1.5,0.7-1.5,1.5c0,0.9,0.7,1.5,1.5,1.5c4.3,0,7.8,4.1,7.9,9.2c0,1-0.1,2.1-0.4,3l-0.2,0.9
		c-0.2,0.8,0.4,1.7,1.2,1.8c0.1,0,0.2,0,0.3,0c0.7,0,1.4-0.5,1.5-1.2l0.2-0.7c0.4-1.3,0.5-2.6,0.5-3.9C76.8,33.4,72,28,66,28z"/>
</g>
</svg>
