<?xml version="1.0" encoding="utf-8"?>
<!-- Generator: Adobe Illustrator 21.0.2, SVG Export Plug-In . SVG Version: 6.00 Build 0)  -->
<svg version="1.1" id="Layer_1" xmlns="http://www.w3.org/2000/svg" xmlns:xlink="http://www.w3.org/1999/xlink" x="0px" y="0px"
	 viewBox="0 0 100 100" style="enable-background:new 0 0 100 100;" xml:space="preserve">
<style type="text/css">
	.st0{fill:#2F6FB7;}
	.st1{fill:#306FB7;}
	.st2{fill:#C569A9;}
	.st3{fill:#316FB7;}
	.st4{fill:#326FB7;}
</style>
<path class="st1" d="M83.6,37.8H62.4V16.5c0-0.9-0.7-1.5-1.5-1.5H39.5c-0.9,0-1.5,0.7-1.5,1.5v21.3H16.7c-0.9,0-1.5,0.7-1.5,1.5
	v21.3c0,0.9,0.7,1.5,1.5,1.5H38v21.3c0,0.9,0.7,1.5,1.5,1.5h21.3c0.9,0,1.5-0.7,1.5-1.5V62.2h21.3c0.9,0,1.5-0.7,1.5-1.5V39.4
	C85.2,38.5,84.5,37.8,83.6,37.8z M82.1,59.1H60.8c-0.9,0-1.5,0.7-1.5,1.5v21.3H41.1V60.6c0-0.9-0.7-1.5-1.5-1.5H18.3V40.9h21.3
	c0.9,0,1.5-0.7,1.5-1.5V18.1h18.2v21.3c0,0.9,0.7,1.5,1.5,1.5h21.3V59.1z"/>
</svg>
