<?xml version="1.0" encoding="utf-8"?>
<!-- Generator: Adobe Illustrator 21.0.2, SVG Export Plug-In . SVG Version: 6.00 Build 0)  -->
<svg version="1.1" id="Layer_1" xmlns="http://www.w3.org/2000/svg" xmlns:xlink="http://www.w3.org/1999/xlink" x="0px" y="0px"
	 viewBox="0 0 100 100" style="enable-background:new 0 0 100 100;" xml:space="preserve">
<style type="text/css">
	.st0{fill:#2F6FB7;}
	.st1{fill:#306FB7;}
	.st2{fill:#C569A9;}
	.st3{fill:#316FB7;}
	.st4{fill:#326FB7;}
</style>
<g>
	<path class="st3" d="M80,20.5H19.8c-0.8,0-1.4,0.6-1.4,1.4v42.9c0,0.8,0.6,1.4,1.4,1.4h28.7v0.7L35.4,80.1c-0.6,0.6-0.5,1.5,0,2
		c0.6,0.6,1.5,0.6,2,0l11.1-11.2v5.9c0,0.8,0.6,1.4,1.4,1.4s1.4-0.6,1.4-1.4v-5.9l11.1,11.2c0.3,0.3,0.6,0.4,1,0.4
		c0.4,0,0.7-0.1,1-0.4c0.6-0.6,0.6-1.4,0-2L51.3,66.9v-0.7H80c0.8,0,1.4-0.6,1.4-1.4V21.9C81.4,21.2,80.8,20.5,80,20.5z M78.6,63.4
		H21.2V32.1h57.3V63.4z M78.6,29.3H21.2v-5.9h57.3V29.3z"/>
	<path class="st3" d="M34.5,57.6c0.8,0,1.4-0.6,1.4-1.4v-8.5c0-0.8-0.6-1.4-1.4-1.4c-0.8,0-1.4,0.6-1.4,1.4v8.5
		C33.1,56.9,33.7,57.6,34.5,57.6z"/>
	<path class="st3" d="M44.8,57.6c0.8,0,1.4-0.6,1.4-1.4V38.5c0-0.8-0.6-1.4-1.4-1.4c-0.8,0-1.4,0.6-1.4,1.4v17.7
		C43.3,56.9,44,57.6,44.8,57.6z"/>
	<path class="st3" d="M55.1,57.6c0.8,0,1.4-0.6,1.4-1.4v-5.7c0-0.8-0.6-1.4-1.4-1.4s-1.4,0.6-1.4,1.4v5.7
		C53.7,56.9,54.3,57.6,55.1,57.6z"/>
	<path class="st3" d="M65.4,57.6c0.8,0,1.4-0.6,1.4-1.4V42c0-0.8-0.6-1.4-1.4-1.4c-0.8,0-1.4,0.6-1.4,1.4v14.2
		C64,56.9,64.6,57.6,65.4,57.6z"/>
</g>
</svg>
