<?xml version="1.0" encoding="utf-8"?>
<!-- Generator: Adobe Illustrator 21.0.2, SVG Export Plug-In . SVG Version: 6.00 Build 0)  -->
<svg version="1.1" id="Layer_1" xmlns="http://www.w3.org/2000/svg" xmlns:xlink="http://www.w3.org/1999/xlink" x="0px" y="0px"
	 viewBox="0 0 100 100" style="enable-background:new 0 0 100 100;" xml:space="preserve">
<style type="text/css">
	.st0{fill:#2F6FB7;}
	.st1{fill:#306FB7;}
	.st2{fill:#C569A9;}
	.st3{fill:#316FB7;}
	.st4{fill:#326FB7;}
</style>
<g>
	<path class="st3" d="M30.9,41.4c0,0.9,0.7,1.7,1.7,1.7h32.2c0.9,0,1.7-0.7,1.7-1.7s-0.7-1.7-1.7-1.7H32.6
		C31.6,39.7,30.9,40.5,30.9,41.4z"/>
	<path class="st3" d="M32.6,49.1h25.3c0.9,0,1.7-0.7,1.7-1.7s-0.7-1.7-1.7-1.7H32.6c-0.9,0-1.7,0.7-1.7,1.7S31.6,49.1,32.6,49.1z"/>
	<path class="st3" d="M46.5,60.2H32.6c-0.9,0-1.7,0.7-1.7,1.7s0.7,1.7,1.7,1.7h13.9c0.9,0,1.7-0.7,1.7-1.7S47.4,60.2,46.5,60.2z"/>
	<path class="st3" d="M46.5,66.1H32.6c-0.9,0-1.7,0.7-1.7,1.7s0.7,1.7,1.7,1.7h13.9c0.9,0,1.7-0.7,1.7-1.7S47.4,66.1,46.5,66.1z"/>
	<path class="st3" d="M65.7,57.4c0-0.7-0.5-1.3-1.1-1.5L64,55.7c-0.6-0.5-1.2-1-1.9-1.4l-0.4-0.5c-0.4-0.5-1.1-0.8-1.8-0.6l-0.6,0.2
		c-0.9-0.1-1.5-0.1-2.3,0l-0.6-0.2c-0.7-0.2-1.4,0-1.8,0.6l-0.4,0.5c-0.7,0.4-1.3,0.8-1.9,1.4l-0.6,0.2c-0.6,0.2-1.1,0.8-1.1,1.5
		l0,0.6c-0.3,0.7-0.6,1.4-0.7,2.2l-0.3,0.5c-0.4,0.6-0.4,1.3,0,1.9l0.3,0.5c0.1,0.8,0.4,1.5,0.7,2.2l0,0.6c0,0.7,0.5,1.3,1.1,1.5
		l0.6,0.2c0.4,0.4,0.9,0.8,1.4,1.1l-2,2.7c-0.3,0.4-0.4,0.8-0.3,1.2s0.3,0.8,0.6,1.1c0.3,0.2,0.6,0.3,1,0.3c0.5,0,1-0.2,1.3-0.7
		l2.6-3.4c0,0,0.1-0.1,0.1-0.1c0.8,0.1,1.4,0.1,2.3,0c0,0,0.1,0.1,0.1,0.1l2.6,3.4c0.3,0.4,0.8,0.7,1.3,0.7c0.4,0,0.7-0.1,1-0.3
		c0.4-0.3,0.6-0.7,0.6-1.1s-0.1-0.9-0.3-1.2l-2-2.7c0.5-0.3,1-0.7,1.4-1.1l0.6-0.2c0.6-0.2,1.1-0.8,1.1-1.5l0-0.6
		c0.3-0.7,0.6-1.5,0.7-2.2l0.4-0.5c0.4-0.6,0.4-1.3,0-1.9l-0.3-0.5c-0.1-0.8-0.4-1.5-0.7-2.2L65.7,57.4z M63.2,61.8c0,0,0,0.1,0,0.1
		l-0.5,0.7v0c-0.2,0.3-0.3,0.6-0.3,0.9l0,0.9c-0.1,0.1-0.2,0.3-0.3,0.4l-0.8,0.3c-0.3,0.1-0.5,0.3-0.7,0.5L60,66.4
		c-0.2,0.1-0.4,0.1-0.5,0.2l-0.8-0.2c-0.1,0-0.3-0.1-0.5-0.1c-0.2,0-0.3,0-0.5,0.1l-0.8,0.2c-0.2,0-0.3-0.1-0.5-0.2l-0.5-0.7
		c-0.2-0.2-0.5-0.4-0.7-0.5l-0.8-0.3c-0.1-0.1-0.2-0.3-0.3-0.4l0-0.9c0-0.3-0.1-0.6-0.3-0.9l-0.5-0.7c0,0,0-0.1,0-0.1
		c0-0.1,0-0.1,0-0.2s0-0.1,0-0.2c0,0,0-0.1,0-0.1l0.5-0.7c0.2-0.3,0.3-0.6,0.3-0.9l0-0.9c0.1-0.1,0.2-0.3,0.3-0.4l0.8-0.3
		c0.3-0.1,0.6-0.3,0.8-0.5l0.5-0.7c0.2-0.1,0.4-0.1,0.5-0.2l0.8,0.2c0.3,0.1,0.6,0.1,0.9,0l0.8-0.2c0.2,0,0.3,0.1,0.5,0.2l0.5,0.7
		c0.2,0.2,0.5,0.4,0.8,0.5l0.8,0.3c0.1,0.1,0.2,0.3,0.3,0.4l0,0.9c0,0.3,0.1,0.6,0.3,0.9l0.5,0.7c0,0,0,0.1,0,0.1c0,0.1,0,0.1,0,0.2
		S63.2,61.8,63.2,61.8z"/>
	<path class="st3" d="M74,16.2H42.3c-0.1,0-0.2,0-0.3,0c-0.1,0-0.1,0-0.2,0.1l0,0.1c0,0,0,0,0,0l-0.1-0.1c0,0,0,0-0.1,0
		c-0.1,0-0.2,0.1-0.3,0.2c-0.1,0.1-0.2,0.1-0.3,0.2L22.8,35.1c-0.1,0.1-0.2,0.2-0.2,0.3c-0.1,0.1-0.1,0.2-0.1,0.3c0,0,0,0,0,0.1l0,0
		c0,0.1,0,0.1-0.1,0.2c0,0.1,0,0.2,0,0.3v44.5c0,0.9,0.7,1.7,1.7,1.7H74c0.9,0,1.7-0.7,1.7-1.7V17.9C75.7,16.9,74.9,16.2,74,16.2z
		 M40.7,21.9v12.7H27.9L40.7,21.9z M72.3,79.1H25.6V37.9h16.7c0.9,0,1.7-0.7,1.7-1.7V19.5h28.4V79.1z"/>
</g>
</svg>
