<?xml version="1.0" encoding="utf-8"?>
<!-- Generator: Adobe Illustrator 21.0.2, SVG Export Plug-In . SVG Version: 6.00 Build 0)  -->
<svg version="1.1" id="Layer_1" xmlns="http://www.w3.org/2000/svg" xmlns:xlink="http://www.w3.org/1999/xlink" x="0px" y="0px"
	 viewBox="0 0 100 100" style="enable-background:new 0 0 100 100;" xml:space="preserve">
<style type="text/css">
	.st0{fill:#2F6FB7;}
	.st1{fill:#306FB7;}
	.st2{fill:#C569A9;}
	.st3{fill:#316FB7;}
	.st4{fill:#326FB7;}
</style>
<path class="st3" d="M79.2,22.3L79.2,22.3c0-0.2,0-0.3-0.1-0.4c0,0,0-0.1-0.1-0.1c-0.1-0.2-0.2-0.3-0.3-0.4
	c-0.1-0.1-0.3-0.2-0.4-0.3c0,0-0.1,0-0.1,0c-0.1-0.1-0.3-0.1-0.5-0.1c0,0,0,0-0.1,0c-0.2,0-0.3,0-0.4,0.1L22,38.9
	c-0.5,0.2-0.9,0.7-1,1.2c-0.1,0.6,0.2,1.1,0.7,1.4l22.9,14l14,22.8c0.3,0.4,0.8,0.7,1.3,0.7c0.1,0,0.1,0,0.2,0
	c0.6-0.1,1.1-0.5,1.2-1l18-55.3C79.2,22.7,79.2,22.5,79.2,22.3C79.2,22.4,79.2,22.3,79.2,22.3z M26,40.7l46.3-15.1L45.4,52.6
	L26,40.7z M59.4,74.1L47.5,54.7l26.9-26.9L59.4,74.1z"/>
</svg>
