<?xml version="1.0" encoding="utf-8"?>
<!-- Generator: Adobe Illustrator 21.0.2, SVG Export Plug-In . SVG Version: 6.00 Build 0)  -->
<svg version="1.1" id="Layer_1" xmlns="http://www.w3.org/2000/svg" xmlns:xlink="http://www.w3.org/1999/xlink" x="0px" y="0px"
	 viewBox="0 0 100 100" style="enable-background:new 0 0 100 100;" xml:space="preserve">
<style type="text/css">
	.st0{fill:#2F6FB7;}
	.st1{fill:#306FB7;}
	.st2{fill:#C569A9;}
	.st3{fill:#316FB7;}
	.st4{fill:#326FB7;}
</style>
<path class="st3" d="M76.8,66.6l-2.2-5.1c0.7-0.9,1-1.8,1.1-2.7c0.1-1.2-0.3-2.3-1.1-3.2c-0.8-0.8-1.9-1.2-3.1-1.1l-0.5-1.2
	c0.7-0.9,1.1-1.8,1.2-2.7c0.1-1.2-0.3-2.3-1.1-3.2c-0.8-0.8-2-1.2-3.1-1.1l-0.3-0.7c4.6-4.8,10.1-11.5,10.2-16.7
	c0-2.1-0.9-3.4-1.6-4.2C75.3,23.8,74,23,71.9,23c-5.2,0-12,5.5-16.8,10.2l-0.7-0.3c0.1-1.2-0.3-2.3-1.2-3.1
	c-0.7-0.7-1.7-1.2-2.8-1.2s-2.1,0.4-3.1,1.2l-1.2-0.5c0.1-1.2-0.3-2.3-1.1-3.1c-0.7-0.7-1.7-1.2-2.8-1.2c-1,0-2.1,0.4-3.1,1.1
	L34,23.9c-0.3-0.1-0.6-0.2-0.9-0.2l-6.7-0.4c-0.1,0-0.1,0-0.2,0c-1.2,0-2.2,0.7-2.6,1.8c-0.4,1.2-0.1,2.4,0.9,3.2l20.7,16.4
	c-4,5.1-7.6,10-10.5,14l-12.5,0.5c-1.2,0.1-2.3,0.9-2.6,2.1c-0.3,1.2,0.2,2.5,1.3,3.1l7.4,4.3c-0.4,1.2-0.2,2.3,0.6,3.1
	c0.5,0.5,1.4,0.9,2.1,0.9c0.3,0,0.7-0.1,1-0.2l4.3,7.4c0.5,0.9,1.4,1.4,2.4,1.4c0.2,0,0.4,0,0.7-0.1c1.2-0.3,2.1-1.4,2.1-2.6
	L42.1,66c4.1-3,9-6.6,14-10.5l16.4,20.7c0.5,0.7,1.3,1.1,2.2,1.1c0.3,0,0.7-0.1,1-0.2c1.2-0.4,1.9-1.6,1.8-2.8L77,67.6
	C77,67.2,76.9,66.9,76.8,66.6z M56.6,51.5l-0.1-0.1l-0.1,0.1c-0.2,0.2-0.3,0.3-0.5,0.4c-6,4.7-11.9,9.2-16.7,12.6l0,0L38.6,78
	l-5.4-9.3l-0.1-0.1L33,68.7c-1.5,0.9-1.9,1-2.1,1c0,0,0-0.3,1-2.1l0.1-0.1L22.7,62l13.4-0.6l0.1,0l0,0c3.3-4.6,7.8-10.6,12.6-16.7
	c0.1-0.1,0.1-0.2,0.2-0.3c0.1-0.1,0.1-0.2,0.2-0.2l0.1-0.1L26.6,26.1l6.3,0.4l6.9,3l0.1,0l0.1-0.1c0.7-1,1.6-1.6,2.3-1.6
	c0.3,0,0.5,0.1,0.7,0.3c0.5,0.5,0.3,1.5-0.5,2.4l-0.1,0.1l5.7,2.5l0.1,0l0.1-0.1c0.7-1,1.6-1.7,2.4-1.7c0.3,0,0.5,0.1,0.7,0.3
	c0.5,0.5,0.3,1.5-0.6,2.4l-0.1,0.1l5.2,2.3l0.1,0l0.1-0.1c6.6-6.7,12.6-10.7,16-10.7c0.9,0,1.6,0.3,2.1,0.8c0.5,0.5,0.8,1.2,0.8,2.1
	c0,3.5-4,9.5-10.7,16L64,44.8l2.3,5.3l0.1-0.1c0.9-0.9,1.9-1.1,2.4-0.6c0.2,0.2,0.3,0.5,0.3,0.8c-0.1,0.7-0.7,1.6-1.7,2.2l-0.1,0.1
	l2.5,5.8l0.1-0.1c0.9-0.8,1.8-1.1,2.4-0.5c0.2,0.2,0.3,0.5,0.3,0.8c-0.1,0.7-0.7,1.5-1.6,2.2L71,60.8l3.1,7l0.4,6.3L56.6,51.5z"/>
</svg>
