<?xml version="1.0" encoding="utf-8"?>
<!-- Generator: Adobe Illustrator 21.0.2, SVG Export Plug-In . SVG Version: 6.00 Build 0)  -->
<svg version="1.1" id="Layer_1" xmlns="http://www.w3.org/2000/svg" xmlns:xlink="http://www.w3.org/1999/xlink" x="0px" y="0px"
	 viewBox="0 0 100 100" style="enable-background:new 0 0 100 100;" xml:space="preserve">
<style type="text/css">
	.st0{fill:#2F6FB7;}
	.st1{fill:#306FB7;}
	.st2{fill:#C569A9;}
	.st3{fill:#316FB7;}
	.st4{fill:#326FB7;}
</style>
<g>
	<path class="st3" d="M49.3,43.2c-3.7,0-6.8,3.1-6.8,6.8c0,3.7,3.1,6.8,6.8,6.8c3.7,0,6.8-3.1,6.8-6.8S53.1,43.2,49.3,43.2z
		 M49.3,52.9c-1.6,0-2.9-1.3-2.9-2.9c0-1.6,1.3-2.9,2.9-2.9c1.6,0,2.9,1.3,2.9,2.9C52.2,51.6,51,52.9,49.3,52.9z"/>
	<path class="st3" d="M49.3,16L49.3,16c-18.8,0-34,15.3-34,34c0,18.8,15.2,34,34,34s34-15.2,34-34S68.1,16,49.3,16z M79.4,48.1
		l-13.8,4.8c0.2-0.9,0.3-1.9,0.3-2.9c0-2.2-0.4-4.3-1.2-6.2l13.6-2.2v0C78.9,43.7,79.2,45.8,79.4,48.1z M49.3,19.9
		c12.4,0,23,7.4,27.6,18l-14.3,2.3c-3-4.1-7.8-6.7-13.3-6.7s-10.2,2.6-13.2,6.7l-14.4-2.3C26.4,27.3,37,19.9,49.3,19.9z M62,50
		c0,7-5.6,12.6-12.6,12.6c-7,0-12.6-5.6-12.6-12.6s5.6-12.6,12.6-12.6C56.3,37.4,62,43,62,50z M20.4,41.6L20.4,41.6L34,43.8
		c-0.8,1.9-1.2,4-1.2,6.2c0,1,0.1,2,0.3,2.9l-13.8-4.8C19.4,45.9,19.8,43.7,20.4,41.6z M19.3,52.2l15.4,5.4c1.3,2.4,3.2,4.5,5.4,6
		l1.6,15.5C29.5,76,20.3,65.3,19.3,52.2z M51.9,80c-0.8,0.1-1.7,0.1-2.6,0.1c-1.2,0-2.4-0.1-3.6-0.2l-1.5-14.2v0
		c1.6,0.5,3.3,0.8,5,0.8c1.4,0,2.7-0.2,4-0.5L51.9,80z M79.4,52.2c-1,13.4-10.7,24.3-23.5,27.2l1.6-15c2.8-1.6,5.1-3.9,6.6-6.8
		L79.4,52.2L79.4,52.2z"/>
</g>
</svg>
