<?xml version="1.0" encoding="utf-8"?>
<!-- Generator: Adobe Illustrator 21.0.2, SVG Export Plug-In . SVG Version: 6.00 Build 0)  -->
<svg version="1.1" id="Layer_1" xmlns="http://www.w3.org/2000/svg" xmlns:xlink="http://www.w3.org/1999/xlink" x="0px" y="0px"
	 viewBox="0 0 100 100" style="enable-background:new 0 0 100 100;" xml:space="preserve">
<style type="text/css">
	.st0{fill:#2F6FB7;}
	.st1{fill:#306FB7;}
	.st2{fill:#C569A9;}
	.st3{fill:#316FB7;}
	.st4{fill:#326FB7;}
</style>
<g>
	<path class="st4" d="M74.5,13.5H26c-0.8,0-1.5,0.7-1.5,1.5v69.7c0,0.8,0.7,1.5,1.5,1.5h48.5c0.8,0,1.5-0.7,1.5-1.5V15
		C76,14.2,75.3,13.5,74.5,13.5z M53,83.2h-5.5V72.7H53V83.2z M73,83.2H56v-12c0-0.8-0.7-1.5-1.5-1.5H46c-0.8,0-1.5,0.7-1.5,1.5v12
		h-17V16.5H73V83.2z"/>
	<path class="st4" d="M38.9,33h8.5c0.8,0,1.5-0.7,1.5-1.5V23c0-0.8-0.7-1.5-1.5-1.5h-8.5c-0.8,0-1.5,0.7-1.5,1.5v8.5
		C37.4,32.3,38.1,33,38.9,33z M40.4,24.5h5.5V30h-5.5V24.5z"/>
	<path class="st4" d="M54.3,33h8.5c0.8,0,1.5-0.7,1.5-1.5V23c0-0.8-0.7-1.5-1.5-1.5h-8.5c-0.8,0-1.5,0.7-1.5,1.5v8.5
		C52.8,32.3,53.5,33,54.3,33z M55.8,24.5h5.5V30h-5.5V24.5z"/>
	<path class="st4" d="M38.9,48.5h8.5c0.8,0,1.5-0.7,1.5-1.5v-8.5c0-0.8-0.7-1.5-1.5-1.5h-8.5c-0.8,0-1.5,0.7-1.5,1.5V47
		C37.4,47.8,38.1,48.5,38.9,48.5z M40.4,40h5.5v5.5h-5.5V40z"/>
	<path class="st4" d="M54.3,48.5h8.5c0.8,0,1.5-0.7,1.5-1.5v-8.5c0-0.8-0.7-1.5-1.5-1.5h-8.5c-0.8,0-1.5,0.7-1.5,1.5V47
		C52.8,47.8,53.5,48.5,54.3,48.5z M55.8,40h5.5v5.5h-5.5V40z"/>
	<path class="st4" d="M38.9,64h8.5c0.8,0,1.5-0.7,1.5-1.5v-8.5c0-0.8-0.7-1.5-1.5-1.5h-8.5c-0.8,0-1.5,0.7-1.5,1.5v8.5
		C37.4,63.4,38.1,64,38.9,64z M40.4,55.6h5.5V61h-5.5V55.6z"/>
	<path class="st4" d="M54.3,64h8.5c0.8,0,1.5-0.7,1.5-1.5v-8.5c0-0.8-0.7-1.5-1.5-1.5h-8.5c-0.8,0-1.5,0.7-1.5,1.5v8.5
		C52.8,63.4,53.5,64,54.3,64z M55.8,55.6h5.5V61h-5.5V55.6z"/>
</g>
</svg>
