<?xml version="1.0" encoding="utf-8"?>
<!-- Generator: Adobe Illustrator 21.0.2, SVG Export Plug-In . SVG Version: 6.00 Build 0)  -->
<svg version="1.1" id="Layer_1" xmlns="http://www.w3.org/2000/svg" xmlns:xlink="http://www.w3.org/1999/xlink" x="0px" y="0px"
	 viewBox="0 0 100 100" style="enable-background:new 0 0 100 100;" xml:space="preserve">
<style type="text/css">
	.st0{fill:#2F6FB7;}
	.st1{fill:#306FB7;}
	.st2{fill:#C569A9;}
	.st3{fill:#316FB7;}
	.st4{fill:#326FB7;}
</style>
<g>
	<path class="st3" d="M79.4,23.5c-0.1-0.6-0.6-1-1.1-1.1c-1.8-0.4-3.6-0.5-5.5-0.5c-8.4,0-16.8,3.6-23.2,10
		c-3.1,3.1-5.6,6.7-7.3,10.7c-6.1-0.8-12.2,1.2-16.4,5.4c-1.7,1.7-3.1,3.8-4.1,6.1c-0.2,0.5-0.1,1.2,0.3,1.6c0.4,0.4,1,0.5,1.6,0.3
		c3.4-1.4,7.4-1.6,11.1-0.6c-4.1,4.3-6,10-5.1,15.4c0.1,0.6,0.6,1.1,1.2,1.2c0.9,0.1,1.8,0.2,2.7,0.2c4.6,0,9.2-1.9,12.7-5.3
		c1.1,3.7,0.9,7.6-0.6,11.1c-0.2,0.5-0.1,1.2,0.3,1.6c0.3,0.3,0.6,0.4,1,0.4c0.2,0,0.4,0,0.6-0.1c2.3-1,4.4-2.4,6.1-4.1
		c4.3-4.3,6.3-10.4,5.4-16.4c4-1.7,7.6-4.2,10.7-7.3C77.7,44.3,81.3,33.3,79.4,23.5z M44.5,64.5c-3.3,3.3-7.8,5.1-12.1,4.7
		c-0.4-4.3,1.3-8.7,4.7-12.1c0.2-0.2,0.3-0.4,0.4-0.7c0.8,0.4,1.5,0.8,2.2,1.3c0.1,1,0.2,1.8,0.4,2.7c0.1,0.6,0.6,1,1.1,1.1
		c0.8,0.2,1.7,0.3,2.7,0.4c0.5,0.7,0.9,1.4,1.3,2.2C44.9,64.2,44.7,64.4,44.5,64.5z M57,57.1c-0.7,0.3-1,1-0.9,1.7
		c1.1,5.5-0.5,11.1-4.4,15c-0.7,0.7-1.4,1.3-2.2,1.8c1.1-5.6-0.2-11.3-3.6-15.9c-0.3-0.3-0.6-0.5-1.1-0.6c-0.7,0-1.4-0.1-2-0.2
		c-0.1-0.6-0.2-1.3-0.2-2c0-0.4-0.2-0.8-0.6-1.1c-4.5-3.4-10.4-4.8-15.9-3.6c0.5-0.8,1.1-1.5,1.8-2.2c3.8-3.8,9.6-5.5,15-4.4
		c0.7,0.1,1.4-0.2,1.7-0.9c1.6-4.1,4-7.7,7.1-10.9C58.4,27,68,23.7,76.7,25c1.4,8.6-2,18.2-8.8,25C64.7,53.2,61.1,55.5,57,57.1z"/>
	<path class="st3" d="M59.1,32.9L59.1,32.9c-2.7,2.7-2.7,7,0,9.6c1.3,1.3,3,2,4.8,2c1.8,0,3.5-0.7,4.8-2c1.3-1.3,2-3,2-4.8
		c0-1.8-0.7-3.5-2-4.8C66.2,30.4,61.7,30.3,59.1,32.9z M66.7,40.5c-1.5,1.5-4,1.5-5.5,0c-1.5-1.5-1.5-4,0-5.5
		c0.7-0.7,1.7-1.1,2.8-1.1s2,0.4,2.7,1.1c0.7,0.7,1.1,1.7,1.1,2.7C67.8,38.8,67.4,39.7,66.7,40.5z"/>
</g>
</svg>
