
<svg  viewBox="56 368 67 76" version="1.1" xmlns="http://www.w3.org/2000/svg" xmlns:xlink="http://www.w3.org/1999/xlink">
    <!-- Generator: Sketch 42 (36781) - http://www.bohemiancoding.com/sketch -->
    <desc>Created with Sketch.</desc>
    <defs></defs>
    <g id="sailboat" stroke="none" stroke-width="1" fill="none" fill-rule="evenodd" transform="translate(57.000000, 368.000000)">
        <g id="Group" transform="translate(40.191728, 20.000000)" fill-rule="nonzero" fill="#316FB7">
            <path d="M16.6025982,35.0984531 L5.4444841,2.17283365 C5.0149403,0.905197303 3.9781292,0.102892561 2.85577983,0.102892561 C2.68099844,0.102892561 2.50425565,0.122699379 2.32675011,0.162184399 C1.01479997,0.46070144 0.0653795749,1.81721124 0.0653795749,3.3954545 L0.0653795749,36.3210739 C0.0653795749,38.1396999 1.31412946,39.6136359 2.85490811,39.6136359 L14.0130222,39.6136359 C14.9382522,39.6136359 15.8038778,39.0715207 16.3227736,38.1670951 C16.8415606,37.2627981 16.9467127,36.1125879 16.6025982,35.0984531 Z M2.85490811,37.6690512 L2.85490811,2.07237281 L14.6026275,37.6690512 L2.85490811,37.6690512 Z" id="Shape"></path>
        </g>
        <g id="Group" transform="translate(8.605666, 0.278100)" fill-rule="nonzero" fill="#316FB7">
            <path d="M23.0486408,0.122799977 C22.8210542,0.0404591944 22.5924876,0 22.3666433,0 C21.3593821,0 20.4068941,0.795750172 19.9125194,2.12821685 L0.398875435,54.7251696 C-0.0666425788,55.9794046 -0.04246831,57.495202 0.460182251,58.7184605 C0.962941706,59.9402966 1.87176354,60.6887917 2.85299929,60.6887917 L22.3666433,60.6887917 C23.9063917,60.6887917 25.1543067,58.8776105 25.1543067,56.6428722 L25.1543067,4.04591944 C25.1543067,2.19285673 24.2864287,0.575911346 23.0486408,0.122799977 Z M22.3666433,58.4761795 L2.34216604,58.4761795 L22.3666433,4.04591944 L22.3666433,58.4761795 Z" id="Shape"></path>
        </g>
        <g id="Group" transform="translate(0.143428, 63.825602)" fill-rule="nonzero" fill="#316FB7">
            <path d="M64.2787491,1.97602167 C63.8675851,0.802144182 62.6157241,0 61.1964031,0 L3.2207711,0 C1.80145013,0 0.549589153,0.80203552 0.138425165,1.97602167 C-0.272738822,3.14902986 0.253294419,4.41657414 1.43432145,5.09625605 L11.0969268,10.6597594 C11.6261054,10.9647742 12.2477582,11.1270068 12.8833764,11.1270068 L51.5337978,11.1270068 C52.169416,11.1270068 52.7910688,10.9647742 53.3202474,10.6596508 L62.9828528,5.09614738 C64.1638798,4.41646547 64.689913,3.14892119 64.2787491,1.97602167 Z M51.5337978,8.3452551 L12.8833764,8.3452551 L3.2207711,2.7817517 L61.1964031,2.7817517 L51.5337978,8.3452551 Z" id="Shape"></path>
        </g>
    </g>
</svg>