<?xml version="1.0" encoding="utf-8"?>
<!-- Generator: Adobe Illustrator 21.0.2, SVG Export Plug-In . SVG Version: 6.00 Build 0)  -->
<svg version="1.1" id="Layer_1" xmlns="http://www.w3.org/2000/svg" xmlns:xlink="http://www.w3.org/1999/xlink" x="0px" y="0px"
	 viewBox="0 0 100 100" style="enable-background:new 0 0 100 100;" xml:space="preserve">
<style type="text/css">
	.st0{fill:#2F6FB7;}
	.st1{fill:#306FB7;}
	.st2{fill:#C569A9;}
	.st3{fill:#316FB7;}
	.st4{fill:#326FB7;}
</style>
<path class="st3" d="M85.1,44.5c0-0.7-0.4-1.3-1-1.6l-0.2-0.1c-0.1,0-0.1-0.1-0.2-0.1L50.5,28.3c-0.4-0.2-1-0.2-1.4,0L15.6,42.9
	c-0.6,0.3-1,0.9-1,1.6c0,0.7,0.4,1.3,1,1.6l7.9,3.4v15.7c0,0.6,0.3,1.1,0.8,1.4c7.7,5.2,16.6,7.9,25.5,7.9s17.8-2.7,25.5-7.9
	c0.5-0.3,0.8-0.9,0.8-1.4V49.5l5.2-2.2v19c0,1,0.8,1.7,1.7,1.7s1.7-0.8,1.7-1.7V45.4C85,45.2,85.1,44.8,85.1,44.5z M78.9,44.5
	L49.8,57.2L20.7,44.5l29.1-12.7L78.9,44.5z M27,51l22.1,9.6c0.2,0.1,0.5,0.1,0.7,0.1c0.2,0,0.5,0,0.7-0.1L72.6,51v13.3
	c-14.1,9.1-31.5,9.1-45.6,0V51z"/>
</svg>
