<?xml version="1.0" encoding="utf-8"?>
<!-- Generator: Adobe Illustrator 21.0.2, SVG Export Plug-In . SVG Version: 6.00 Build 0)  -->
<svg version="1.1" id="Layer_1" xmlns="http://www.w3.org/2000/svg" xmlns:xlink="http://www.w3.org/1999/xlink" x="0px" y="0px"
	 viewBox="0 0 100 100" style="enable-background:new 0 0 100 100;" xml:space="preserve">
<style type="text/css">
	.st0{fill:#2F6FB7;}
	.st1{fill:#306FB7;}
	.st2{fill:#306FB7;stroke:#2F6FB7;stroke-width:0.25;stroke-miterlimit:10;}
	.st3{fill:#C569A9;}
	.st4{fill:#316FB7;}
	.st5{fill:none;}
	.st6{fill:none;stroke:#C569A9;stroke-width:0.5;}
	.st7{fill:#316FB7;stroke:#316FB7;stroke-width:0.25;stroke-miterlimit:10;}
	.st8{fill:#316FB7;stroke:#316FB7;stroke-width:0.25;}
	.st9{fill:none;stroke:#3070B7;stroke-width:3.25;stroke-linecap:round;}
	.st10{fill:none;stroke:#3070B7;stroke-width:3.25;}
	.st11{fill:#396FB7;}
	.st12{fill:none;stroke:#3070B7;stroke-width:3.6922;stroke-linecap:round;}
	.st13{fill:none;stroke:#3070B7;stroke-width:3.043;}
	.st14{fill:none;stroke:#396FB7;stroke-width:3.6922;stroke-linecap:round;stroke-linejoin:round;}
	.st15{fill:none;stroke:#3070B7;stroke-width:2.6786;}
	.st16{fill:none;stroke:#396FB7;stroke-width:3.25;stroke-linecap:round;stroke-linejoin:round;}
</style>
<g>
	<path class="st11" d="M88.1,64.1c0-20.6-16.6-37.4-37.1-37.4S14,43.4,14,64.1c0,0.5,0.2,1,0.6,1.4c0.3,0.3,0.8,0.5,1.3,0.5h5.7
		c1,0,1.8-0.8,1.8-1.8s-0.8-1.8-1.8-1.8h-3.9c0.4-7.6,3.3-14.5,7.8-19.9l2.8,2.8c0.4,0.4,0.8,0.5,1.3,0.5s0.9-0.2,1.3-0.5
		c0.7-0.7,0.7-1.9,0-2.6L28,39.7c5.6-5.4,13.1-8.9,21.4-9.3v4.4c0,1,0.8,1.8,1.8,1.8s1.8-0.8,1.8-1.8v-4.4c8.1,0.5,15.4,4,20.9,9.3
		l-2.8,2.8c-0.7,0.7-0.7,1.9,0,2.6c0.4,0.4,0.8,0.5,1.3,0.5s0.9-0.2,1.3-0.5l2.7-2.7c4.5,5.4,7.4,12.3,7.8,19.9h-3.8
		c-1,0-1.8,0.8-1.8,1.8s0.8,1.8,1.8,1.8h5.7c0.8,0,1.4-0.5,1.7-1.2C88,64.6,88.1,64.3,88.1,64.1z"/>
	<path class="st11" d="M58.6,44.7c-1-0.5-1.4-0.8-8.1,5.8c-1.9,1.8-6.3,6.2-7.3,8.1c-0.9,1.7-1.1,3.6-0.5,5.4
		c0.5,1.8,1.8,3.3,3.4,4.2c1,0.5,2.1,0.8,3.3,0.8c0.7,0,1.4-0.1,2.1-0.3c1.8-0.6,3.3-1.8,4.2-3.5c1-1.9,2.2-8,2.7-10.6
		C60.1,45.4,59.7,45.2,58.6,44.7z M53,63.8c-0.5,1-1.4,1.7-2.4,2c-1,0.3-2.1,0.2-3.1-0.3h0c-0.9-0.5-1.6-1.3-1.9-2.4
		c-0.3-1-0.2-2.1,0.3-3.1c0.9-1.7,6.8-7.6,10.2-10.7C55.5,53.9,53.9,62.1,53,63.8z"/>
</g>
</svg>
