<?xml version="1.0" encoding="utf-8"?>
<!-- Generator: Adobe Illustrator 21.0.2, SVG Export Plug-In . SVG Version: 6.00 Build 0)  -->
<svg version="1.1" id="Layer_1" xmlns="http://www.w3.org/2000/svg" xmlns:xlink="http://www.w3.org/1999/xlink" x="0px" y="0px"
	 viewBox="0 0 100 100" style="enable-background:new 0 0 100 100;" xml:space="preserve">
<style type="text/css">
	.st0{fill:#2F6FB7;}
	.st1{fill:#306FB7;}
	.st2{fill:#C569A9;}
	.st3{fill:#316FB7;}
	.st4{fill:#326FB7;}
</style>
<path class="st0" d="M73.2,30.7l1.8-1.8c0.6-0.6,0.6-1.7,0-2.3c-0.6-0.6-1.7-0.6-2.3,0l-1.8,1.8C63.5,21.7,54,18,44.1,18
	c-9.2,0-18.1,3.2-25.2,9c-0.1,0.1-0.1,0.1-0.1,0.2c0,0.1,0.1,0.2,0.1,0.2c1.7,0.7,3.2,1.8,4.5,3.1c3,3,4.6,7.2,4.2,11.5
	c0,0.1,0,0.1,0.1,0.2c0.1,0.1,0.1,0.1,0.2,0.1c0.4,0,0.8-0.1,1.2-0.1c3.9,0,7.5,1.5,10.3,4.3c2.4,2.4,3.9,5.7,4.2,9.2l-15,15
	c-0.9,0.9-2,1.4-3.3,1.4c-1.2,0-2.4-0.5-3.3-1.4c-0.9-0.9-1.4-2-1.4-3.3s0.5-2.4,1.4-3.3c0.3-0.3,0.5-0.7,0.5-1.2
	c0-0.4-0.2-0.9-0.5-1.2c-0.6-0.6-1.7-0.6-2.3,0c-1.5,1.5-2.3,3.5-2.3,5.6c0,2.1,0.8,4.1,2.3,5.6c1.5,1.5,3.5,2.3,5.6,2.3
	c2.1,0,4.1-0.8,5.6-2.3l14.8-14.8c3.7,0.2,7.1,1.6,9.7,4.2c3,3,4.6,7.2,4.2,11.5c0,0.1,0,0.1,0.1,0.2c0.1,0.1,0.1,0.1,0.2,0.1
	c0.4,0,0.8,0,1.2,0c3.9,0,7.5,1.5,10.3,4.3c1.3,1.3,2.3,2.8,3.1,4.5c0,0.1,0.1,0.1,0.2,0.1c0,0,0,0,0,0c0.1,0,0.1,0,0.2-0.1
	C87.4,67.6,86.7,45.2,73.2,30.7z M73.7,76c-3-2.9-6.7-4.7-10.8-5.1c-0.4-4.1-2.2-7.9-5.1-10.8c-2.9-2.9-6.7-4.7-10.8-5.1
	c-0.4-4.1-2.2-7.9-5.1-10.8C38.9,41.2,35,39.4,31,39c-0.4-4.1-2.2-7.9-5.1-10.8c-0.4-0.4-0.8-0.8-1.3-1.2c5.9-3.7,12.6-5.7,19.6-5.7
	c9.5,0,18.5,3.7,25.4,10.3c0.1,0.1,0.2,0.2,0.2,0.3c0.1,0.1,0.2,0.2,0.3,0.3c12.1,12.2,14.1,30.8,4.8,45.2
	C74.5,76.9,74.1,76.4,73.7,76z"/>
</svg>
