<?xml version="1.0" encoding="utf-8"?>
<!-- Generator: Adobe Illustrator 21.0.2, SVG Export Plug-In . SVG Version: 6.00 Build 0)  -->
<svg version="1.1" id="Layer_1" xmlns="http://www.w3.org/2000/svg" xmlns:xlink="http://www.w3.org/1999/xlink" x="0px" y="0px"
	 viewBox="0 0 100 100" style="enable-background:new 0 0 100 100;" xml:space="preserve">
<style type="text/css">
	.st0{fill:#2F6FB7;}
	.st1{fill:#306FB7;}
	.st2{fill:#C569A9;}
	.st3{fill:#316FB7;}
	.st4{fill:#326FB7;}
</style>
<g>
	<path class="st1" d="M86.8,51.2c-5.1-15.5-19.9-25.9-36.9-25.9c-17,0-31.9,10.4-36.9,25.9c-0.1,0.3-0.1,0.7,0,1
		C18,67.8,32.8,78.2,49.8,78.2s31.9-10.4,36.9-25.9C86.9,51.9,86.9,51.6,86.8,51.2z M49.8,74.9c-15.4,0-28.8-9.3-33.5-23.1
		c4.8-13.8,18.2-23.1,33.5-23.1c15.4,0,28.8,9.3,33.5,23.1C78.6,65.6,65.2,74.9,49.8,74.9z"/>
	<path class="st1" d="M49.8,35.2c-0.9,0-1.7,0.8-1.7,1.7c0,0.9,0.8,1.7,1.7,1.7c7.3,0,13.2,5.9,13.2,13.2c0,7.3-5.9,13.2-13.2,13.2
		c-7.3,0-13.2-5.9-13.2-13.2c0-0.9-0.8-1.7-1.7-1.7c-0.9,0-1.7,0.8-1.7,1.7c0,9.1,7.4,16.5,16.5,16.5c9.1,0,16.5-7.4,16.5-16.5
		C66.4,42.7,58.9,35.2,49.8,35.2z"/>
</g>
</svg>
