<?xml version="1.0" encoding="utf-8"?>
<!-- Generator: Adobe Illustrator 21.0.2, SVG Export Plug-In . SVG Version: 6.00 Build 0)  -->
<svg version="1.1" id="Layer_1" xmlns="http://www.w3.org/2000/svg" xmlns:xlink="http://www.w3.org/1999/xlink" x="0px" y="0px"
	 viewBox="0 0 100 100" style="enable-background:new 0 0 100 100;" xml:space="preserve">
<style type="text/css">
	.st0{fill:#2F6FB7;}
	.st1{fill:#306FB7;}
	.st2{fill:#C569A9;}
	.st3{fill:#316FB7;}
	.st4{fill:#326FB7;}
</style>
<path class="st3" d="M77.6,32.9H63.1v-5.6c0-2.6-2.1-4.8-4.8-4.8H42c-2.6,0-4.8,2.1-4.8,4.8v5.6H22.6c-2.6,0-4.8,2.1-4.8,4.8V76
	c0,2.6,2.1,4.8,4.8,4.8h55c2.6,0,4.8-2.1,4.8-4.8V37.7C82.4,35,80.2,32.9,77.6,32.9z M59.7,32.9H40.5v-5.6c0-0.8,0.7-1.5,1.5-1.5
	h16.3c0.8,0,1.5,0.7,1.5,1.5V32.9z M21.2,54.6H44c0.2,0,0.4,0,0.5-0.1v6.2c0,0.9,0.7,1.7,1.7,1.7H54c0.9,0,1.7-0.7,1.7-1.7v-6.1
	h22.9c0.2,0,0.3,0,0.5-0.1V76c0,0.8-0.7,1.5-1.5,1.5h-55c-0.8,0-1.5-0.7-1.5-1.5V54.6z M79.1,51.4c-0.2,0-0.3-0.1-0.5-0.1H55.7v-2.2
	c0-0.9-0.7-1.7-1.7-1.7h-7.8c-0.9,0-1.7,0.7-1.7,1.7v2.3c-0.2-0.1-0.4-0.1-0.5-0.1H21.2V37.7c0-0.8,0.7-1.5,1.5-1.5h55
	c0.8,0,1.5,0.7,1.5,1.5V51.4z M52.4,50.7v8.4h-4.5v-8.4H52.4z"/>
</svg>
