<?xml version="1.0" encoding="UTF-8"?>
<svg width="74px" height="36px" viewBox="0 0 74 36" version="1.1" xmlns="http://www.w3.org/2000/svg" xmlns:xlink="http://www.w3.org/1999/xlink">
    <title>Group 52</title>
    <g id="Symbols" stroke="none" stroke-width="1" fill="none" fill-rule="evenodd">
        <g id="Icons/Auto" transform="translate(0.000000, -17.000000)">
            <g id="Group-52" transform="translate(0.000000, 17.000000)">
                <path d="M33.1428571,22.6479855 C35.6675874,22.6479855 37.7142857,24.6946838 37.7142857,27.2194141 C37.7142857,29.7441443 35.6675874,31.7908426 33.1428571,31.7908426 C30.6181269,31.7908426 28.5714286,29.7441443 28.5714286,27.2194141 C28.5714286,24.6946838 30.6181269,22.6479855 33.1428571,22.6479855 Z M60.5714286,22.6479855 C63.0961589,22.6479855 65.1428571,24.6946838 65.1428571,27.2194141 C65.1428571,29.7441443 63.0961589,31.7908426 60.5714286,31.7908426 C58.0466983,31.7908426 56,29.7441443 56,27.2194141 C56,24.6946838 58.0466983,22.6479855 60.5714286,22.6479855 Z M40,2.07655691 C46.8571429,2.07655691 52.1904762,3.60036644 56,6.64798548 L62.8571429,11.2194141 L70.8571429,11.2194141 L68.5714286,13.5051283 L37.7142857,13.5051283 C31.0226872,14.6469219 26.4512587,15.7897791 24,16.9336998 C21.5487413,18.0776205 20.4058842,19.60143 20.5714286,21.5051283 L17.1428571,23.7908426 L1.14285714,23.7908426 C5.71428571,16.9336998 9.14285714,13.5051283 11.4285714,13.5051283 L21.7142857,13.5051283 L21.7142857,12.3622712 C27.047619,5.50512834 33.1428571,2.07655691 40,2.07655691 Z M13.7142857,6.64798548 L13.7142857,7.79084263 L5.71428571,7.79084263 L5.71428571,6.64798548 L13.7142857,6.64798548 Z M70.8571429,3.21941405 L70.8571429,4.3622712 L62.8571429,4.3622712 L62.8571429,3.21941405 L70.8571429,3.21941405 Z" id="Combined-Shape" fill="#D3EDFF"></path>
                <path d="M31.4285714,20.3622712 C27.3258847,20.3622712 24,23.6881559 24,27.7908426 C24,31.8935293 27.3258847,35.2194141 31.4285714,35.2194141 C35.5312581,35.2194141 38.8571429,31.8935293 38.8571429,27.7908426 C38.8571429,23.6881559 35.5312581,20.3622712 31.4285714,20.3622712 Z M31.4285714,22.6479855 C34.268893,22.6479855 36.5714286,24.9505211 36.5714286,27.7908426 C36.5714286,30.6311642 34.268893,32.9336998 31.4285714,32.9336998 C28.5882499,32.9336998 26.2857143,30.6311642 26.2857143,27.7908426 C26.2857143,24.9505211 28.5882499,22.6479855 31.4285714,22.6479855 Z" id="Oval" fill="#16325C" fill-rule="nonzero"></path>
                <path d="M12.4898075,30.0577868 C13.1782524,31.78031 14.8501158,32.9336998 16.7368174,32.9336998 C18.4859729,32.9336998 20.0534594,31.9426187 20.8216967,30.4174234 L20.9214443,30.2061745 L23.0124803,31.1292445 C21.9241921,33.5945502 19.4790027,35.2194141 16.7368174,35.2194141 C14.0016546,35.2194141 11.5674035,33.6029642 10.4754637,31.1615507 L10.3673354,30.9060803 L12.4898075,30.0577868 Z" id="Path" fill="#16325C" fill-rule="nonzero"></path>
                <path d="M43.3469504,30.0577868 C44.0353953,31.78031 45.7072587,32.9336998 47.5939603,32.9336998 C49.3431158,32.9336998 50.9106023,31.9426187 51.6788395,30.4174234 L51.7785871,30.2061745 L53.8696231,31.1292445 C52.781335,33.5945502 50.3361456,35.2194141 47.5939603,35.2194141 C44.8587975,35.2194141 42.4245464,33.6029642 41.3326065,31.1615507 L41.2244782,30.9060803 L43.3469504,30.0577868 Z" id="Path" fill="#16325C" fill-rule="nonzero"></path>
                <path d="M58.8571429,20.3622712 C54.7544561,20.3622712 51.4285714,23.6881559 51.4285714,27.7908426 C51.4285714,31.8935293 54.7544561,35.2194141 58.8571429,35.2194141 C62.9598296,35.2194141 66.2857143,31.8935293 66.2857143,27.7908426 C66.2857143,23.6881559 62.9598296,20.3622712 58.8571429,20.3622712 Z M58.8571429,22.6479855 C61.6974644,22.6479855 64,24.9505211 64,27.7908426 C64,30.6311642 61.6974644,32.9336998 58.8571429,32.9336998 C56.0168213,32.9336998 53.7142857,30.6311642 53.7142857,27.7908426 C53.7142857,24.9505211 56.0168213,22.6479855 58.8571429,22.6479855 Z" id="Oval" fill="#16325C" fill-rule="nonzero"></path>
                <rect id="Rectangle" fill="#16325C" x="2.28571429" y="28.3622712" width="24" height="2.28571429" rx="1"></rect>
                <rect id="Rectangle" fill="#16325C" x="37.7142857" y="28.3622712" width="16" height="2.28571429"></rect>
                <path d="M70.8571429,16.9336998 C71.443241,16.9336998 71.9262939,17.3748886 71.9923112,17.9432756 L72,18.0765569 L72,25.5807745 L65.7308523,29.3422631 C65.1896177,29.6670039 64.487606,29.4915009 64.1628652,28.9502663 C63.8613202,28.4476914 63.9911078,27.8064871 64.4445301,27.4574451 L64.554862,27.3822793 L69.7142857,24.2857143 L69.7142857,18.0765569 C69.7142857,17.4904588 70.1554745,17.0074059 70.7238616,16.9413886 L70.8571429,16.9336998 Z" id="Path-21" fill="#16325C" fill-rule="nonzero"></path>
                <rect id="Rectangle" fill="#16325C" x="0" y="34.0765569" width="5.71428571" height="1.14285714"></rect>
                <rect id="Rectangle" fill="#16325C" x="66.2857143" y="34.0765569" width="5.71428571" height="1.14285714"></rect>
                <rect id="Rectangle" fill="#16325C" x="8" y="34.0765569" width="56" height="1.14285714"></rect>
                <path d="M42,5.42857143 C42.6311826,5.42857143 43.1428571,5.940246 43.1428571,6.57142857 L43.1428571,13.4285714 C43.1428571,14.059754 42.6311826,14.5714286 42,14.5714286 C41.3688174,14.5714286 40.8571429,14.059754 40.8571429,13.4285714 L40.8571429,6.57142857 C40.8571429,5.940246 41.3688174,5.42857143 42,5.42857143 Z" id="Rectangle" fill="#16325C" transform="translate(42.000000, 10.000000) rotate(-330.000000) translate(-42.000000, -10.000000) "></path>
                <rect id="Rectangle" fill="#16325C" x="40" y="18.0765569" width="4.57142857" height="2.28571429"></rect>
                <path d="M52.5714286,12.3622712 C53.2026111,12.3622712 53.7142857,12.8739458 53.7142857,13.5051283 C53.7142857,14.0912264 53.2730969,14.5742794 52.7047099,14.6402966 L52.5714286,14.6479855 L12.5714286,14.6479855 C9.65371236,14.6479855 6.54924472,17.1502347 3.34710207,22.293198 L3.12914286,22.6468571 L16.7965714,22.6468571 L19.9374855,20.5542137 C20.4251486,20.229105 21.0718004,20.3282467 21.4420145,20.7645535 L21.5223432,20.8711853 C21.8474519,21.3588484 21.7483102,22.0055002 21.3120034,22.3757143 L21.2053717,22.456043 L17.7768002,24.7417572 C17.6266128,24.8418822 17.4554039,24.9046504 17.2774061,24.9257527 L17.1428571,24.9336998 L1.14285714,24.9336998 C0.271446528,24.9336998 -0.279374149,23.9975721 0.143820256,23.2358221 C4.04964289,16.2053414 8.06038214,12.5208837 12.294943,12.3672809 L12.5714286,12.3622712 L52.5714286,12.3622712 Z" id="Path-13" fill="#16325C" fill-rule="nonzero"></path>
                <path d="M40,0.933699769 C47.7206263,0.933699769 55.4072556,3.96705306 63.0426256,9.99298193 L63.2571429,10.1634286 L73.3599568,10.164469 L67.950433,16.4062272 L58.2857143,16.4062272 C55.7298765,16.4062272 54.2846786,17.4067488 53.6693876,19.5366022 C53.4942094,20.1429883 52.8606264,20.4925513 52.2542404,20.3173731 C51.6478543,20.1421949 51.2982913,19.5086119 51.4734695,18.9022259 C52.3535968,15.8556312 54.5999653,14.2242882 57.9573467,14.1253045 L58.2857143,14.120513 L66.9062857,14.12 L68.3542857,12.4491429 L62.453249,12.4501833 L62.1390433,12.1964018 C54.7114356,6.19718018 47.3379195,3.21941405 40,3.21941405 C32.9299435,3.21941405 27.2787499,6.39474143 22.9471978,12.8334379 L22.8571429,12.968 L22.8571429,13.5051283 C22.8571429,14.0912264 22.4159541,14.5742794 21.847567,14.6402966 L21.7142857,14.6479855 C21.1281876,14.6479855 20.6451347,14.2067967 20.5791174,13.6384096 L20.5714286,13.5051283 L20.5714286,12.2872188 L20.7560644,12.0031636 C25.5325127,4.65478166 31.982388,0.933699769 40,0.933699769 Z" id="Path-20" fill="#16325C" fill-rule="nonzero"></path>
            </g>
        </g>
    </g>
</svg>