<?xml version="1.0" encoding="UTF-8"?>
<svg width="1442px" height="324px" viewBox="0 0 1442 324" version="1.1" xmlns="http://www.w3.org/2000/svg" xmlns:xlink="http://www.w3.org/1999/xlink">
    <title>secondary menu</title>
    <defs>
        <rect id="path-1" x="0" y="0.8778957" width="1440" height="320"></rect>
        <linearGradient x1="-1.11022302e-14%" y1="50%" x2="100%" y2="50%" id="linearGradient-3">
            <stop stop-color="#F2F9FE" stop-opacity="0.268465909" offset="0%"></stop>
            <stop stop-color="#E1F0FC" offset="100%"></stop>
        </linearGradient>
        <linearGradient x1="23.0194195%" y1="50%" x2="100%" y2="50%" id="linearGradient-4">
            <stop stop-color="#F2F9FE" stop-opacity="0" offset="0%"></stop>
            <stop stop-color="#E1F0FC" offset="100%"></stop>
        </linearGradient>
    </defs>
    <g id="Policy-Holder-Screens-⚡️" stroke="none" stroke-width="1" fill="none" fill-rule="evenodd">
        <g id="-Multiline-Details-(Master)" transform="translate(1.000000, 1.000000)">
            <g id="Path-8" transform="translate(0.000000, 0.122104)">
                <mask id="mask-2" fill="white">
                    <use xlink:href="#path-1"></use>
                </mask>
                <use id="Mask" fill="#0070D2" xlink:href="#path-1"></use>
                <g id="Group-26" mask="url(#mask-2)">
                    <g transform="translate(235.000000, 111.877896)">
                        <polyline id="Path-40" fill="url(#linearGradient-3)" style="mix-blend-mode: overlay;" opacity="0.320289249" points="495 167 577 77 638 113 794 0 1029 169"></polyline>
                        <path d="M1131.81944,120 C1152.18553,120 1169.63223,132.445891 1176.90676,150.1159 C1177.72003,150.053567 1178.54055,150.02381 1179.36806,150.02381 C1192.32077,150.02381 1203.56328,157.314758 1209.18206,167.999869 L1213,168 L1213,229 L0,229 L0,168 L1049.81794,167.999869 C1055.43672,157.314758 1066.67923,150.02381 1079.63194,150.02381 C1081.98195,150.02381 1084.27565,150.263802 1086.48969,150.720517 C1093.60928,132.731254 1111.22121,120 1131.81944,120 Z" id="Combined-Shape" fill="url(#linearGradient-4)" style="mix-blend-mode: overlay;" opacity="0.320289249"></path>
                        <g id="Group-85" stroke-width="1" fill="none" transform="translate(698.000000, 104.000000)">
                            <rect id="Rectangle" fill="#16325C" x="141" y="52" width="35" height="32" rx="14"></rect>
                            <path d="M47,0 C48.1111111,0 50.7777778,1.33333333 55,4 L124.887826,4 C133.941807,4 142.643518,7.50857336 149.165285,13.7887925 L164.560261,28.6139407 C165.372332,29.2779987 166.123765,30.0258381 166.800767,30.8509342 L184.071375,51.8994877 C188.448404,57.2339921 187.672217,65.1067455 182.337712,69.4837746 C181.737489,69.9762655 181.09293,70.411521 180.412497,70.7840521 L180,71 L8,71 L1.09565595,62.3695699 C0.38640376,61.4830047 5.79195052e-12,60.3814522 5.79802872e-12,59.2460947 L5.79802872e-12,30 C5.7978589e-12,28.6133153 0.564496445,27.3584759 1.47622792,26.452743 L13.2266492,12.9393534 C18.1646774,7.26062096 25.3209609,4 32.8463928,4 L44,4 C44.8888889,1.33333333 45.8888889,0 47,0 Z" id="Combined-Shape" fill="#E8F1FF"></path>
                            <path d="M176.008,42.072 L182.042071,49.4274926 C171.272998,51.7348052 165.258974,52.2589744 164,51 C162.666667,49.6666667 163,48.6666667 165,48 L176.008,42.072 Z" id="Combined-Shape" stroke="#16325C" fill="#FFFFFF"></path>
                            <path d="M3.817,23.76 L9,27 C9,27.6666667 7.66666667,29.3333333 5,32 C3.53475233,33.4652477 1.86822803,34.1253888 0.000427104164,33.9804234 L0,30 C-1.69819895e-16,28.6133153 0.564496445,27.3584759 1.47622792,26.452743 L3.817,23.76 Z" id="Combined-Shape" fill="#D5EFFF"></path>
                            <path d="M149.161676,13.7708427 L164.858103,28.8635983 C165.273024,29.2200691 165.671044,29.5990346 166.050217,29.999574 L96,30 C92.3675326,28.7226625 89.3675326,26.7226625 87,24 C84.8150126,21.4872645 81.5235036,16.4670092 77.1254729,8.93923428 C77.102452,8.89987062 77.0807362,8.85975848 77.0603428,8.81897163 C76.5413844,7.78105494 76.9620833,6.51895835 78,6 L78,6 L136.561138,5.99870328 C141.22564,7.64659081 145.53075,10.2795675 149.161676,13.7708427 Z" id="Combined-Shape" fill="#4FB7FF"></path>
                            <path d="M95,51 C106.045695,51 115,59.954305 115,71 L115,71 L107.490155,71.0007148 C107.488552,71.0414042 107.486754,71.0820435 107.484763,71.122632 L83.2183868,71.1229443 C85.8053567,76.9365048 91.0839802,81.287807 97.4715341,82.5941276 L97.863981,82.6702883 L97.863981,82.6702883 C96.9449767,82.8858813 95.9858153,83 95,83 C88.2641302,83 82.7726498,77.672136 82.5098446,71.0006937 L75,71 C75,59.954305 83.954305,51 95,51 Z M119.781613,71.1229443 C116.667631,78.1208325 109.653611,83 101.5,83 C100.258316,83 99.0430595,82.8868464 97.863981,82.6702883 C103.192919,81.4207154 107.208083,76.7629732 107.484763,71.122632 L119.781613,71.1229443 Z" id="Combined-Shape" fill="#16325C"></path>
                            <path d="M30,51 C41.045695,51 50,59.954305 50,71 L50,71 L42.4901546,71.0007148 C42.4885517,71.0414042 42.4867543,71.0820435 42.4847633,71.122632 L18.2183868,71.1229443 C20.8053567,76.9365048 26.0839802,81.287807 32.4715341,82.5941276 L32.863981,82.6702883 L32.863981,82.6702883 C31.9449767,82.8858813 30.9858153,83 30,83 C23.2641302,83 17.7726498,77.672136 17.5098446,71.0006937 L10,71 C10,59.954305 18.954305,51 30,51 Z M54.7816132,71.1229443 C51.6676307,78.1208325 44.6536107,83 36.5,83 C35.2583155,83 34.0430595,82.8868464 32.863981,82.6702883 C38.1929188,81.4207154 42.2080835,76.7629732 42.4847633,71.122632 L54.7816132,71.1229443 Z" id="Combined-Shape" fill="#16325C"></path>
                            <circle id="Oval" fill="#78C0FF" cx="31.5" cy="70.5" r="12.5"></circle>
                            <circle id="Oval" fill="#FFFFFF" cx="31.5" cy="70.5" r="6.5"></circle>
                            <circle id="Oval" stroke="#16325C" cx="31.5" cy="70.5" r="2.5"></circle>
                            <circle id="Oval" fill="#78C0FF" cx="95" cy="71" r="13"></circle>
                            <circle id="Oval" fill="#FFFFFF" cx="95" cy="71" r="6"></circle>
                            <circle id="Oval" stroke="#16325C" cx="95" cy="71" r="2"></circle>
                            <path d="M12.0750112,33.3342919 C6.85809784,43.0821225 7.59416087,41.9980091 14.0073669,52.0870771" id="Path-31" stroke="#082751"></path>
                            <path d="M45.8447344,33.0236805 C41.6245046,46.0191532 41.9373142,39.863289 43.5361195,51.3704217" id="Path-32" stroke="#082751"></path>
                            <path d="M51.2649342,62.7730828 C68.7072337,63.2367075 72.424243,62.2033259 73,62 C73.285593,61.8991441 75,57 79,54 C83,51 86,51 85.8485688,35.9079295" id="Path-33" stroke="#082751"></path>
                            <path d="M15,37 L24.7984379,37 C25.4186798,37 25.9214852,37.5028054 25.9214852,38.1230474 C25.9214852,38.4642109 25.7664039,38.7868768 25.5,39 L23.547828,40.5617376 C23.1932019,40.8454385 22.7525809,41 22.2984379,41 L15,41 C13.8954305,41 13,40.1045695 13,39 C13,37.8954305 13.8954305,37 15,37 Z" id="Rectangle" stroke="#082751"></path>
                            <path d="M52,37 L61.7984379,37 C62.4186798,37 62.9214852,37.5028054 62.9214852,38.1230474 C62.9214852,38.4642109 62.7664039,38.7868768 62.5,39 L60.547828,40.5617376 C60.1932019,40.8454385 59.7525809,41 59.2984379,41 L52,41 C50.8954305,41 50,40.1045695 50,39 C50,37.8954305 50.8954305,37 52,37 Z" id="Rectangle" stroke="#082751"></path>
                            <path d="M46,10.3399431 L46,25 C46,27.209139 44.209139,29 42,29 L18.4737306,29 C18.1392728,28.9999884 17.8061354,28.9580406 17.4821178,28.8751272 C14.9559787,28.2287092 13.4619394,27.2703335 13,26 C12.5614128,24.7938852 12.7774312,22.548158 13.6480551,19.2628184 L13.6480519,19.2628176 C13.8646821,18.4453537 14.3348249,17.7175811 14.9909517,17.184033 C20.0203204,13.0942598 24.3566698,10.3662488 28,9 C31.1446394,7.82076021 35.6811683,6.94044052 41.6095865,6.35904092 C43.8081811,6.14341817 45.7652861,7.7509404 45.9809022,9.94953567 C45.9936265,10.0792825 46,10.2095739 46,10.3399431 Z" id="Path-34" fill="#4FB7FF"></path>
                            <path d="M67.3226316,6.08386842 C68.3647812,6.03176094 69.3591459,6.52490559 69.9483662,7.38607369 L69.9483662,7.38607369 L79.9464554,21.9991141 L78,22 L78,21 C78,19.3431458 76.6568542,18 75,18 L75,18 L66,18 C64.3431458,18 63,19.3431458 63,21 L63,21 L63,23 C63,24.6568542 64.3431458,26 66,26 L66,26 L81.5537034,25.999424 C81.5184602,26.1643227 81.4690628,26.3273431 81.4053155,26.4867112 L81.4053155,26.4867112 L80.7817139,28.0457153 C80.3125498,29.2186254 79.158901,29.9719634 77.8963393,29.929878 L77.8963393,29.929878 L52.7710637,29.0923688 C51.2065986,29.04022 49.9451808,27.7939765 49.8741026,26.2302571 L49.8741026,26.2302571 L49.1356066,9.98334503 C49.0606139,8.33350501 50.3332164,6.93333918 51.9826994,6.85086503 L51.9826994,6.85086503 Z" id="Combined-Shape" fill="#4FB7FF"></path>
                            <path d="M115,63 L115,62 L130,62 L137,57 L171,57 L175.167,62 L185,62 L185,63 L115,63 Z" id="Combined-Shape" fill="#16325C"></path>
                            <rect id="Rectangle" stroke="#16325C" fill="#D5EFFF" x="145" y="60" width="17" height="7" rx="1"></rect>
                            <ellipse id="Oval" stroke="#082751" cx="153" cy="52.5" rx="5" ry="3.5"></ellipse>
                            <path d="M138,47.875 C128.403989,42.625 121.022442,40 115.85536,40 C108.104735,40 109.211967,46.75 112.533663,47.875 C114.748128,48.625 123.236906,49 138,49" id="Path-37" stroke="#16325C" fill="#FFFFFF"></path>
                            <g id="Group-84" transform="translate(33.207107, 20.742641) rotate(-225.000000) translate(-33.207107, -20.742641) translate(32.207107, 13.742641)" fill="#FFFFFF">
                                <rect id="Rectangle" x="0.828427125" y="4.53553391" width="1" height="9"></rect>
                                <rect id="Rectangle" x="0.828427125" y="0.535533906" width="1" height="3"></rect>
                            </g>
                            <g id="Group-84" transform="translate(56.656854, 16.571068) rotate(-225.000000) translate(-56.656854, -16.571068) translate(55.656854, 9.571068)" fill="#FFFFFF">
                                <rect id="Rectangle" x="0.828427125" y="4.53553391" width="1" height="9"></rect>
                                <rect id="Rectangle" x="0.828427125" y="0.535533906" width="1" height="3"></rect>
                            </g>
                            <g id="Group-84" transform="translate(105.656854, 18.571068) rotate(-225.000000) translate(-105.656854, -18.571068) translate(104.656854, 4.571068)" fill="#FFFFFF">
                                <rect id="Rectangle" x="0.914213562" y="9.05025253" width="1" height="18"></rect>
                                <rect id="Rectangle" x="0.914213562" y="0.908116908" width="1" height="6"></rect>
                            </g>
                            <g id="Group-84" transform="translate(36.414214, 18.414214) scale(-1, -1) rotate(-225.000000) translate(-36.414214, -18.414214) translate(35.414214, 13.414214)" fill="#FFFFFF">
                                <rect id="Rectangle" x="0.828427125" y="4.53553391" width="1" height="5"></rect>
                                <rect id="Rectangle" x="0.828427125" y="0.535533906" width="1" height="3"></rect>
                            </g>
                            <g id="Group-84" transform="translate(59.863961, 14.242641) scale(-1, -1) rotate(-225.000000) translate(-59.863961, -14.242641) translate(58.863961, 9.242641)" fill="#FFFFFF">
                                <rect id="Rectangle" x="0.828427125" y="4.53553391" width="1" height="5"></rect>
                                <rect id="Rectangle" x="0.828427125" y="0.535533906" width="1" height="3"></rect>
                            </g>
                            <g id="Group-84" transform="translate(106.035534, 13.414214) scale(-1, -1) rotate(-225.000000) translate(-106.035534, -13.414214) translate(105.035534, 5.414214)" fill="#FFFFFF">
                                <rect id="Rectangle" x="0.767766953" y="6.71751442" width="1" height="9"></rect>
                                <rect id="Rectangle" x="0.767766953" y="0.232233047" width="1" height="5"></rect>
                            </g>
                        </g>
                        <path d="M1027.98557,97.0005248 C1027.72702,92.5385877 1024.02675,89 1019.5,89 C1017.17017,89 1015.05927,89.937359 1013.52385,91.4555232 C1014.2821,93.1769662 1014.77051,95.0427598 1014.93665,97.0004137 L1012.92838,97.0003213 C1012.17408,89.1435664 1005.55449,83 997.5,83 C991.832524,83 986.875487,86.0417495 984.172347,90.5817895 C985.641405,92.3740542 986.62162,94.5808931 986.910925,97.0000036 L984.893648,96.9998657 C984.660036,95.3668132 984.050658,93.8549812 983.155911,92.5547675 L982.936166,92.2474015 L982.862878,92.1498664 L982.862878,92.1498664 L982.83,92.108 L982.719,91.966 L982.713,91.958 L982.671047,91.9052858 L982.671047,91.9052858 L982.687,91.926 L982.632,91.858 L982.629527,91.8541404 L982.615,91.838 L982.616,91.838 L982.613,91.835 L982.599,91.818 L982.36799,91.5467969 L982.36799,91.5467969 L982.324,91.498 L982.302,91.474 L982.285,91.455 L982.096,91.252 L982.171,91.331 L982.09,91.245 L982.083,91.238 L982.073442,91.2272268 L982.073442,91.2272268 L982.065,91.219 L982.041,91.194 L981.906569,91.0573705 C981.850309,91.0013805 981.793416,90.9460234 981.735903,90.8913116 L981.704447,90.8615095 C979.824199,89.0874589 977.289094,88 974.5,88 C969.210339,88 964.834255,91.91149 964.106352,96.9998657 L963,97 L953,97 L953,95 L962.496674,94.9998002 C964.01042,89.7998621 968.811457,86 974.5,86 C977.655637,86 980.538161,87.1693374 982.737904,89.0983457 C985.844807,84.2290756 991.295308,81 997.5,81 C1003.9187,81 1009.53028,84.4556624 1012.5758,89.6080363 C1014.42307,87.9842222 1016.8466,87 1019.5,87 C1024.43747,87 1028.57897,90.4079705 1029.70055,94.9999623 L1049,95 L1049,97 L1027.98557,97.0005248 Z" id="Combined-Shape" fill-opacity="0.974595717" fill="#006ECF" transform="translate(1001.000000, 89.000262) scale(-1, 1) translate(-1001.000000, -89.000262) "></path>
                        <path d="M502,131 L502,129 L511.496674,128.9998 C513.01042,123.799862 517.811457,120 523.5,120 C526.655637,120 529.538161,121.169337 531.737904,123.098346 C534.844807,118.229076 540.295308,115 546.5,115 C555.659836,115 563.175996,122.037415 563.936649,131.000414 L561.928382,131.000321 C561.17408,123.143566 554.554494,117 546.5,117 C540.832524,117 535.875487,120.04175 533.172347,124.581789 C534.641405,126.374054 535.62162,128.580893 535.910925,131.000004 L533.893648,130.999866 C533.660036,129.366813 533.050658,127.854981 532.155911,126.554767 L531.936166,126.247402 L531.862878,126.149866 L531.862878,126.149866 L531.719,125.966 L531.713,125.958 L531.671047,125.905286 L531.671047,125.905286 L531.695,125.936 L531.629527,125.85414 L531.629527,125.85414 L531.613,125.835 L531.412,125.598 L531.336,125.511 L531.330107,125.504175 L531.324,125.498 L531.228152,125.391784 L531.228152,125.391784 L531.171,125.331 L531.302,125.474 L531.083,125.238 L531.073442,125.227227 L531.073442,125.227227 L531.065,125.219 L531.041,125.194 L530.906569,125.057371 C530.850309,125.00138 530.793416,124.946023 530.735903,124.891312 L530.704447,124.86151 C528.824199,123.087459 526.289094,122 523.5,122 C518.210339,122 513.834255,125.91149 513.106352,130.999866 L512,131 L502,131 Z" id="Combined-Shape" fill-opacity="0.974595717" fill="#006ECF" opacity="0.132765997"></path>
                    </g>
                </g>
            </g>
        </g>
    </g>
</svg>