<?xml version="1.0" encoding="UTF-8"?>
<svg width="377px" height="430px" viewBox="0 0 377 430" version="1.1" xmlns="http://www.w3.org/2000/svg" xmlns:xlink="http://www.w3.org/1999/xlink">
    <title>Group 4</title>
    <defs>
        <rect id="path-1" x="0.142857143" y="0" width="375" height="430"></rect>
        <linearGradient x1="-1.11022302e-14%" y1="50%" x2="100%" y2="50%" id="linearGradient-3">
            <stop stop-color="#F2F9FE" stop-opacity="0.268465909" offset="0%"></stop>
            <stop stop-color="#E1F0FC" offset="100%"></stop>
        </linearGradient>
    </defs>
    <g id="Policy-Holder-Screens-⚡️" stroke="none" stroke-width="1" fill="none" fill-rule="evenodd">
        <g id="M----Multiline-Details" transform="translate(1.000000, -66.000000)">
            <g id="Group-4" transform="translate(-1.000000, 66.000000)">
                <g id="1dkwwn1dr-s-danielle-macinnes" transform="translate(0.857143, 0.000000)">
                    <mask id="mask-2" fill="white">
                        <use xlink:href="#path-1"></use>
                    </mask>
                    <use id="Mask" fill="#0070D2" xlink:href="#path-1"></use>
                    <g id="/Hero/Illustration/Policy-Details" mask="url(#mask-2)">
                        <g transform="translate(-210.857143, 254.000000)" id="Group-26">
                            <path d="M547.396828,25.3608654 C560.543224,25.3608654 571.805147,33.3888937 576.500886,44.7866571 C577.025857,44.7464506 577.555508,44.7272558 578.089665,44.7272558 C586.450569,44.7272558 593.707562,49.4300206 597.334564,56.3221075 L794,56.3225172 L794,176.322517 L0,176.322517 L0,56.3225172 L494.464668,56.3221075 C498.091671,49.4300206 505.348663,44.7272558 513.709568,44.7272558 C515.226504,44.7272558 516.707102,44.8820595 518.136275,45.1766558 C522.732001,33.5729622 534.100574,25.3608654 547.396828,25.3608654 Z" id="Combined-Shape" fill="url(#linearGradient-3)" style="mix-blend-mode: overlay;" opacity="0.320289249"></path>
                            <path d="M308.313596,55.6774828 L314.123136,55.6774828 L315.414145,53.7423795 L316.705154,55.6774828 L317.996162,53.7423795 L319.287171,55.6774828 L381.255592,55.6774828 M393.520175,55.6774828 L397.393202,55.6774828 L399.329715,54.387414 L401.266228,55.6774828 L403.202741,54.387414 L405.139254,55.6774828 L445.160526,55.6774828 M449.033553,55.6774828 L456.134101,55.6774828 L458.716118,53.7423795 L461.298136,55.6774828 L463.234649,53.7423795 L465.171162,55.6774828 L531.658114,55.6774828 L534.240132,53.7423795 L535.53114,55.6774828 L537.467654,53.7423795 L539.404167,55.6774828 L556.832785,55.6774828" id="Shape" stroke="#ACD8FF" stroke-width="2" stroke-linecap="round" stroke-linejoin="round"></path>
                            <path d="M442.569149,10.5246481 C442.401876,7.6469053 440.0135,5.36479843 437.091721,5.36479843 C435.587536,5.36479843 434.224723,5.96964327 433.233562,6.94922012 C433.723562,8.05921791 434.038771,9.26249747 434.14603,10.5250115 L432.849657,10.5246912 C432.362477,5.45709628 428.089634,1.49459194 422.890625,1.49459194 C419.23206,1.49459194 416.032132,3.45682342 414.287302,6.38555119 C415.235946,7.54140498 415.868585,8.96476652 416.055325,10.5250262 L414.753215,10.5253084 C414.607824,9.50934786 414.236799,8.56611515 413.692492,7.74792238 L413.641437,7.6729278 C413.638881,7.66855384 413.637509,7.66655489 413.636137,7.66455672 C413.518182,7.492625 413.386375,7.31862555 413.246621,7.1514858 C413.09023,6.96444939 412.923887,6.78600308 412.748439,6.61692652 C411.530113,5.44251815 409.871534,4.71976401 408.044024,4.71976401 C404.629413,4.71976401 401.804559,7.24297431 401.334833,10.5253084 L394.16568,10.5250737 L394.16568,9.23500492 L400.295967,9.23438749 C401.273255,5.88049902 404.372223,3.42969518 408.044024,3.42969518 C410.081555,3.42969518 411.942694,4.18436783 413.362784,5.42924871 C415.366214,2.28794002 418.884938,0.204523107 422.890625,0.204523107 C427.03357,0.204523107 430.655608,2.43316616 432.621617,5.75615705 C433.81501,4.70939649 435.379194,4.0747296 437.091721,4.0747296 C440.278763,4.0747296 442.952037,6.272824 443.676137,9.23464936 L456.134101,9.23500492 L456.134101,10.5250737 L442.569149,10.5246481 Z" id="Combined-Shape" fill-opacity="0.974595717" fill="#006ECF" transform="translate(425.149890, 5.364916) scale(-1, 1) translate(-425.149890, -5.364916) "></path>
                            <g id="Group-85" transform="translate(223.095943, 11.000000)">
                                <rect id="Rectangle" fill="#16325C" x="84.904057" y="31.8801798" width="21" height="19" rx="9.5"></rect>
                                <path d="M29.0685913,0.880179801 C29.7344195,0.880179801 31.3324073,1.66891219 33.8625545,3.24637698 L70.2181869,3.24637698 C79.1940289,3.24637698 87.8268135,6.69480006 94.3323587,12.8789428 L100.378795,18.6266587 L99.7264114,18.614299 C100.851837,19.4117423 101.880255,20.3591177 102.77996,21.4415504 L111.177405,31.5444963 C113.782858,34.6791111 113.353888,39.3323559 110.219273,41.9378094 C109.863225,42.2337523 109.480319,42.4953705 109.075692,42.7193266 L108.768231,42.8801798 L5.69802029,42.8801798 L2.01951306,38.3410996 C1.29785716,37.450615 0.904057018,36.3392232 0.904057018,35.1930338 L0.904057018,20.6689122 C0.904057018,19.1495998 1.58169848,17.788559 2.65122843,16.8715428 L1.50330243,16.8520108 L5.72413199,12.0603962 C10.6600228,6.4570222 17.7668657,3.24637698 25.2341823,3.24637698 L27.270855,3.24637698 C27.8035176,1.66891219 28.402763,0.880179801 29.0685913,0.880179801 Z" id="Combined-Shape" fill="#E8F1FF"></path>
                                <path d="M106.380057,25.8801798 L109.903039,30.4798626 C103.61667,31.9228165 100.106017,32.2506038 99.3710789,31.4632245 C98.5927091,30.6293139 98.7873015,30.0038809 99.9548563,29.5869256 L106.380057,25.8801798 Z" id="Combined-Shape" stroke="#16325C" fill="#FFFFFF"></path>
                                <path d="M3.02405702,14.8791798 L5.90405702,16.7780915 C5.90405702,17.1687666 5.16331628,18.1454543 3.6818348,19.7081546 C2.867808,20.5668085 1.94196077,20.9536595 0.90429311,20.8687076 L0.904057018,20.6060663 C0.904057018,19.0790906 1.58855162,17.7119872 2.66744208,16.7948548 L1.45961257,16.7780915 L3.02405702,14.8791798 Z" id="Combined-Shape" fill="#D5EFFF"></path>
                                <path d="M94.0963116,13.2129153 L99.5045532,18.2968795 L98.5540379,18.2843882 C98.8637439,18.4722687 99.1673387,18.6708275 99.4642435,18.8797949 L58.3363865,18.8801798 C56.1691108,18.1351085 54.3791905,16.968508 52.9666256,15.3803782 C51.6643691,13.9162668 49.7033291,10.9926462 47.0835058,6.60951635 C47.0658784,6.5800659 47.0495155,6.54987733 47.0344423,6.51904146 C46.737411,5.91139281 46.989216,5.17800477 47.5968647,4.88097342 L47.5968647,4.88097342 L79.077637,4.87895689 C84.6535727,6.35463508 89.8256769,9.1983473 94.0963116,13.2129153 Z" id="Combined-Shape" fill="#4FB7FF"></path>
                                <path d="M57.9626632,31.8801798 C64.6224475,31.8801798 70.0212694,37.1967984 70.0212694,43.7551798 L70.0212694,43.7551798 L65.493342,43.7559527 C65.4923802,43.7799688 65.4913024,43.8039555 65.4901094,43.8279123 L50.8592288,43.8283049 C52.4040486,47.2469293 55.5407091,49.8139256 59.3421741,50.6163725 L59.6895674,50.6844358 L59.6895674,50.6844358 C59.1350306,50.8124591 58.5568777,50.8801798 57.9626632,50.8801798 C53.9014595,50.8801798 50.590515,47.7168482 50.4319765,43.7557564 L45.904057,43.7551798 C45.904057,37.1967984 51.3028789,31.8801798 57.9626632,31.8801798 Z M65.4901094,43.8279123 L72.9041916,43.8283049 C71.0266483,47.9832331 66.7977191,50.8801798 61.8817102,50.8801798 C61.1331043,50.8801798 60.400431,50.8130026 59.6895674,50.6844358 C62.9022181,49.9427363 65.3233175,47.1770599 65.4901094,43.8279123 Z" id="Combined-Shape" fill="#16325C"></path>
                                <path d="M18.9626632,31.8801798 C25.6224475,31.8801798 31.0212694,37.1967984 31.0212694,43.7551798 L31.0212694,43.7551798 L26.493342,43.7559527 C26.4923802,43.7799688 26.4913024,43.8039555 26.4901094,43.8279123 L11.8592288,43.8283049 C13.4040486,47.2469293 16.5407091,49.8139256 20.3421741,50.6163725 L20.6895674,50.6844358 L20.6895674,50.6844358 C20.1350306,50.8124591 19.5568777,50.8801798 18.9626632,50.8801798 C14.9014595,50.8801798 11.590515,47.7168482 11.4319765,43.7557564 L6.90405702,43.7551798 C6.90405702,37.1967984 12.3028789,31.8801798 18.9626632,31.8801798 Z M26.4901094,43.8279123 L33.9041916,43.8283049 C32.0266483,47.9832331 27.7977191,50.8801798 22.8817102,50.8801798 C22.1331043,50.8801798 21.400431,50.8130026 20.6895674,50.6844358 C23.9022181,49.9427363 26.3233175,47.1770599 26.4901094,43.8279123 Z" id="Combined-Shape" fill="#16325C"></path>
                                <circle id="Oval" fill="#78C0FF" cx="19.404057" cy="43.3801798" r="7.5"></circle>
                                <circle id="Oval" fill="#FFFFFF" cx="19.904057" cy="42.8801798" r="4"></circle>
                                <circle id="Oval" stroke="#16325C" cx="19.404057" cy="43.3801798" r="1.5"></circle>
                                <ellipse id="Oval" fill="#78C0FF" cx="57.904057" cy="43.3801798" rx="8" ry="7.5"></ellipse>
                                <circle id="Oval" fill="#FFFFFF" cx="57.404057" cy="43.3801798" r="3.5"></circle>
                                <circle id="Oval" stroke="#16325C" cx="57.904057" cy="42.8801798" r="1"></circle>
                                <path d="M7.82749947,20.8801798 C4.92104303,26.5980577 5.33111982,25.962139 8.90405702,31.8801798" id="Path-31" stroke="#082751"></path>
                                <path d="M27.904057,20.8801798 C25.4236327,28.6717651 25.6074854,24.9809459 26.5471773,31.8801798" id="Path-32" stroke="#082751"></path>
                                <path d="M31.904057,38.8099624 C42.493753,39.0848702 44.7504508,38.4721232 45.1000086,38.3515604 C45.2733999,38.2917576 46.3142632,35.3867936 48.7427723,33.6079336 C51.1712815,31.8290735 52.9926634,31.8290735 52.9007254,22.8801798" id="Path-33" stroke="#082751"></path>
                                <path d="M9.90405702,22.8801798 L16.1012814,22.8801798 C16.4027386,22.8801798 16.6471179,23.1245591 16.6471179,23.4260163 C16.6471179,23.6085185 16.555908,23.7789458 16.404057,23.8801798 L15.4079061,24.5442804 C15.0793711,24.7633037 14.6933557,24.8801798 14.2985057,24.8801798 L9.90405702,24.8801798 C9.35177227,24.8801798 8.90405702,24.4324646 8.90405702,23.8801798 C8.90405702,23.3278951 9.35177227,22.8801798 9.90405702,22.8801798 Z" id="Rectangle" stroke="#082751"></path>
                                <path d="M31.904057,22.8801798 L38.1012814,22.8801798 C38.4027386,22.8801798 38.6471179,23.1245591 38.6471179,23.4260163 C38.6471179,23.6085185 38.555908,23.7789458 38.404057,23.8801798 L37.4079061,24.5442804 C37.0793711,24.7633037 36.6933557,24.8801798 36.2985057,24.8801798 L31.904057,24.8801798 C31.3517723,24.8801798 30.904057,24.4324646 30.904057,23.8801798 C30.904057,23.3278951 31.3517723,22.8801798 31.904057,22.8801798 Z" id="Rectangle" stroke="#082751"></path>
                                <path d="M28.904057,9.27755737 L28.904057,14.8801798 C28.904057,17.0893188 27.113196,18.8801798 24.904057,18.8801798 L12.549804,18.8801798 C12.1692659,18.8801797 11.7906749,18.8258777 11.4254786,18.7189155 C10.091662,18.3282546 9.29541617,17.7733137 9.03674107,17.0540928 C8.79872683,16.3923175 8.88093256,15.2163623 9.28335826,13.5262271 L9.28336015,13.5262275 C9.48849,12.664709 9.97372556,11.895623 10.6629865,11.3395549 C13.5097261,9.04291953 15.9778437,7.49849014 18.0673392,6.70626676 C19.6155718,6.11926092 21.72422,5.65393965 24.3932837,5.31030294 C26.5843366,5.02821214 28.5892178,6.57572902 28.8713115,8.76678154 C28.8931194,8.93616652 28.904057,9.1067743 28.904057,9.27755737 Z" id="Path-34" fill="#4FB7FF"></path>
                                <path d="M40.8920863,4.9023048 C41.9339449,4.85023954 42.9280539,5.34312039 43.517322,6.20390096 L43.517322,6.20390096 L49.0092911,14.2265545 L47.8641384,14.2272333 L47.8587119,14.0661885 C47.7759524,12.8422288 46.7569028,11.8750519 45.511957,11.8750519 L45.511957,11.8750519 L41.3909518,11.8750519 C40.0918779,11.8750519 39.0387704,12.9281594 39.0387704,14.2272333 C39.0387704,15.5263072 40.0918779,16.5794147 41.3909518,16.5794147 L41.3909518,16.5794147 L49.8334211,16.578847 C49.8112822,16.877967 49.7435975,17.1756708 49.629212,17.4614827 C49.2760814,18.3438402 48.4081263,18.9105164 47.4582555,18.8788708 L47.4582555,18.8788708 L34.1611657,18.4358699 C32.596707,18.383749 31.3352703,17.137539 31.2641548,15.5738287 L31.2641548,15.5738287 L30.9374457,8.39004583 C30.8624105,6.74014846 32.1350703,5.33992303 33.7846146,5.25748962 L33.7846146,5.25748962 Z" id="Combined-Shape" fill="#4FB7FF"></path>
                                <path d="M103.504057,34.8801798 L106.004057,38.2131798 L111.904057,38.2135131 L111.904057,38.8801798 L106.503057,38.8791798 L106.504057,38.8801798 L83.104057,38.8801798 L83.098057,38.8791798 L69.904057,38.8801798 L69.904057,38.2135131 L78.904057,38.2135131 L83.104057,34.8801798 L103.504057,34.8801798 Z" id="Combined-Shape" fill="#16325C"></path>
                                <rect id="Rectangle" stroke="#16325C" fill="#D5EFFF" x="87.904057" y="36.8801798" width="10" height="4" rx="1"></rect>
                                <ellipse id="Oval" stroke="#082751" cx="92.904057" cy="31.8801798" rx="3" ry="2"></ellipse>
                                <path d="M83.904057,29.2551798 C78.0779076,26.3385131 73.5962541,24.8801798 70.4590967,24.8801798 C65.7533606,24.8801798 66.4256086,28.6301798 68.4423527,29.2551798 C69.7868487,29.6718465 74.9407502,29.8801798 83.904057,29.8801798" id="Path-37" stroke="#16325C" fill="#FFFFFF"></path>
                                <g id="Group-84" transform="translate(20.328097, 13.395235) rotate(-225.000000) translate(-20.328097, -13.395235) translate(19.328097, 8.895235)" fill="#FFFFFF">
                                    <rect id="Rectangle" x="0.495165863" y="2.69972256" width="1" height="5.35714286"></rect>
                                    <rect id="Rectangle" x="0.495165863" y="0.318770182" width="1" height="1.78571429"></rect>
                                </g>
                                <g id="Group-84" transform="translate(34.344435, 10.912155) rotate(-225.000000) translate(-34.344435, -10.912155) translate(33.344435, 6.412155)" fill="#FFFFFF">
                                    <rect id="Rectangle" x="0.495165863" y="2.69972256" width="1" height="5.35714286"></rect>
                                    <rect id="Rectangle" x="0.495165863" y="0.318770182" width="1" height="1.78571429"></rect>
                                </g>
                                <g id="Group-84" transform="translate(63.750936, 12.220483) rotate(-225.000000) translate(-63.750936, -12.220483) translate(62.750936, 3.720483)" fill="#FFFFFF">
                                    <rect id="Rectangle" x="0.546441967" y="5.38705508" width="1" height="10.7142857"></rect>
                                    <rect id="Rectangle" x="0.546441967" y="0.540545779" width="1" height="3.57142857"></rect>
                                </g>
                                <g id="Group-84" transform="translate(23.066991, 11.693550) scale(-1, -1) rotate(-225.000000) translate(-23.066991, -11.693550) translate(22.066991, 8.693550)" fill="#FFFFFF">
                                    <rect id="Rectangle" x="0.495165863" y="2.69972256" width="1" height="2.97619048"></rect>
                                    <rect id="Rectangle" x="0.495165863" y="0.318770182" width="1" height="1.78571429"></rect>
                                </g>
                                <g id="Group-84" transform="translate(37.083328, 9.210471) scale(-1, -1) rotate(-225.000000) translate(-37.083328, -9.210471) translate(36.083328, 6.210471)" fill="#FFFFFF">
                                    <rect id="Rectangle" x="0.495165863" y="2.69972256" width="1" height="2.97619048"></rect>
                                    <rect id="Rectangle" x="0.495165863" y="0.318770182" width="1" height="1.78571429"></rect>
                                </g>
                                <g id="Group-84" transform="translate(64.832037, 8.868883) scale(-1, -1) rotate(-225.000000) translate(-64.832037, -8.868883) translate(63.832037, 3.868883)" fill="#FFFFFF">
                                    <rect id="Rectangle" x="0.458908182" y="3.99852049" width="1" height="5.35714286"></rect>
                                    <rect id="Rectangle" x="0.458908182" y="0.138233957" width="1" height="2.97619048"></rect>
                                </g>
                            </g>
                        </g>
                    </g>
                </g>
            </g>
        </g>
    </g>
</svg>