<?xml version="1.0" encoding="UTF-8"?>
<svg width="62px" height="57px" viewBox="0 0 62 57" version="1.1" xmlns="http://www.w3.org/2000/svg" xmlns:xlink="http://www.w3.org/1999/xlink">
    <title>Symbols</title>
    <g id="Symbols" stroke="none" stroke-width="1" fill="none" fill-rule="evenodd">
        <g id="Icons/Barn" transform="translate(-5.000000, -7.000000)">
            <path d="M36,16 L36,32 L30,32 L30,40 L36,40 L36,48 L26,48 L26,62 L13,62 L13,35 L23,23 L36,16 Z M45,52 L45,60 L42.375,56.4444444 L31,55.5555556 L31,52 L45,52 Z" id="Combined-Shape" fill="#D3EDFF"></path>
            <path d="M46,63.4999999 L45.9641597,63.4996985 C45.9361282,63.4990043 45.9081423,63.4975268 45.8802364,63.495273 C45.8596712,63.4936632 45.8392713,63.4916291 45.8189959,63.4891904 C45.7932062,63.4859242 45.7672274,63.4820682 45.7413699,63.477538 C45.7182379,63.4737563 45.6958989,63.4693323 45.6737442,63.4644183 C45.6543473,63.4597815 45.6343557,63.4549084 45.6144675,63.4496272 C45.5906039,63.4436579 45.5672511,63.4368394 45.5441414,63.4294761 C45.5201336,63.4214749 45.4960633,63.4131418 45.4722014,63.4041956 C45.455244,63.398128 45.4388875,63.3916379 45.422675,63.3848714 C45.3994694,63.374977 45.3761147,63.3645668 45.3530128,63.3535511 C45.3310487,63.3431649 45.3093365,63.3321066 45.2879372,63.3205434 C45.2699526,63.3108794 45.2519168,63.3006913 45.2340747,63.2901157 C45.2139542,63.2780015 45.1945622,63.2658427 45.1754747,63.2532595 C45.1548184,63.2399584 45.134085,63.2255806 45.1136809,63.2106455 C45.0984882,63.1991212 45.0834669,63.1876614 45.0686723,63.1759283 C45.0496872,63.1613304 45.0310577,63.1458229 45.0127636,63.1298179 C44.9937887,63.1127417 44.9754051,63.0958287 44.9574537,63.0784716 C44.942544,63.0644808 44.927588,63.049381 44.9129125,63.0339141 C44.8972518,63.0170895 44.8821286,63.0004542 44.8673805,62.9834842 C44.857452,62.9722393 44.847533,62.9604321 44.8377699,62.9484394 L44.8200299,62.9262087 C44.8054615,62.9076746 44.7913204,62.8887889 44.7776213,62.8695663 L44.7519246,62.8320503 L41.196,57.5 L30.803,57.5 L27.2480754,62.8320503 L27.2223787,62.8695663 C27.2086796,62.8887889 27.1945385,62.9076747 27.1799701,62.9262087 L27.2480754,62.8320503 C27.2122914,62.8857263 27.1736466,62.936352 27.132478,62.98386 C27.1178714,63.0004543 27.1027482,63.0170896 27.0872628,63.0333773 C27.072412,63.049381 27.057456,63.0644808 27.0422327,63.079211 C27.0245949,63.0958288 27.0062113,63.1127418 26.9874134,63.1291929 C26.9689423,63.1458229 26.9503128,63.1613304 26.9313687,63.1763361 C26.9165331,63.1876615 26.9015118,63.1991213 26.8862716,63.2103002 C26.865915,63.2255806 26.8451816,63.2399584 26.8241429,63.2537741 C26.8054378,63.2658428 26.7860458,63.2780016 26.7663628,63.2897226 C26.7480832,63.3006913 26.7300474,63.3108794 26.7118313,63.3206774 C26.6899437,63.3324957 26.6674903,63.3439084 26.6447201,63.3547639 C26.6248055,63.3640893 26.6044495,63.3732066 26.5839189,63.3818596 C26.5634707,63.3907454 26.5431022,63.3988336 26.5225204,63.4064829 C26.501195,63.4140716 26.4794729,63.4215652 26.4576017,63.4285556 C26.4335219,63.4366249 26.409166,63.4437414 26.3845623,63.4502484 C26.3666108,63.4546381 26.3486133,63.4590508 26.3305422,63.4631304 C26.2698554,63.4771111 26.2077311,63.4870875 26.14446,63.4931334 L26.2566229,63.4778883 C26.2317579,63.4822099 26.2067815,63.4859084 26.1817191,63.4889787 L26.14446,63.4931334 L26.1197636,63.495273 C26.0925205,63.4974733 26.0652012,63.4989336 26.0378378,63.4996477 L26,63.4999999 L13,63.4999999 C12.1715729,63.4999999 11.5,62.8284271 11.5,61.9999999 L11.5,61.9999999 L11.5,34.9999999 C11.5,34.6490952 11.6230243,34.3092959 11.8476681,34.0397234 L11.8476681,34.0397234 L21.8476681,22.0397234 C21.9703541,21.8925002 22.1201153,21.7701506 22.2888503,21.6792934 L22.2888503,21.6792934 L35.2888503,14.6792934 C35.7186574,14.4478587 36.2342005,14.4400493 36.6708204,14.6583592 L36.6708204,14.6583592 L50.6708204,21.6583592 C50.8791035,21.7625008 51.0602794,21.9137059 51.2,22.1 L51.2,22.1 L60.2,34.1 C60.3947332,34.3596443 60.5,34.6754447 60.5,34.9999999 L60.5,34.9999999 L60.5,61.9999999 C60.5,62.8284271 59.8284271,63.4999999 59,63.4999999 L59,63.4999999 L46,63.4999999 L46,63.4999999 Z M36.025,17.689 L23.967,24.182 L14.5,35.542 L14.5,60.5 L24.5,60.5 L24.5,48 C24.5,47.2203039 25.0948881,46.5795513 25.85554,46.5068666 L25.85554,46.5068666 L26,46.5 L46,46.5 C46.8284271,46.5 47.5,47.1715729 47.5,48 L47.5,48 L47.5,60.5 L57.5,60.5 L57.5,35.5 L49.012,24.182 L36.025,17.689 Z M44.5,49.4999999 L27.5,49.4999999 L27.4999617,57.0443477 L28.7519246,55.1679497 C29.0023034,54.7923815 29.4067023,54.5517968 29.8506935,54.5074355 L30,54.5 L42,54.5 C42.4513768,54.5 42.8758755,54.7030279 43.1590684,55.0478437 L43.2480754,55.1679497 L44.4999617,57.0453477 L44.5,49.4999999 Z M37.0769231,30.5 C37.9053502,30.5 38.5769231,31.1715729 38.5769231,32 C38.5769231,32.7796961 37.982035,33.4204487 37.2213831,33.4931334 L37.0769231,33.5 L31.3076923,33.5 C30.8622604,33.5 30.5591904,33.7275661 30.507768,33.9377209 L30.5,34 L30.5,39 C30.5,39.2042228 30.7625762,39.4503546 31.1784429,39.493418 L31.3076923,39.5 L41.6923077,39.5 C42.1377396,39.5 42.4408096,39.2724339 42.492232,39.0622791 L42.5,39 L42.5,34 C42.5,33.7957772 42.2374238,33.5496454 41.8215571,33.506582 L41.6923077,33.5 C40.8638806,33.5 40.1923077,32.8284271 40.1923077,32 C40.1923077,31.1715729 40.8638806,30.5 41.6923077,30.5 C43.6849188,30.5 45.3868602,31.9193085 45.4945894,33.8094514 L45.5,34 L45.5,39 C45.5,40.920478 43.8623364,42.4017374 41.8905516,42.4953041 L41.6923077,42.5 L31.3076923,42.5 C29.3150812,42.5 27.6131398,41.0806915 27.5054106,39.1905486 L27.5,39 L27.5,34 C27.5,32.079522 29.1376636,30.5982626 31.1094484,30.5046959 L31.3076923,30.5 L37.0769231,30.5 Z M36.5233627,7.39859825 L36.6717938,7.4631942 L54.3239677,16.3052995 C54.4905861,16.3887598 54.6398225,16.5023469 54.7643287,16.6399181 L54.8529566,16.7474976 L66.2007827,31.9053923 C66.6972621,32.5685663 66.5621295,33.5086511 65.8989555,34.0051305 C65.2747918,34.4724052 64.4053368,34.3801897 63.8912896,33.8148315 L63.7992173,33.7033033 L52.663,18.828 L36.025,10.494 L20.575,18.828 L8.15318765,33.7635966 C7.65652033,34.3606791 6.79423545,34.4743116 6.16361044,34.0496593 L6.04075121,33.9575355 C5.44366876,33.4608682 5.33003621,32.5985833 5.75468851,31.9679583 L5.84681235,31.845099 L18.455508,16.6872043 C18.5474565,16.5766658 18.6546579,16.4801153 18.773693,16.4003509 L18.896546,16.3262854 L35.2878503,7.48418009 C35.6703599,7.27783958 36.1209252,7.24872504 36.5233627,7.39859825 Z" id="Combined-Shape" fill="#16325C"></path>
        </g>
    </g>
</svg>