<?xml version="1.0" encoding="UTF-8"?>
<svg width="1442px" height="324px" viewBox="0 0 1442 324" version="1.1" xmlns="http://www.w3.org/2000/svg" xmlns:xlink="http://www.w3.org/1999/xlink">
    <title>secondary menu</title>
    <defs>
        <rect id="path-1" x="0" y="0.8778957" width="1440" height="320"></rect>
    </defs>
    <g id="Policy-Holder-Screens-⚡️" stroke="none" stroke-width="1" fill="none" fill-rule="evenodd">
        <g id="Billing-(Expanded)" transform="translate(1.000000, 1.000000)">
            <g id="Path-8" transform="translate(0.000000, 0.122104)">
                <mask id="mask-2" fill="white">
                    <use xlink:href="#path-1"></use>
                </mask>
                <use id="Mask" fill="#0070D2" xlink:href="#path-1"></use>
                <g id="Group" mask="url(#mask-2)">
                    <g transform="translate(823.000000, 123.877896)" id="Illustration/Hero/Billling">
                        <rect id="Rectangle" fill="#0070D2" x="0" y="0" width="487" height="266"></rect>
                        <g id="online_payment" transform="translate(0.997951, 0.000000)" fill-rule="nonzero">
                            <path d="M359.35567,14.0024977 L359.646451,14.0127719 L467.560384,22.6891713 C468.33278,22.1389167 469.1632,21.5408944 470.005399,20.9303767 L470.609133,20.4920729 L471.213124,20.0523755 C474.629365,17.5622254 477.876866,15.143079 477.876866,15.143079 C478.859244,16.7162944 479.762962,18.1954985 480.575987,19.5475757 L480.944746,20.162464 C482.694159,23.0873351 483.983771,25.355259 484.680341,26.599483 C485.846625,28.1924721 486.30212,30.2762943 485.799691,32.5054287 L485.725217,32.8102698 L425.156155,258.748823 C423.754169,263.441004 419.199715,266.453054 414.342664,265.944111 L414.067433,265.91153 L297.019815,249.288644 C295.381619,249.089721 293.874926,248.345353 292.730712,247.198553 C292.649403,247.279526 292.543282,247.336433 292.424156,247.359751 L292.300948,247.396609 C292.085913,247.393219 291.886929,247.282472 291.771153,247.101746 L284.50188,235.012375 C284.351139,234.758359 284.402875,234.433344 284.625088,234.23836 L294.678863,225.171332 C294.740144,225.116212 294.810352,225.07515 294.884977,225.048697 L349.02592,21.5317711 C350.374348,16.974822 354.616068,13.8997732 359.35567,14.0024977 Z" id="Combined-Shape" fill="#16325C"></path>
                            <path d="M289.859242,235.290993 L407.022835,251.914067 C411.984623,252.557989 416.683902,249.525482 418.122544,244.751279 L478.739287,18.8101594 C479.972588,14.1291607 476.975667,10.0133219 472.005464,9.60788111 L352.510932,0.0124480383 C347.648229,-0.222224948 343.253626,2.88236883 341.867544,7.5315326 L283.729736,225.965853 C283.105667,228.02482 283.428345,230.253363 284.61107,232.052705 C285.793795,233.852047 287.715278,235.037663 289.859242,235.290993 Z" id="Path" fill="#0095E7"></path>
                            <polygon id="Path" fill="#005FB2" points="467.040984 34.5418984 345.153604 24 298.387295 200.058293 418.492516 216"></polygon>
                            <path d="M413.533219,192 C413.293231,192.001287 413.075121,191.862038 412.977169,191.64499 L388.263821,139.875991 C388.19225,139.728431 388.183332,139.558617 388.23906,139.404496 C388.294787,139.250375 388.410514,139.124794 388.560381,139.055815 C388.867584,138.916303 389.230931,139.047197 389.375922,139.349609 L414.089269,191.13085 C414.160378,191.276621 414.168985,191.444679 414.113136,191.596832 C414.057287,191.748985 413.941724,191.872311 413.792709,191.938784 C413.711253,191.976281 413.622993,191.997099 413.533219,192 L413.533219,192 Z" id="Path" fill="#0095E7"></path>
                            <path d="M337.362416,235.728885 L360.146749,238.953353 C363.135556,239.323134 365.95053,237.460969 366.795251,234.555228 L369.05648,226.018419 C369.439958,224.705942 369.221921,223.289952 368.461653,222.15546 C367.701385,221.020968 366.477915,220.285904 365.123909,220.150134 L342.314997,217.036855 C339.356694,216.711931 336.591977,218.564824 335.75252,221.43498 L333.503581,229.897664 C333.120146,231.194377 333.329396,232.595311 334.074746,233.721636 C334.820097,234.847962 336.024553,235.583328 337.362416,235.728885 L337.362416,235.728885 Z" id="Path" fill="#16325C"></path>
                            <path d="M430.405209,19 L430.405209,19 L395.747625,16.188634 C395.529094,16.169563 395.337656,16.0388936 395.245423,15.8458476 C395.153191,15.6528017 395.174176,15.4267074 395.300474,15.2527324 C395.426772,15.0787574 395.639196,14.9833326 395.857727,15.0024036 L430.503078,17.8019073 C430.840897,17.8019073 431.114754,18.067454 431.114754,18.3950225 C431.114754,18.722591 430.840897,18.9881377 430.503078,18.9881377 L430.405209,19 Z" id="Path" fill="#16325C"></path>
                            <path d="M390.472106,15.9924302 L390.472106,15.9924302 L385.7746,15.7577673 C385.609648,15.7501383 385.456815,15.702384 385.350908,15.6253808 C385.245001,15.5483777 385.195038,15.4486818 385.212399,15.3489996 C385.245411,15.1416594 385.543944,14.9875745 385.887041,15.0007901 L390.572053,15.2430228 C390.917048,15.2430228 391.196721,15.4124779 391.196721,15.6215114 C391.196721,15.8305449 390.917048,16 390.572053,16 L390.472106,15.9924302 Z" id="Path" fill="#0031AC"></path>
                            <path d="M424.858418,132 C424.858418,132 439.765362,82.5991317 426.841115,71.6512301 L363.590632,64 C363.590632,64 352.746992,75.353835 351.180417,84.0752533 C349.613841,92.7966715 336.493772,111.371201 341.38932,122.454414 L424.858418,132 Z" id="Path" fill="#16325C"></path>
                            <path d="M425.29219,132 L425.231117,132 L341.915678,122.474482 C341.702678,122.448345 341.518077,122.314018 341.427096,122.118961 C338.043666,114.444606 342.990558,103.374409 346.972501,94.4741187 C348.939044,90.0852702 350.636866,86.2848706 351.125448,83.5142567 C352.701125,74.7365595 363.217852,63.6541039 363.66979,63.1882485 C363.802577,63.0495629 363.992523,62.9814762 364.182801,63.0043581 L427.307591,70.6419354 C427.423492,70.6578266 427.533097,70.7043681 427.625169,70.7767883 C440.682522,81.8102065 426.403714,129.548129 425.841845,131.570923 C425.765768,131.815041 425.546659,131.986085 425.29219,132 Z M342.453118,121.297584 L424.852466,130.725027 C426.342641,125.600617 438.544976,82.0063562 427.014442,71.8801301 L364.378234,64.3038496 C362.888059,65.9220843 353.751576,76.0237916 352.359118,83.7839624 C351.833892,86.7016886 350.111641,90.563385 348.120669,95.0257897 C344.358588,103.521522 339.55827,114.125863 342.453118,121.297584 Z" id="Shape" fill="#16325C"></path>
                            <line x1="325.331967" y1="118" x2="431.114754" y2="133" id="Path" fill="#16325C"></line>
                            <path d="M430.498409,133 L430.412856,133 L324.852708,118.212991 C324.523806,118.162731 324.295631,117.85903 324.33939,117.529763 C324.383739,117.196497 324.689834,116.96187 325.023814,117.005141 L430.583962,131.79215 C430.919587,131.842476 431.153195,132.151601 431.109502,132.487579 C431.056404,132.783237 430.799304,132.998824 430.498409,133 Z" id="Path" fill="#16325C"></path>
                            <path d="M427.122951,71.6099304 C427.122951,71.6099304 420.676735,72.495092 416.727813,85.8954541 C410.687561,106.401696 402.728207,149.67626 397.696714,165.953398 C390.315551,189.631469 370.63245,193 370.63245,193 L287.409836,180.939674 C287.409836,180.939674 321.277073,169.211284 326.997474,149.270561 C333.013122,128.260269 341.341534,88.5632326 343.592789,79.6993234 C347.566315,64 363.583439,64 363.583439,64 L427.122951,71.6099304 Z" id="Path" fill="#0095E7"></path>
                            <path d="M371.088693,193 L371.002745,193 L287.940766,180.960918 C287.659767,180.917953 287.442978,180.691191 287.412804,180.408666 C287.385212,180.128184 287.552326,179.86498 287.817984,179.770509 C288.161774,179.660059 321.398843,167.927782 326.948587,148.562164 C331.110895,134.019541 336.451909,110.235911 339.97575,94.490607 C341.559637,87.4340602 342.812013,81.8501841 343.499592,79.1380157 C347.539117,63.1840838 363.893671,63 364.053288,63 L427.580661,70.645615 C427.886032,70.6824829 428.116969,70.9395391 428.120902,71.2469555 C428.118687,71.5530063 427.895357,71.8125671 427.592939,71.8605683 C427.494714,71.8605683 421.453843,72.9773435 417.770384,85.6791277 C414.713114,96.0369112 411.189273,112.187199 407.763657,127.80978 C404.423988,143.113282 401.256214,157.569999 398.776019,165.608326 C394.945223,177.991032 387.725645,184.777589 382.249571,188.287454 C378.893199,190.534877 375.14498,192.133344 371.199196,193 L371.088693,193 Z M290.457796,180.089587 L371.076414,191.772774 C372.512963,191.47824 390.721524,187.416124 397.5482,165.240159 C400.003838,157.25092 403.183891,142.818748 406.523559,127.552063 C409.936897,111.904937 413.485295,95.7301048 416.542565,85.3355046 C419.133264,76.5608421 422.792166,73.0632493 425.137301,71.5783064 L363.979619,64.2149533 C363.414822,64.2149533 348.496817,64.4235816 344.690577,79.4448221 C344.015276,82.132446 342.7629,87.7040498 341.179013,94.7605966 C337.642893,110.518172 332.301879,134.326348 328.127293,148.905787 C325.119136,159.374021 314.412551,167.53507 305.952876,172.529878 C300.984792,175.434539 295.805154,177.961571 290.457796,180.089587 L290.457796,180.089587 Z" id="Shape" fill="#16325C"></path>
                            <path d="M386.611927,167 L386.541177,167 L375.751749,165.996972 C375.430046,165.965486 375.198408,165.71919 375.232913,165.445306 C375.247623,165.312723 375.324954,165.190893 375.447206,165.107702 C375.569458,165.02451 375.726164,164.987078 375.881458,165.003974 L386.682677,166.007002 C387.00438,166.038488 387.236018,166.284784 387.201513,166.558668 C387.160636,166.809697 386.909843,166.997428 386.611927,167 L386.611927,167 Z" id="Path" fill="#16325C"></path>
                            <path d="M365.614182,164.998885 L365.542558,164.998885 L332.846311,161.210708 C332.520637,161.172472 332.286139,160.873374 332.32107,160.540774 C332.335962,160.379767 332.414247,160.231818 332.538008,160.130791 C332.661769,160.029764 332.82041,159.984308 332.977621,160.004826 L365.685806,163.780822 C366.015445,163.801004 366.266637,164.090037 366.246859,164.426396 C366.22708,164.762755 365.943821,165.019067 365.614182,164.998885 L365.614182,164.998885 Z" id="Path" fill="#16325C"></path>
                            <path d="M375.610387,179.9991 L375.540648,179.9991 L365.765592,179.001343 C365.557964,178.979956 365.379401,178.865107 365.297165,178.700059 C365.214928,178.535012 365.241513,178.344841 365.366904,178.201181 C365.492294,178.057521 365.697442,177.982199 365.905069,178.003587 L375.680125,179.001343 C375.887753,179.012037 376.072962,179.117005 376.165987,179.276705 C376.259012,179.436405 376.24572,179.626577 376.131118,179.775583 C376.016515,179.92459 375.818014,180.009794 375.610387,179.9991 L375.610387,179.9991 Z" id="Path" fill="#16325C"></path>
                            <path d="M354.661643,178 L354.589,178 L322.880584,174.252866 C322.546256,174.214926 322.305043,173.904561 322.341819,173.559646 C322.378595,173.214732 322.679434,172.965881 323.013761,173.003822 L354.734285,176.750955 C355.064591,176.790164 355.302424,177.096869 355.266996,177.43793 C355.230556,177.755479 354.97157,177.995948 354.661643,178 Z" id="Path" fill="#D1D3D4"></path>
                            <path d="M370.239754,194 C360.357147,184.791407 355.398275,171.396576 356.878674,157.909243 L269.446721,142 C269.446721,142 276.946166,171.520898 286.920797,181.816575 L370.239754,194 Z" id="Path" fill="#0095E7"></path>
                            <path d="M370.593854,193.999259 L370.507871,193.999259 L287.411504,181.873504 C287.276598,181.850169 287.152171,181.785405 287.055289,181.688095 C277.105834,171.441152 269.772718,142.987036 269.465636,141.775696 C269.413995,141.57327 269.469709,141.358353 269.613036,141.207108 C269.754587,141.047095 269.96839,140.972261 270.178066,141.009339 L357.389331,156.843276 C357.701264,156.910895 357.912845,157.203649 357.880663,157.523109 C356.484344,170.738298 361.343105,183.845234 370.999202,192.911526 C371.209651,193.071938 371.29165,193.351634 371.201427,193.601308 C371.111205,193.850982 370.869824,194.012345 370.606137,193.999259 L370.593854,193.999259 Z M287.792285,180.674525 L368.763646,192.491265 C359.872578,183.335931 355.422541,170.715143 356.590918,157.968091 L270.90278,142.406087 C272.278507,147.461575 279.132575,171.564758 287.792285,180.674525 Z" id="Shape" fill="#16325C"></path>
                            <path d="M405.513108,89.9992584 L405.452164,89.9992584 L351.821489,84.1693486 C351.657942,84.1550249 351.507778,84.0769108 351.406313,83.9533777 C351.304848,83.8298447 351.261036,83.6717946 351.285182,83.5163987 C351.323444,83.1982949 351.622742,82.9692476 351.955565,83.0033666 L405.586241,88.8332765 C405.922825,88.8493753 406.182038,89.12344 406.165208,89.445417 C406.148379,89.767394 405.861881,90.0153572 405.525297,89.9992584 L405.513108,89.9992584 Z" id="Path" fill="#16325C"></path>
                            <path d="M403.548928,105 L403.478024,105 L393.716833,104.03272 C393.505735,104.010662 393.324187,103.892215 393.240576,103.721995 C393.156965,103.551776 393.183994,103.355646 393.311481,103.207485 C393.438967,103.059324 393.647544,102.981641 393.858642,103.003699 L403.608015,103.960689 C403.819113,103.96988 404.008545,104.076437 404.104953,104.240223 C404.201361,104.404009 404.190099,104.600139 404.075409,104.754733 C403.96072,104.909328 403.760026,104.998901 403.548928,104.98971 L403.548928,105 Z" id="Path" fill="#16325C"></path>
                            <path d="M381.498665,102.998874 L381.498665,102.998874 L348.837485,99.2525839 C348.496884,99.2146519 348.251144,98.9043568 348.28861,98.5595203 C348.326076,98.2146839 348.632561,97.9658887 348.973162,98.0038207 L381.634342,101.75011 C381.854673,101.763495 382.051214,101.894869 382.149931,102.094745 C382.248648,102.294621 382.234542,102.532634 382.112928,102.719127 C381.991314,102.905619 381.780667,103.012258 381.560337,102.998874 L381.498665,102.998874 Z" id="Path" fill="#16325C"></path>
                            <path d="M399.57082,119 L399.497034,119 L382.759893,116.577619 C382.422573,116.520366 382.182478,116.12951 382.218795,115.696753 C382.263556,115.265293 382.569132,114.958192 382.907465,115.004645 L399.632309,117.442755 C399.794863,117.462378 399.944233,117.565535 400.046231,117.728614 C400.148229,117.891694 400.194122,118.100735 400.173407,118.307891 C400.136462,118.699105 399.878874,118.994962 399.57082,119 L399.57082,119 Z" id="Path" fill="#16325C"></path>
                            <path d="M366.641539,114 L366.569442,114 L345.829336,111.336018 C345.614686,111.309845 345.428938,111.158722 345.342061,110.939575 C345.255184,110.720429 345.280377,110.466553 345.40815,110.27358 C345.535924,110.080606 345.746865,109.977853 345.961515,110.004026 L366.713637,112.601409 C367.043239,112.649891 367.27784,112.980867 367.242353,113.347324 C367.229678,113.706957 366.966165,113.993217 366.641539,114 Z" id="Path" fill="#16325C"></path>
                            <path d="M397.546732,129 L397.474175,129 L383.748772,127.859375 C383.417069,127.82816 383.180973,127.615058 383.216686,127.379112 C383.266486,127.146238 383.563059,126.980981 383.893886,127.001762 L397.607197,128.108083 C397.941132,128.119924 398.198305,128.321506 398.181608,128.558329 C398.164911,128.795153 397.880668,128.977537 397.546732,128.965695 L397.546732,129 Z" id="Path" fill="#16325C"></path>
                            <path d="M367.557217,126.987999 L367.482312,126.987999 L341.852093,124.191679 C341.511496,124.154006 341.266253,123.85931 341.302785,123.531604 C341.348225,123.202411 341.658437,122.968101 342.001904,123.003544 L367.619639,125.799863 C367.964382,125.799863 368.243852,126.068523 368.243852,126.399931 C368.243852,126.73134 367.964382,127 367.619639,127 L367.557217,126.987999 Z" id="Path" fill="#16325C"></path>
                            <path d="M393.458981,142.989822 L393.458981,142.989822 L380.777026,141.926824 C380.433441,141.897553 380.186047,141.668587 380.222899,141.413974 C380.238609,141.29072 380.3212,141.177462 380.451768,141.100124 C380.582335,141.022785 380.749701,140.987987 380.915558,141.003694 L393.597513,142.066692 C393.945281,142.082142 394.210288,142.303403 394.189421,142.560893 C394.168555,142.818383 393.869718,143.014596 393.52195,142.999147 L393.458981,142.989822 Z" id="Path" fill="#16325C"></path>
                            <path d="M373.572622,140.999231 L373.497406,140.999231 L338.86053,137.202005 C338.518523,137.164044 338.272265,136.867096 338.308947,136.536886 C338.324586,136.377037 338.406798,136.230152 338.536766,136.129851 C338.666734,136.02955 338.833331,135.98442 338.998426,136.004791 L373.635302,139.789923 C373.981473,139.80662 374.248069,140.090869 374.23076,140.42481 C374.213452,140.758751 373.918793,141.015928 373.572622,140.999231 L373.572622,140.999231 Z" id="Path" fill="#16325C"></path>
                            <path d="M390.558078,153.990769 L390.484518,153.990769 L375.772489,152.840603 C375.438011,152.814056 375.197173,152.60639 375.233048,152.375463 C375.248343,152.263675 375.328745,152.160953 375.455852,152.090809 C375.582959,152.020665 375.745889,151.989105 375.907349,152.003351 L390.619378,153.153516 C390.95793,153.167528 391.215913,153.368206 391.1956,153.601742 C391.175286,153.835279 390.884369,154.013238 390.545818,153.999226 L390.558078,153.990769 Z" id="Path" fill="#16325C"></path>
                            <path d="M369.525315,151.998857 L369.525315,151.998857 L336.860473,148.25258 C336.520859,148.214648 336.275832,147.904354 336.313189,147.559519 C336.350547,147.214683 336.656142,146.965889 336.995756,147.003821 L369.660599,150.750098 C370.000213,150.770788 370.259006,151.067105 370.238629,151.411941 C370.218252,151.756776 369.926422,152.019547 369.586808,151.998857 L369.525315,151.998857 Z" id="Path" fill="#16325C"></path>
                            <g id="Group-3" transform="translate(0.000000, 28.000000)">
                                <path d="M39.3570804,5.08790583 L110.22123,5.23427961 C114.714682,5.24356108 118.355043,8.8838964 118.364357,13.3773485 L118.584668,119.665764 C118.594009,124.172398 114.948233,127.833319 110.441599,127.84266 C110.430343,127.842683 110.419087,127.842683 110.407831,127.84266 L39.5436816,127.696286 C35.0502295,127.687005 31.4098679,124.04667 31.400554,119.553218 L31.1802431,13.2648021 C31.1709019,8.75816827 34.8166779,5.09724714 39.3233118,5.08790595 C39.334568,5.08788262 39.3458242,5.08788258 39.3570804,5.08790583 Z" id="Rectangle" stroke="#16325C" stroke-width="2" fill="#0095E7" transform="translate(74.882456, 66.465283) rotate(-114.950000) translate(-74.882456, -66.465283) "></path>
                                <path d="M92.2159064,23.157024 L111.880547,23.1976424 C115.129489,23.2043533 117.761613,25.8364585 117.768347,29.0854005 L117.798672,43.7156098 C117.805426,46.9740829 115.169387,49.6210724 111.910914,49.6278265 C111.902775,49.6278433 111.894637,49.6278434 111.886498,49.6278266 L92.2218579,49.5872082 C88.9729158,49.5804973 86.3407917,46.9483921 86.3340574,43.69945 L86.3037324,29.0692407 C86.2969783,25.8107677 88.9330174,23.1637782 92.1914904,23.1570241 C92.1996291,23.1570072 92.2077678,23.1570072 92.2159064,23.157024 Z" id="Rectangle" fill="#005FB2" transform="translate(102.051202, 36.392425) rotate(-114.950000) translate(-102.051202, -36.392425) "></path>
                                <path d="M31.3949442,40.6568634 L33.0825606,40.6603493 C35.081486,40.6644782 36.7009115,42.2838921 36.7050548,44.2828174 L36.7561187,68.9184262 C36.7602741,70.9232155 35.1384399,72.551787 33.1336506,72.5559425 C33.1286432,72.5559529 33.1236359,72.5559529 33.1186285,72.5559425 L31.4310121,72.5524567 C29.4320867,72.5483278 27.8126612,70.9289139 27.8085179,68.9299885 L27.757454,44.2943798 C27.7532986,42.2895905 29.3751328,40.661019 31.3799221,40.6568635 C31.3849295,40.6568531 31.3899368,40.6568531 31.3949442,40.6568634 Z" id="Rectangle" fill="#005FB2" transform="translate(32.256786, 56.606403) rotate(-114.950000) translate(-32.256786, -56.606403) "></path>
                                <path d="M117.906125,60.3407509 L123.50188,60.3523093 C124.509603,60.3543908 125.326007,61.1707895 125.328096,62.1785122 L125.365671,80.3062794 C125.367766,81.3169584 124.550147,82.1379738 123.539468,82.1400687 C123.536943,82.1400739 123.534419,82.1400739 123.531895,82.1400687 L117.93614,82.1285104 C116.928417,82.1264289 116.112013,81.3100301 116.109924,80.3023074 L116.072349,62.1745402 C116.070254,61.1638613 116.887873,60.3428459 117.898552,60.340751 C117.901077,60.3407457 117.903601,60.3407457 117.906125,60.3407509 Z" id="Rectangle" fill="#005FB2" transform="translate(120.719010, 71.240410) rotate(-114.950000) translate(-120.719010, -71.240410) "></path>
                                <path d="M93.9982081,71.5362598 L99.5939628,71.5478181 C100.601686,71.5498996 101.41809,72.3662984 101.420179,73.3740211 L101.457754,91.5017883 C101.459848,92.5124672 100.64223,93.3334826 99.6315506,93.3355775 C99.6290262,93.3355828 99.6265018,93.3355828 99.6239775,93.3355776 L94.0282228,93.3240192 C93.0205001,93.3219377 92.2040955,92.505539 92.2020067,91.4978163 L92.1644321,73.3700491 C92.1623372,72.3593701 92.9799561,71.5383547 93.990635,71.5362598 C93.9931594,71.5362546 93.9956838,71.5362546 93.9982081,71.5362598 Z" id="Rectangle" fill="#005FB2" transform="translate(96.811093, 82.435919) rotate(-114.950000) translate(-96.811093, -82.435919) "></path>
                                <path d="M70.0739903,82.7134509 L75.669745,82.7250093 C76.6774677,82.7270908 77.4938723,83.5434895 77.4959611,84.5512122 L77.5335357,102.678979 C77.5356306,103.689658 76.7180117,104.510674 75.7073328,104.512769 C75.7048084,104.512774 75.702284,104.512774 75.6997597,104.512769 L70.104005,104.50121 C69.0962823,104.499129 68.2798777,103.68273 68.2777889,102.675007 L68.2402143,84.5472402 C68.2381194,83.5365612 69.0557383,82.7155458 70.0664172,82.7134509 C70.0689416,82.7134457 70.071466,82.7134457 70.0739903,82.7134509 Z" id="Rectangle" fill="#005FB2" transform="translate(72.886875, 93.613110) rotate(-114.950000) translate(-72.886875, -93.613110) "></path>
                                <path d="M46.1660731,93.8966233 L51.7618277,93.9081817 C52.7695505,93.9102632 53.5859551,94.7266619 53.5880439,95.7343846 L53.6256185,113.862152 C53.6277134,114.872831 52.8100945,115.693846 51.7994156,115.695941 C51.7968912,115.695946 51.7943668,115.695946 51.7918424,115.695941 L46.1960878,115.684383 C45.1883651,115.682301 44.3719605,114.865903 44.3698717,113.85818 L44.3322971,95.7304126 C44.3302022,94.7197337 45.1478211,93.8987183 46.1585,93.8966234 C46.1610244,93.8966181 46.1635487,93.8966181 46.1660731,93.8966233 Z" id="Rectangle" fill="#005FB2" transform="translate(48.978958, 104.796282) rotate(-114.950000) translate(-48.978958, -104.796282) "></path>
                            </g>
                            <path d="M406.575724,62 C406.374805,62.0017378 406.187336,61.8947257 406.08073,61.7171927 L390.276267,35.9186569 C390.121015,35.6349582 390.205898,35.274225 390.469466,35.0976077 C390.733035,34.9209905 391.08311,34.9902587 391.266256,35.255266 L407.070719,61.0538018 C407.245977,61.3388556 407.166908,61.7179852 406.893935,61.901468 C406.800683,61.9688702 406.68915,62.0033175 406.575724,62 L406.575724,62 Z" id="Path" fill="#0095E7"></path>
                            <path d="M357.634156,54 C357.394859,54 357.175044,53.8759776 357.062434,53.6774283 L348.359559,37.8714126 C348.279762,37.7324073 348.263091,37.5689765 348.313333,37.4182416 C348.363575,37.2675067 348.476466,37.1422625 348.626363,37.0709568 C348.77609,36.9954294 348.951752,36.9794533 349.114096,37.0265984 C349.27644,37.0737435 349.411933,37.1800801 349.490298,37.3218459 L358.193172,53.1278616 C358.353073,53.4219047 358.234744,53.7822099 357.926369,53.9402645 C357.833398,53.9759975 357.734512,53.9962121 357.634156,54 Z" id="Path" fill="#0095E7"></path>
                            <g id="Group-5" transform="translate(196.596311, 25.000000)">
                                <path d="M41.402922,35.7251577 L36.2565664,41.5751577 C32.9771465,45.6373198 22.5493281,42.7913739 12.9935651,35.1900225 C3.43780221,27.5886712 -1.67170599,18.1751577 1.64456135,14.1008333 L6.80319943,8.25083334 L41.402922,35.7251577 Z" id="Path" fill="#0095E7"></path>
                                <path d="M31.3927076,44.0440766 C26.479719,44.0440766 19.3927329,41.0400225 12.600526,35.6643469 C8.28961599,32.3709379 4.6683617,28.2770309 1.93934067,23.6116441 C-0.332916581,19.3913739 -0.615413429,15.8886712 1.12869754,13.7238063 L6.2996181,7.84948199 C6.51661034,7.60398706 6.89057978,7.57178651 7.14710864,7.77650901 L41.7836786,35.2021847 C41.918199,35.3001187 42.0033088,35.4509286 42.0170456,35.6156982 C42.0305013,35.7828721 41.9776302,35.9486572 41.8696559,36.0778604 L36.7110178,41.9278604 C35.365227,43.4112443 33.4008777,44.1928813 31.3927076,44.0440766 L31.3927076,44.0440766 Z M6.82776438,9.09002253 L2.07444786,14.526509 C0.686528564,16.2413739 1.03043777,19.3913739 3.02019817,23.0400225 C5.6692304,27.5669995 9.18658835,31.5374282 13.3743218,34.7278604 C22.5001982,42.0251577 32.756062,44.9319144 35.77755,41.2102928 L40.518584,35.8102928 L6.82776438,9.09002253 Z" id="Shape" fill="#16325C"></path>
                                <ellipse id="Oval" fill="#006CD0" transform="translate(24.075132, 21.977027) rotate(-51.310000) translate(-24.075132, -21.977027) " cx="24.0751317" cy="21.977027" rx="9.45050856" ry="22.1095234"></ellipse>
                                <path d="M36.5390632,38.1819144 C31.6260746,38.1819144 24.526806,35.1778604 17.7591641,29.8143469 C13.4414439,26.5246358 9.8155016,22.4301461 7.08569628,17.7616441 C4.81343903,13.5413739 4.53094218,10.0386712 6.28733563,7.87380631 L6.28733563,7.87380631 C8.0314466,5.70894145 11.556516,5.2102928 16.1992902,6.48731983 C21.3963668,8.10318947 26.2239792,10.7102638 30.4101099,14.1616441 C40.3957593,22.0792117 45.4315727,31.7116441 41.8819384,36.053536 C40.5297839,37.5437874 38.556743,38.3297645 36.5390632,38.1819144 Z M11.6179283,7.02245496 C9.98950903,6.86990787 8.37971191,7.46095226 7.24536841,8.62786037 L7.24536841,8.62786037 C5.83288418,10.3670496 6.17679338,13.4927252 8.17883626,17.1413739 C10.8242525,21.6672464 14.3373687,25.6375968 18.5206774,28.8292117 C27.6465538,36.126509 37.9147001,39.0332658 40.9239056,35.3116441 C43.9331112,31.5900225 38.7744731,22.3102928 29.6363142,15.0738063 C25.5829154,11.7244 20.9049133,9.19550238 15.8676635,7.63056307 C14.4856757,7.23710792 13.0558685,7.03251228 11.6179283,7.02245496 Z" id="Shape" fill="#16325C"></path>
                                <path d="M16.0273356,11.5832658 L18.2750279,13.699482 L18.5329598,13.699482 C19.2576257,13.8332658 19.9454441,13.9305631 20.6823924,14.1129955 C22.6189193,14.6260613 24.4485324,15.4742624 26.0866799,16.6184009 C27.1109147,17.3065775 28.0399621,18.1243084 28.850236,19.0508333 C29.3594373,19.5525127 29.6985252,20.1985444 29.8205513,20.899482 C29.8719153,21.4076789 29.5971567,21.8935133 29.1327329,22.1156982 C28.7765412,22.3589414 28.3835021,22.5778604 27.990463,22.8211036 L32.2156332,26.7981306 C32.9402991,26.2873198 32.6209548,25.4238063 31.6260746,24.3656982 L34.2176761,23.9278604 C35.0059676,24.6053901 35.649133,25.432488 36.1091767,26.3602928 C36.5088688,27.0740185 36.4259981,27.9573591 35.9003747,28.5859685 C35.6424428,28.8656982 35.2862511,29.1089414 34.9669069,29.3886712 L36.5022158,30.8359685 L34.0457215,31.6021847 L32.4735651,30.1305631 C31.7120519,30.1305631 30.9996685,30.1305631 30.2135904,30.1305631 C28.6983023,29.9871786 27.2213871,29.5752213 25.8533129,28.9143469 C23.9973713,28.1025014 22.32626,26.9276343 20.9403243,25.4602928 C19.52784,23.9278604 19.2207782,22.7238063 20.0928337,21.9089414 C20.6752892,21.4128524 21.3517027,21.0366135 22.0825941,20.8021847 L22.3773735,20.6927252 L18.0907909,16.6792117 L17.9679661,16.6792117 C17.8708283,16.9382017 17.8048665,17.207629 17.7714466,17.4819144 C17.9109716,18.0313382 18.2253383,18.5217225 18.668067,18.8805631 L14.6516988,19.1238063 C14.3323545,18.7832658 14.0130103,18.4548874 13.7305134,18.126509 C12.6987858,16.9102928 12.3057467,15.9008333 12.625091,15.1102928 C13.0521671,14.3343383 13.8476927,13.8259756 14.7376761,13.7602928 C14.8727833,13.7602928 14.8727833,13.6873198 14.7376761,13.553536 C13.9638804,12.8481306 13.2023672,12.1305631 12.4408539,11.4129955 L16.0273356,11.5832658 Z M25.7304882,23.8670496 C25.3497316,24.1711036 24.8584327,24.4021847 24.9566925,24.9738063 C25.0549523,25.5454279 26.3937417,26.7373198 27.6342713,27.1508333 C28.2444337,27.3667828 28.8905094,27.4658404 29.5380544,27.4427252 L25.7304882,23.8670496 Z M24.7478905,19.7927252 C25.0795172,19.6102928 25.4111439,19.4643469 25.4602738,19.1359685 C25.5462511,18.5278604 24.2320267,17.372455 22.8809548,16.8859685 C22.3036786,16.6670496 21.7509674,16.5454279 21.1122789,16.3629955 L24.7478905,19.7927252 Z" id="Shape" fill="#0095E7"></path>
                            </g>
                            <g id="Group-4" transform="translate(124.743852, 174.000000)">
                                <path d="M44.5666978,8.79411688 L47.5617977,15.9725544 C49.7622792,20.7013044 42.5862644,28.6841169 31.534957,33.8272419 C20.4836496,38.9703669 9.72573979,39.2872419 7.51303334,34.5706794 L4.51793344,27.3800544 L44.5666978,8.79411688 Z" id="Path" fill="#0095E7"></path>
                                <path d="M15.5325661,38.5316169 C11.2660769,38.5316169 8.11205332,37.3128669 6.97513785,34.8753669 L3.96781305,27.6725544 C3.84483832,27.3694553 3.97842438,27.023194 4.27343549,26.8803669 L44.3221998,8.29442938 C44.4739621,8.22716371 44.6472086,8.22716371 44.7989708,8.29442938 C44.9545158,8.35757458 45.077929,8.48061029 45.141268,8.63567938 L48.1363679,15.8141169 C50.507998,20.8963044 43.344208,29.0863044 31.8039048,34.4488044 C26.7253326,36.9268067 21.1827018,38.3175664 15.5325661,38.5316169 Z M5.31255178,27.6847419 L8.07537863,34.3269294 C10.0924867,38.6413044 20.7159227,38.1659919 31.302684,33.2666169 C41.8894452,28.3672419 49.0532352,20.5672419 47.0239022,16.2041169 L44.2733002,9.58630438 L5.31255178,27.6847419 Z" id="Shape" fill="#16325C"></path>
                                <ellipse id="Oval" fill="#006CD0" transform="translate(24.535369, 18.094683) rotate(-24.970000) translate(-24.535369, -18.094683) " cx="24.5353694" cy="18.0946834" rx="22.0783501" ry="9.43831947"></ellipse>
                                <path d="M12.5007915,31.3288044 C8.09982842,31.3288044 5.08027873,30.0369294 3.94336326,27.6725544 C1.49838375,22.5781794 8.7232982,14.3759919 20.2636015,9.02567938 C31.8039048,3.67536688 42.7085134,3.46817938 45.0923684,8.57474188 C47.4762234,13.6813044 40.3124334,21.8713044 28.7721302,27.2338044 C23.8984255,29.6027724 18.6082858,31.0019853 13.1976107,31.3531794 L12.5007915,31.3288044 Z M36.6205144,6.14942938 C31.1266002,6.3745613 25.7396251,7.73586158 20.801497,10.1469294 C10.2514104,15.0219294 3.05094574,22.8463044 5.06805383,27.2094294 C6.02159584,29.2325544 9.00447084,30.3050544 13.1853858,30.1831794 C18.4324932,29.843353 23.5618436,28.4810908 28.2831343,26.1734919 C38.8332208,21.2984919 46.0336855,13.4741169 44.0043525,9.11099188 C43.0752603,7.06349188 40.3368832,6.14942938 36.6205144,6.14942938 Z" id="Shape" fill="#16325C"></path>
                                <path d="M11.608374,20.6281794 L14.5056747,19.5678669 L14.6645984,19.3606794 C15.1046947,18.7756794 15.4836665,18.1419294 15.9848873,17.6300544 C17.3065617,16.1493987 18.8789641,14.9118259 20.6303484,13.9738044 C21.7068395,13.3721271 22.8575686,12.9132436 24.0533197,12.6088044 C24.7327007,12.3890131 25.4643962,12.3890131 26.1437772,12.6088044 C26.600286,12.795765 26.8992573,13.2380427 26.9017208,13.7300544 C26.9017208,14.1566169 26.9872951,14.6075544 27.0239698,15.0584919 L32.4762741,13.0719294 C32.3295753,12.1944294 31.4249329,12.0969294 30.0312946,12.5113044 L30.7770134,10.0738044 C31.7504575,9.67673468 32.793747,9.47783148 33.8454626,9.48880438 C34.6764481,9.44939304 35.4415145,9.93831993 35.7525467,10.7075544 C35.8847279,11.1065518 35.9908984,11.5136506 36.070394,11.9263044 L38.0508274,11.2072419 L37.6596307,13.7300544 L35.6425226,14.4856794 C35.3002254,15.1559919 35.0068279,15.8019294 34.6156312,16.4844294 C33.8305681,17.7705981 32.8202481,18.905795 31.6327562,19.8359919 C30.0910748,21.128237 28.2968245,22.0869468 26.3638253,22.6513044 C24.3589422,23.2363044 23.1486773,22.9681794 22.7941553,21.8347419 C22.6037531,21.09871 22.5621962,20.332259 22.6719063,19.5800544 C22.6719063,19.4703669 22.6719063,19.3606794 22.6719063,19.2631794 L17.1707024,21.2984919 L17.0729032,21.3838044 C17.259324,21.5871144 17.4732845,21.763502 17.7085979,21.9078669 C18.2625541,22.0337467 18.8427009,21.9737674 19.3589591,21.7372419 L17.8063971,25.3934919 C17.3540759,25.5275544 16.9262044,25.6616169 16.5105579,25.7591169 C14.9579959,26.1491169 13.8699801,26.0516169 13.2954099,25.4056794 C12.7981489,24.6913917 12.6925965,23.7763527 13.0142372,22.9681794 C13.0142372,22.8463044 13.0142372,22.8219294 12.8186389,22.8950544 L9.87243856,23.9797419 L11.608374,20.6281794 Z M26.9628453,17.4594294 C27.0728694,17.9347419 27.0606445,18.4709919 27.6107649,18.6781794 C28.8134925,18.6643768 29.9562011,18.1521725 30.7647885,17.2644294 C31.2284827,16.8148869 31.6019034,16.2812878 31.8650292,15.6922419 L26.9628453,17.4594294 Z M22.8552798,16.5209919 C22.8552798,16.1553669 22.8552798,15.7775544 22.5741071,15.5947419 C22.0728863,15.2534919 20.4591998,15.8994294 19.4078586,16.8866169 C18.9677623,17.3009919 18.6132403,17.7397419 18.1853689,18.2272419 L22.8552798,16.5209919 Z" id="Shape" fill="#0095E7"></path>
                            </g>
                            <g id="Group-8" transform="translate(212.563525, 125.000000)">
                                <path d="M8.02979441,13.0743741 C3.63565938,20.2865363 8.56054667,36.2676173 8.56054667,36.2676173 L15.0653477,40.9378876 C21.3735041,44.6768651 29.2268735,44.8157879 35.6671676,41.3023251 C42.1074617,37.7888623 46.1562467,31.1567924 46.2883844,23.9043521 C46.4205221,16.6519118 42.6159377,9.88091917 36.3077814,6.14194166 L29.099425,2.65140112 C29.099425,2.65140112 12.4239294,5.87437409 8.02979441,13.0743741 Z" id="Path" fill="#0095E7"></path>
                                <path d="M25.6433638,44.4527525 C21.8063755,44.4460806 18.0433797,43.4119208 14.7567708,41.4608606 L8.19025439,36.766266 C8.08406421,36.686718 8.00626455,36.5759878 7.96807903,36.4500498 C7.75824674,35.7811308 3.03084866,20.116266 7.49904214,12.7581579 L7.49904214,12.7581579 C11.9919218,5.46086058 28.2600959,2.18923896 28.9513081,2.05545517 C29.0763121,2.0199769 29.2089395,2.0199769 29.3339435,2.05545517 L36.566986,5.54599571 C44.7511893,10.3831533 48.653806,20.0068694 46.1061982,29.0693594 C43.5585905,38.1318494 35.1869769,44.4054942 25.6433638,44.4041038 L25.6433638,44.4527525 Z M9.09129894,35.939239 L15.43564,40.4757254 C24.8929424,46.0423859 37.1384896,43.0177101 42.8125824,33.7135633 C48.4864549,24.3954346 45.4326088,12.3101198 35.9868614,6.70140112 L28.9883373,3.3324822 C27.0998467,3.72167139 12.510331,6.98113085 8.56054667,13.4270768 L8.56054667,13.4270768 C4.61076237,19.9216714 8.56054667,34.0784281 9.09129894,35.9027525 L9.09129894,35.939239 Z" id="Shape" fill="#16325C"></path>
                                <ellipse id="Oval" fill="#006CD0" cx="21.1998564" cy="20.8824822" rx="20.6005937" ry="20.2986486"></ellipse>
                                <path d="M21.1628272,41.813637 C12.2061162,41.7902483 4.22893809,36.2275489 1.22772608,27.9122848 C-1.77348593,19.5970206 0.847753869,10.3203679 7.77824804,4.72977491 C14.7087422,-0.860818076 24.4556054,-1.56109168 32.1358217,2.9797795 L32.1358217,2.9797795 C40.3224112,7.82004014 44.2199299,17.4518424 41.6591626,26.5144808 C39.0983954,35.5771192 30.7100735,41.8384155 21.1628272,41.813637 Z M21.2368856,1.21626598 C11.2383334,1.20141846 2.76750697,8.47026006 1.4087199,18.2308746 C0.0499328166,27.9914891 6.22144294,37.2393928 15.8547396,39.8779911 C25.4880363,42.5165894 35.6178264,37.7336768 39.56614,28.6823439 C43.5144535,19.631011 40.0659323,9.09741257 31.4939817,4.02572544 C28.3981525,2.18404857 24.8531575,1.2046535 21.2368856,1.19194166 L21.2368856,1.21626598 Z" id="Shape" fill="#16325C"></path>
                                <path d="M9.64673735,11.5784281 L12.2140971,13.1108606 C12.3869002,13.2081579 12.4733017,13.1959957 12.5967325,13.0500498 C13.6045193,11.9461246 14.8778793,11.1096605 16.2996553,10.6176173 C17.7833062,10.1016344 19.4069631,10.136226 20.8665934,10.7149146 C21.2615718,10.8730227 21.6442072,11.0554552 22.100901,11.2378876 L19.7063442,15.1541038 C19.1037944,14.8049571 18.3987899,14.6677381 17.7067659,14.7649146 C17.175062,14.9016839 16.6516917,15.0681695 16.1391953,15.2635633 L16.1391953,15.3608606 L21.0764257,18.3041038 L21.4343749,17.939239 C22.2946498,17.0218968 23.2597062,16.2056637 24.3103116,15.5068065 C25.8871851,14.3876702 27.9627506,14.2191915 29.7042357,15.0689687 C31.366295,15.7368213 32.6959363,17.0207709 33.4071585,18.6446444 C33.9931149,19.9645601 34.1400195,21.4333612 33.8268231,22.8405903 C33.641677,23.716266 33.3454431,24.5797795 33.0862385,25.4797795 L35.0117584,26.6230227 L32.8146909,30.2716714 L30.8397987,29.0554552 C30.1856157,29.6635633 29.6054911,30.2716714 28.9759943,30.8068065 C27.7498827,31.8656346 26.1976718,32.4868438 24.5695161,32.57032 C23.1691623,32.6040827 21.7901705,32.2273494 20.6073888,31.4878876 L22.9525732,27.6324822 C24.3824911,28.4084415 26.1627039,28.1443269 27.2973359,26.9878876 L21.9774702,23.8500498 C21.3232872,24.4459957 20.6691042,25.066266 20.0025781,25.6500498 C19.2214555,26.3895522 18.2677007,26.9283568 17.225386,27.2189687 C16.1549651,27.4824223 15.0274254,27.4058007 14.0038432,27.0000498 C12.727335,26.5615028 11.5993189,25.7826229 10.7452711,24.7500498 C9.50590319,23.2358954 9.01301252,21.2575849 9.39987583,19.3500498 C9.54799275,18.5838336 9.85656964,17.8419417 10.078745,17.1000498 C10.078745,17.0149146 10.078745,16.9297795 10.1774896,16.8324822 L7.51138522,15.2514011 L9.64673735,11.5784281 Z M29.4944034,23.3270768 C29.7799148,22.6894953 29.8741455,21.9846825 29.7659511,21.2959957 C29.5371323,20.0831309 28.4230989,19.2311028 27.1739052,19.3135633 C26.3198516,19.5450662 25.5469308,20.0037044 24.9398084,20.639239 L29.4944034,23.3270768 Z M13.5101201,18.7905903 C13.4223122,19.3865963 13.3810475,19.9883627 13.3866894,20.5905903 C13.4421886,21.2502615 13.7896715,21.8523844 14.3366428,22.2366823 C14.8836141,22.6209801 15.5745734,22.7484587 16.2255968,22.5851849 C16.8754515,22.305051 17.4564172,21.8902319 17.9289413,21.3689687 L13.5101201,18.7905903 Z" id="Shape" fill="#0095E7"></path>
                            </g>
                        </g>
                    </g>
                </g>
            </g>
        </g>
    </g>
</svg>