<?xml version="1.0" encoding="UTF-8"?>
<svg width="377px" height="430px" viewBox="0 0 377 430" version="1.1" xmlns="http://www.w3.org/2000/svg" xmlns:xlink="http://www.w3.org/1999/xlink">
    <title>Group 4</title>
    <defs>
        <rect id="path-1" x="0.142857143" y="0" width="375" height="430"></rect>
    </defs>
    <g id="Policy-Holder-Screens-⚡️" stroke="none" stroke-width="1" fill="none" fill-rule="evenodd">
        <g id="M---Billing-(Expanded)" transform="translate(1.000000, -66.000000)">
            <g id="Group-4" transform="translate(-1.000000, 66.000000)">
                <g id="1dkwwn1dr-s-danielle-macinnes" transform="translate(0.857143, 0.000000)">
                    <mask id="mask-2" fill="white">
                        <use xlink:href="#path-1"></use>
                    </mask>
                    <use id="Mask" fill="#0070D2" xlink:href="#path-1"></use>
                    <g id="Group" mask="url(#mask-2)">
                        <g transform="translate(30.142857, 266.000000)" id="Illustration/Hero/Billling">
                            <rect id="Rectangle" fill="#0070D2" x="0" y="0" width="392" height="213.672131"></rect>
                            <g id="online_payment" transform="translate(0.803279, 0.000000)" fill-rule="nonzero">
                                <path d="M289.223646,11.2472784 L289.489546,11.2561611 L376.353502,18.2250203 L376.864433,17.8606904 C377.48865,17.4143438 378.147305,16.9391357 378.80653,16.4608454 L379.370929,16.0507288 C381.716589,14.3437751 383.946072,12.6914561 384.516476,12.2681187 L384.620729,12.1907154 L384.640503,12.1760252 L384.656533,12.1641126 C385.467552,13.4602464 386.211967,14.6769405 386.879327,15.7854949 L387.206538,16.3306275 C388.576223,18.6192731 389.586573,20.3929452 390.135838,21.3721408 C391.066077,22.6414956 391.432837,24.2996522 391.041937,26.074604 L390.973891,26.3557905 L342.220149,207.847415 C341.095355,211.604176 337.449675,214.020166 333.554545,213.63117 L333.294525,213.601065 L239.079605,200.248255 C237.761124,200.088482 236.548469,199.490664 235.627497,198.569642 C235.562574,198.633924 235.476787,198.679994 235.380429,198.698816 L235.281256,198.728423 C235.108168,198.7257 234.948,198.63674 234.854809,198.491566 L229.003567,188.780432 C228.882231,188.576386 228.923874,188.315309 229.102741,188.158683 L237.195306,180.875332 C237.244731,180.830968 237.301371,180.79794 237.361572,180.776695 L280.940781,17.2960128 C282.023149,13.6456997 285.421463,11.1791492 289.223646,11.2472784 Z" id="Combined-Shape" fill="#16325C"></path>
                                <path d="M233.315858,189.00424 L327.62413,202.357201 C331.618013,202.87445 335.400595,200.438502 336.558598,196.603486 L385.35072,15.1098002 C386.343439,11.3496537 383.931132,8.04348812 379.930476,7.71780614 L283.745965,0.00999924392 C279.83184,-0.178508565 276.2945,2.31534545 275.178803,6.04991963 L228.382046,181.513554 C227.879716,183.167478 228.139448,184.95762 229.091457,186.402993 C230.043466,187.848366 231.590121,188.800745 233.315858,189.00424 Z" id="Path" fill="#0095E7"></path>
                                <polygon id="Path" fill="#005FB2" points="375.934426 27.7467708 277.823845 19.2786885 240.180328 160.702564 336.856399 173.508197"></polygon>
                                <path d="M332.864521,154.229508 C332.671348,154.230542 332.495785,154.118687 332.416941,153.944336 L312.524472,112.359402 C312.466863,112.240871 312.459684,112.104463 312.504541,111.980661 C312.549397,111.856859 312.64255,111.755982 312.763182,111.700573 C313.010458,111.588506 313.302926,111.69365 313.419633,111.936571 L333.312102,153.531338 C333.369339,153.648433 333.376268,153.78343 333.331313,153.905652 C333.286358,154.027873 333.193338,154.126938 333.073392,154.180335 C333.007825,154.210455 332.936783,154.227178 332.864521,154.229508 L332.864521,154.229508 Z" id="Path" fill="#0095E7"></path>
                                <path d="M271.552499,189.35599 L289.892249,191.946136 C292.298025,192.243173 294.563877,190.747336 295.243816,188.413216 L297.063943,181.555779 C297.372615,180.501495 297.197111,179.36406 296.58515,178.452746 C295.973188,177.541433 294.988383,176.950972 293.898506,176.841911 L275.538971,174.34108 C273.15775,174.080076 270.932351,175.568465 270.256648,177.874 L268.446414,184.671894 C268.137777,185.713516 268.306208,186.838856 268.906161,187.743609 C269.506115,188.648363 270.475615,189.239067 271.552499,189.35599 L271.552499,189.35599 Z" id="Path" fill="#16325C"></path>
                                <path d="M346.445261,15.2622951 L346.445261,15.2622951 L318.548396,13.0039847 C318.372495,12.9886654 318.218401,12.8837014 318.14416,12.7286317 C318.069919,12.573562 318.086811,12.3919453 318.188472,12.2521949 C318.290133,12.1124445 318.461119,12.0357918 318.63702,12.0511111 L346.524038,14.2998928 C346.795958,14.2998928 347.016393,14.5132008 347.016393,14.7763296 C347.016393,15.0394583 346.795958,15.2527663 346.524038,15.2527663 L346.445261,15.2622951 Z" id="Path" fill="#16325C"></path>
                                <path d="M314.301983,12.8463784 L314.301983,12.8463784 L310.520828,12.6578787 C310.388054,12.6517504 310.265033,12.6133904 310.179786,12.5515354 C310.094539,12.4896804 310.054322,12.4095969 310.068296,12.3295243 C310.094869,12.1629723 310.335167,12.0391992 310.611335,12.049815 L314.382433,12.2443954 C314.660129,12.2443954 314.885246,12.3805151 314.885246,12.5484272 C314.885246,12.7163393 314.660129,12.852459 314.382433,12.852459 L314.301983,12.8463784 Z" id="Path" fill="#0031AC"></path>
                                <path d="M341.980493,106.032787 C341.980493,106.032787 353.979511,66.3501222 343.576421,57.5559061 L292.664328,51.4098361 C292.664328,51.4098361 283.935977,60.5301298 282.674997,67.5358592 C281.414016,74.5415886 270.853303,89.4621124 274.793868,98.365021 L341.980493,106.032787 Z" id="Path" fill="#16325C"></path>
                                <path d="M342.329648,106.032787 L342.280489,106.032787 L275.217548,98.3811415 C275.046098,98.3601462 274.897507,98.2522441 274.824274,98.0955589 C272.100856,91.9309128 276.082749,83.03846 279.287927,75.8890462 C280.870853,72.3635777 282.237477,69.3107977 282.630751,67.0852226 C283.899057,60.0342855 292.364267,51.1319851 292.728045,50.7577733 C292.834928,50.6463702 292.987821,50.5916776 293.140982,50.6100582 L343.951901,56.7451612 C344.045192,56.7579263 344.133417,56.7953121 344.207528,56.8534857 C354.717759,65.7163954 343.224345,104.063251 342.77208,105.688118 C342.710844,105.884213 342.534477,106.021609 342.329648,106.032787 Z M275.650149,97.4357645 L341.975702,105.008628 C343.175186,100.892299 352.997188,65.8739582 343.715937,57.7397767 L293.298291,51.653912 C292.098807,52.9538054 284.744595,61.0682916 283.623766,67.3018715 C283.200997,69.6456187 281.814709,72.7476371 280.21212,76.3321917 C277.183915,83.1566322 273.320004,91.6748732 275.650149,97.4357645 Z" id="Shape" fill="#16325C"></path>
                                <line x1="261.868852" y1="94.7868852" x2="347.016393" y2="106.836066" id="Path" fill="#16325C"></line>
                                <path d="M346.52028,106.836066 L346.451416,106.836066 L261.483083,94.9579763 C261.218341,94.917604 261.034676,94.6736472 261.069899,94.4091537 C261.105597,94.1414486 261.351981,93.9529778 261.620811,93.9877363 L346.589144,105.865826 C346.859298,105.906251 347.047336,106.154565 347.012166,106.424449 C346.969426,106.661945 346.762479,106.835121 346.52028,106.836066 Z" id="Path" fill="#16325C"></path>
                                <path d="M343.803279,57.522731 C343.803279,57.522731 338.614538,58.2337624 335.43594,68.9979877 C330.573971,85.4702151 324.167263,120.23175 320.117273,133.306828 C314.175967,152.326917 298.332485,155.032787 298.332485,155.032787 L231.344262,145.344984 C231.344262,145.344984 258.604954,135.923818 263.209466,119.905861 C268.05163,103.02874 274.755403,71.1409574 276.567502,64.0207679 C279.765904,51.4098361 292.658538,51.4098361 292.658538,51.4098361 L343.803279,57.522731 Z" id="Path" fill="#0095E7"></path>
                                <path d="M298.699728,155.032787 L298.630547,155.032787 L231.771623,145.362049 C231.545439,145.327536 231.370939,145.145383 231.346651,144.918437 C231.324442,144.693131 231.458956,144.481705 231.672792,144.405819 C231.949518,144.317096 258.70297,134.892809 263.170115,119.33682 C266.520474,107.655041 270.819606,88.5501576 273.656045,75.9022909 C274.930961,70.2339172 275.939033,65.7485085 276.492485,63.5698814 C279.744012,50.754428 292.908253,50.6065574 293.036733,50.6065574 L344.171703,56.748117 C344.417504,56.7777322 344.603392,56.9842199 344.606557,57.231161 C344.604775,57.477005 344.42501,57.6855047 344.181586,57.7240631 C344.102521,57.7240631 339.240054,58.6211448 336.275135,68.8242174 C333.814252,77.1444041 330.977813,90.1175862 328.220438,102.666872 C325.532245,114.95985 322.982415,126.572622 320.986036,133.029639 C317.90252,142.976403 312.091279,148.427899 307.683433,151.247299 C304.981795,153.052606 301.964748,154.33662 298.788676,155.032787 L298.699728,155.032787 Z M233.797651,144.662128 L298.689845,154.046983 C299.846163,153.81039 314.502746,150.547378 319.99773,132.733898 C321.974342,126.316313 324.534056,114.723257 327.222249,102.459854 C329.969741,89.8908512 332.825946,76.897953 335.286829,68.5481922 C337.372155,61.4996928 340.317308,58.6901511 342.204973,57.4973281 L292.977434,51.5825034 C292.522813,51.5825034 280.514891,51.7500901 277.451142,63.8163325 C276.907573,65.9752435 275.899501,70.4507941 274.624586,76.1191678 C271.778263,88.7768926 267.479131,107.901492 264.118889,119.612845 C261.697539,128.021754 253.079507,134.577352 246.270077,138.589574 C242.271126,140.922826 238.10189,142.952737 233.797651,144.662128 L233.797651,144.662128 Z" id="Shape" fill="#16325C"></path>
                                <path d="M311.194816,134.147541 L311.137867,134.147541 L302.453153,133.34183 C302.194206,133.316538 302.007753,133.118694 302.035527,132.898689 C302.047368,132.792188 302.109614,132.694324 302.208018,132.627498 C302.306422,132.560672 302.432559,132.530604 302.557559,132.544176 L311.251765,133.349887 C311.510712,133.375179 311.697165,133.573023 311.669391,133.793028 C311.636487,133.994675 311.434617,134.145475 311.194816,134.147541 L311.194816,134.147541 Z" id="Path" fill="#16325C"></path>
                                <path d="M294.29314,132.540088 L294.235488,132.540088 L267.917359,129.497126 C267.655215,129.466412 267.466461,129.226153 267.494578,128.958982 C267.506565,128.829649 267.569579,128.710805 267.669197,128.629652 C267.768816,128.548499 267.896511,128.511985 268.023054,128.528467 L294.350792,131.561644 C294.616128,131.577855 294.81832,131.81003 294.802399,132.080219 C294.786479,132.350409 294.558476,132.5563 294.29314,132.540088 L294.29314,132.540088 Z" id="Path" fill="#16325C"></path>
                                <path d="M302.339367,144.589441 L302.283232,144.589441 L294.415014,143.787964 C294.247889,143.770784 294.104159,143.678528 294.037964,143.545949 C293.97177,143.41337 293.993168,143.26061 294.094099,143.145211 C294.19503,143.029812 294.360159,142.969307 294.527284,142.986488 L302.395501,143.787964 C302.562626,143.796555 302.711707,143.880873 302.786585,144.009156 C302.861464,144.13744 302.850764,144.290201 302.758518,144.409895 C302.666271,144.529589 302.506492,144.598031 302.339367,144.589441 L302.339367,144.589441 Z" id="Path" fill="#16325C"></path>
                                <path d="M285.477133,142.983607 L285.418661,142.983607 L259.895665,139.973614 C259.626555,139.943137 259.432396,139.693827 259.461998,139.416765 C259.4916,139.139703 259.733754,138.939806 260.002863,138.970283 L285.535605,141.980276 C285.801478,142.011771 285.992916,142.258141 285.964399,142.532108 C285.935068,142.787188 285.726602,142.980351 285.477133,142.983607 Z" id="Path" fill="#D1D3D4"></path>
                                <path d="M298.016393,155.836066 C290.061605,148.438999 286.07007,137.679216 287.261684,126.84513 L216.885246,114.065574 C216.885246,114.065574 222.92176,137.779082 230.950621,146.04938 L298.016393,155.836066 Z" id="Path" fill="#0095E7"></path>
                                <path d="M298.301418,155.83547 L298.232208,155.83547 L231.345605,146.09511 C231.237015,146.076365 231.13686,146.024342 231.058877,145.946175 C223.050282,137.715024 217.14765,114.858438 216.900471,113.885395 C216.858904,113.72279 216.90375,113.550153 217.019117,113.428661 C217.133056,113.300126 217.305152,113.240013 217.473926,113.269797 L287.672727,125.988861 C287.92381,126.043178 288.094117,126.278341 288.068213,126.534956 C286.944277,137.150436 290.855231,147.678958 298.627695,154.961717 C298.79709,155.090573 298.863094,155.315247 298.790471,155.515805 C298.717848,155.716363 298.523554,155.845982 298.311306,155.83547 L298.301418,155.83547 Z M231.652106,145.131996 L296.828232,154.624131 C289.671562,147.269846 286.089602,137.131837 287.030062,126.892401 L218.057268,114.391775 C219.16463,118.452741 224.681662,137.814314 231.652106,145.131996 Z" id="Shape" fill="#16325C"></path>
                                <path d="M326.408908,72.2944863 L326.359853,72.2944863 L283.191013,67.6114439 C283.05937,67.599938 282.938499,67.5371906 282.856827,67.4379592 C282.775155,67.3387277 282.73989,67.2117694 282.759325,67.0869432 C282.790123,66.8314172 283.031036,66.6474284 283.298935,66.6748355 L326.467775,71.3578778 C326.738701,71.3708097 326.947349,71.59096 326.933802,71.8495972 C326.920256,72.1082345 326.689646,72.3074181 326.41872,72.2944863 L326.408908,72.2944863 Z" id="Path" fill="#16325C"></path>
                                <path d="M324.827885,84.3442623 L324.770812,84.3442623 L316.913755,83.5672671 C316.743836,83.5495483 316.597703,83.4544019 316.530402,83.3176685 C316.463101,83.1809351 316.484857,83.0233878 316.587475,82.9043732 C316.690093,82.7853585 316.857982,82.7229577 317.027901,82.7406764 L324.875446,83.5094057 C325.045364,83.5167885 325.197843,83.6023842 325.275445,83.7339496 C325.353046,83.865515 325.343981,84.0230623 325.251664,84.1472449 C325.159347,84.2714276 324.997803,84.3433792 324.827885,84.3359964 L324.827885,84.3442623 Z" id="Path" fill="#16325C"></path>
                                <path d="M307.079008,82.7368001 L307.079008,82.7368001 L280.789105,79.7274854 C280.514945,79.6970154 280.317142,79.447762 280.3473,79.1707622 C280.377458,78.8937625 280.624156,78.6939106 280.898316,78.7243806 L307.188218,81.7336952 C307.365568,81.7444464 307.52377,81.8499763 307.60323,82.0105328 C307.68269,82.1710893 307.671336,82.36228 307.573445,82.5120853 C307.475555,82.6618905 307.305999,82.7475513 307.128649,82.7368001 L307.079008,82.7368001 Z" id="Path" fill="#16325C"></path>
                                <path d="M321.625794,95.5901639 L321.566401,95.5901639 L308.094206,93.6443171 C307.822687,93.5983269 307.629428,93.2843604 307.658661,92.9367364 C307.69469,92.5901535 307.940656,92.3434655 308.21299,92.3807801 L321.675288,94.3392624 C321.806132,94.3550251 321.926364,94.4378887 322.008465,94.568887 C322.090566,94.6998854 322.127507,94.8678036 322.110832,95.0342077 C322.081095,95.3484617 321.873755,95.5861174 321.625794,95.5901639 L321.625794,95.5901639 Z" id="Path" fill="#16325C"></path>
                                <path d="M295.120089,91.5737705 L295.062056,91.5737705 L278.367761,89.4338502 C278.194983,89.4128259 278.045469,89.2914321 277.97554,89.1153965 C277.90561,88.939361 277.925889,88.7354277 278.028737,88.5804164 C278.131585,88.4254052 278.301378,88.3428658 278.474156,88.3638901 L295.178123,90.4503124 C295.443428,90.4892568 295.632265,90.7551229 295.603701,91.04949 C295.593499,91.3383755 295.381389,91.5683221 295.120089,91.5737705 Z" id="Path" fill="#16325C"></path>
                                <path d="M319.996549,103.622951 L319.938145,103.622951 L308.890182,102.706711 C308.623185,102.681636 308.433145,102.510456 308.461891,102.320926 C308.501976,102.133863 308.740697,102.001116 309.006988,102.017809 L320.045218,102.906493 C320.314012,102.916004 320.521017,103.077931 320.507578,103.268166 C320.494138,103.458401 320.265342,103.604906 319.996549,103.595395 L319.996549,103.622951 Z" id="Path" fill="#16325C"></path>
                                <path d="M295.857144,102.006753 L295.79685,102.006753 L275.166367,99.7605294 C274.892211,99.730267 274.694808,99.4935441 274.724213,99.2303049 C274.760789,98.9658715 275.010488,98.7776553 275.286954,98.8061253 L295.907389,101.052349 C296.184883,101.052349 296.409836,101.268158 296.409836,101.534371 C296.409836,101.800585 296.184883,102.016393 295.907389,102.016393 L295.857144,102.006753 Z" id="Path" fill="#16325C"></path>
                                <path d="M316.706202,114.860677 L316.706202,114.860677 L306.49814,114.006793 C306.221579,113.983281 306.022444,113.799357 306.052107,113.594832 C306.064753,113.495824 306.131233,113.404847 306.236331,113.342722 C306.341428,113.280598 306.476145,113.252645 306.609648,113.265263 L316.817711,114.119146 C317.097639,114.131556 317.31095,114.309291 317.294154,114.516127 C317.277359,114.722964 317.036816,114.880577 316.756888,114.868167 L316.706202,114.860677 Z" id="Path" fill="#16325C"></path>
                                <path d="M300.699112,113.261677 L300.638569,113.261677 L272.758373,110.211447 C272.483082,110.180953 272.284862,109.942422 272.314389,109.677171 C272.326977,109.548767 272.393151,109.430778 272.497766,109.350208 C272.602381,109.269639 272.73648,109.233387 272.869369,109.24975 L300.749565,112.290266 C301.028208,112.303679 301.242799,112.532009 301.228866,112.800257 C301.214934,113.068505 300.977755,113.27509 300.699112,113.261677 L300.699112,113.261677 Z" id="Path" fill="#16325C"></path>
                                <path d="M314.371184,123.697503 L314.311974,123.697503 L302.469848,122.773599 C302.200616,122.752274 302.006759,122.585461 302.035636,122.399962 C302.047947,122.310165 302.112665,122.227651 302.214977,122.171306 C302.317289,122.114961 302.448436,122.089609 302.5784,122.101052 L314.420526,123.024956 C314.693036,123.036211 314.900693,123.197411 314.884343,123.385006 C314.867992,123.572601 314.633825,123.715552 314.361316,123.704296 L314.371184,123.697503 Z" id="Path" fill="#16325C"></path>
                                <path d="M297.441321,122.097443 L297.441321,122.097443 L271.148471,119.088138 C270.875106,119.057668 270.677877,118.808415 270.707947,118.531417 C270.738017,118.254418 270.984,118.054566 271.257364,118.085036 L297.550215,121.094341 C297.82358,121.110961 298.03189,121.348986 298.015488,121.625985 C297.999086,121.902984 297.764183,122.114063 297.490819,122.097443 L297.441321,122.097443 Z" id="Path" fill="#16325C"></path>
                                <g id="Group-3" transform="translate(0.000000, 22.491803)">
                                    <path d="M33.3631805,4.02824201 L87.1018683,4.09720135 C91.6003229,4.10297392 95.2456053,7.74824611 95.2513903,12.2467008 L95.3572741,94.5815616 C95.3630697,99.0882014 91.7144146,102.746253 87.2077747,102.752049 C87.2007864,102.752058 87.193798,102.752058 87.1868097,102.752049 L33.4481219,102.683089 C28.9496672,102.677317 25.3043849,99.0320447 25.2985998,94.53359 L25.1927161,12.1987292 C25.1869205,7.69208933 28.8355756,4.03403764 33.3422154,4.02824204 C33.3492038,4.02823305 33.3561921,4.02823304 33.3631805,4.02824201 Z" id="Rectangle" stroke="#16325C" stroke-width="2" fill="#0095E7" transform="translate(60.274995, 53.390145) rotate(-114.950000) translate(-60.274995, -53.390145) "></path>
                                    <path d="M75.4033173,18.5912834 L88.8874177,18.6085867 C92.1399768,18.6127605 94.7756589,21.2484352 94.7798417,24.5009943 L94.792016,33.9676533 C94.7962064,37.2261306 92.1580857,39.8710454 88.8996083,39.8752359 C88.8945555,39.8752424 88.8895026,39.8752424 88.8844498,39.8752359 L75.4003494,39.8579326 C72.1477902,39.8537588 69.5121082,37.2180841 69.5079253,33.965525 L69.4957511,24.498866 C69.4915606,21.2403887 72.1296814,18.5954739 75.3881587,18.5912834 C75.3932116,18.5912769 75.3982644,18.5912769 75.4033173,18.5912834 Z" id="Rectangle" fill="#005FB2" transform="translate(82.143884, 29.233260) rotate(-114.950000) translate(-82.143884, -29.233260) "></path>
                                    <path d="M25.9478924,32.6385636 C27.934871,32.6411133 29.5450012,34.2512391 29.5475565,36.2382176 L29.5713146,54.7124433 C29.5738614,56.6928348 27.9705015,58.3003239 25.9901099,58.3028707 C25.987039,58.3028747 25.983968,58.3028747 25.9808971,58.3028707 C23.9939185,58.300321 22.3837883,56.6901953 22.3812331,54.7032167 L22.3574749,36.228991 C22.3549281,34.2485995 23.9582881,32.6411104 25.9386796,32.6385636 C25.9417505,32.6385596 25.9448215,32.6385596 25.9478924,32.6385636 Z" id="Rectangle" fill="#005FB2" transform="translate(25.964395, 45.470717) rotate(-114.950000) translate(-25.964395, -45.470717) "></path>
                                    <path d="M95.2747238,48.4578939 L99.0523886,48.4627416 C100.061233,48.4640362 100.878741,49.2815421 100.880039,50.2903867 L100.897877,64.1615601 C100.899177,65.1722403 100.080912,65.9926122 99.0702322,65.993912 C99.068665,65.993914 99.0670977,65.993914 99.0655305,65.993912 L95.2878657,65.9890644 C94.2790211,65.9877698 93.4615129,65.1702639 93.4602155,64.1614193 L93.442377,50.2902458 C93.4410773,49.2795656 94.2593418,48.4591937 95.2700221,48.4578939 C95.2715893,48.4578919 95.2731566,48.4578919 95.2747238,48.4578939 Z" id="Rectangle" fill="#005FB2" transform="translate(97.170127, 57.225903) rotate(-114.950000) translate(-97.170127, -57.225903) "></path>
                                    <path d="M76.0305687,57.4510076 L79.8082335,57.4558553 C80.8170781,57.4571498 81.6345863,58.2746557 81.6358837,59.2835003 L81.6537222,73.1546738 C81.6550219,74.165354 80.8367573,74.9857259 79.8260771,74.9870257 C79.8245098,74.9870277 79.8229426,74.9870277 79.8213754,74.9870257 L76.0437106,74.982178 C75.034866,74.9808835 74.2173578,74.1633776 74.2160604,73.154533 L74.1982219,59.2833595 C74.1969221,58.2726793 75.0151867,57.4523074 76.025867,57.4510076 C76.0274342,57.4510056 76.0290015,57.4510056 76.0305687,57.4510076 Z" id="Rectangle" fill="#005FB2" transform="translate(77.925972, 66.219017) rotate(-114.950000) translate(-77.925972, -66.219017) "></path>
                                    <path d="M56.7732928,66.429407 L60.5509575,66.4342547 C61.5598022,66.4355493 62.3773103,67.2530552 62.3786077,68.2618998 L62.3964462,82.1330732 C62.397746,83.1437535 61.5794814,83.9641253 60.5688012,83.9654251 C60.5672339,83.9654271 60.5656667,83.9654271 60.5640994,83.9654251 L56.7864346,83.9605775 C55.77759,83.9592829 54.9600819,83.141777 54.9587845,82.1329324 L54.9409459,68.2617589 C54.9396462,67.2510787 55.7579108,66.4307068 56.768591,66.4294071 C56.7701583,66.429405 56.7717255,66.429405 56.7732928,66.429407 Z" id="Rectangle" fill="#005FB2" transform="translate(58.668696, 75.197416) rotate(-114.950000) translate(-58.668696, -75.197416) "></path>
                                    <path d="M37.5291376,75.4126111 L41.3068024,75.4174588 C42.315647,75.4187533 43.1331552,76.2362592 43.1344526,77.2451038 L43.1522911,91.1162773 C43.1535908,92.1269575 42.3353263,92.9473294 41.324646,92.9486292 C41.3230788,92.9486312 41.3215115,92.9486312 41.3199443,92.9486292 L37.5422795,92.9437815 C36.5334349,92.942487 35.7159267,92.1249811 35.7146293,91.1161365 L35.6967908,77.244963 C35.6954911,76.2342828 36.5137556,75.4139109 37.5244359,75.4126111 C37.5260031,75.4126091 37.5275704,75.4126091 37.5291376,75.4126111 Z" id="Rectangle" fill="#005FB2" transform="translate(39.424541, 84.180620) rotate(-114.950000) translate(-39.424541, -84.180620) "></path>
                                </g>
                                <path d="M327.264238,49.8032787 C327.102512,49.8046746 326.951613,49.7187141 326.865803,49.5761056 L314.144347,28.8526916 C314.019379,28.6248025 314.087704,28.3350332 314.299858,28.1931603 C314.512012,28.0512875 314.793797,28.1069291 314.941216,28.3198038 L327.662673,49.0432178 C327.803743,49.2721955 327.740099,49.5767422 327.520375,49.72413 C327.445314,49.7782728 327.355537,49.8059436 327.264238,49.8032787 L327.264238,49.8032787 Z" id="Path" fill="#0095E7"></path>
                                <path d="M287.869793,43.3770492 C287.677176,43.3770492 287.500241,43.2774246 287.409598,43.1179342 L280.404409,30.4212986 C280.340178,30.3096386 280.326759,30.1783582 280.3672,30.057276 C280.407642,29.9361939 280.49851,29.8355879 280.619167,29.7783095 C280.739686,29.71764 280.881082,29.7048067 281.011757,29.7426774 C281.142432,29.780548 281.251494,29.865966 281.314572,29.9798434 L288.319761,42.676479 C288.448469,42.9126775 288.353223,43.2021031 288.105003,43.3290649 C288.030168,43.3577685 287.950572,43.3740064 287.869793,43.3770492 Z" id="Path" fill="#0095E7"></path>
                                <g id="Group-5" transform="translate(158.245902, 20.081967)">
                                    <path d="M33.3263766,28.6972578 L29.1839302,33.3964381 C26.5442329,36.6594864 18.1505885,34.3733987 10.4588861,28.2673951 C2.76718371,22.1613916 -1.34560318,14.5997168 1.32375369,11.3268989 L5.47608661,6.62771858 L33.3263766,28.6972578 Z" id="Path" fill="#0095E7"></path>
                                    <path d="M25.2688735,35.3796681 C21.3142707,35.3796681 15.6097562,32.9665755 10.1425179,28.6484098 C6.67254511,26.0028846 3.75769566,22.7143363 1.56102986,18.9667305 C-0.267973922,15.5766774 -0.495363581,12.7630309 0.908520404,11.0240411 L5.07073982,6.3053216 C5.24540299,6.10812075 5.54642151,6.08225474 5.7529088,6.24670396 L33.6328584,28.2771648 C33.7411376,28.3558331 33.8096449,28.4769754 33.820702,28.6093313 C33.8315329,28.7436185 33.7889755,28.8767902 33.7020639,28.9805764 L29.549731,33.6797567 C28.4664661,34.8713274 26.8853061,35.4991997 25.2688735,35.3796681 L25.2688735,35.3796681 Z M5.49585962,7.30182137 L1.66978144,11.6688351 C0.552606154,13.0463495 0.829428348,15.5766774 2.43104247,18.5075591 C4.56332303,22.1439832 7.39454339,25.3333439 10.7653678,27.8961501 C18.1110425,33.7579135 26.3662758,36.0928493 28.7983565,33.10335 L32.6145481,28.765645 L5.49585962,7.30182137 Z" id="Shape" fill="#16325C"></path>
                                    <ellipse id="Oval" fill="#006CD0" transform="translate(19.378751, 17.653677) rotate(-51.310000) translate(-19.378751, -17.653677) " cx="19.3787507" cy="17.6536774" rx="7.59774492" ry="17.7824301"></ellipse>
                                    <path d="M29.4113199,30.6707181 C25.4567171,30.6707181 19.7423161,28.2576255 14.2948508,23.9492294 C10.8193963,21.3066746 7.90077336,18.0176583 5.70347627,14.2675502 C3.87447248,10.8774971 3.64708282,8.06385062 5.06085332,6.32486081 L5.06085332,6.32486081 C6.4647373,4.585871 9.30216479,4.18531717 13.0392644,5.21112576 C17.2225375,6.50911941 21.1084186,8.60332669 24.4779529,11.3757469 C32.5156831,17.7357602 36.5691509,25.4732879 33.7119504,28.9610371 C32.6235632,30.1581243 31.0354071,30.789483 29.4113199,30.6707181 Z M9.35159733,5.64098841 C8.04083684,5.51845058 6.74506585,5.99322395 5.83200086,6.93057636 L5.83200086,6.93057636 C4.69505256,8.32762997 4.97187475,10.8384186 6.58337538,13.7693003 C8.71274533,17.4048372 11.5405514,20.5941351 14.9078142,23.1578914 C22.2534889,29.0196548 30.5186087,31.3545905 32.9408029,28.3650912 C35.3629971,25.3755919 31.2106642,17.9213827 23.855103,12.1084674 C20.5924083,9.41796062 16.8269528,7.38655109 12.7723287,6.12946869 C11.6599278,5.81341456 10.5090359,5.64906724 9.35159733,5.64098841 Z" id="Shape" fill="#16325C"></path>
                                    <path d="M12.9008533,9.30459054 L14.7100841,11.0045019 L14.9177007,11.0045019 C15.5010046,11.1119676 16.054649,11.1901244 16.6478394,11.3366685 C18.2066044,11.7488034 19.6793115,12.4301452 20.9979025,13.3492073 C21.8223379,13.9020049 22.5701543,14.5588707 23.2223666,15.3031284 C23.632237,15.7061168 23.9051784,16.2250603 24.0034006,16.7881085 C24.044745,17.1963322 23.823584,17.5865926 23.4497562,17.765069 C23.1630475,17.9604612 22.8466793,18.1363141 22.5303111,18.3317062 L25.9312695,21.5263672 C26.5145734,21.1160438 26.2575242,20.4224018 25.4567171,19.5724461 L27.5427701,19.2207403 C28.1772881,19.7649855 28.69499,20.4293756 29.0652922,21.1746614 C29.3870156,21.747982 29.3203106,22.4575508 28.8972215,22.9624993 C28.6896049,23.1872002 28.4028962,23.3825923 28.145847,23.6072932 L29.3816604,24.7698763 L27.404359,25.3853615 L26.1388861,24.2032392 C25.5259227,24.2032392 24.9525053,24.2032392 24.3197688,24.2032392 C23.1000708,24.0880615 21.9112603,23.757145 20.8100589,23.2262786 C19.3161592,22.5741404 17.9710347,21.6303947 16.8554561,20.4517106 C15.7185078,19.2207403 15.4713451,18.2535493 16.1732871,17.5989858 C16.6421219,17.200488 17.1865861,16.8982633 17.7749012,16.7099516 L18.0121774,16.6220252 L14.5617865,13.3980553 L14.4629214,13.3980553 C14.3847324,13.6060964 14.3316379,13.8225216 14.3047373,14.0428493 C14.4170449,14.4841897 14.6700875,14.878105 15.0264523,15.1663539 L11.7935645,15.3617461 C11.5365154,15.0881971 11.2794662,14.8244177 11.0520765,14.5606384 C10.2216099,13.5836778 9.90524172,12.7728006 10.1622909,12.1377762 C10.5060565,11.5144685 11.1463974,11.1061115 11.8627701,11.05335 C11.9715217,11.05335 11.9715217,10.9947323 11.8627701,10.8872667 C11.2399202,10.3206295 10.6269567,9.74422279 10.0139933,9.16781606 L12.9008533,9.30459054 Z M20.7111938,19.1718923 C20.4047121,19.4161324 20.0092518,19.6017549 20.0883439,20.0609264 C20.1674359,20.5200978 21.2450652,21.4775192 22.2436024,21.8096858 C22.7347392,21.9831534 23.2547838,22.0627243 23.7760109,22.0441563 L20.7111938,19.1718923 Z M19.9202732,15.8990744 C20.1872089,15.7525303 20.4541446,15.635295 20.4936906,15.3715157 C20.5628962,14.8830354 19.5050399,13.9549228 18.4175242,13.5641386 C17.9528584,13.3882857 17.5079655,13.2905897 16.9938672,13.1440456 L19.9202732,15.8990744 Z" id="Shape" fill="#0095E7"></path>
                                </g>
                                <g id="Group-4" transform="translate(100.409836, 139.770492)">
                                    <path d="M35.8729888,7.06412667 L38.2838289,12.8304125 C40.0550584,16.6289166 34.2788822,23.0413398 25.383374,27.1727025 C16.4878658,31.3040652 7.82852156,31.5586041 6.04745189,27.76989 L3.63661172,21.9938142 L35.8729888,7.06412667 Z" id="Path" fill="#0095E7"></path>
                                    <path d="M12.5025994,30.9516267 C9.06838221,30.9516267 6.52961992,29.9726308 5.61448467,28.014639 L3.19380435,22.2287732 C3.09481853,21.9853001 3.2023457,21.7071558 3.43980844,21.5924259 L35.6761855,6.66273835 C35.7983432,6.60870528 35.9377942,6.60870528 36.0599519,6.66273835 C36.1851544,6.71346155 36.2844932,6.81229352 36.3354765,6.93685721 L38.7463166,12.7031431 C40.6553084,16.785556 34.8889724,23.3644084 25.5998576,27.6719904 C21.511972,29.6625168 17.0505526,30.7796845 12.5025994,30.9516267 Z M4.27622238,22.2385631 L6.50009943,27.5740908 C8.12372648,31.0397363 16.6748289,30.6579279 25.1964109,26.7223644 C33.7179929,22.7868009 39.4843289,16.5212271 37.8508617,13.0164218 L35.6368248,7.70047401 L4.27622238,22.2385631 Z" id="Shape" fill="#16325C"></path>
                                    <ellipse id="Oval" fill="#006CD0" transform="translate(19.749209, 14.535074) rotate(-24.970000) translate(-19.749209, -14.535074) " cx="19.749209" cy="14.5350736" rx="17.7650158" ry="7.58443426"></ellipse>
                                    <path d="M10.0622388,25.1657609 C6.51977976,25.1657609 4.08925926,24.1280252 3.17412402,22.2287732 C1.20609123,18.1365703 7.02162812,11.5479279 16.3107429,7.25013589 C25.5998576,2.95234389 34.3772839,2.78591458 36.2961158,6.88790741 C38.2149478,10.9899002 32.4486117,17.5687527 23.159497,21.8763347 C19.236515,23.7792762 14.9783328,24.9032341 10.6231281,25.1853408 L10.0622388,25.1657609 Z M29.4768822,4.93970557 C25.0546762,5.12054924 20.7185484,6.21405275 16.7437101,8.15081212 C8.25164861,12.0667957 2.45579205,18.3519494 4.0794191,21.8567547 C4.84695189,23.4818879 7.24795189,24.3434043 10.613288,24.2455047 C14.8368323,23.9725295 18.9655908,22.8782533 22.7658904,21.0246082 C31.2579519,17.1086246 37.0538084,10.8234709 35.4203412,7.31866561 C34.6724888,5.67395249 32.4682921,4.93970557 29.4768822,4.93970557 Z" id="Shape" fill="#16325C"></path>
                                    <path d="M9.3439068,16.5701769 L11.6760257,15.7184504 L11.8039478,15.5520211 C12.1581937,15.0821031 12.4632388,14.5730252 12.8666855,14.161847 C13.9305384,12.9724678 15.1962093,11.9783519 16.6059478,11.2248593 C17.4724457,10.7415447 18.3986999,10.3729334 19.3611937,10.1283838 C19.9080465,9.95183018 20.4970089,9.95183018 21.0438617,10.1283838 C21.4113185,10.2785653 21.651969,10.6338376 21.6539519,11.0290601 C21.6539519,11.3717086 21.722833,11.7339371 21.7523535,12.0961656 L26.1410666,10.5004023 C26.0229847,9.79552524 25.2948125,9.71720557 24.1730339,10.0500642 L24.7732839,8.09207237 C25.5568364,7.77311474 26.3966095,7.61334004 27.243165,7.62215434 C27.9120486,7.59049605 28.527872,7.9832406 28.7782306,8.60115024 C28.884627,8.92165634 28.9700866,9.24867018 29.0340748,9.58014614 L30.6281814,9.00253856 L30.3132961,11.0290601 L28.6896691,11.6360375 C28.4141445,12.1744853 28.1779806,12.6933531 27.8630953,13.2415908 C27.231176,14.2747427 26.417941,15.1866222 25.4620953,15.9338295 C24.2211526,16.9718625 22.77691,17.7419736 21.2209847,18.1953101 C19.6071978,18.6652281 18.6330216,18.449849 18.3476568,17.5393828 C18.1943968,16.9481441 18.1609464,16.3324703 18.2492552,15.7282404 C18.2492552,15.6401308 18.2492552,15.5520211 18.2492552,15.4737015 L13.8211814,17.1086246 L13.7424601,17.1771543 C13.8925154,17.3404689 14.0647382,17.4821573 14.2541486,17.5981226 C14.7000436,17.6992392 15.16702,17.6510591 15.5825707,17.4610631 L14.3328699,20.3980509 C13.9687839,20.5057404 13.6243781,20.61343 13.2898125,20.6917496 C12.0401117,21.0050283 11.1643371,20.9267086 10.7018494,20.4078408 C10.3015901,19.8340687 10.216628,19.0990374 10.4755257,18.449849 C10.4755257,18.3519494 10.4755257,18.3323695 10.318083,18.3911093 L7.94660353,19.2624156 L9.3439068,16.5701769 Z M21.7031527,14.0247875 C21.7917142,14.4065959 21.781874,14.8373541 22.2246814,15.0037834 C23.1927907,14.9926961 24.112589,14.5812533 24.7634437,13.8681482 C25.1366842,13.5070403 25.4372611,13.0784115 25.6490584,12.6052435 L21.7031527,14.0247875 Z M18.3968576,13.2709607 C18.3968576,12.9772619 18.3968576,12.6737732 18.1705339,12.5269238 C17.7670871,12.252805 16.4681855,12.7716728 15.6219314,13.5646595 C15.2676855,13.8975181 14.9823207,14.2499566 14.637915,14.641555 L18.3968576,13.2709607 Z" id="Shape" fill="#0095E7"></path>
                                </g>
                                <g id="Group-8" transform="translate(171.098361, 100.409836)">
                                    <path d="M6.46340741,10.5023661 C2.92644451,16.2957422 6.89062484,29.1330041 6.89062484,29.1330041 L12.1265222,32.8845327 C17.2041347,35.8879736 23.5255326,35.9995673 28.7095065,33.1772775 C33.8934805,30.3549877 37.1524614,25.0275874 37.2588228,19.2018566 C37.3651841,13.3761259 34.3027671,7.9371318 29.2251546,4.93369084 L23.4229458,2.12981401 C23.4229458,2.12981401 10.0003703,4.71875952 6.46340741,10.5023661 Z" id="Path" fill="#0095E7"></path>
                                    <path d="M20.6410649,35.7079487 C17.5525651,35.7025893 14.5236239,34.8718708 11.8781399,33.3046257 L6.59256617,29.5335579 C6.5070907,29.4696587 6.44446757,29.3807115 6.41373096,29.2795482 C6.24483105,28.7422199 2.43961535,16.1589678 6.03618998,10.2483563 L6.03618998,10.2483563 C9.65263519,4.38659292 22.7473461,1.758569 23.3037223,1.65110334 C23.4043416,1.6226044 23.5110971,1.6226044 23.6117163,1.65110334 L29.4337957,4.45498016 C36.0214912,8.34056573 39.1628171,16.0710918 37.112176,23.3507969 C35.0615348,30.630502 28.3229876,35.6699871 20.6410649,35.6688703 L20.6410649,35.7079487 Z M7.31784227,28.8692247 L12.4245808,32.5132877 C20.0370296,36.9848674 29.893815,34.5552098 34.4610519,27.0813869 C39.0281115,19.5963327 36.5699849,9.88845691 28.9668371,5.3830927 L23.3335282,2.67691193 C21.813429,2.98953931 10.0699173,5.60779363 6.89062484,10.7856846 L6.89062484,10.7856846 C3.71133234,16.0026541 6.89062484,27.3744751 7.31784227,28.8399159 L7.31784227,28.8692247 Z" id="Shape" fill="#16325C"></path>
                                    <ellipse id="Oval" fill="#006CD0" cx="17.0643608" cy="16.7744529" rx="16.5819974" ry="16.3054719"></ellipse>
                                    <path d="M17.0345549,33.5880035 C9.82504631,33.5692158 3.40399124,29.100818 0.988231262,22.4213435 C-1.42752871,15.741869 0.682380938,8.29013158 6.26093066,3.79932738 C11.8394804,-0.691476816 19.6850048,-1.25399168 25.8670269,2.39359337 L25.8670269,2.39359337 C32.4566431,6.28167158 35.5938655,14.0186931 33.5326319,21.2985174 C31.4713983,28.5783417 24.7194021,33.6079075 17.0345549,33.5880035 Z M17.0941667,0.977000544 C9.0460507,0.965073842 2.22764422,6.80397939 1.13391827,14.644473 C0.0401923288,22.4849667 5.00781444,29.9136106 12.761926,32.0331404 C20.5160375,34.1526702 28.6697904,30.3106584 31.8478991,23.0399156 C35.0260078,15.7691727 32.250196,7.30775764 25.3503919,3.23377945 C22.8584719,1.75439967 20.0050057,0.967672481 17.0941667,0.957461332 L17.0941667,0.977000544 Z" id="Shape" fill="#16325C"></path>
                                    <path d="M7.76493027,9.30070458 L9.83147039,10.5316749 C9.97056444,10.6098317 10.0401115,10.6000621 10.1394644,10.4828269 C10.9506603,9.59606732 11.9756236,8.92415353 13.1200511,8.52890573 C14.3142834,8.11442765 15.6212106,8.14221429 16.796108,8.60706257 C17.1140373,8.73406745 17.4220312,8.88061153 17.7896369,9.02715562 L15.8621908,12.1729686 C15.3771815,11.8925065 14.8097035,11.7822814 14.252674,11.8603413 C13.8246906,11.9702051 13.4034151,12.1039394 12.9908923,12.2608951 L12.9908923,12.3390519 L16.9650079,14.7032965 L17.2531313,14.4102083 C17.9455908,13.673327 18.7223919,13.0176643 19.5680537,12.4562872 C20.8373236,11.5573088 22.5080046,11.4219735 23.909775,12.1045814 C25.2476132,12.6410532 26.3178789,13.6724225 26.8903617,14.9768455 C27.3620144,16.0371056 27.4802621,17.2169623 27.2281615,18.3473594 C27.0791322,19.050771 26.8406852,19.744413 26.6320442,20.4673639 L28.1819493,21.3857068 L26.4134678,24.3165885 L24.8238216,23.3396279 C24.2972512,23.8281082 23.8302927,24.3165885 23.3235929,24.7464511 C22.3366613,25.5969852 21.087243,26.0959893 19.7766947,26.163044 C18.6495105,26.1901648 17.5395213,25.8875429 16.5874669,25.2935491 L18.4751719,22.1965841 C19.626153,22.8198957 21.0590963,22.607738 21.9723936,21.678795 L17.690284,19.1582367 C17.1637137,19.6369474 16.6371434,20.1351973 16.1006378,20.6041383 C15.4718903,21.1981648 14.7041862,21.6309751 13.8651977,21.8644175 C13.0035859,22.0760441 12.0959975,22.0144956 11.2720873,21.6885646 C10.24459,21.3362891 9.33661811,20.7106315 8.649171,19.8811875 C7.65156889,18.6648996 7.25482733,17.075765 7.56622449,15.5434826 C7.68544796,14.9279974 7.93383019,14.3320515 8.11266539,13.7361056 C8.11266539,13.6677183 8.11266539,13.5993311 8.1921477,13.5211742 L6.04612527,12.2511255 L7.76493027,9.30070458 Z M23.7408751,18.7381437 C23.9706911,18.225988 24.0465401,17.6598269 23.9594514,17.1066195 C23.7752687,16.132351 22.8785519,15.447935 21.8730407,15.5141738 C21.185589,15.7001351 20.5634433,16.0685494 20.0747534,16.5790608 L23.7408751,18.7381437 Z M10.8746757,15.0940807 C10.8039967,15.5728396 10.7707816,16.0562258 10.7753229,16.5399824 C10.8199957,17.0698822 11.0996945,17.5535547 11.5399671,17.862253 C11.9802397,18.1709512 12.5364123,18.273352 13.0604393,18.1421977 C13.5835256,17.9171722 14.0511613,17.5839568 14.4315092,17.1652371 L10.8746757,15.0940807 Z" id="Shape" fill="#0095E7"></path>
                                </g>
                            </g>
                        </g>
                    </g>
                </g>
            </g>
        </g>
    </g>
</svg>