<?xml version="1.0" encoding="UTF-8"?>
<svg width="72px" height="44px" viewBox="0 0 72 44" version="1.1" xmlns="http://www.w3.org/2000/svg" xmlns:xlink="http://www.w3.org/1999/xlink">
    <title>Symbols</title>
    <g id="Symbols" stroke="none" stroke-width="1" fill="none" fill-rule="evenodd">
        <g id="Icons/Boat" transform="translate(0.000000, -16.000000)">
            <path d="M24,41.0440236 C30.0397242,42.1889178 36.0272203,46.5961655 46,49.2583195 C48.5946507,49.9509409 52.6233117,50.6292341 58.085983,51.2931991 L55.0840008,52.9199458 L54.8877914,53.0183699 C53.8951065,53.4779007 52.7358265,53.4487934 51.7687241,52.9400561 L51.5779723,52.8319162 L48.6201459,51.0297865 L48.3896559,50.8957873 C46.5315494,49.8661747 44.2674222,49.8076203 42.3561792,50.7391787 L42.1089503,50.8663029 L38.1695774,52.9997797 L37.9715632,53.0990336 C37.0362104,53.5313395 35.9500344,53.5313395 35.0146817,53.0990336 L34.8166674,52.9997797 L30.7298847,50.786469 L30.4857374,50.6608524 C28.6802413,49.7797159 26.5526951,49.7797159 24.7471991,50.6608524 L24.5030517,50.786469 L20.416269,52.9997797 L20.2182548,53.0990336 C19.282902,53.5313395 18.196726,53.5313395 17.2613733,53.0990336 L17.063359,52.9997797 L13.0465197,50.8243488 L12.8062379,50.7006182 C11.286937,49.9578828 9.54139184,49.8403502 7.95260668,50.343423 C6.22705097,47.6679901 4.57625671,44.2252843 3,40.0172366 C7.3517287,38.8728285 14.3517287,39.2150908 24,41.0440236 Z M50,23 L53,45 L32,38 L47,39 L46.152077,32.6350477 C45.8263925,32.86495 45.4289676,33 45,33 L39,33 C37.8954305,33 37,32.1045695 37,31 L37,30 C37,28.8954305 37.8954305,28 39,28 L45,28 C45.1885498,28 45.3710056,28.0260914 45.5439539,28.0748607 L45,24 L50,23 Z M30.5,28 C31.8807119,28 33,29.1192881 33,30.5 C33,31.8807119 31.8807119,33 30.5,33 L22,33 L28,28 L30.5,28 Z" id="Combined-Shape" fill="#D3EDFF"></path>
            <path d="M51,24 L54,44 L20,33 L24,30.231 L24,32 L34,32 L34,28 L27.222,28 L33,24 L51,24 Z M47,28 L37,28 L37,32 L47,32 L47,28 Z" id="Combined-Shape"></path>
            <path d="M10.7215741,53.0112044 L10.6847592,53.0809302 C11.4141451,53.1647924 12.1324409,53.3712214 12.8062379,53.7006182 L13.0465197,53.8243488 L17.063359,55.9997797 C18.0407885,56.5291339 19.2160911,56.5622185 20.2182548,56.0990336 L20.416269,55.9997797 L24.5030517,53.786469 C26.3586164,52.7815364 28.5981733,52.7396642 30.4857374,53.6608524 L30.7298847,53.786469 L34.8166674,55.9997797 C35.7940969,56.5291339 36.9693995,56.5622185 37.9715632,56.0990336 L38.1695774,55.9997797 L42.1089503,53.8663029 C44.0697741,52.8043643 46.4507622,52.821409 48.3896559,53.8957873 L48.6201459,54.0297865 L51.5779723,55.8319162 C52.5805155,56.4427407 53.8289275,56.5085361 54.8877914,56.0183699 L55.0840008,55.9199458 L58.9534303,53.8243488 C60.8594249,52.7921044 63.166692,52.777595 65.080227,53.7712776 L65.3173106,53.9007382 L71.2704039,57.3144521 C71.9746675,57.7183017 72.2097515,58.6022406 71.7954788,59.2887849 C71.4055751,59.9349443 70.5794261,60.1759549 69.8964321,59.8653812 L69.7701898,59.800649 L63.8170965,56.3869351 C62.8288599,55.8202454 61.6214248,55.7710751 60.5934712,56.2442099 L60.3903917,56.3458023 L56.5209622,58.4413994 C54.5601384,59.503338 52.1791503,59.4862934 50.2402566,58.411915 L50.0097666,58.2779158 L47.0519402,56.4757861 C46.049397,55.8649616 44.800985,55.7991662 43.7421211,56.2893325 L43.5459117,56.3877565 L39.6065389,58.5212333 C37.7509742,59.5261659 35.5114173,59.5680381 33.6238533,58.6468499 L33.3797059,58.5212333 L29.2929232,56.3079226 C28.3154937,55.7785684 27.1401911,55.7454838 26.1380275,56.2086687 L25.9400132,56.3079226 L21.8532305,58.5212333 C19.9976658,59.5261659 17.7581089,59.5680381 15.8705449,58.6468499 L15.6263975,58.5212333 L11.6095582,56.3458023 C10.6073074,55.8030056 9.39899641,55.7828329 8.38330522,56.2804989 L8.18285337,56.3869351 L2.22976012,59.800649 C1.52549656,60.2044986 0.618743762,59.9753292 0.204471074,59.2887849 C-0.185432632,58.6426256 -2.50479354e-05,57.8216115 0.610171256,57.3905654 L0.729546013,57.3144521 L6.68263926,53.9007382 C7.29953919,53.546986 7.96243297,53.3018236 8.64320191,53.1655885 C9.30614878,52.9056681 10.0326771,52.8537038 10.7215741,53.0112044 Z M10.1099145,37.8659511 L11.0210781,37.8926514 C12.1013815,37.9340105 13.2421922,38.0110832 14.4438274,38.1236898 L15.4887037,38.2289078 L16.5634161,38.3515049 C17.1082387,38.4171441 17.6642664,38.4892911 18.2315243,38.5679317 L19.381021,38.7338669 C19.5751018,38.7629644 19.7704323,38.7927824 19.9670133,38.8233203 L21.1615138,39.0151828 C21.3631008,39.0485984 21.5659403,39.0827329 21.7700331,39.1175858 L23.0096372,39.3353192 C23.2187471,39.3730434 23.4291121,39.411485 23.6407333,39.4506433 L24.4062261,39.594758 L24.5333719,39.6201839 C26.2720314,39.9738605 28.0280365,40.5640194 30.2555795,41.4973055 L31.1234011,41.8696073 L37.1199697,44.5323384 L37.4419621,44.6709137 C40.5665296,46.00049 43.3609097,47.0013115 46.3868665,47.8090665 L46.9383788,47.9504902 C47.0338824,47.9740513 47.1311777,47.9976075 47.2302638,48.0211583 L47.8462609,48.1623961 L48.505187,48.3034889 L49.2069933,48.4444199 L49.951631,48.5851721 L50.7390515,48.7257287 L51.5692059,48.8660728 L52.4420455,49.0061876 L53.3575215,49.1460562 L54.8105722,49.3553605 L56.3592806,49.564016 L58.5727417,49.8411156 L60.3440116,50.0480358 C60.4977933,50.0654959 60.6434908,50.1056288 60.778148,50.1647208 C60.2526115,50.2703373 59.7375754,50.4404108 59.2456855,50.6754936 L58.9534303,50.8243488 L55.8254049,52.5177634 L55.393568,52.4626548 L53.8390341,52.2481391 L52.8555663,52.1044225 L51.9143522,51.9601212 L51.0153429,51.8152185 L50.1584898,51.6696974 L49.4644049,51.5447634 L48.6201459,51.0297865 L48.3896559,50.8957873 C47.0083764,50.1303937 45.402724,49.9016206 43.8844589,50.2172955 C41.6336713,49.5477776 39.4603353,48.7584901 37.1449792,47.7998862 L36.1126983,47.3651928 L34.283951,46.5610873 L29.7858302,44.5586869 L29.5602351,44.4607492 C27.2700683,43.4809197 25.5620643,42.8908795 23.9353617,42.5599771 L23.720634,42.5177789 C23.0546154,42.3915279 22.4017035,42.2725232 21.7619299,42.1607469 L20.4999097,41.9468266 C20.0850818,41.878729 19.6761025,41.8138386 19.2729811,41.7521503 L18.0812001,41.5766859 L16.9246228,41.4204019 C12.1789697,40.8091332 8.35154069,40.6965239 5.46059684,41.072232 L5.039,41.131 L5.085474,41.2482971 C6.52462605,44.8373377 8.01687174,47.772164 9.55381855,50.0494323 C8.66813235,50.099993 7.79128494,50.3302534 6.98258956,50.7390661 L6.68263926,50.9007382 L6.56881084,50.9660027 C4.82332044,48.2168436 3.16875795,44.7439475 1.59531305,40.5434063 C1.28368783,39.7114773 1.75933814,38.7925022 2.61850436,38.5665605 C4.62737689,38.0382716 7.12204702,37.8061321 10.1099145,37.8659511 Z M48,16 C48.5522847,16 49,16.4477153 49,17 C49,17.5522847 48.5522847,18 48,18 L46.531,18 L47.655,22.499 L51,22.5 C51.6960887,22.5 52.2939801,22.9774301 52.4567517,23.6421369 L52.4834045,23.7774893 L55.342,42.837 L55.7336659,42.87362 L57.1207916,42.9880256 L58.5845029,43.0942161 L60.1246929,43.1921581 L61.7412544,43.2818181 L63.4340805,43.3631626 L65.203064,43.4361582 L66.4246432,43.4801671 C66.6310547,43.4871909 66.8388732,43.494059 67.048098,43.5007713 C67.8760991,43.5273351 68.5257924,44.2200969 68.4992287,45.048098 C68.4726649,45.8760991 67.7799031,46.5257924 66.951902,46.4992287 L65.6589021,46.4551572 L64.4015542,46.4070437 L62.5823056,46.3272715 L61.4139391,46.2690065 L60.2811057,46.2066624 L59.1837715,46.1402285 L58.1219024,46.0696942 L57.0954644,45.9950488 L56.1044236,45.9162818 L55.1487459,45.8333825 L54.2283975,45.7463403 L53.3433443,45.6551445 L52.4935522,45.5597847 L51.6789875,45.46025 L50.899616,45.3565299 C50.7726516,45.3388939 50.6471522,45.321083 50.5231171,45.303097 L49.7964718,45.193079 L49.1049347,45.0788489 C48.9926024,45.059459 48.8817314,45.0398931 48.7723212,45.0201511 L48.1333829,44.8995832 L47.5294679,44.7747768 C47.3339964,44.7324671 47.1443564,44.6894492 46.9605423,44.6457213 C43.6525133,43.858768 40.5275286,42.8269584 36.8155655,41.3719353 L35.5029827,40.8478753 L30.3140431,38.7333128 L29.1423876,38.2667411 L28.7061722,38.0996044 L27.8722565,37.7897149 C27.7373588,37.7407329 27.6044415,37.6930695 27.4734088,37.6467034 L26.7090651,37.3838998 C25.4703038,36.971262 24.4008924,36.6840275 23.4052099,36.5006336 L22.1749606,36.2777318 L20.9764093,36.0680483 L19.8096018,35.8715714 L18.674584,35.688289 C18.4880661,35.6588409 18.3028746,35.629942 18.1190106,35.6015921 L17.0317633,35.4380793 L15.9764205,35.2877315 L14.9530278,35.1505366 C14.7851274,35.1287662 14.6185602,35.1075433 14.4533271,35.0868678 L13.4779457,34.96938 C13.318053,34.9508927 13.1594962,34.9329521 13.0022765,34.9155581 L12.0750096,34.8177508 C11.9231416,34.802542 11.7726126,34.7878793 11.6234234,34.7737624 L10.7443741,34.6956087 L9.89752726,34.6305425 C9.7590722,34.6207882 9.62196083,34.6115786 9.48619408,34.6029136 L8.68773686,34.5574565 C8.55735247,34.5509688 8.42831463,34.5450252 8.30062428,34.5396254 L7.55065986,34.5137506 C5.83850853,34.4685941 4.39084166,34.5299308 3.21028077,34.6970809 C2.39003434,34.8132157 1.63094733,34.2424205 1.51481247,33.4221741 C1.39867761,32.6019277 1.96947281,31.8428407 2.78971923,31.7267058 C3.62824622,31.6079827 4.57151319,31.5360642 5.62021662,31.5107697 L6.3349801,31.500812 L7.08102987,31.5046568 C7.20798123,31.5064472 7.33623811,31.5088122 7.46580144,31.5117516 L8.25886662,31.5362781 C8.39365962,31.5415139 8.52976099,31.5473236 8.66717169,31.5537069 L9.50735547,31.5988883 L10.379009,31.6578248 L11.282178,31.7305044 C11.5884921,31.7570201 11.9000664,31.7858244 12.2169085,31.8169153 L13.1832463,31.9170455 L14.1812373,32.0308833 C14.3502094,32.0509978 14.5205023,32.0716831 14.692117,32.0929387 L15.7376736,32.2273154 C15.9145791,32.2508516 16.0928082,32.2749578 16.272362,32.2996336 L17.3655875,32.4545224 L18.4906496,32.6230711 L18.5457902,32.6321173 C18.6204441,32.3365063 18.785002,32.0623978 19.0313197,31.8545854 L19.146185,31.7667117 L32.146185,22.7667117 C32.355232,22.6219869 32.5969148,22.5332536 32.8482352,22.507696 L33,22.5 L40.344,22.499 L41.468,18 L40,18 C39.4477153,18 39,17.5522847 39,17 C39,16.4477153 39.4477153,16 40,16 L48,16 Z M49.708,25.5 L33.467,25.5 L31.1981482,27.0696373 C32.7966389,27.3932106 34,28.8060753 34,30.5 C34,32.4329966 32.4329966,34 30.5,34 L30.5,34 L25.8958685,33.9997675 C27.0442841,34.3141688 28.2912553,34.7343683 29.727608,35.2784763 L30.3658075,35.5237374 L32.1414831,36.2365348 L37.1759868,38.2884858 C41.0984348,39.8520725 44.2896616,40.9266198 47.6548423,41.727169 L48.1771778,41.8455691 L48.733932,41.960437 L49.3250732,42.0717629 C49.4264606,42.0900215 49.5292794,42.1081321 49.633529,42.1260945 L50.2761913,42.2320886 L50.9531612,42.3345159 L51.6644071,42.4333664 L52.259,42.509 L49.708,25.5 Z M45,27 C46.6568542,27 48,28.3431458 48,30 L48,30 L48,31 C48,32.6568542 46.6568542,34 45,34 L45,34 L39,34 C37.3431458,34 36,32.6568542 36,31 L36,31 L36,30 C36,28.3431458 37.3431458,27 39,27 L39,27 Z M45,29 L39,29 C38.4477153,29 38,29.4477153 38,30 L38,30 L38,31 C38,31.5522847 38.4477153,32 39,32 L39,32 L45,32 C45.5522847,32 46,31.5522847 46,31 L46,31 L46,30 C46,29.4477153 45.5522847,29 45,29 L45,29 Z M30.5,29 L28.41,29 L28.12,29.201 L24.762,32 L30.5,32 C31.3284271,32 32,31.3284271 32,30.5 C32,29.6715729 31.3284271,29 30.5,29 L30.5,29 Z M44.718,19 L43.281,19 L42.405,22.499 L45.593,22.499 L44.718,19 Z" id="Combined-Shape" fill="#16325C"></path>
        </g>
    </g>
</svg>