<?xml version="1.0" encoding="UTF-8"?>
<svg width="52px" height="58px" viewBox="0 0 52 58" version="1.1" xmlns="http://www.w3.org/2000/svg" xmlns:xlink="http://www.w3.org/1999/xlink">
    <title>Group 16</title>
    <g id="Symbols" stroke="none" stroke-width="1" fill="none" fill-rule="evenodd">
        <g id="Icons/Claim" transform="translate(-11.000000, -6.000000)">
            <g id="Group-16" transform="translate(13.000000, 8.000000)">
                <rect id="Rectangle" fill="#D3EDFF" x="8.47457627" y="5.08474576" width="36.440678" height="50.8474576" rx="4"></rect>
                <rect id="Rectangle" fill="#16325C" x="5.93220339" y="8.47457627" width="28.8135593" height="1.69491525"></rect>
                <rect id="Rectangle" fill="#16325C" x="5.93220339" y="14.4067797" width="12.7118644" height="1.69491525"></rect>
                <rect id="Rectangle" fill="#16325C" x="20.3389831" y="14.4067797" width="3.38983051" height="1.69491525"></rect>
                <rect id="Rectangle" fill="#16325C" x="20.3389831" y="20.3389831" width="3.38983051" height="1.69491525"></rect>
                <rect id="Rectangle" fill="#16325C" x="5.93220339" y="20.3389831" width="11.0169492" height="1.69491525"></rect>
                <rect id="Rectangle" fill="#16325C" x="5.93220339" y="42.3728814" width="20.3389831" height="1.69491525"></rect>
                <path d="M36.6779661,-1.5 C39.6414452,-1.5 42.0575052,0.843780013 42.1735989,3.77879286 L42.1779661,4 L42.1779661,6.77966102 C42.1779661,7.60808814 41.5063932,8.27966102 40.6779661,8.27966102 C39.89827,8.27966102 39.2575174,7.68477293 39.1848327,6.92412103 L39.1779661,6.77966102 L39.1779661,4 C39.1779661,2.6745166 38.1464302,1.58996133 36.8423418,1.50531768 L36.6779661,1.5 L4,1.5 C2.6745166,1.5 1.58996133,2.53153594 1.50531768,3.83562431 L1.5,4 L1.5,46.8474576 C1.5,48.172941 2.53153594,49.2574963 3.83562431,49.3421399 L4,49.3474576 L36.6779661,49.3474576 C38.0034495,49.3474576 39.0880048,48.3159217 39.1726484,47.0118333 L39.1779661,46.8474576 L39.1779661,22.8813559 C39.1779661,22.0529288 39.849539,21.3813559 40.6779661,21.3813559 C41.4576622,21.3813559 42.0984148,21.976244 42.1710995,22.7368959 L42.1779661,22.8813559 L42.1779661,46.8474576 C42.1779661,49.8109368 39.8341861,52.2269968 36.8991732,52.3430904 L36.6779661,52.3474576 L4,52.3474576 C1.03652085,52.3474576 -1.37953914,50.0036776 -1.4956328,47.0686648 L-1.5,46.8474576 L-1.5,4 C-1.5,1.03652085 0.843780013,-1.37953914 3.77879286,-1.4956328 L4,-1.5 L36.6779661,-1.5 Z" id="Path" fill="#16325C" fill-rule="nonzero"></path>
                <polygon id="Rectangle" fill="#16325C" transform="translate(34.895952, 19.991986) rotate(-315.000000) translate(-34.895952, -19.991986) " points="33.2010365 0.464645721 36.590867 0.464645721 36.590867 36.9053237 35.0351158 39.5193269 33.2010365 36.9053237"></polygon>
            </g>
        </g>
    </g>
</svg>