<?xml version="1.0" encoding="UTF-8"?>
<svg width="889px" height="479px" viewBox="0 0 889 479" version="1.1" xmlns="http://www.w3.org/2000/svg" xmlns:xlink="http://www.w3.org/1999/xlink">
    <title>Group</title>
    <g id="Symbols" stroke="none" stroke-width="1" fill="none" fill-rule="evenodd">
        <g id="Group">
            <g id="undraw_quite_town_mg2q" fill-rule="nonzero">
                <circle id="Oval" fill="#1589EE" cx="145.5" cy="39.5" r="39.5"></circle>
                <polygon id="Path" fill="#16325C" points="153.891 311.384 221.752 230.567 355.171 230.567 436.705 309.983 435.058 311.042 435.646 311.042 435.646 476.227 153.984 476.227 153.984 311.042"></polygon>
                <rect id="Rectangle" fill="#16325C" transform="translate(202.410705, 249.624350) rotate(-180.000000) translate(-202.410705, -249.624350) " x="194.71923" y="223.00001" width="15.38295" height="53.24868"></rect>
                <path d="M220.705667,232.603586 L302.345,328.318093 L302.345,474.227 L155.984,474.227 L155.984,309.652543 L220.705667,232.603586 Z" id="Path" stroke="#16325C" stroke-width="4" fill="#1589EE"></path>
                <rect id="Rectangle" fill="#16325C" x="254.30616" y="347.0438" width="30.70751" height="31.3983"></rect>
                <rect id="Rectangle" fill="#16325C" x="254.30616" y="389.767" width="30.70751" height="31.39834"></rect>
                <rect id="Rectangle" fill="#16325C" x="254.30616" y="347.0438" width="30.70751" height="31.3983"></rect>
                <rect id="Rectangle" fill="#16325C" x="254.30616" y="389.767" width="30.70751" height="31.39834"></rect>
                <rect id="Rectangle" fill="#16325C" x="211.83775" y="347.0438" width="30.70751" height="31.3983"></rect>
                <rect id="Rectangle" fill="#16325C" x="211.83775" y="389.767" width="30.70751" height="31.39834"></rect>
                <rect id="Rectangle" fill="#16325C" x="211.83775" y="347.0438" width="30.70751" height="31.3983"></rect>
                <rect id="Rectangle" fill="#16325C" x="211.83775" y="389.767" width="30.70751" height="31.39834"></rect>
                <rect id="Rectangle" fill="#16325C" x="169.36934" y="347.0438" width="30.70751" height="31.3983"></rect>
                <rect id="Rectangle" fill="#16325C" x="169.36934" y="389.767" width="30.70751" height="31.39834"></rect>
                <rect id="Rectangle" fill="#16325C" x="169.36934" y="347.0438" width="30.70751" height="31.3983"></rect>
                <rect id="Rectangle" fill="#16325C" x="169.36934" y="389.767" width="30.70751" height="31.39834"></rect>
                <path d="M381,42.6088644 L496,73.5332342 L496,475 L381,475 L381,42.6088644 Z" id="Rectangle" stroke="#16325C" stroke-width="4" fill="#1589EE"></path>
                <polygon id="Rectangle" fill="#16325C" points="498 72 546 84 546 477 498 477"></polygon>
                <rect id="Rectangle" fill="#16325C" x="433" y="442" width="18" height="34"></rect>
                <rect id="Rectangle" fill="#16325C" x="635" y="218" width="14" height="20.74371"></rect>
                <rect id="Rectangle" stroke="#16325C" stroke-width="4" fill="#1589EE" x="531" y="238.96568" width="115" height="236.03432"></rect>
                <rect id="Rectangle" fill="#16325C" x="648" y="236.96568" width="48" height="240.03432"></rect>
                <rect id="Rectangle" fill="#16325C" x="552.5" y="271" width="18" height="18"></rect>
                <rect id="Rectangle" fill="#16325C" x="581.5" y="271" width="18" height="18"></rect>
                <rect id="Rectangle" fill="#16325C" x="610.5" y="271" width="18" height="18"></rect>
                <rect id="Rectangle" fill="#16325C" x="553" y="312" width="18" height="18"></rect>
                <rect id="Rectangle" fill="#16325C" x="582" y="312" width="18" height="18"></rect>
                <rect id="Rectangle" fill="#16325C" x="611" y="312" width="18" height="18"></rect>
                <rect id="Rectangle" fill="#16325C" x="553.5" y="353" width="18" height="18"></rect>
                <rect id="Rectangle" fill="#16325C" x="582.5" y="353" width="18" height="18"></rect>
                <rect id="Rectangle" fill="#16325C" x="611.5" y="353" width="18" height="18"></rect>
                <rect id="Rectangle" fill="#16325C" x="554" y="394" width="18" height="18"></rect>
                <rect id="Rectangle" fill="#16325C" x="583" y="394" width="18" height="18"></rect>
                <rect id="Rectangle" fill="#16325C" x="583" y="442" width="18" height="34"></rect>
                <rect id="Rectangle" fill="#16325C" x="612" y="394" width="18" height="18"></rect>
                <rect id="Rectangle" fill="#0089E0" x="648" y="218" width="8" height="20.15103"></rect>
                <rect id="Rectangle" fill="#16325C" x="0.24409" y="475.79217" width="888" height="2.24072"></rect>
                <circle id="Oval" fill="#1589EE" cx="732.65969" cy="404.04057" r="26.04057"></circle>
                <path d="M752.03029,386.64752 C757.047111,398.382875 752.820183,412.024722 742.04692,418.867518 C731.273656,425.710313 717.128868,423.73753 708.63905,414.2081 C712.693752,423.694104 721.965649,429.892518 732.281186,430.013252 C742.596722,430.133987 752.011154,424.15428 756.286766,414.765775 C760.562377,405.377271 758.893106,394.349943 752.03034,386.64752 L752.03029,386.64752 Z" id="Path" fill="#000000" opacity="0.2"></path>
                <polygon id="Path" fill="#16325C" points="732.731 404.041 732.803 404.041 734.09 477.87 731.372 477.87"></polygon>
                <rect id="Rectangle" fill="#16325C" transform="translate(735.020538, 444.818400) rotate(62.234130) translate(-735.020538, -444.818400) " x="734.376678" y="442.38604" width="1.28772" height="4.86472"></rect>
                <circle id="Oval" fill="#1589EE" cx="809.21843" cy="365.59931" r="39.59931"></circle>
                <path d="M838.67487,339.15009 C846.303944,356.995818 839.876158,377.740777 823.493428,388.146492 C807.110698,398.552208 785.600945,395.55216 772.6907,381.06084 C778.856599,395.485983 792.956161,404.911763 808.642759,405.09536 C824.329357,405.278956 838.645666,396.185756 845.147495,381.908877 C851.649323,367.631997 849.11091,350.862994 838.67487,339.15009 Z" id="Path" fill="#000000" opacity="0.2"></path>
                <polygon id="Path" fill="#16325C" points="809.327 365.599 809.436 365.599 811.394 477.87 807.26 477.87"></polygon>
                <rect id="Rectangle" fill="#16325C" transform="translate(812.808522, 427.609231) rotate(62.234130) translate(-812.808522, -427.609231) " x="811.829417" y="423.910396" width="1.95821" height="7.39767"></rect>
                <circle id="Oval" fill="#1589EE" cx="26.65969" cy="403.04057" r="26.04057"></circle>
                <path d="M46.03029,385.64752 C51.0471108,397.382875 46.8201828,411.024722 36.0469196,417.867518 C25.2736565,424.710313 11.1288681,422.73753 2.63905,413.2081 C6.69375175,422.694104 15.9656494,428.892518 26.2811859,429.013252 C36.5967225,429.133987 46.0111544,423.15428 50.2867659,413.765775 C54.5623774,404.377271 52.8931058,393.349943 46.03034,385.64752 L46.03029,385.64752 Z" id="Path" fill="#000000" opacity="0.2"></path>
                <polygon id="Path" fill="#16325C" points="26.731 403.041 26.803 403.041 28.09 476.87 25.372 476.87"></polygon>
                <rect id="Rectangle" fill="#16325C" transform="translate(29.020528, 443.818403) rotate(62.234130) translate(-29.020528, -443.818403) " x="28.3766679" y="441.386043" width="1.28772" height="4.86472"></rect>
                <path d="M53.75598,260.465902 L62.96167,253.103112 C55.81018,252.314112 52.87176,256.214372 51.66919,259.301472 C46.08219,256.981472 40,260.021932 40,260.021932 L58.41888,266.708642 C57.4896819,264.226747 55.8721656,262.061199 53.75598,260.465902 L53.75598,260.465902 Z" id="Path" fill="#16325C"></path>
                <path d="M830.75598,242.465902 L839.96167,235.103112 C832.81018,234.314112 829.87176,238.214372 828.66919,241.301472 C823.08219,238.981472 817,242.021932 817,242.021932 L835.41888,248.708642 C834.489682,246.226747 832.872166,244.061199 830.75598,242.465902 L830.75598,242.465902 Z" id="Path" fill="#16325C"></path>
                <path d="M285.75598,128.465902 L294.96167,121.103112 C287.81018,120.314112 284.87176,124.214372 283.66919,127.301472 C278.08219,124.981472 272,128.021932 272,128.021932 L290.41888,134.708642 C289.489682,132.226747 287.872166,130.061199 285.75598,128.465902 Z" id="Path" fill="#16325C"></path>
                <path d="M595.41343,176.33578 L604.61912,168.97299 C597.46763,168.18399 594.52921,172.08425 593.32664,175.17135 C587.73964,172.85135 581.65745,175.89181 581.65745,175.89181 L600.07633,182.57852 C599.147132,180.096625 597.529616,177.931077 595.41343,176.33578 L595.41343,176.33578 Z" id="Path" fill="#16325C"></path>
                <polygon id="Path" fill="#16325C" points="106 456 44 456 44 458 53.669 458 53.669 477 55.669 477 55.669 458 93.331 458 93.331 477 95.331 477 95.331 458 106 458"></polygon>
                <path d="M169.00005,464 C166.552891,463.999681 164.148909,464.644609 162.03051,465.86975 C157.635017,461.894855 151.309576,460.884502 145.894572,463.292382 C140.479568,465.700262 136.992831,471.073779 137.000039,477 L182.94958,477 C182.429933,469.678285 176.340182,464.003057 169.00005,464 L169.00005,464 Z" id="Path" fill="#0070D2"></path>
                <path d="M406.00005,464 C403.552891,463.999681 401.148909,464.644609 399.03051,465.86975 C394.635017,461.894855 388.309576,460.884502 382.894572,463.292382 C377.479568,465.700262 373.992831,471.073779 374.000039,477 L419.94958,477 C419.429933,469.678285 413.340182,464.003057 406.00005,464 L406.00005,464 Z" id="Path" fill="#0070D2"></path>
                <path d="M561.00005,464 C558.552891,463.999681 556.148909,464.644609 554.03051,465.86975 C549.635017,461.894855 543.309576,460.884502 537.894572,463.292382 C532.479568,465.700262 528.992831,471.073779 529.000039,477 L574.94958,477 C574.429933,469.678285 568.340182,464.003057 561.00005,464 L561.00005,464 Z" id="Path" fill="#0070D2"></path>
                <path d="M765.00005,464 C762.552891,463.999681 760.148909,464.644609 758.03051,465.86975 C753.635017,461.894855 747.309576,460.884502 741.894572,463.292382 C736.479568,465.700262 732.992831,471.073779 733.000039,477 L778.94958,477 C778.429933,469.678285 772.340182,464.003057 765.00005,464 L765.00005,464 Z" id="Path" fill="#0070D2"></path>
                <path d="M863.00005,464 C860.552891,463.999681 858.148909,464.644609 856.03051,465.86975 C851.635017,461.894855 845.309576,460.884502 839.894572,463.292382 C834.479568,465.700262 830.992831,471.073779 831.000039,477 L876.94958,477 C876.429933,469.678285 870.340182,464.003057 863.00005,464 L863.00005,464 Z" id="Path" fill="#0070D2"></path>
                <polygon id="Path" fill="#16325C" points="129 407 113 407 113 423 120.417 423 120.417 476.912 122.417 476.912 122.417 423 129 423"></polygon>
                <rect id="Rectangle" fill="#16325C" x="44.12205" y="450.01645" width="62" height="2"></rect>
                <rect id="Rectangle" fill="#16325C" x="44.12205" y="445.01645" width="62" height="2"></rect>
                <rect id="Rectangle" fill="#16325C" x="44.12205" y="440.01645" width="62" height="2"></rect>
            </g>
            <rect id="Rectangle" fill="#16325C" x="399" y="96" width="78" height="4"></rect>
            <rect id="Rectangle" fill="#16325C" x="399" y="112" width="78" height="4"></rect>
            <rect id="Rectangle" fill="#16325C" x="399" y="128" width="78" height="4"></rect>
            <rect id="Rectangle" fill="#16325C" x="399" y="144" width="78" height="4"></rect>
            <rect id="Rectangle" fill="#16325C" x="399" y="160" width="78" height="4"></rect>
            <rect id="Rectangle" fill="#16325C" x="399" y="176" width="78" height="4"></rect>
            <rect id="Rectangle" fill="#16325C" x="399" y="192" width="78" height="4"></rect>
            <rect id="Rectangle" fill="#16325C" x="399" y="208" width="78" height="4"></rect>
            <rect id="Rectangle" fill="#16325C" x="399" y="224" width="78" height="4"></rect>
            <rect id="Rectangle" fill="#16325C" x="399" y="240" width="78" height="4"></rect>
            <rect id="Rectangle" fill="#16325C" x="399" y="256" width="78" height="4"></rect>
            <rect id="Rectangle" fill="#16325C" x="399" y="272" width="78" height="4"></rect>
            <rect id="Rectangle" fill="#16325C" x="399" y="288" width="78" height="4"></rect>
            <rect id="Rectangle" fill="#16325C" x="399" y="304" width="78" height="4"></rect>
            <rect id="Rectangle" fill="#16325C" x="399" y="320" width="78" height="4"></rect>
            <rect id="Rectangle" fill="#16325C" x="399" y="336" width="78" height="4"></rect>
            <rect id="Rectangle" fill="#16325C" x="399" y="352" width="78" height="4"></rect>
            <rect id="Rectangle" fill="#16325C" x="399" y="368" width="78" height="4"></rect>
            <rect id="Rectangle" fill="#16325C" x="399" y="384" width="78" height="4"></rect>
            <rect id="Rectangle" fill="#16325C" x="399" y="400" width="78" height="4"></rect>
            <rect id="Rectangle" fill="#16325C" x="399" y="416" width="78" height="4"></rect>
        </g>
    </g>
</svg>