<?xml version="1.0" encoding="UTF-8"?>
<svg width="64px" height="42px" viewBox="0 0 64 42" version="1.1" xmlns="http://www.w3.org/2000/svg" xmlns:xlink="http://www.w3.org/1999/xlink">
    <title>Group</title>
    <g id="Symbols" stroke="none" stroke-width="1" fill="none" fill-rule="evenodd">
        <g id="Icons/Computer" transform="translate(-4.000000, -16.000000)">
            <g id="Group" transform="translate(4.000000, 16.000000)">
                <path d="M13.0344828,6.4137931 L50.9655172,6.4137931 C52.0700867,6.4137931 52.9655172,7.3092236 52.9655172,8.4137931 L52.9655172,36.2068966 L52.9655172,36.2068966 L11.0344828,36.2068966 L11.0344828,8.4137931 C11.0344828,7.3092236 11.9299133,6.4137931 13.0344828,6.4137931 Z" id="Rectangle" fill="#D3EDFF"></path>
                <path d="M64,36.2068966 L64,36.7241379 C64,39.4855617 61.7614237,41.7241379 59,41.7241379 L5,41.7241379 C2.23857625,41.7241379 3.38176876e-16,39.4855617 0,36.7241379 L0,36.2068966 L64,36.2068966 Z M53.1494253,0.5 C56.2546377,0.5 58.7603315,3.03928298 58.875196,6.18788291 L58.8793103,6.4137931 L58.8793103,29.5862069 C58.8793103,30.414634 58.2077375,31.0862069 57.3793103,31.0862069 C56.5996142,31.0862069 55.9588617,30.4913188 55.8861769,29.7306669 L55.8793103,29.5862069 L55.8793103,6.4137931 C55.8793103,4.85072235 54.7324016,3.59605653 53.3142161,3.50526246 L53.1494253,3.5 L10.8505747,3.5 C9.41281709,3.5 8.2126581,4.69677431 8.12572967,6.23485612 L8.12068966,6.4137931 L8.12068966,31.7931034 C8.12068966,32.6215306 7.44911678,33.2931034 6.62068966,33.2931034 C5.84099354,33.2931034 5.20024098,32.6982154 5.12755623,31.9375635 L5.12068966,31.7931034 L5.12068966,6.4137931 C5.12068966,3.23727217 7.55416918,0.624116611 10.6298176,0.504292459 L10.8505747,0.5 L53.1494253,0.5 Z M24.8758621,16.6482759 C25.2837031,16.9541566 25.3913725,17.5117652 25.1448917,17.9432507 L25.0758621,18.0482759 L21.7655172,22.462069 C21.4341464,22.9038968 20.807345,22.9934398 20.3655172,22.662069 C19.9576762,22.3561882 19.8500068,21.7985796 20.0964877,21.3670941 L20.1655172,21.262069 L23.4758621,16.8482759 C23.8072329,16.4064481 24.4340343,16.316905 24.8758621,16.6482759 Z M21.5467554,12.2207493 C21.9615978,12.5170653 22.0822023,13.0720198 21.8458199,13.5091193 L21.7792507,13.615721 L16.2620093,21.3398589 C15.9410003,21.7892715 15.3164503,21.8933632 14.8670377,21.5723542 C14.4521953,21.2760382 14.3315908,20.7210836 14.5679732,20.2839842 L14.6345424,20.1773825 L20.1517838,12.4532446 C20.4727928,12.003832 21.0973428,11.8997403 21.5467554,12.2207493 Z" id="Combined-Shape" fill="#16325C"></path>
            </g>
        </g>
    </g>
</svg>