<?xml version="1.0" encoding="UTF-8"?>
<svg width="57px" height="38px" viewBox="0 0 57 38" version="1.1" xmlns="http://www.w3.org/2000/svg" xmlns:xlink="http://www.w3.org/1999/xlink">
    <title>Symbols</title>
    <g id="Symbols" stroke="none" stroke-width="1" fill="none" fill-rule="evenodd">
        <g id="Icons/Credit-Card" transform="translate(-8.000000, -17.000000)">
            <rect id="Rectangle" fill="#D3EDFF" x="11" y="36" width="51" height="4"></rect>
            <rect id="Rectangle" fill="#D3EDFF" transform="translate(37.000000, 49.500000) rotate(-270.000000) translate(-37.000000, -49.500000) " x="33.5" y="23.5" width="7" height="52"></rect>
            <path d="M51,8 L22,8 C19.5147186,8 17.5,10.0147186 17.5,12.5 L17.5,59.5 C17.5,61.9852814 19.5147186,64 22,64 L51,64 C53.4852814,64 55.5,61.9852814 55.5,59.5 L55.5,12.5 C55.5,10.0147186 53.4852814,8 51,8 Z M22,11 L51,11 C51.8284271,11 52.5,11.6715729 52.5,12.5 L52.5,59.5 C52.5,60.3284271 51.8284271,61 51,61 L22,61 C21.1715729,61 20.5,60.3284271 20.5,59.5 L20.5,12.5 C20.5,11.6715729 21.1715729,11 22,11 Z" id="Mask" fill="#16325C" fill-rule="nonzero" transform="translate(36.500000, 36.000000) rotate(-270.000000) translate(-36.500000, -36.000000) "></path>
            <rect id="Rectangle" fill="#16325C" x="11" y="40" width="53" height="7"></rect>
            <rect id="Rectangle" fill="#16325C" x="16" y="32" width="5" height="2"></rect>
            <rect id="Rectangle" fill="#16325C" x="24" y="32" width="5" height="2"></rect>
            <rect id="Rectangle" fill="#16325C" x="32" y="32" width="5" height="2"></rect>
        </g>
    </g>
</svg>