<?xml version="1.0" encoding="UTF-8"?>
<svg width="60px" height="60px" viewBox="0 0 60 60" version="1.1" xmlns="http://www.w3.org/2000/svg" xmlns:xlink="http://www.w3.org/1999/xlink">
    <title>Symbols</title>
    <g id="Symbols" stroke="none" stroke-width="1" fill="none" fill-rule="evenodd">
        <g id="Icons/Denied" transform="translate(-6.000000, -6.000000)">
            <path d="M42.8786797,28.8786797 C44.0502525,27.7071068 45.9497475,27.7071068 47.1213203,28.8786797 C48.2460303,30.0033896 48.2910187,31.7989525 47.2562855,32.9773307 L47.1213203,33.1213203 L32.1213203,48.1213203 C30.9497475,49.2928932 29.0502525,49.2928932 27.8786797,48.1213203 C26.7539697,46.9966104 26.7089813,45.2010475 27.7437145,44.0226693 L27.8786797,43.8786797 L42.8786797,28.8786797 Z" id="Path-41" fill="#D3EDFF" fill-rule="nonzero"></path>
            <path d="M36,9 C50.9116882,9 63,21.0883118 63,36 C63,50.9116882 50.9116882,63 36,63 C21.0883118,63 9,50.9116882 9,36 C9,21.0883118 21.0883118,9 36,9 Z M36,15 C24.4020203,15 15,24.4020203 15,36 C15,47.5979797 24.4020203,57 36,57 C47.5979797,57 57,47.5979797 57,36 C57,24.4020203 47.5979797,15 36,15 Z" id="Oval" fill="#D3EDFF" fill-rule="nonzero"></path>
            <path d="M36,6.5 C19.7075999,6.5 6.5,19.7075999 6.5,36 C6.5,52.2924001 19.7075999,65.5 36,65.5 C52.2924001,65.5 65.5,52.2924001 65.5,36 C65.5,19.7075999 52.2924001,6.5 36,6.5 Z M36,9.5 C50.6355459,9.5 62.5,21.3644541 62.5,36 C62.5,50.6355459 50.6355459,62.5 36,62.5 C21.3644541,62.5 9.5,50.6355459 9.5,36 C9.5,21.3644541 21.3644541,9.5 36,9.5 Z" id="Oval" fill="#16325C" fill-rule="nonzero"></path>
            <path d="M36.263456,25 C37.0918831,25 37.763456,25.6715729 37.763456,26.5 L37.763456,34.999 L46.263456,35 C47.0918831,35 47.763456,35.6715729 47.763456,36.5 C47.763456,37.3284271 47.0918831,38 46.263456,38 L37.763456,37.999 L37.763456,46.5 C37.763456,47.3284271 37.0918831,48 36.263456,48 C35.4350288,48 34.763456,47.3284271 34.763456,46.5 L34.763456,37.999 L26.263456,38 C25.4350288,38 24.763456,37.3284271 24.763456,36.5 C24.763456,35.6715729 25.4350288,35 26.263456,35 L34.763456,34.999 L34.763456,26.5 C34.763456,25.6715729 35.4350288,25 36.263456,25 Z" id="Combined-Shape" fill="#16325C" transform="translate(36.263456, 36.500000) rotate(-315.000000) translate(-36.263456, -36.500000) "></path>
        </g>
    </g>
</svg>