<?xml version="1.0" encoding="UTF-8"?>
<svg width="48px" height="56px" viewBox="0 0 48 56" version="1.1" xmlns="http://www.w3.org/2000/svg" xmlns:xlink="http://www.w3.org/1999/xlink">
    <title>Symbols</title>
    <g id="Symbols" stroke="none" stroke-width="1" fill="none" fill-rule="evenodd">
        <g id="Icons/Files" transform="translate(-12.000000, -8.000000)">
            <path d="M30,10 L43,10 L58,27 L58,42 L44,42 C36.2680135,42 30,35.7319865 30,28 L30,10 L30,10 Z" id="Rectangle" fill="#D3EDFF"></path>
            <path d="M59.5,27.1093287 L43.6939996,8.5 L18,8.5 C14.9624339,8.5 12.5,10.9624339 12.5,14 L12.5,58 C12.5,61.0375661 14.9624339,63.5 18,63.5 L54,63.5 C57.0375661,63.5 59.5,61.0375661 59.5,58 L59.5,27.1093287 Z M42.305,11.5 L56.5,28.212 L56.5,58 C56.5,59.3807119 55.3807119,60.5 54,60.5 L18,60.5 C16.6192881,60.5 15.5,59.3807119 15.5,58 L15.5,14 C15.5,12.6192881 16.6192881,11.5 18,11.5 L42.305,11.5 Z" id="Rectangle" fill="#16325C" fill-rule="nonzero"></path>
            <path d="M43,8.5 C43.7796961,8.5 44.4204487,9.09488808 44.4931334,9.85553999 L44.5,10 L44.5,24 C44.5,25.3254834 45.5315359,26.4100387 46.8356243,26.4946823 L47,26.5 L58,26.5 C58.8284271,26.5 59.5,27.1715729 59.5,28 C59.5,28.7796961 58.9051119,29.4204487 58.14446,29.4931334 L58,29.5 L47,29.5 C44.0365209,29.5 41.6204609,27.15622 41.5043672,24.2212071 L41.5,24 L41.5,10 C41.5,9.17157288 42.1715729,8.5 43,8.5 Z" id="Path-14" fill="#16325C" fill-rule="nonzero"></path>
            <rect id="Rectangle" fill="#16325C" x="23" y="42" width="23" height="3"></rect>
            <rect id="Rectangle" fill="#16325C" x="23" y="49" width="13" height="3"></rect>
        </g>
    </g>
</svg>