<?xml version="1.0" encoding="UTF-8"?>
<svg width="64px" height="37px" viewBox="0 0 64 37" version="1.1" xmlns="http://www.w3.org/2000/svg" xmlns:xlink="http://www.w3.org/1999/xlink">
    <title>Group</title>
    <g id="Symbols" stroke="none" stroke-width="1" fill="none" fill-rule="evenodd">
        <g id="Icons/Flooding" transform="translate(-4.000000, -18.000000)">
            <g id="Group" transform="translate(4.000000, 18.000000)">
                <path d="M62,35 L55.3333333,29.75 L45.3333333,28 L37,31.5 L28.6666667,31.5 L22,28 L13.6666667,28 L2,35 L2,8 L10.3333333,1 L18.6666667,1 L28.6666667,4.5 L40.3333333,4.5 L48.6666667,1 L62,8 L62,35 Z M53.19,16.375 L58.19,19 L55.3333333,16.75 L53.19,16.375 Z M45.3333333,15 L39.381,17.5 L40.3333333,17.5 L46.005,15.118 L45.3333333,15 Z M22,15 L21.523,15 L22.953,15.501 L22,15 Z" id="Combined-Shape" fill="#D3EDFF"></path>
                <path d="M6.27770941,5.71855498 C6.64462523,6.40652215 6.42125459,7.25183939 5.78429573,7.67392682 L5.66006235,7.74796675 L2.70588235,9.32352941 C1.97491724,9.71337747 1.06631865,9.43684746 0.676470588,8.70588235 C0.309554768,8.01791519 0.532925401,7.17259795 1.16988426,6.75051052 L1.29411765,6.67647059 L4.24829764,5.10090792 C4.97926275,4.71105987 5.88786135,4.98758987 6.27770941,5.71855498 Z M25.2058824,2.67647059 C29.3374404,4.8799682 34.2729773,4.93952219 38.4479936,2.85513256 L38.7941176,2.67647059 C43.8062333,0.00334224599 49.7979897,-0.0574106709 54.8546345,2.49421184 L55.2058824,2.67647059 L62.7058824,6.67647059 C63.4368475,7.06631865 63.7133775,7.97491724 63.3235294,8.70588235 C62.9566136,9.39384952 62.1301817,9.67927209 61.4248137,9.38545185 L61.2941176,9.32352941 L53.7941176,5.32352941 C49.6625596,3.1200318 44.7270227,3.06047781 40.5520064,5.14486744 L40.2058824,5.32352941 C35.1937667,7.99665775 29.2020103,8.05741067 24.1453655,5.50578816 L23.7941176,5.32352941 C19.6625596,3.1200318 14.7270227,3.06047781 10.5520064,5.14486744 L10.2058824,5.32352941 L9.47319622,5.71429535 C8.74223111,6.10414341 7.83363252,5.8276134 7.44378446,5.09664829 C7.07686864,4.40868113 7.30023927,3.56336389 7.93719813,3.14127645 L8.06143152,3.06723652 L8.79411765,2.67647059 C13.8062333,0.00334224599 19.7979897,-0.0574106709 24.8546345,2.49421184 L25.2058824,2.67647059 Z" id="Shape" fill="#16325C" fill-rule="nonzero"></path>
                <path d="M55.2058824,16.6764706 C55.9368475,17.0663186 56.2133775,17.9749172 55.8235294,18.7058824 C55.4336814,19.4368475 54.5250828,19.7133775 53.7941176,19.3235294 C49.6625596,17.1200318 44.7270227,17.0604778 40.5520064,19.1448674 L40.2058824,19.3235294 C35.1937667,21.9966578 29.2020103,22.0574107 24.1453655,19.5057882 L23.7941176,19.3235294 C19.6625596,17.1200318 14.7270227,17.0604778 10.5520064,19.1448674 L10.2058824,19.3235294 L2.70588235,23.3235294 C1.97491724,23.7133775 1.06631865,23.4368475 0.676470588,22.7058824 C0.309554768,22.0179152 0.532925401,21.172598 1.16988426,20.7505105 L1.29411765,20.6764706 L8.79411765,16.6764706 C13.8062333,14.0033422 19.7979897,13.9425893 24.8546345,16.4942118 L25.2058824,16.6764706 C29.3374404,18.8799682 34.2729773,18.9395222 38.4479936,16.8551326 L38.7941176,16.6764706 C43.9227941,13.9411765 50.0772059,13.9411765 55.2058824,16.6764706 Z M58.8403268,18.6226231 L58.9710229,18.6845455 L62.7058824,20.6764706 C63.4368475,21.0663186 63.7133775,21.9749172 63.3235294,22.7058824 C62.9566136,23.3938495 62.1301817,23.6792721 61.4248137,23.3854518 L61.2941176,23.3235294 L57.5592582,21.3316044 C56.8282931,20.9417563 56.551763,20.0331577 56.9416111,19.3021926 C57.2855947,18.6572234 58.0334498,18.3660531 58.7067933,18.5742767 L58.8403268,18.6226231 Z" id="Shape" fill="#16325C" fill-rule="nonzero"></path>
                <path d="M38.7941176,29.6764706 C43.8062333,27.0033422 49.7979897,26.9425893 54.8546345,29.4942118 L55.2058824,29.6764706 L62.7058824,33.6764706 C63.4368475,34.0663186 63.7133775,34.9749172 63.3235294,35.7058824 C62.9566136,36.3938495 62.1301817,36.6792721 61.4248137,36.3854518 L61.2941176,36.3235294 L53.7941176,32.3235294 C49.6625596,30.1200318 44.7270227,30.0604778 40.5520064,32.1448674 L40.2058824,32.3235294 C35.1937667,34.9966578 29.2020103,35.0574107 24.1453655,32.5057882 L23.7941176,32.3235294 C19.6625596,30.1200318 14.7270227,30.0604778 10.5520064,32.1448674 L10.2058824,32.3235294 L2.70588235,36.3235294 C1.97491724,36.7133775 1.06631865,36.4368475 0.676470588,35.7058824 C0.309554768,35.0179152 0.532925401,34.172598 1.16988426,33.7505105 L1.29411765,33.6764706 L8.79411765,29.6764706 C13.8062333,27.0033422 19.7979897,26.9425893 24.8546345,29.4942118 L25.2058824,29.6764706 C29.3374404,31.8799682 34.2729773,31.9395222 38.4479936,29.8551326 L38.7941176,29.6764706 Z" id="Line-2" fill="#16325C" fill-rule="nonzero"></path>
            </g>
        </g>
    </g>
</svg>