<?xml version="1.0" encoding="UTF-8"?>
<svg width="57px" height="55px" viewBox="0 0 57 55" version="1.1" xmlns="http://www.w3.org/2000/svg" xmlns:xlink="http://www.w3.org/1999/xlink">
    <title>Group 31</title>
    <g id="Symbols" stroke="none" stroke-width="1" fill="none" fill-rule="evenodd">
        <g id="Icons/Glass" transform="translate(-8.000000, -8.000000)">
            <g id="Group-31" transform="translate(8.000000, 8.000000)">
                <polygon id="Path-30" fill="#D3EDFF" points="24.9666667 35.5666667 8 2 25 2 31 13 40 9 47 22 37.3333333 28.5 53.2333333 49.7 49.7 49.7 44.4 51.4666667 32.0333333 33.8"></polygon>
                <path d="M55,0.5 L2,0.5 C1.17157288,0.5 0.5,1.17157288 0.5,2 L0.5,32.0333333 L0.505669791,32.1691587 C0.610630894,33.4139264 2.14829727,34.0063564 3.06066017,33.0939935 L10.535,25.618 L20.1470939,41.6384103 L20.2266437,41.7579373 C20.7318188,42.444472 21.7237975,42.5771756 22.3936099,42.0189986 L31.683,34.277 L43.1345078,52.2719799 L43.2208277,52.3940988 C43.767648,53.0924368 44.8178184,53.1701686 45.4606602,52.5273268 L48.073,49.913 L54.1,54.4333333 C55.0888544,55.1749741 56.5,54.4694013 56.5,53.2333333 L56.5,2 C56.5,1.17157288 55.8284271,0.5 55,0.5 Z M53.5,3.5 L53.5,50.233 L48.8333333,46.7333333 L48.7108796,46.6505084 C48.126102,46.2954483 47.3653219,46.3800244 46.8726732,46.8726732 L44.661,49.084 L33.2988256,31.2280201 L33.2128691,31.1064261 C32.6981791,30.4491539 31.7292711,30.3341561 31.0730567,30.8810014 L21.818,38.593 L12.1195727,22.4282564 L12.0395059,22.3079647 C11.5031814,21.5793305 10.4282063,21.4838067 9.77267316,22.1393398 L3.5,28.412 L3.5,3.5 L53.5,3.5 Z" id="Path-27" fill="#16325C" fill-rule="nonzero"></path>
                <path d="M38.5160251,14.9198743 L40.1801257,17.4160251 L29.522,24.521 L34.857983,33.4144958 L32.2855042,34.957983 L26.2137606,24.8384103 C25.8275565,24.1947368 25.9791355,23.373079 26.5485345,22.9069241 L26.6679497,22.8185912 L38.5160251,14.9198743 Z" id="Path-28" fill="#16325C" fill-rule="nonzero"></path>
                <polygon id="Path-29" fill="#16325C" fill-rule="nonzero" transform="translate(26.656853, 23.072532) rotate(0.463757) translate(-26.656853, -23.072532) " points="19.222389 13.5972354 21.7948678 12.0537482 34.0913164 32.5478291 31.5188376 34.0913164"></polygon>
            </g>
        </g>
    </g>
</svg>