<?xml version="1.0" encoding="UTF-8"?>
<svg width="72px" height="72px" viewBox="0 0 72 72" version="1.1" xmlns="http://www.w3.org/2000/svg" xmlns:xlink="http://www.w3.org/1999/xlink">
    <title>Group</title>
    <g id="Symbols" stroke="none" stroke-width="1" fill="none" fill-rule="evenodd">
        <g id="Icons/Health" transform="translate(0.000000, -1.000000)">
            <g id="Group" transform="translate(37.000000, 36.500000) rotate(-45.000000) translate(-37.000000, -36.500000) translate(23.000000, 4.000000)">
                <path d="M7,0 C14.4666667,3.33333333 18.2,10.3333333 18.2,21 C18.2,31.6666667 18.2,43 18.2,55 C17.2666667,61.6666667 14,65 8.4,65 L20,63 L26.6,54 L28,41 L28,14 L25.2,7 L19,0 L7,0 Z" id="Path-2" fill="#D3EDFF"></path>
                <path d="M13,-2 C10.3700726,-2 7.88834464,-1.36548292 5.69955348,-0.241186169 L5.17994209,0.0379747158 C0.298473578,2.77793093 -3,8.00376557 -3,14 L-3,50 C-3,58.836556 4.163444,66 13,66 C21.836556,66 29,58.836556 29,50 L29,14 C29,8.00376557 25.7015264,2.77793093 20.8200579,0.0379747158 L20.3004465,-0.241186169 C18.1116554,-1.36548292 15.6299274,-2 13,-2 Z M13,1 C20.1797017,1 26,6.82029825 26,14 L26,50 C26,57.1797017 20.1797017,63 13,63 C5.82029825,63 0,57.1797017 0,50 L0,14 C0,6.82029825 5.82029825,1 13,1 Z" id="Rectangle" fill="#16325C" fill-rule="nonzero"></path>
                <path d="M18,22 L8,22 C5.23857625,22 3,24.2385763 3,27 L3,38 C3,40.7614237 5.23857625,43 8,43 L18,43 C20.7614237,43 23,40.7614237 23,38 L23,27 C23,24.2385763 20.7614237,22 18,22 Z M8,24 L18,24 C19.6568542,24 21,25.3431458 21,27 L21,38 C21,39.6568542 19.6568542,41 18,41 L8,41 C6.34314575,41 5,39.6568542 5,38 L5,27 C5,25.3431458 6.34314575,24 8,24 Z" id="Rectangle" fill="#16325C" fill-rule="nonzero"></path>
                <path d="M7,17 C7.55228475,17 8,17.4477153 8,18 C8,18.5522847 7.55228475,19 7,19 C6.44771525,19 6,18.5522847 6,18 C6,17.4477153 6.44771525,17 7,17 Z M13,17 C13.5522847,17 14,17.4477153 14,18 C14,18.5522847 13.5522847,19 13,19 C12.4477153,19 12,18.5522847 12,18 C12,17.4477153 12.4477153,17 13,17 Z M19,17 C19.5522847,17 20,17.4477153 20,18 C20,18.5522847 19.5522847,19 19,19 C18.4477153,19 18,18.5522847 18,18 C18,17.4477153 18.4477153,17 19,17 Z M7,12 C7.55228475,12 8,12.4477153 8,13 C8,13.5522847 7.55228475,14 7,14 C6.44771525,14 6,13.5522847 6,13 C6,12.4477153 6.44771525,12 7,12 Z M13,12 C13.5522847,12 14,12.4477153 14,13 C14,13.5522847 13.5522847,14 13,14 C12.4477153,14 12,13.5522847 12,13 C12,12.4477153 12.4477153,12 13,12 Z M19,12 C19.5522847,12 20,12.4477153 20,13 C20,13.5522847 19.5522847,14 19,14 C18.4477153,14 18,13.5522847 18,13 C18,12.4477153 18.4477153,12 19,12 Z M10,7 C10.5522847,7 11,7.44771525 11,8 C11,8.55228475 10.5522847,9 10,9 C9.44771525,9 9,8.55228475 9,8 C9,7.44771525 9.44771525,7 10,7 Z M16,7 C16.5522847,7 17,7.44771525 17,8 C17,8.55228475 16.5522847,9 16,9 C15.4477153,9 15,8.55228475 15,8 C15,7.44771525 15.4477153,7 16,7 Z" id="Combined-Shape" fill="#16325C"></path>
                <path d="M7,56 C7.55228475,56 8,56.4477153 8,57 C8,57.5522847 7.55228475,58 7,58 C6.44771525,58 6,57.5522847 6,57 C6,56.4477153 6.44771525,56 7,56 Z M13,56 C13.5522847,56 14,56.4477153 14,57 C14,57.5522847 13.5522847,58 13,58 C12.4477153,58 12,57.5522847 12,57 C12,56.4477153 12.4477153,56 13,56 Z M19,56 C19.5522847,56 20,56.4477153 20,57 C20,57.5522847 19.5522847,58 19,58 C18.4477153,58 18,57.5522847 18,57 C18,56.4477153 18.4477153,56 19,56 Z M7,51 C7.55228475,51 8,51.4477153 8,52 C8,52.5522847 7.55228475,53 7,53 C6.44771525,53 6,52.5522847 6,52 C6,51.4477153 6.44771525,51 7,51 Z M13,51 C13.5522847,51 14,51.4477153 14,52 C14,52.5522847 13.5522847,53 13,53 C12.4477153,53 12,52.5522847 12,52 C12,51.4477153 12.4477153,51 13,51 Z M19,51 C19.5522847,51 20,51.4477153 20,52 C20,52.5522847 19.5522847,53 19,53 C18.4477153,53 18,52.5522847 18,52 C18,51.4477153 18.4477153,51 19,51 Z M10,46 C10.5522847,46 11,46.4477153 11,47 C11,47.5522847 10.5522847,48 10,48 C9.44771525,48 9,47.5522847 9,47 C9,46.4477153 9.44771525,46 10,46 Z M16,46 C16.5522847,46 17,46.4477153 17,47 C17,47.5522847 16.5522847,48 16,48 C15.4477153,48 15,47.5522847 15,47 C15,46.4477153 15.4477153,46 16,46 Z" id="Combined-Shape" fill="#16325C" transform="translate(13.000000, 52.000000) scale(1, -1) translate(-13.000000, -52.000000) "></path>
            </g>
        </g>
    </g>
</svg>