<?xml version="1.0" encoding="UTF-8"?>
<svg width="65px" height="55px" viewBox="0 0 65 55" version="1.1" xmlns="http://www.w3.org/2000/svg" xmlns:xlink="http://www.w3.org/1999/xlink">
    <title>Group</title>
    <g id="Symbols" stroke="none" stroke-width="1" fill="none" fill-rule="evenodd">
        <g id="Icons/Homeowners" transform="translate(-4.000000, -7.000000)">
            <g id="Group" transform="translate(4.000000, 7.000000)">
                <polygon id="Path-9" fill="#D3EDFF" points="48 25 48 47 29 47 29 53 55 53 55 24"></polygon>
                <path d="M24.5,40 C26.9852814,40 29,42.0147186 29,44.5 L29,54 L29,54 L20,54 L20,44.5 C20,42.0147186 22.0147186,40 24.5,40 Z" id="Rectangle" fill="#D3EDFF"></path>
                <path d="M18.5,45 L18.5,52 L15.5,52 L15.5,45 L18.5,45 Z M22.5,34.5 C26.2854517,34.5 29.3690987,37.5047834 29.495941,41.2593502 L29.5,41.5 L29.5,52 L26.5,52 L26.5,41.5 C26.5,39.290861 24.709139,37.5 22.5,37.5 C20.3578046,37.5 18.6089211,39.1839685 18.5048953,41.3003597 L18.5,41.5 L15.5,41.5 C15.5,37.6340068 18.6340068,34.5 22.5,34.5 Z" id="Shape" fill="#16325C" fill-rule="nonzero"></path>
                <polygon id="Rectangle" fill="#D3EDFF" points="21 10 52 10 58 25 13 25"></polygon>
                <rect id="Rectangle" fill="#D3EDFF" x="10" y="27" width="30" height="3"></rect>
                <path d="M48,36 L36,36 L36,47 L48,47 L48,36 Z M46,38 L46,45 L38,45 L38,38 L46,38 Z" id="Rectangle" fill="#16325C" fill-rule="nonzero"></path>
                <rect id="Rectangle" fill="#16325C" x="6" y="52" width="53" height="3"></rect>
                <rect id="Rectangle" fill="#16325C" x="0" y="52" width="4" height="3"></rect>
                <rect id="Rectangle" fill="#16325C" x="61" y="52" width="4" height="3"></rect>
                <path d="M48,7.5 C48.5777543,7.5 49.4880172,7.5 50.7307889,7.5 C52.0187677,7.5 53.1966862,8.20664565 53.8062049,9.32907228 L53.8976544,9.50971037 L61.3572281,25.3613044 C61.8066744,26.3163779 61.1556819,27.4087321 60.1300967,27.4945924 L60,27.5 L51,27.5 L51,24.5 L57.636,24.5 L51.1831983,10.7871015 C51.1125107,10.6368904 50.9729157,10.5332523 50.8125058,10.506707 L50.7307889,10.5 C49.4880172,10.5 48.5777543,10.5 48,10.5 M39,10.5 C33.2820469,10.5 24.7051173,10.5 13.2692111,10.5 C13.1031988,10.5 12.9499859,10.5821794 12.8576651,10.7160183 L12.8168017,10.7871015 L6.363,24.5 L46,24.5 L46,27.5 L4,27.5 C2.94445881,27.5 2.23326687,26.4458487 2.5922701,25.4813209 L2.64277195,25.3613044 L10.1023456,9.50971037 C10.6507632,8.34432304 11.7917036,7.57940803 13.0668275,7.50583 L13.2692111,7.5 C24.7051173,7.5 33.2820469,7.5 39,7.5" id="Combined-Shape" fill="#16325C" fill-rule="nonzero"></path>
                <path d="M49.5,0.5 L38.5,0.5 L38.5,16.5 L49.5,16.5 L49.5,0.5 Z M46.5,3.5 L46.5,13.5 L41.5,13.5 L41.5,3.5 L46.5,3.5 Z" id="Rectangle" fill="#16325C" fill-rule="nonzero"></path>
                <rect id="Rectangle" fill="#16325C" x="20" y="14" width="14" height="2"></rect>
                <rect id="Rectangle" fill="#16325C" x="14" y="19" width="35" height="2"></rect>
                <rect id="Rectangle" fill="#16325C" x="8" y="26" width="3" height="27"></rect>
                <rect id="Rectangle" fill="#16325C" x="53" y="26" width="3" height="27"></rect>
            </g>
        </g>
    </g>
</svg>