<?xml version="1.0" encoding="UTF-8"?>
<svg width="825px" height="284px" viewBox="0 0 825 284" version="1.1" xmlns="http://www.w3.org/2000/svg" xmlns:xlink="http://www.w3.org/1999/xlink">
    <title>undraw_buy_house_560d</title>
    <g id="Symbols" stroke="none" stroke-width="1" fill="none" fill-rule="evenodd">
        <g id="Illustration/Hero/House">
            <g id="undraw_buy_house_560d" fill-rule="nonzero">
                <rect id="Rectangle" stroke="#16325C" stroke-width="4" fill="#0089E0" x="145" y="168" width="553" height="114"></rect>
                <polygon id="Path" fill="#16325C" points="126 179 186.616438 52 670.739726 52 716 179"></polygon>
                <rect id="Rectangle" fill="#0089E0" x="276" y="60" width="225" height="74"></rect>
                <polygon id="Path" fill="#16325C" points="290.6 0 255 74 522 74 500.963636 0"></polygon>
                <path d="M554,198 L554,284 L505,284 L505,198 L554,198 Z M547,244 C545.343146,244 544,245.343146 544,247 C544,248.656854 545.343146,250 547,250 C548.656854,250 550,248.656854 550,247 C550,245.343146 548.656854,244 547,244 Z M527,222 L515,222 L515,233 L527,233 L527,222 Z M543,222 L531,222 L531,233 L543,233 L543,222 Z M527,207 L515,207 L515,218 L527,218 L527,207 Z M543,207 L531,207 L531,218 L543,218 L543,207 Z" id="Combined-Shape" fill="#16325C"></path>
                <rect id="Rectangle" fill="#16325C" x="106" y="96" width="5" height="188"></rect>
                <path d="M154.998518,119.785765 C155.30153,185.507647 109.048623,239 109.048623,239 C109.048623,239 62.304446,185.936125 62.0014819,120.214243 C61.6985177,54.4923615 107.951376,1 107.951376,1 C107.951376,1 154.695521,54.0638989 154.998518,119.785765 Z" id="Path" fill="#6C63FF"></path>
                <path d="M107.966748,4.12474827 C115.947263,13.8577497 152.731378,61.8461342 152.998539,119.794986 C153.265732,177.747814 116.920647,226.075744 109.03325,235.875252 C101.05273,226.142254 64.2685928,178.153888 64.0014606,120.205024 C63.7343102,62.2521941 100.079362,13.9242573 107.966748,4.12474827 Z" id="Path" stroke="#16325C" stroke-width="4" fill="#1589EE"></path>
                <path d="M777.966748,4.12474827 C785.947263,13.8577497 822.731378,61.8461342 822.998539,119.794986 C823.265732,177.747814 786.920647,226.075744 779.03325,235.875252 C771.05273,226.142254 734.268593,178.153888 734.001461,120.205024 C733.73431,62.2521941 770.079362,13.9242573 777.966748,4.12474827 Z" id="Path" stroke="#16325C" stroke-width="4" fill="#1589EE"></path>
                <path d="M45.9667559,4.12474827 C53.9472712,13.8577497 90.7313853,61.8461341 90.9985389,119.794986 C91.2657322,177.747814 54.920647,226.075744 47.03325,235.875252 C39.0527295,226.142254 2.2685928,178.153888 2.00146063,120.205024 C1.73431017,62.2521942 38.0793688,13.9242574 45.9667559,4.12474827 Z" id="Path" stroke="#16325C" stroke-width="4" fill="#1589EE"></path>
                <rect id="Rectangle" fill="#16325C" x="606" y="203" width="24" height="22"></rect>
                <rect id="Rectangle" fill="#16325C" x="638" y="203" width="24" height="22"></rect>
                <rect id="Rectangle" fill="#16325C" x="776" y="96" width="5" height="188"></rect>
                <rect id="Rectangle" fill="#16325C" x="606" y="233" width="24" height="23"></rect>
                <rect id="Rectangle" fill="#16325C" x="638" y="233" width="24" height="23"></rect>
                <rect id="Rectangle" fill="#16325C" x="45" y="96" width="5" height="188"></rect>
                <rect id="Rectangle" fill="#16325C" x="297" y="81" width="19" height="17"></rect>
                <rect id="Rectangle" fill="#16325C" x="322" y="81" width="19" height="17"></rect>
                <rect id="Rectangle" fill="#16325C" x="297" y="104" width="19" height="18"></rect>
                <rect id="Rectangle" fill="#16325C" x="322" y="104" width="19" height="18"></rect>
                <rect id="Rectangle" fill="#16325C" x="437" y="81" width="19" height="17"></rect>
                <rect id="Rectangle" fill="#16325C" x="462" y="81" width="19" height="17"></rect>
                <rect id="Rectangle" fill="#16325C" x="437" y="104" width="19" height="18"></rect>
                <rect id="Rectangle" fill="#16325C" x="462" y="104" width="19" height="18"></rect>
                <rect id="Rectangle" fill="#16325C" x="367" y="81" width="19" height="17"></rect>
                <rect id="Rectangle" fill="#16325C" x="392" y="81" width="19" height="17"></rect>
                <rect id="Rectangle" fill="#16325C" x="367" y="104" width="19" height="18"></rect>
                <rect id="Rectangle" fill="#16325C" x="392" y="104" width="19" height="18"></rect>
            </g>
            <path d="M265,271 L265,275 L177,275 L177,271 L265,271 Z M265,262 L265,266 L177,266 L177,262 L265,262 Z M265,253 L265,257 L177,257 L177,253 L265,253 Z M265,244 L265,248 L177,248 L177,244 L265,244 Z M265,235 L265,239 L177,239 L177,235 L265,235 Z M265,226 L265,230 L177,230 L177,226 L265,226 Z M265,217 L265,221 L177,221 L177,217 L265,217 Z M265,208 L265,212 L177,212 L177,208 L265,208 Z M265,199 L265,203 L177,203 L177,199 L265,199 Z" id="Combined-Shape" fill="#16325C"></path>
            <path d="M427,271 L427,275 L289,275 L289,271 L427,271 Z M427,262 L427,266 L289,266 L289,262 L427,262 Z M427,253 L427,257 L289,257 L289,253 L427,253 Z M427,244 L427,248 L289,248 L289,244 L427,244 Z M427,235 L427,239 L289,239 L289,235 L427,235 Z M427,226 L427,230 L289,230 L289,226 L427,226 Z M427,217 L427,221 L289,221 L289,217 L427,217 Z M427,208 L427,212 L289,212 L289,208 L427,208 Z M427,199 L427,203 L289,203 L289,199 L427,199 Z" id="Combined-Shape" fill="#16325C"></path>
            <path d="M739,294 C737.688147,275.452019 722.31452,261.075056 703.784295,261.067313 L703.784295,261.067313 C697.606423,261.066506 691.537549,262.70029 686.189633,265.80392 C675.093175,255.734382 659.124545,253.174872 645.454323,259.274715 C631.784101,265.374558 622.981803,278.987201 622.999972,294" id="Path" stroke="#16325C" stroke-width="4" fill="#0070D2" fill-rule="nonzero" stroke-linejoin="round"></path>
            <path d="M178.000014,284 C176.959579,269.356857 164.766705,258.006623 150.070324,258.00051 L150.070324,258.00051 C145.170633,257.999873 140.35739,259.289702 136.11594,261.739937 C127.315303,253.790302 114.650531,251.769636 103.808633,256.585301 C92.9667356,261.400967 85.9856047,272.14779 86.0000141,284" id="Path" stroke="#16325C" stroke-width="4" fill="#0070D2" fill-rule="nonzero" stroke-linejoin="round" transform="translate(132.000014, 269.000000) scale(-1, 1) translate(-132.000014, -269.000000) "></path>
        </g>
    </g>
</svg>