<?xml version="1.0" encoding="UTF-8"?>
<svg width="74px" height="69px" viewBox="0 0 74 69" version="1.1" xmlns="http://www.w3.org/2000/svg" xmlns:xlink="http://www.w3.org/1999/xlink">
    <title>Group 3</title>
    <g id="Symbols" stroke="none" stroke-width="1" fill="none" fill-rule="evenodd">
        <g id="Icons/Images" transform="translate(1.000000, -1.000000)">
            <g id="Group-3" transform="translate(-1.000000, 1.000000)">
                <path d="M48.7735114,33.7735114 L58.7383004,43.7383004 L59,50 L58,56 L20,56 L43.1726494,33.7186063 C44.7430386,32.2086167 47.233026,32.233026 48.7735114,33.7735114 Z M32,20 C34.209139,20 36,21.790861 36,24 C36,26.209139 34.209139,28 32,28 C29.790861,28 28,26.209139 28,24 C28,21.790861 29.790861,20 32,20 Z" id="Combined-Shape" fill="#D3EDFF"></path>
                <path d="M47.3161245,7.4362017 C50.5169211,6.57855083 53.8069428,8.47804577 54.6645937,11.6788424 L54.6645937,11.6788424 L55.2789759,13.9722675 L63.036413,13.9728706 L63.036413,13.9728706 C65.4506863,13.9728706 67.4209021,15.8741071 67.531515,18.2610349 L67.536413,18.4728706 L67.536413,47.4728706 C67.536413,49.8871439 65.6351765,51.8573597 63.2482487,51.9679726 L62.8041618,51.8369569 C62.0380719,52.7617504 60.9877136,53.4661671 59.7394386,53.8006414 L59.7394386,53.8006414 L31.7275897,61.3063937 C30.5683685,61.617006 29.3974443,61.5659787 28.3346012,61.2224691 L27.7748232,61.4730483 C25.6523766,62.5707186 23.0207496,61.81508 21.8136129,59.7242579 L21.8136129,59.7242579 L7.31361294,34.6095212 L7.21193687,34.4236171 C6.11426658,32.3011706 6.86990522,29.6695436 8.96072726,28.4624069 C11.6966607,26.882815 13.9356612,25.5901275 15.6777287,24.5843443 L15.0616348,22.2904232 C14.2039839,19.0896266 16.1034789,15.7996049 19.3042755,14.941954 L19.3042755,14.941954 Z M16.4813225,27.5844909 C14.9017043,28.4964839 12.8948392,29.6551479 10.4607273,31.0604831 L10.4607273,31.0604831 L10.3390545,31.1386598 C9.71665301,31.5819325 9.52184109,32.4342846 9.91168915,33.1095212 L9.91168915,33.1095212 L24.4116892,58.2242579 L24.4898658,58.3459307 C24.6744174,58.6050604 24.9298778,58.7900728 25.2139432,58.8896323 C24.8447505,58.3467377 24.5586468,57.7337544 24.3791204,57.063753 L24.3791204,57.063753 Z M51.7668162,12.4552995 C51.3379908,10.8549012 49.6929799,9.90515374 48.0925816,10.3339792 L48.0925816,10.3339792 L20.0807326,17.8397315 C18.4803343,18.2685569 17.5305869,19.9135678 17.9594123,21.5139661 L17.9594123,21.5139661 L18.7729037,24.5465068 C18.7961882,24.6204091 18.8163307,24.6960675 18.8330326,24.7727657 L27.2768979,56.2872958 C27.7057233,57.8876942 29.3507342,58.8374416 30.9511325,58.4086162 L30.9511325,58.4086162 L58.9629815,50.9028639 C60.5633798,50.4740384 61.5131273,48.8290276 61.0843018,47.2286293 L61.0843018,47.2286293 Z M63.9820793,46.4521721 C64.161809,47.1229323 64.220457,47.7976109 64.1714216,48.4530017 C64.3693598,48.2246449 64.4991446,47.9354879 64.5295464,47.6173306 L64.536413,47.4728706 L64.536413,18.4728706 C64.536413,17.6931745 63.9415249,17.0524219 63.180873,16.9797372 L63.036413,16.9728706 L56.0829759,16.9722675 Z" id="Combined-Shape" fill="#16325C" fill-rule="nonzero" transform="translate(37.123194, 34.602638) rotate(-345.000000) translate(-37.123194, -34.602638) "></path>
            </g>
        </g>
    </g>
</svg>