<?xml version="1.0" encoding="UTF-8"?>
<svg width="66px" height="56px" viewBox="0 0 66 56" version="1.1" xmlns="http://www.w3.org/2000/svg" xmlns:xlink="http://www.w3.org/1999/xlink">
    <title>Group 3</title>
    <g id="Symbols" stroke="none" stroke-width="1" fill="none" fill-rule="evenodd">
        <g id="Icons/Accident" transform="translate(-4.000000, -7.000000)">
            <g id="Group-3" transform="translate(4.000000, 7.000000)">
                <path d="M38,41.7392241 C42,43.1041667 45,43.1041667 47,41.7392241 C50,39.6918103 43,39.6918103 49,34.5732759 C55,29.4547414 55,31.5021552 55,27.4073276 C55,23.3125 55,20.2413793 51,20.2413793 C47,20.2413793 49,12.0517241 56,16.1465517 C60.6666667,18.8764368 62,22.9712644 60,28.4310345 L64,35.5969828 L63,42.762931 L59,51.9762931 L57,53 L52,51.9762931 L50,47.8814655 L49,44.8103448 L38,41.7392241 Z" id="Path-19" fill="#D3EDFF"></path>
                <path d="M32.7309009,10.0510472 C31.9997116,10.2817467 31.3395927,10.6954429 30.8131753,11.2528864 L23.3613898,19.143868 C23.173765,19.342561 22.9354496,19.4862063 22.6721502,19.5593188 C19.9341435,20.3196037 18.0897692,21.4597263 17.2173408,23.1021225 C17.1066053,23.3105884 17.001407,23.555989 16.9014447,23.839079 L16.7839839,24.1969264 L16.6714339,24.5912457 C16.6163674,24.7975715 16.5630991,25.0176831 16.5115639,25.2517433 L16.4107852,25.7385103 L16.3145125,26.2627637 L16.2226302,26.8247933 L16.1350227,27.4248891 C16.1207713,27.5280934 16.1066931,27.6328958 16.0927858,27.7393024 L16.0113735,28.3970409 L15.9339469,29.0935703 L15.8603901,29.8291803 L15.7905876,30.6041609 L15.7244237,31.418802 L15.6617828,32.2733934 L15.6025492,33.168225 L15.5198343,34.5865568 C15.5138375,34.6975121 15.4955306,34.8074555 15.4652504,34.914366 L14.4017636,38.669228 C13.9111568,40.4013763 14.5001427,42.2592397 15.8991075,43.3923628 C16.9224497,44.2212418 17.9917646,44.8361475 19.1056335,45.2293204 C19.9379344,45.5231055 20.7667674,45.6829291 21.5882754,45.7043256 C23.4354603,45.7524323 25.1243093,44.6664439 25.8469955,42.9658213 L26.3645373,41.7479439 C26.652229,41.0709488 27.3883908,40.7024618 28.102757,40.877875 L48.0597704,45.7783381 C48.3132547,45.8405814 48.4792253,46.0750065 48.4637984,46.3266164 L48.44685,46.4311653 L48.2430432,47.1985211 C47.6784684,49.3242207 48.7331614,51.5465692 50.7369172,52.4533749 C51.445554,52.7740706 52.2895385,53.0471582 53.2730241,53.2785917 L53.636129,53.3601537 C56.8790975,54.0529698 60.070872,52.0483746 60.875946,48.8596508 L60.9296256,48.6286452 L61.3118871,46.8295725 C61.3597283,46.6044171 61.4587474,46.3932884 61.6012764,46.2125386 L61.8389725,45.9069052 C66.3615281,40.0093905 66.7349259,34.673597 62.7433947,30.3786801 L62.491,30.115 L61.4947839,20.7224502 L61.4920462,20.6617286 C61.3877298,16.4565019 56.9830766,13.4806428 48.6752641,11.3479249 L47.588743,11.0757162 C40.9843153,9.46318167 36.1500893,9.07442251 32.9839659,9.97518352 L32.7309009,10.0510472 Z M47.9293145,14.2537052 C48.4767095,14.3942282 49.0020494,14.5374894 49.505515,14.683313 L50.2443303,14.9039482 C50.3647394,14.9410337 50.483787,14.9782738 50.601476,15.0156659 L51.2913283,15.2418191 C51.9649218,15.4697513 52.5898066,15.7029544 53.1665927,15.940835 L53.7273686,16.1802529 C56.8145019,17.5455405 58.3636666,19.0546795 58.4858851,20.5997084 L58.4929688,20.7361248 C58.4959834,20.857648 58.5039209,20.9790024 58.5167606,21.0998895 L59.623799,31.5202046 L60.0285731,31.9012098 C63.5246001,35.191945 63.3515292,39.147925 59.2455619,44.354957 C58.8179769,44.897204 58.5209228,45.5305835 58.377398,46.2060556 L57.994412,48.0085286 C57.6316446,49.706631 55.960982,50.7891299 54.2628874,50.4263551 L53.9602127,50.3583568 C53.1535227,50.1685268 52.4900044,49.9538325 51.9738112,49.7202277 C51.3058927,49.4179592 50.9543281,48.6771759 51.1425198,47.9686091 L51.3627787,47.1368737 C51.8279074,45.2426489 50.669396,43.3300149 48.7751712,42.8648863 L28.8181578,37.9644232 C26.6750592,37.4381834 24.4665739,38.5436445 23.6034987,40.5746298 L23.085957,41.7925072 C22.8450616,42.3593814 22.2821109,42.7213781 21.6663819,42.7053426 C21.1669747,42.6923353 20.6475287,42.5921707 20.1041902,42.4003833 C19.3251251,42.1253894 18.5533127,41.6815614 17.7873341,41.0611398 C17.3210125,40.6834322 17.1246849,40.0641476 17.28822,39.4867667 L18.3517094,35.7318957 C18.4425504,35.4111625 18.4974717,35.0813287 18.5154621,34.7484655 L18.5916205,33.4435588 L18.6743992,32.220299 L18.7634079,31.0796644 L18.8582562,30.0226334 L18.9245398,29.3648756 L18.9931298,28.7449996 L19.0639102,28.1632953 L19.1367656,27.6200526 L19.2115803,27.1155614 L19.2882385,26.6501115 L19.3666247,26.2239928 L19.4466231,25.8374952 L19.5281182,25.4909085 L19.6109942,25.1845227 C19.6249155,25.1368246 19.6388895,25.0908136 19.6529139,25.0464958 L19.7376444,24.8009547 C19.7802923,24.6883915 19.8233496,24.5911752 19.8667512,24.5094692 C20.276149,23.7387544 21.4527324,23.011435 23.4748146,22.4499468 C24.264732,22.2306039 24.97972,21.7996428 25.5425665,21.2035933 L32.9943263,13.3126389 C33.1697995,13.1268236 33.3898414,12.9889235 33.6335691,12.9120243 C35.2865744,12.3904875 37.7846737,12.358793 41.0963724,12.8372213 L41.9067851,12.9618488 C42.044452,12.9842559 42.1834166,13.0074818 42.323677,13.0315278 L43.1807716,13.1856552 L44.0688665,13.359527 C44.2194603,13.3901545 44.3713417,13.4216073 44.5245088,13.4538866 L45.4589228,13.657492 C45.7755259,13.7286737 46.0972555,13.8031721 46.4240953,13.8809976 L47.4199295,14.1244657 C47.5884516,14.1667107 47.7582473,14.2097901 47.9293145,14.2537052 Z" id="Combined-Shape" fill="#16325C" fill-rule="nonzero"></path>
                <path d="M32,20.5 L52.7741935,26 C53.3763441,21.7222222 52.7741935,19.2777778 50.9677419,18.6666667 C49.1612903,18.0555556 44.9462366,16.8333333 38.3225806,15 C36.516129,15 34.7096774,16.2222222 32.9032258,18.6666667" id="Path-11" fill="#D3EDFF"></path>
                <path d="M37.4786791,16.6013354 C37.6988555,15.8027029 38.5247632,15.3337716 39.3233957,15.5539479 L45.2031837,17.1916782 L48.1010471,18.0175911 L50.9540824,18.8559253 L52.4440236,19.3149236 L53.2531679,19.5785277 C56.0969496,20.5367585 56.9504306,23.7535563 56.2856063,28.8588834 L56.0018133,30.8806794 L31.6175178,24.4504163 C30.816475,24.2391772 30.3383446,23.4185606 30.5495837,22.6175178 C30.748397,21.8635952 31.4870048,21.3957126 32.2410465,21.5193877 L32.3824822,21.5495837 L53.453,27.105 L53.4689284,26.8977051 C53.6447353,24.2266421 53.1968283,22.8135571 52.3837232,22.455777 L52.2952192,22.4214723 L51.5100114,22.1658768 L50.5093253,21.8556426 L48.1662153,21.1598997 L43.9614136,19.9586076 L40.4742739,18.9847236 L38.5260666,18.4460521 C37.7274341,18.2258757 37.2585028,17.399968 37.4786791,16.6013354 Z" id="Path-11" fill="#16325C" fill-rule="nonzero"></path>
                <path d="M62,53 C62.8284271,53 63.5,53.6715729 63.5,54.5 C63.5,55.2796961 62.9051119,55.9204487 62.14446,55.9931334 L62,56 L16,56 C15.1715729,56 14.5,55.3284271 14.5,54.5 C14.5,53.7203039 15.0948881,53.0795513 15.85554,53.0068666 L16,53 L62,53 Z M11.5,53 C12.3284271,53 13,53.6715729 13,54.5 C13,55.2796961 12.4051119,55.9204487 11.64446,55.9931334 L11.5,56 L8,56 C7.17157288,56 6.5,55.3284271 6.5,54.5 C6.5,53.7203039 7.09488808,53.0795513 7.85553999,53.0068666 L8,53 L11.5,53 Z" id="Shape" fill="#16325C" fill-rule="nonzero"></path>
                <path d="M12,32 L7,35 L9,25 L0,24 L7,19 L2,11 L11,12 L12,2 L18,10 L25,4 L25,11 C18.3333333,16.3333333 14.6666667,20 14,22 C13.3333333,24 12.6666667,27.3333333 12,32 Z" id="Path-12" fill="#D3EDFF"></path>
                <path d="M10.5074442,1.85074442 C10.6387866,0.537320847 12.2618914,0.0407354611 13.1119802,0.992458871 L13.2,1.1 L18.239,7.819 L24.0238129,2.8611151 C24.6134899,2.3556777 25.482625,2.38810942 26.0331955,2.91240852 L26.1388849,3.02381294 C26.6443223,3.61348991 26.6118906,4.48262497 26.0875915,5.03319551 L25.9761871,5.1388849 L18.9761871,11.1388849 C18.3567487,11.6698321 17.4363313,11.6040278 16.8965767,11.0162975 L16.8,10.9 L13.109,5.978 L12.4925558,12.1492556 C12.4133413,12.9414008 11.7325399,13.5250283 10.9525252,13.4993541 L10.8139479,13.4884168 L2.8139479,12.4884168 C1.99191799,12.3856631 1.40882945,11.6359778 1.51158318,10.8139479 C1.60829259,10.0402727 2.27806244,9.47825489 3.04185594,9.50047868 L3.1860521,9.51158318 L9.66,10.32 L10.5074442,1.85074442 Z" id="Path-3" fill="#16325C" fill-rule="nonzero"></path>
            </g>
            <path d="M30.5785162,31.2726221 C27.9395715,31.2018169 25.899183,33.4988224 25.976685,36.3247349 C26.051627,39.057304 29.7100472,42.5222634 32.3601374,42.5933677 C33.8436713,42.6331722 34.7543713,41.681633 35.128609,40.1575665 C35.2847895,39.5215287 35.3536075,38.8662314 35.3680074,37.9849904 L35.3703807,37.427479 L35.361275,36.8058203 C35.3588887,36.6963137 35.3560899,36.583721 35.3529117,36.4678354 C35.2764779,33.6808737 33.1711579,31.342185 30.5785162,31.2726221 Z M30.5248738,33.2719026 C32.0064248,33.3116539 33.3051667,34.7543577 33.3536634,36.5226658 L33.3665326,37.1107001 L33.3703348,37.6339241 L33.3641109,38.0996656 L33.3469015,38.5152523 C33.3200426,38.9736961 33.2687965,39.3447012 33.1863083,39.6806305 C33.0131498,40.3858108 32.8037971,40.6045517 32.4137799,40.5940872 C30.8029112,40.5508661 28.0210822,37.9161429 27.9759333,36.2699045 C27.9301987,34.60231 29.0082301,33.3273003 30.3721887,33.2728838 L30.5248738,33.2719026 Z" id="Oval" fill="#16325C" fill-rule="nonzero" transform="translate(30.672465, 36.932799) rotate(-34.000000) translate(-30.672465, -36.932799) "></path>
            <path d="M58.5185118,39.0014145 C55.9170177,38.9332804 53.9287849,41.2872084 54.0019678,44.1592728 C54.0727449,46.9369215 57.6417186,50.4834763 60.2506591,50.5518055 C61.7263398,50.5904542 62.6149429,49.6138562 62.9788435,48.0602241 C63.1606321,47.2840988 63.2208376,46.4773268 63.2144884,45.2767549 L63.2060224,44.641971 C63.2037719,44.5301439 63.201123,44.4151616 63.1981074,44.2968142 C63.1277914,41.5372608 61.1835685,39.1979823 58.7245892,39.0119 L58.5185118,39.0014145 Z M58.466149,41.0007289 C59.8852272,41.0378952 61.1520555,42.5149831 61.1987564,44.3477596 L61.2109808,44.9529683 L61.2143458,45.4916245 C61.214115,45.5762766 61.213475,45.6584722 61.2124058,45.7383696 L61.2006799,46.1914421 C61.177751,46.7621445 61.1247902,47.206023 61.0315464,47.604117 C60.8599874,48.3365684 60.6551292,48.5617129 60.303022,48.5524911 C58.7550818,48.5119499 56.0449031,45.8187956 56.0013188,44.1083275 C55.9571669,42.3755835 57.0132304,41.0615279 58.3199675,41.0021238 L58.466149,41.0007289 Z" id="Oval" fill="#16325C" fill-rule="nonzero" transform="translate(58.607474, 44.776442) scale(-1, 1) rotate(-59.000000) translate(-58.607474, -44.776442) "></path>
        </g>
    </g>
</svg>