<?xml version="1.0" encoding="UTF-8"?>
<svg width="60px" height="58px" viewBox="0 0 60 58" version="1.1" xmlns="http://www.w3.org/2000/svg" xmlns:xlink="http://www.w3.org/1999/xlink">
    <title>Symbols</title>
    <g id="Symbols" stroke="none" stroke-width="1" fill="none" fill-rule="evenodd">
        <g id="Icons/Jewelry" transform="translate(-7.000000, -7.000000)">
            <polygon id="Path-26" fill="#D3EDFF" points="47 36 38 60 61 36"></polygon>
            <polygon id="Path-24" fill="#D3EDFF" points="31 19 26 35 36 62 32 59 10 36 23 19"></polygon>
            <path d="M48.048059,17.5 L23.951941,17.5 C22.897991,17.5 21.9001551,17.9749404 21.235542,18.7929258 L9.91244495,32.7290453 C8.82721381,34.0647144 8.8740258,35.9911452 10.0228509,37.272527 L33.394007,63.3403549 C33.4789041,63.4350479 33.5688994,63.5250432 33.6635924,63.6099404 C35.1028427,64.9003027 37.3156308,64.7796051 38.605993,63.3403549 L61.9771491,37.272527 C63.1259742,35.9911452 63.1727862,34.0647144 62.0875551,32.7290453 L50.764458,18.7929258 C50.0998449,17.9749404 49.102009,17.5 48.048059,17.5 Z M23.951941,20.5 L48.048059,20.5 C48.1986233,20.5 48.3411713,20.5678486 48.436116,20.6847037 L59.7592131,34.6208232 C59.9142461,34.811633 59.9075586,35.0868374 59.7434408,35.269892 L36.3722847,61.3377199 C36.1879473,61.5433271 35.8718347,61.5605696 35.6662275,61.3762321 L35.6277153,61.3377199 L12.2565592,35.269892 C12.0924414,35.0868374 12.0857539,34.811633 12.2407869,34.6208232 L23.563884,20.6847037 C23.6588287,20.5678486 23.8013767,20.5 23.951941,20.5 Z" id="Rectangle" fill="#16325C" fill-rule="nonzero"></path>
            <path d="M60.5188679,33.5 C61.347295,33.5 62.0188679,34.1715729 62.0188679,35 C62.0188679,35.7796961 61.4239798,36.4204487 60.6633279,36.4931334 L60.5188679,36.5 L10.4811321,36.5 C9.65270495,36.5 8.98113208,35.8284271 8.98113208,35 C8.98113208,34.2203039 9.57602016,33.5795513 10.3366721,33.5068666 L10.4811321,33.5 L60.5188679,33.5 Z" id="Line-3" fill="#16325C" fill-rule="nonzero"></path>
            <path d="M29.56828,18.5525875 C29.8153791,17.7618704 30.6566954,17.3211809 31.4474125,17.56828 C32.1916168,17.8008439 32.6257621,18.5597731 32.4682548,19.3074802 L32.43172,19.4474125 L27.581,34.968 L37.4126129,62.4954954 C37.6748531,63.2297679 37.3301304,64.033274 36.6382392,64.3575592 L36.5045046,64.4126129 C35.7702321,64.6748531 34.966726,64.3301304 34.6424408,63.6382392 L34.5873871,63.5045046 L24.4185438,35.0317434 L29.56828,18.5525875 Z" id="Path-17" fill="#16325C" fill-rule="nonzero"></path>
            <path d="M39.56828,18.5525875 C39.8153791,17.7618704 40.6566954,17.3211809 41.4474125,17.56828 C42.1916168,17.8008439 42.6257621,18.5597731 42.4682548,19.3074802 L42.43172,19.4474125 L37.581,34.968 L47.4126129,62.4954954 C47.6748531,63.2297679 47.3301304,64.033274 46.6382392,64.3575592 L46.5045046,64.4126129 C45.7702321,64.6748531 44.966726,64.3301304 44.6424408,63.6382392 L44.5873871,63.5045046 L34.4185438,35.0317434 L39.56828,18.5525875 Z" id="Path-17" fill="#16325C" fill-rule="nonzero" transform="translate(40.959476, 41.000004) scale(-1, 1) translate(-40.959476, -41.000004) "></path>
            <path d="M50.1862665,38.4187618 C50.5072755,37.9693492 51.1318256,37.8652575 51.5812382,38.1862665 C51.9960806,38.4825825 52.116685,39.0375371 51.8803026,39.4746365 L51.8137335,39.5812382 L46.8137335,46.5812382 C46.4927245,47.0306508 45.8681744,47.1347425 45.4187618,46.8137335 C45.0039194,46.5174175 44.883315,45.9624629 45.1196974,45.5253635 L45.1862665,45.4187618 L50.1862665,38.4187618 Z" id="Path-25" fill="#16325C" fill-rule="nonzero"></path>
            <path d="M7.71913119,16.875305 C8.03760154,16.477217 8.59830105,16.3870169 9.02187726,16.6468548 L9.12469505,16.7191312 L14.124695,20.7191312 C14.555957,21.0641407 14.6258784,21.6934331 14.2808688,22.124695 C13.9623985,22.522783 13.401699,22.6129831 12.9781227,22.3531452 L12.875305,22.2808688 L7.87530495,18.2808688 C7.44404302,17.9358593 7.37412164,17.3065669 7.71913119,16.875305 Z" id="Line-4" fill="#16325C" fill-rule="nonzero"></path>
            <path d="M60.2191312,16.875305 C60.5376015,16.477217 61.098301,16.3870169 61.5218773,16.6468548 L61.624695,16.7191312 L66.624695,20.7191312 C67.055957,21.0641407 67.1258784,21.6934331 66.7808688,22.124695 C66.4623985,22.522783 65.901699,22.6129831 65.4781227,22.3531452 L65.375305,22.2808688 L60.375305,18.2808688 C59.944043,17.9358593 59.8741216,17.3065669 60.2191312,16.875305 Z" id="Line-4" fill="#16325C" fill-rule="nonzero" transform="translate(63.500000, 19.500000) scale(-1, 1) translate(-63.500000, -19.500000) "></path>
            <path d="M36.5,7.5 C37.0128358,7.5 37.4355072,7.88604019 37.4932723,8.38337887 L37.5,8.5 L37.5,12.5 C37.5,13.0522847 37.0522847,13.5 36.5,13.5 C35.9871642,13.5 35.5644928,13.1139598 35.5067277,12.6166211 L35.5,12.5 L35.5,8.5 C35.5,7.94771525 35.9477153,7.5 36.5,7.5 Z" id="Line" fill="#16325C" fill-rule="nonzero"></path>
        </g>
    </g>
</svg>