<?xml version="1.0" encoding="UTF-8"?>
<svg width="138px" height="32px" viewBox="0 0 138 32" version="1.1" xmlns="http://www.w3.org/2000/svg" xmlns:xlink="http://www.w3.org/1999/xlink">
    <title>Logos/Vlocity/03. White</title>
    <defs>
        <rect id="path-1" x="0" y="0" width="1182" height="89"></rect>
        <filter x="-0.0%" y="-0.6%" width="100.1%" height="101.1%" filterUnits="objectBoundingBox" id="filter-2">
            <feOffset dx="0" dy="-1" in="SourceAlpha" result="shadowOffsetInner1"></feOffset>
            <feComposite in="shadowOffsetInner1" in2="SourceAlpha" operator="arithmetic" k2="-1" k3="1" result="shadowInnerInner1"></feComposite>
            <feColorMatrix values="0 0 0 0 1   0 0 0 0 1   0 0 0 0 1  0 0 0 0.1 0" type="matrix" in="shadowInnerInner1"></feColorMatrix>
        </filter>
        <filter id="filter-3">
            <feColorMatrix in="SourceGraphic" type="matrix" values="0 0 0 0 1.000000 0 0 0 0 1.000000 0 0 0 0 1.000000 0 0 0 1.000000 0"></feColorMatrix>
        </filter>
    </defs>
    <g id="Symbols" stroke="none" stroke-width="1" fill="none" fill-rule="evenodd">
        <g id="Navigation/Primary-Navigation" transform="translate(-1.000000, -33.000000)">
            <g id="Rectangle" fill="black" fill-opacity="1">
                <use filter="url(#filter-2)" xlink:href="#path-1"></use>
            </g>
            <g filter="url(#filter-3)" id="Group-15">
                <g transform="translate(1.000000, 32.000000)" id="Combined-Shape" fill="#FFFFFF">
                    <path d="M18.1357193,12.3653535 L15.1821311,20.9144614 L19.6014651,20.9193244 L12.7490422,32.1527938 L14.3964717,23.7544381 L10.762797,23.7155343 L12.7686837,12.3653535 L18.1357193,12.3653535 Z M117.759785,9.84390165 L121.478491,19.6683949 L125.230914,9.84390165 L129.245143,9.84390165 L122.542486,26.2783215 C121.479391,28.9383681 119.588898,29.6410678 117.138623,29.6994235 C116.726152,29.6994235 115.751443,29.61189 115.30951,29.4660008 L115.83983,26.1616101 C116.163914,26.3074993 116.667227,26.3950328 117.020774,26.3950328 C117.995483,26.3950328 118.643652,26.1324323 118.999653,25.3713769 L119.529974,24.143476 L113.743101,9.84390165 L117.759785,9.84390165 Z M72.6452586,9.49230865 C77.3690357,9.49230865 80.204775,12.8842328 80.204775,16.8913232 C80.204775,20.8984136 77.3690357,24.3195156 72.6452586,24.3195156 C67.9509438,24.3195156 65.1152044,20.8984136 65.1152044,16.8913232 C65.1152044,12.8842328 67.9509438,9.49230865 72.6452586,9.49230865 Z M89.3564793,9.49230865 C92.2806053,9.49230865 94.0507941,10.7493874 94.9960406,12.0380754 L92.5457654,14.3188101 C91.865679,13.324332 90.8320458,12.7966993 89.5332527,12.7966993 C87.2597508,12.7966993 85.6663354,14.4355215 85.6663354,16.8913232 C85.6663354,19.347125 87.2597508,21.015125 89.5332527,21.015125 C90.8320458,21.015125 91.865679,20.4291366 92.5457654,19.4638363 L94.9960406,21.744571 C94.0507941,23.0332591 92.2806053,24.3195156 89.3564793,24.3195156 C84.986249,24.3195156 81.7969629,21.2485477 81.7969629,16.8913232 C81.7969629,12.5632766 84.986249,9.49230865 89.3564793,9.49230865 Z M109.432041,5.98440253 L109.432041,9.84317221 L112.326705,9.84317221 L112.326705,13.0892072 L109.432041,13.0892072 L109.432041,19.4353879 C109.432041,20.3423326 109.905892,21.0158544 110.733289,21.0158544 C111.293071,21.0158544 111.825847,20.809178 112.032082,20.5757553 L112.830018,23.4133005 C112.26778,23.9093238 111.263609,24.3178136 109.699656,24.3178136 C107.070152,24.3178136 105.682972,22.9732014 105.682972,20.4298661 L105.682972,13.0892072 L103.321084,13.0892072 L103.321084,9.84317221 L105.682972,9.84317221 L105.682972,5.98440253 L109.432041,5.98440253 Z M63.1964769,4.46204859 L63.1964769,23.9674363 L59.4474085,23.9674363 L59.4474085,4.46204859 L63.1964769,4.46204859 Z M41.7305438,4.46277804 L47.192491,19.4343949 L52.6561197,4.46277804 L57.4118142,4.46277804 L49.8228355,23.9681658 L44.5662832,23.9681658 L36.9773045,4.46277804 L41.7305438,4.46277804 Z M100.898307,9.84219961 L100.898307,23.9667069 L97.1492383,23.9667069 L97.1492383,9.84219961 L100.898307,9.84219961 Z M12.9638709,1.48639495 C14.9967646,1.48639495 16.9191749,2.14775938 18.4831281,3.3489139 C18.9888963,3.22004509 19.5167612,3.15439495 20.0519917,3.15439495 C22.3745973,3.15439495 24.4467739,4.43335705 25.5417867,6.3323483 C29.8800996,6.86727541 33.246159,10.5412521 33.246159,14.9811471 C33.246159,19.6999685 29.4379595,23.555674 24.7057912,23.691873 L24.4467739,23.6955961 L24.2712713,23.6954373 L24.2176316,23.6953491 L24.2176316,23.6953491 L23.8939365,23.6946301 C23.2591573,23.6930038 22.2376618,23.6894238 21.0071342,23.6846552 L20.6952503,23.6834387 L22.3033969,20.9139751 C23.0359865,20.9173418 23.6332503,20.9195431 24.0340881,20.920579 L24.4467739,20.9212696 C27.7588192,20.9212696 30.4423371,18.2612229 30.4423371,14.9811471 C30.4423371,11.7010713 27.7588192,9.04102468 24.4467739,9.04102468 C24.1398757,9.04102468 23.8427982,9.07020253 23.5506311,9.11396929 C23.4008648,7.33168941 21.8933809,5.92872148 20.0519917,5.92872148 C19.2393253,5.92872148 18.4929488,6.20591098 17.8963388,6.665462 C16.7546775,5.20656987 14.9722127,4.26072148 12.9638709,4.26072148 C9.51924554,4.26072148 6.72524435,7.02775355 6.72524435,10.4391296 C6.72524435,10.5777244 6.73752028,10.7138877 6.74734102,10.8500509 C4.4861151,11.3776836 2.80185779,13.3836603 2.80185779,15.7835378 C2.80185779,18.5151574 4.98124258,20.7435472 7.71161457,20.8560277 L7.92828528,20.8604824 L8.19248148,20.861076 C8.25695887,20.8613135 8.33246542,20.8616459 8.41819551,20.8621113 L8.55435761,20.8629139 L8.18853496,23.6372404 C8.12862843,23.6362678 8.07775698,23.6356843 8.03717768,23.6353341 L7.92828528,23.6348089 C3.55559976,23.6348089 0.000491037116,20.1140159 0.000491037116,15.7835378 C0.000491037116,12.8754795 1.58899611,10.2908089 4.05154725,8.93403926 C4.775827,4.71054655 8.49788834,1.48639495 12.9638709,1.48639495 Z M72.6452586,12.7966993 C70.3128323,12.7966993 69.0140391,14.6981221 69.0140391,16.8913232 C69.0140391,19.1137022 70.3128323,21.015125 72.6452586,21.015125 C75.0071472,21.015125 76.3059403,19.1137022 76.3059403,16.8913232 C76.3059403,14.6981221 75.0071472,12.7966993 72.6452586,12.7966993 Z M134.481808,9.84584684 L134.481808,10.2567681 L133.666687,10.2567681 L133.666687,12.5107565 L133.195291,12.5107565 L133.195291,10.2567681 L132.380169,10.2567681 L132.380169,9.84584684 L134.481808,9.84584684 Z M135.646794,9.84560369 L136.380894,11.6765133 L137.11254,9.84560369 L137.777895,9.84560369 L137.777895,12.5105133 L137.306499,12.5105133 L137.306499,10.4534754 L136.481557,12.5105133 L136.280232,12.5105133 L135.455289,10.4534754 L135.455289,12.5105133 L134.981439,12.5105133 L134.981439,9.84560369 L135.646794,9.84560369 Z M99.010269,3.90694014 C100.250138,3.90694014 101.254309,4.87224043 101.254309,6.1001413 C101.254309,7.32804218 100.250138,8.32252031 99.010269,8.32252031 C97.7998625,8.32252031 96.7956916,7.32804218 96.7956916,6.1001413 C96.7956916,4.87224043 97.7998625,3.90694014 99.010269,3.90694014 Z"></path>
                </g>
            </g>
        </g>
    </g>
</svg>