<?xml version="1.0" encoding="UTF-8"?>
<svg width="56px" height="41px" viewBox="0 0 56 41" version="1.1" xmlns="http://www.w3.org/2000/svg" xmlns:xlink="http://www.w3.org/1999/xlink">
    <title>Combined Shape</title>
    <g id="Symbols" stroke="none" stroke-width="1" fill="none" fill-rule="evenodd">
        <g id="Icons/Message" transform="translate(-8.000000, -16.000000)">
            <path d="M15,22.324 L36.0833333,40.6060606 L57,22.469 L57,50 L15,50 L15,22.324 Z" id="Combined-Shape" fill="#D3EDFF"></path>
            <path d="M58,16.5 C61.0375661,16.5 63.5,18.9624339 63.5,22 L63.5,22 L63.5,51 C63.5,54.0375661 61.0375661,56.5 58,56.5 L58,56.5 L14,56.5 C10.9624339,56.5 8.5,54.0375661 8.5,51 L8.5,51 L8.5,22 C8.5,18.9624339 10.9624339,16.5 14,16.5 L14,16.5 Z M42.067,37.683 L36.9877569,42.128865 C36.4599205,42.5907219 35.689134,42.6215123 35.1289042,42.2212364 L35.0122431,42.128865 L30.451,38.137 L14.21,53.5 L58,53.5 C58.2531,53.5 58.4974154,53.4623885 58.7276619,53.3924499 L42.067,37.683 Z M11.534116,21.5860248 C11.5116767,21.7206799 11.5,21.8589763 11.5,22 L11.5,22 L11.5,51 C11.5,51.282905 11.5469913,51.5548347 11.6335942,51.8084094 L28.183,36.153 Z M60.465884,21.5860248 L44.336,35.698 L60.5,50.938 L60.5,22 C60.5,21.8589763 60.4883233,21.7206799 60.465884,21.5860248 Z M58,19.5 L14,19.5 C13.9066948,19.5 13.8145834,19.5051115 13.7239306,19.5150697 L35.999,39.007 L58.2760694,19.5150697 C58.1854166,19.5051115 58.0933052,19.5 58,19.5 L58,19.5 Z" id="Combined-Shape" fill="#16325C"></path>
        </g>
    </g>
</svg>