<?xml version="1.0" encoding="UTF-8"?>
<svg width="61px" height="61px" viewBox="0 0 61 61" version="1.1" xmlns="http://www.w3.org/2000/svg" xmlns:xlink="http://www.w3.org/1999/xlink">
    <title>Group 25</title>
    <g id="Symbols" stroke="none" stroke-width="1" fill="none" fill-rule="evenodd">
        <g id="Icons/Pill" transform="translate(-6.000000, -6.000000)">
            <polygon id="Path-10" fill="#D3EDFF" points="29 28 43 43 59 28 57 19 54 14 48 14 43 14"></polygon>
            <g id="Group-25" transform="translate(36.353553, 36.353553) rotate(-45.000000) translate(-36.353553, -36.353553) translate(6.353553, 23.853553)" fill="#16325C">
                <path d="M47.1536735,0.124126374 L12.1295189,0.124126374 C5.49809982,0.124126374 0.122272507,5.49995369 0.122272507,12.1313728 C0.122272507,18.7627918 5.49809982,24.1386191 12.1295189,24.1386191 L47.1536735,24.1386191 C53.7850925,24.1386191 59.1609199,18.7627918 59.1609199,12.1313728 C59.1609199,5.49995369 53.7850925,0.124126374 47.1536735,0.124126374 Z M12.1295189,3.12412637 L47.1536735,3.12412637 C52.1282383,3.12412637 56.1609199,7.15680794 56.1609199,12.1313728 C56.1609199,17.1059376 52.1282383,21.1386191 47.1536735,21.1386191 L12.1295189,21.1386191 C7.15495407,21.1386191 3.12227251,17.1059376 3.12227251,12.1313728 C3.12227251,7.15680794 7.15495407,3.12412637 12.1295189,3.12412637 Z" id="Rectangle" fill-rule="nonzero"></path>
                <path d="M48.2247148,0.124126374 L27.8285252,0.122178894 L28.1681599,1.90331591 C28.8609722,5.5366136 29.2126375,9.24888603 29.2126375,13.0069766 C29.2126375,16.1773349 28.9623682,19.3155233 28.4678863,22.4018686 L28.189535,24.1392189 L48.2247597,24.1386191 C54.8561339,24.1386191 59.1667911,19.0729499 59.1667911,12.4415309 C59.1667911,5.81011181 54.8561339,0.124126374 48.2247148,0.124126374 Z M31.4491727,3.25721065 L31.427,3.122 L48.2245716,3.12412637 C53.1992796,3.12412637 56.1667911,7.46696606 56.1667911,12.4415309 L56.1629509,12.7071068 C56.0224664,17.5588341 53.1104481,21.1386191 48.2247148,21.1386191 L31.682,21.139 L31.7110193,20.9242968 C32.0443654,18.3132609 32.2126375,15.670542 32.2126375,13.0069766 C32.2126375,9.71790041 31.956049,6.46110384 31.4491727,3.25721065 Z" id="Combined-Shape" fill-rule="nonzero"></path>
                <rect id="Rectangle" x="36.6464271" y="6.87774956" width="8.75603865" height="3.50241546" rx="1"></rect>
                <rect id="Rectangle" x="47.1536735" y="6.87774956" width="3.50241546" height="3.50241546" rx="1"></rect>
            </g>
        </g>
    </g>
</svg>