<?xml version="1.0" encoding="UTF-8"?>
<svg width="58px" height="58px" viewBox="0 0 58 58" version="1.1" xmlns="http://www.w3.org/2000/svg" xmlns:xlink="http://www.w3.org/1999/xlink">
    <title>Symbols</title>
    <g id="Symbols" stroke="none" stroke-width="1" fill="none" fill-rule="evenodd">
        <g id="Icons/Raft" transform="translate(-7.000000, -7.000000)" fill-rule="nonzero">
            <g id="Group" transform="translate(7.000000, 7.000000)">
                <path d="M29,3.5 C43.0832611,3.5 54.5,14.9167389 54.5,29 C54.5,43.0832611 43.0832611,54.5 29,54.5 C27.0670034,54.5 25.5,52.9329966 25.5,51 C25.5,49.0670034 27.0670034,47.5 29,47.5 C39.2172679,47.5 47.5,39.2172679 47.5,29 C47.5,18.7827321 39.2172679,10.5 29,10.5 C27.0670034,10.5 25.5,8.93299662 25.5,7 C25.5,5.06700338 27.0670034,3.5 29,3.5 Z" id="Path" fill="#D3EDFF"></path>
                <path d="M29,0.5 C13.2598846,0.5 0.5,13.2598846 0.5,29 C0.5,44.7401154 13.2598846,57.5 29,57.5 C44.7401154,57.5 57.5,44.7401154 57.5,29 C57.5,13.2598846 44.7401154,0.5 29,0.5 Z M29,3.5 C43.0832611,3.5 54.5,14.9167389 54.5,29 C54.5,43.0832611 43.0832611,54.5 29,54.5 C14.9167389,54.5 3.5,43.0832611 3.5,29 C3.5,14.9167389 14.9167389,3.5 29,3.5 Z" id="Oval-4" fill="#16325C"></path>
                <g id="Group-3" transform="translate(3.000000, 1.000000)" fill="#16325C">
                    <g id="Group-2" transform="translate(0.000000, 0.883721)">
                        <path d="M15.4884508,34.2436876 L14.9671459,33.9518767 L2.68288137,41.7691359 L3.11703865,42.5857248 C4.10892772,44.4513287 5.51420781,46.2079288 7.32732721,47.8562191 C9.00109665,49.3778277 11.2020818,50.9703387 13.9326959,52.6392051 L15.4117042,53.5289386 L22.1998421,39.9526629 L21.4580188,39.1334992 L20.912986,38.5459081 L20.3984131,38.0078435 L19.9140731,37.5191656 C19.4447741,37.0551346 19.0204846,36.6649746 18.6401844,36.3480578 C17.8071706,35.6538796 16.7571673,34.9538775 15.4884508,34.2436876 Z M15.025,36.284 L15.2580349,36.4217383 C16.0911662,36.9230741 16.7920301,37.4113458 17.3598156,37.8845003 L17.5344498,38.0328982 C17.9977873,38.4338939 18.5433366,38.9613013 19.1688753,39.6137529 L19.798,40.283 L14.592,50.696 L14.461193,50.6151573 C12.0701878,49.1247147 10.140027,47.7102974 8.67267279,46.376339 L8.29896758,46.0289761 C7.19849015,44.9827649 6.28368836,43.899458 5.55272006,42.7792856 L5.342,42.446 L15.025,36.284 Z" id="Path-2"></path>
                        <path d="M44.4884508,3.24368761 L43.9671459,2.95187667 L31.6828814,10.7691359 L32.1170386,11.5857248 C33.1089277,13.4513287 34.5142078,15.2079288 36.3273272,16.8562191 C38.0010967,18.3778277 40.2020818,19.9703387 42.9326959,21.6392051 L44.4117042,22.5289386 L51.1998421,8.95266291 L50.4580188,8.13349915 L49.912986,7.54590814 L49.3984131,7.00784346 L48.9140731,6.51916559 C48.4447741,6.05513462 48.0204846,5.66497462 47.6401844,5.34805779 C46.8071706,4.65387963 45.7571673,3.95387745 44.4884508,3.24368761 Z M44.025,5.284 L44.2580349,5.42173833 C45.0911662,5.92307407 45.7920301,6.41134578 46.3598156,6.88450035 L46.5344498,7.03289822 C46.9977873,7.4338939 47.5433366,7.9613013 48.1688753,8.61375292 L48.798,9.283 L43.592,19.696 L43.461193,19.6151573 C41.0701878,18.1247147 39.140027,16.7102974 37.6726728,15.376339 L37.2989676,15.0289761 C36.1984902,13.9827649 35.2836884,12.899458 34.5527201,11.7792856 L34.342,11.446 L44.025,5.284 Z" id="Path-2" transform="translate(41.441362, 12.740408) rotate(-180.000000) translate(-41.441362, -12.740408) "></path>
                        <path d="M14.4884508,2.24368761 L13.9671459,1.95187667 L1.68288137,9.76913594 L2.11703865,10.5857248 C3.10892772,12.4513287 4.51420781,14.2079288 6.32732721,15.8562191 C8.00109665,17.3778277 10.2020818,18.9703387 12.9326959,20.6392051 L14.4117042,21.5289386 L21.1998421,7.95266291 L20.4580188,7.13349915 L19.912986,6.54590814 L19.3984131,6.00784346 L18.9140731,5.51916559 C18.4447741,5.05513462 18.0204846,4.66497462 17.6401844,4.34805779 C16.8071706,3.65387963 15.7571673,2.95387745 14.4884508,2.24368761 Z M14.025,4.284 L14.2580349,4.42173833 C15.0911662,4.92307407 15.7920301,5.41134578 16.3598156,5.88450035 L16.5344498,6.03289822 C16.9977873,6.4338939 17.5433366,6.9613013 18.1688753,7.61375292 L18.798,8.283 L13.592,18.696 L13.461193,18.6151573 C11.0701878,17.1247147 9.14002702,15.7102974 7.67267279,14.376339 L7.29896758,14.0289761 C6.19849015,12.9827649 5.28368836,11.899458 4.55272006,10.7792856 L4.342,10.446 L14.025,4.284 Z" id="Path-2" transform="translate(11.441362, 11.740408) rotate(-261.000000) translate(-11.441362, -11.740408) "></path>
                        <path d="M45.4884508,31.2436876 L44.9671459,30.9518767 L32.6828814,38.7691359 L33.1170386,39.5857248 C34.1089277,41.4513287 35.5142078,43.2079288 37.3273272,44.8562191 C39.0010967,46.3778277 41.2020818,47.9703387 43.9326959,49.6392051 L45.4117042,50.5289386 L52.1998421,36.9526629 L51.4580188,36.1334992 L50.912986,35.5459081 L50.3984131,35.0078435 L49.9140731,34.5191656 C49.4447741,34.0551346 49.0204846,33.6649746 48.6401844,33.3480578 C47.8071706,32.6538796 46.7571673,31.9538775 45.4884508,31.2436876 Z M45.025,33.284 L45.2580349,33.4217383 C46.0911662,33.9230741 46.7920301,34.4113458 47.3598156,34.8845003 L47.5344498,35.0328982 C47.9977873,35.4338939 48.5433366,35.9613013 49.1688753,36.6137529 L49.798,37.283 L44.592,47.696 L44.461193,47.6151573 C42.0701878,46.1247147 40.140027,44.7102974 38.6726728,43.376339 L38.2989676,43.0289761 C37.1984902,41.9827649 36.2836884,40.899458 35.5527201,39.7792856 L35.342,39.446 L45.025,33.284 Z" id="Path-2" transform="translate(42.441362, 40.740408) rotate(-90.000000) translate(-42.441362, -40.740408) "></path>
                    </g>
                </g>
                <path d="M29,14.5 C20.9918711,14.5 14.5,20.9918711 14.5,29 C14.5,37.0081289 20.9918711,43.5 29,43.5 C37.0081289,43.5 43.5,37.0081289 43.5,29 C43.5,20.9918711 37.0081289,14.5 29,14.5 Z M29,17.5 C35.3512746,17.5 40.5,22.6487254 40.5,29 C40.5,35.3512746 35.3512746,40.5 29,40.5 C22.6487254,40.5 17.5,35.3512746 17.5,29 C17.5,22.6487254 22.6487254,17.5 29,17.5 Z" id="Oval-4" fill="#16325C"></path>
            </g>
        </g>
    </g>
</svg>