<?xml version="1.0" encoding="UTF-8"?>
<svg width="53px" height="64px" viewBox="0 0 53 64" version="1.1" xmlns="http://www.w3.org/2000/svg" xmlns:xlink="http://www.w3.org/1999/xlink">
    <title>Group</title>
    <g id="Symbols" stroke="none" stroke-width="1" fill="none" fill-rule="evenodd">
        <g id="Icons/Shield" transform="translate(-9.000000, -4.000000)">
            <g id="Group" transform="translate(9.000000, 4.000000)">
                <path d="M29.6259628,1.59661117 L26.9865306,0.329683725 L26.0935325,0.776182746 C18.4375962,4.60415092 10.2319777,7.21589423 1.77191422,8.51744245 L0.5,8.71312156 L0.5,22.2691508 C0.5,39.7951579 10.5508039,55.7682368 26.3509034,63.3522846 L27.0183075,63.6726386 L28.1271124,63.1102267 C43.0917562,55.41107 52.5,39.9967934 52.5,23.1671843 L52.5,8.74569206 L50.3128753,8.35236689 C43.1557666,7.02274758 36.197064,4.75073977 29.6259628,1.59661117 Z M27.009,3.669 L28.3277696,4.30118034 L29.2182038,4.72231388 C35.4669724,7.6338911 42.0437902,9.78122527 48.8061151,11.1180024 L49.5,11.251 L49.5,23.1671843 L49.4970234,23.6679687 C49.3145909,39.0111729 40.758615,53.0293018 27.206032,60.2070288 L26.986,60.321 L26.7611629,60.2087925 C12.5136158,52.959455 3.5,38.3106401 3.5,22.2691508 L3.5,11.275 L4.10280925,11.1727518 C11.8964096,9.79558987 19.4623597,7.34146811 26.5828648,3.87970779 L27.009,3.669 Z" id="Rectangle" fill="#16325C" fill-rule="nonzero"></path>
                <path d="M26.877551,8 L28.4175408,8.76683166 C33.3948901,11.2452826 38.6826028,13.0404179 44.1373559,14.1047023 L45,14.2666667 L45,25.1847323 C45,37.572469 38.1829799,48.9408463 27.2880183,54.7834995 L26.877551,55 L26.8741142,54.4951094 C26.6900297,54.4796654 26.5057285,54.4297231 26.3303522,54.3422264 C15.4231765,48.9005467 8.5,37.4976677 8.5,25 C8.5,24.1715729 9.17157288,23.5 10,23.5 C10.8284271,23.5 11.5,24.1715729 11.5,25 C11.5,36.0553893 17.4457238,46.154231 26.8578022,51.2362191 L26.6577549,11.723 L26.5473843,11.786286 C21.6385409,14.4530469 16.4118374,16.3230772 11.0261292,17.3387683 L10.2556778,17.478049 C9.43937388,17.619256 8.66315795,17.0719817 8.521951,16.2556778 C8.38074404,15.4393739 8.92801827,14.6631579 9.74432219,14.521951 C15.0781086,13.599295 20.2590236,11.7884666 25.1159982,9.14978567 L25.9405967,8.69246674 L26.6407549,8.298 L26.640471,8.12297193 L26.877551,8 Z" id="Combined-Shape" fill="#D3EDFF"></path>
                <path d="M29.6259628,1.59661117 L26.9865306,0.329683725 L26.0935325,0.776182746 C18.4375962,4.60415092 10.2319777,7.21589423 1.77191422,8.51744245 L0.5,8.71312156 L0.5,22.2691508 C0.5,39.7951579 10.5508039,55.7682368 26.3509034,63.3522846 L27.0183075,63.6726386 L28.1271124,63.1102267 C43.0917562,55.41107 52.5,39.9967934 52.5,23.1671843 L52.5,8.74569206 L50.3128753,8.35236689 C43.1557666,7.02274758 36.197064,4.75073977 29.6259628,1.59661117 Z M27.009,3.669 L28.3277696,4.30118034 L29.2182038,4.72231388 C35.4669724,7.6338911 42.0437902,9.78122527 48.8061151,11.1180024 L49.5,11.251 L49.5,23.1671843 L49.4970234,23.6679687 C49.3145909,39.0111729 40.758615,53.0293018 27.206032,60.2070288 L26.986,60.321 L26.7611629,60.2087925 C12.5136158,52.959455 3.5,38.3106401 3.5,22.2691508 L3.5,11.275 L4.10280925,11.1727518 C11.8964096,9.79558987 19.4623597,7.34146811 26.5828648,3.87970779 L27.009,3.669 Z" id="Rectangle" fill="#16325C"></path>
            </g>
        </g>
    </g>
</svg>