<?xml version="1.0" encoding="UTF-8"?>
<svg width="62px" height="61px" viewBox="0 0 62 61" version="1.1" xmlns="http://www.w3.org/2000/svg" xmlns:xlink="http://www.w3.org/1999/xlink">
    <title>Symbols</title>
    <g id="Symbols" stroke="none" stroke-width="1" fill="none" fill-rule="evenodd">
        <g id="Icons/Signature" transform="translate(-7.000000, -5.000000)">
            <polygon id="Rectangle" fill="#D3EDFF" points="11 51 59 51 63 58 7 58"></polygon>
            <polygon id="Path-7" fill="#D3EDFF" points="59 11 16 55 23 54 61 14"></polygon>
            <g id="Group" transform="translate(39.500000, 36.000000) rotate(-315.000000) translate(-39.500000, -36.000000) translate(32.000000, 5.000000)" fill="#16325C">
                <path d="M9.5,-1.5 L-1.5,-1.5 L-1.5,56.4541635 L4,64.7041635 L9.5,56.4541635 L9.5,-1.5 Z M6.5,1.5 L6.5,55.544 L4,59.294 L1.5,55.545 L1.5,1.5 L6.5,1.5 Z" id="Rectangle" fill-rule="nonzero"></path>
                <rect id="Rectangle" x="12" y="4" width="3" height="17"></rect>
            </g>
            <path d="M49.5,57 C50.3284271,57 51,57.6715729 51,58.5 C51,59.2796961 50.4051119,59.9204487 49.64446,59.9931334 L49.5,60 L9,60 C8.17157288,60 7.5,59.3284271 7.5,58.5 C7.5,57.7203039 8.09488808,57.0795513 8.85553999,57.0068666 L9,57 L49.5,57 Z M63,57 C63.8284271,57 64.5,57.6715729 64.5,58.5 C64.5,59.2796961 63.9051119,59.9204487 63.14446,59.9931334 L63,60 L55.5,60 C54.6715729,60 54,59.3284271 54,58.5 C54,57.7203039 54.5948881,57.0795513 55.35554,57.0068666 L55.5,57 L63,57 Z" id="Shape" fill="#16325C" fill-rule="nonzero"></path>
        </g>
    </g>
</svg>