<?xml version="1.0" encoding="UTF-8"?>
<svg width="377px" height="430px" viewBox="0 0 377 430" version="1.1" xmlns="http://www.w3.org/2000/svg" xmlns:xlink="http://www.w3.org/1999/xlink">
    <title>Group 4</title>
    <defs>
        <rect id="path-1" x="0.142857143" y="0" width="375" height="430"></rect>
    </defs>
    <g id="Policy-Holder-Screens-⚡️" stroke="none" stroke-width="1" fill="none" fill-rule="evenodd">
        <g id="M---Claims-Details" transform="translate(1.000000, -66.000000)">
            <g id="Group-4" transform="translate(-1.000000, 66.000000)">
                <g id="1dkwwn1dr-s-danielle-macinnes" transform="translate(0.857143, 0.000000)">
                    <mask id="mask-2" fill="white">
                        <use xlink:href="#path-1"></use>
                    </mask>
                    <use id="Mask" fill="#0070D2" xlink:href="#path-1"></use>
                    <g id="Group" mask="url(#mask-2)">
                        <g transform="translate(0.142857, 238.000000)" id="Illustration/Hero/City">
                            <rect id="Rectangle" fill="#0070D2" x="0" y="0" width="375" height="202"></rect>
                            <g id="Group">
                                <g id="undraw_quite_town_mg2q" fill-rule="nonzero">
                                    <ellipse id="Oval" fill="#1589EE" cx="61.3751406" cy="16.65762" rx="16.6619798" ry="16.65762"></ellipse>
                                    <polygon id="Path" fill="#16325C" points="64.9146513 131.314338 93.5399325 97.2328476 149.819038 97.2328476 184.211895 130.72352 183.517154 131.170113 183.765186 131.170113 183.765186 200.830593 64.9538808 200.830593 64.9538808 131.170113"></polygon>
                                    <rect id="Rectangle" fill="#16325C" transform="translate(85.381344, 105.269559) rotate(-180.000000) translate(-85.381344, -105.269559) " x="82.136908" y="94.0417579" width="6.48887092" height="22.455602"></rect>
                                    <path d="M93.1053107,99.8813688 L126.379499,138.882046 L126.379499,198.830593 L66.9538808,198.830593 L66.9538808,131.005616 L93.1053107,99.8813688 Z" id="Path" stroke="#16325C" stroke-width="4" fill="#1589EE"></path>
                                    <rect id="Rectangle" fill="#16325C" x="107.272002" y="146.3525" width="12.9531116" height="13.2410367"></rect>
                                    <rect id="Rectangle" fill="#16325C" x="107.272002" y="164.369382" width="12.9531116" height="13.2410536"></rect>
                                    <rect id="Rectangle" fill="#16325C" x="107.272002" y="146.3525" width="12.9531116" height="13.2410367"></rect>
                                    <rect id="Rectangle" fill="#16325C" x="107.272002" y="164.369382" width="12.9531116" height="13.2410536"></rect>
                                    <rect id="Rectangle" fill="#16325C" x="89.357881" y="146.3525" width="12.9531116" height="13.2410367"></rect>
                                    <rect id="Rectangle" fill="#16325C" x="89.357881" y="164.369382" width="12.9531116" height="13.2410536"></rect>
                                    <rect id="Rectangle" fill="#16325C" x="89.357881" y="146.3525" width="12.9531116" height="13.2410367"></rect>
                                    <rect id="Rectangle" fill="#16325C" x="89.357881" y="164.369382" width="12.9531116" height="13.2410536"></rect>
                                    <rect id="Rectangle" fill="#16325C" x="71.4437598" y="146.3525" width="12.9531116" height="13.2410367"></rect>
                                    <rect id="Rectangle" fill="#16325C" x="71.4437598" y="164.369382" width="12.9531116" height="13.2410536"></rect>
                                    <rect id="Rectangle" fill="#16325C" x="71.4437598" y="146.3525" width="12.9531116" height="13.2410367"></rect>
                                    <rect id="Rectangle" fill="#16325C" x="71.4437598" y="164.369382" width="12.9531116" height="13.2410536"></rect>
                                    <path d="M161.870641,19.4771631 L208.067492,31.8965951 L208.067492,199.156576 L161.870641,199.156576 L161.870641,19.4771631 Z" id="Rectangle" stroke="#16325C" stroke-width="4" fill="#1589EE"></path>
                                    <polygon id="Rectangle" fill="#16325C" points="210.067492 30.3632568 230.314961 35.4237996 230.314961 201.156576 210.067492 201.156576"></polygon>
                                    <rect id="Rectangle" fill="#16325C" x="182.649044" y="186.39666" width="7.5928009" height="14.3382046"></rect>
                                    <rect id="Rectangle" fill="#16325C" x="267.857143" y="91.9331942" width="5.90551181" height="8.74786935"></rect>
                                    <rect id="Rectangle" stroke="#16325C" stroke-width="4" fill="#1589EE" x="225.143982" y="101.931247" width="46.1968504" height="97.2253291"></rect>
                                    <rect id="Rectangle" fill="#16325C" x="273.340832" y="99.9312471" width="20.2474691" height="101.225329"></rect>
                                    <rect id="Rectangle" fill="#16325C" x="233.056805" y="114.283925" width="7.5928009" height="7.5908142"></rect>
                                    <rect id="Rectangle" fill="#16325C" x="245.289651" y="114.283925" width="7.5928009" height="7.5908142"></rect>
                                    <rect id="Rectangle" fill="#16325C" x="257.522497" y="114.283925" width="7.5928009" height="7.5908142"></rect>
                                    <rect id="Rectangle" fill="#16325C" x="233.267717" y="131.574113" width="7.5928009" height="7.5908142"></rect>
                                    <rect id="Rectangle" fill="#16325C" x="245.500562" y="131.574113" width="7.5928009" height="7.5908142"></rect>
                                    <rect id="Rectangle" fill="#16325C" x="257.733408" y="131.574113" width="7.5928009" height="7.5908142"></rect>
                                    <rect id="Rectangle" fill="#16325C" x="233.478628" y="148.864301" width="7.5928009" height="7.5908142"></rect>
                                    <rect id="Rectangle" fill="#16325C" x="245.711474" y="148.864301" width="7.5928009" height="7.5908142"></rect>
                                    <rect id="Rectangle" fill="#16325C" x="257.944319" y="148.864301" width="7.5928009" height="7.5908142"></rect>
                                    <rect id="Rectangle" fill="#16325C" x="233.689539" y="166.154489" width="7.5928009" height="7.5908142"></rect>
                                    <rect id="Rectangle" fill="#16325C" x="245.922385" y="166.154489" width="7.5928009" height="7.5908142"></rect>
                                    <rect id="Rectangle" fill="#16325C" x="245.922385" y="186.39666" width="7.5928009" height="14.3382046"></rect>
                                    <rect id="Rectangle" fill="#16325C" x="258.155231" y="166.154489" width="7.5928009" height="7.5908142"></rect>
                                    <rect id="Rectangle" fill="#0089E0" x="273.340832" y="91.9331942" width="3.37457818" height="8.49792914"></rect>
                                    <rect id="Rectangle" fill="#16325C" x="0.102962598" y="200.64722" width="374.578178" height="1"></rect>
                                    <ellipse id="Oval" fill="#1589EE" cx="309.052175" cy="170.388716" rx="10.9844924" ry="10.9816182"></ellipse>
                                    <path d="M317.223126,163.05386 C319.339332,168.002799 317.55632,173.755728 313.011918,176.641417 C308.467515,179.527105 302.500929,178.695159 298.919734,174.676485 C300.630098,178.676845 304.541191,181.29079 308.892514,181.341706 C313.243837,181.392621 317.215054,178.870907 319.018602,174.911663 C320.82215,170.952419 320.118014,166.302064 317.223147,163.05386 L317.223126,163.05386 Z" id="Path" fill="#000000" opacity="0.2"></path>
                                    <polygon id="Path" fill="#16325C" points="309.082255 170.388898 309.112627 170.388898 309.655512 201.523466 308.508999 201.523466"></polygon>
                                    <polygon id="Rectangle" fill="#16325C" transform="translate(310.048033, 187.585212) rotate(62.234130) translate(-310.048033, -187.585212) " points="309.776605 186.559276 310.319683 186.559218 310.319462 188.611148 309.776384 188.611207"></polygon>
                                    <ellipse id="Oval" fill="#1589EE" cx="341.346357" cy="154.17758" rx="16.7038709" ry="16.6995003"></ellipse>
                                    <path d="M353.771739,143.023629 C356.989853,150.549385 354.278469,159.297781 347.367869,163.685995 C340.457268,168.074209 331.383976,166.809053 325.938147,160.697891 C328.53906,166.781145 334.48657,170.756109 341.103526,170.833534 C347.720482,170.910958 353.759421,167.076248 356.502037,161.055518 C359.244653,155.034788 358.173893,147.9631 353.771739,143.023629 Z" id="Path" fill="#000000" opacity="0.2"></path>
                                    <polygon id="Path" fill="#16325C" points="341.392154 154.177449 341.438133 154.177449 342.264061 201.523466 340.520247 201.523466"></polygon>
                                    <polygon id="Rectangle" fill="#16325C" transform="translate(342.860738, 180.327901) rotate(62.234130) translate(-342.860738, -180.327901) " points="342.447982 178.767783 343.27383 178.767694 343.273493 181.888019 342.447646 181.888108"></polygon>
                                    <ellipse id="Oval" fill="#1589EE" cx="11.245651" cy="169.967004" rx="10.9844924" ry="10.9816182"></ellipse>
                                    <path d="M19.4166015,162.632148 C21.5328083,167.581087 19.7497959,173.334016 15.2053935,176.219705 C10.6609912,179.105393 4.69440442,178.273447 1.11321007,174.254773 C2.82357357,178.255133 6.7346665,180.869079 11.0859896,180.919994 C15.4373126,180.970909 19.4085297,178.449195 21.2120779,174.489951 C23.015626,170.530707 22.3114901,165.880352 19.4166226,162.632148 L19.4166015,162.632148 Z" id="Path" fill="#000000" opacity="0.2"></path>
                                    <polygon id="Path" fill="#16325C" points="11.2757312 169.967186 11.3061024 169.967186 11.8489876 201.101754 10.7024747 201.101754"></polygon>
                                    <polygon id="Rectangle" fill="#16325C" transform="translate(12.241505, 187.163502) rotate(62.234130) translate(-12.241505, -187.163502) " points="11.9700768 186.137566 12.5131545 186.137507 12.5129332 188.189438 11.9698555 188.189497"></polygon>
                                    <path d="M22.6754696,109.84157 L26.5586347,106.736594 C23.5419769,106.403863 22.3024859,108.04865 21.7952151,109.350516 C19.4384941,108.372145 16.8728909,109.654343 16.8728909,109.654343 L24.6423847,112.474208 C24.2504282,111.427563 23.5681238,110.514326 22.6754696,109.84157 L22.6754696,109.84157 Z" id="Path" fill="#16325C"></path>
                                    <path d="M350.431375,102.250756 L354.31454,99.14578 C351.297882,98.8130493 350.058391,100.457835 349.551121,101.759702 C347.1944,100.781331 344.628796,102.063529 344.628796,102.063529 L352.39829,104.883394 C352.006334,103.836749 351.324029,102.923512 350.431375,102.250756 L350.431375,102.250756 Z" id="Path" fill="#16325C"></path>
                                    <path d="M120.538237,54.1755996 L124.421402,51.0706234 C121.404744,50.7378927 120.165253,52.3826788 119.657982,53.6845456 C117.301261,52.706174 114.735658,53.9883721 114.735658,53.9883721 L122.505152,56.8082373 C122.113195,55.7615925 121.430891,54.8483552 120.538237,54.1755996 Z" id="Path" fill="#16325C"></path>
                                    <path d="M251.158646,74.3628968 L255.041811,71.2579206 C252.025153,70.9251899 250.785662,72.569976 250.278391,73.8718428 C247.92167,72.8934712 245.356067,74.1756694 245.356067,74.1756694 L253.125561,76.9955345 C252.733605,75.9488898 252.0513,75.0356524 251.158646,74.3628968 L251.158646,74.3628968 Z" id="Path" fill="#16325C"></path>
                                    <polygon id="Path" fill="#16325C" points="44.7131609 192.300626 18.56018 192.300626 18.56018 193.14405 22.6387795 193.14405 22.6387795 201.156576 23.4824241 201.156576 23.4824241 193.14405 39.3690945 193.14405 39.3690945 201.156576 40.212739 201.156576 40.212739 193.14405 44.7131609 193.14405"></polygon>
                                    <path d="M71.2879851,195.674322 C70.2557191,195.674187 69.2416657,195.946161 68.3480779,196.462817 C66.4939611,194.786557 63.825749,194.360479 61.5415798,195.37591 C59.2574107,196.391342 57.7866272,198.657418 57.7896677,201.156576 L77.1722075,201.156576 C76.9530089,198.068922 74.3842163,195.675611 71.2879851,195.674322 L71.2879851,195.674322 Z" id="Path" fill="#0070D2"></path>
                                    <path d="M171.259864,195.674322 C170.227598,195.674187 169.213544,195.946161 168.319956,196.462817 C166.46584,194.786557 163.797628,194.360479 161.513458,195.37591 C159.229289,196.391342 157.758506,198.657418 157.761546,201.156576 L177.144086,201.156576 C176.924887,198.068922 174.356095,195.675611 171.259864,195.674322 L171.259864,195.674322 Z" id="Path" fill="#0070D2"></path>
                                    <path d="M236.642316,195.674322 C235.61005,195.674187 234.595996,195.946161 233.702409,196.462817 C231.848292,194.786557 229.18008,194.360479 226.895911,195.37591 C224.611741,196.391342 223.140958,198.657418 223.143998,201.156576 L242.526538,201.156576 C242.30734,198.068922 239.738547,195.675611 236.642316,195.674322 L236.642316,195.674322 Z" id="Path" fill="#0070D2"></path>
                                    <path d="M322.694059,195.674322 C321.661793,195.674187 320.64774,195.946161 319.754152,196.462817 C317.900035,194.786557 315.231823,194.360479 312.947654,195.37591 C310.663485,196.391342 309.192701,198.657418 309.195742,201.156576 L328.578282,201.156576 C328.359083,198.068922 325.790291,195.675611 322.694059,195.674322 L322.694059,195.674322 Z" id="Path" fill="#0070D2"></path>
                                    <path d="M364.032642,195.674322 C363.000376,195.674187 361.986323,195.946161 361.092735,196.462817 C359.238618,194.786557 356.570406,194.360479 354.286237,195.37591 C352.002068,196.391342 350.531284,198.657418 350.534325,201.156576 L369.916864,201.156576 C369.697666,198.068922 367.128873,195.675611 364.032642,195.674322 L364.032642,195.674322 Z" id="Path" fill="#0070D2"></path>
                                    <polygon id="Path" fill="#16325C" points="54.4150731 171.636743 47.6659168 171.636743 47.6659168 178.384134 50.7945726 178.384134 50.7945726 201.119466 51.6382171 201.119466 51.6382171 178.384134 54.4150731 178.384134"></polygon>
                                    <rect id="Rectangle" fill="#16325C" x="18.6116634" y="189.777292" width="26.1529809" height="1"></rect>
                                    <rect id="Rectangle" fill="#16325C" x="18.6116634" y="187.668733" width="26.1529809" height="1"></rect>
                                    <rect id="Rectangle" fill="#16325C" x="18.6116634" y="185.560173" width="26.1529809" height="1"></rect>
                                </g>
                                <rect id="Rectangle" fill="#16325C" x="168.307087" y="40.4843424" width="32.9021372" height="1.6868476"></rect>
                                <rect id="Rectangle" fill="#16325C" x="168.307087" y="47.2317328" width="32.9021372" height="1.6868476"></rect>
                                <rect id="Rectangle" fill="#16325C" x="168.307087" y="53.9791232" width="32.9021372" height="1.6868476"></rect>
                                <rect id="Rectangle" fill="#16325C" x="168.307087" y="60.7265136" width="32.9021372" height="1.6868476"></rect>
                                <rect id="Rectangle" fill="#16325C" x="168.307087" y="67.473904" width="32.9021372" height="1.6868476"></rect>
                                <rect id="Rectangle" fill="#16325C" x="168.307087" y="74.2212944" width="32.9021372" height="1.6868476"></rect>
                                <rect id="Rectangle" fill="#16325C" x="168.307087" y="80.9686848" width="32.9021372" height="1.6868476"></rect>
                                <rect id="Rectangle" fill="#16325C" x="168.307087" y="87.7160752" width="32.9021372" height="1.6868476"></rect>
                                <rect id="Rectangle" fill="#16325C" x="168.307087" y="94.4634656" width="32.9021372" height="1.6868476"></rect>
                                <rect id="Rectangle" fill="#16325C" x="168.307087" y="101.210856" width="32.9021372" height="1.6868476"></rect>
                                <rect id="Rectangle" fill="#16325C" x="168.307087" y="107.958246" width="32.9021372" height="1.6868476"></rect>
                                <rect id="Rectangle" fill="#16325C" x="168.307087" y="114.705637" width="32.9021372" height="1.6868476"></rect>
                                <rect id="Rectangle" fill="#16325C" x="168.307087" y="121.453027" width="32.9021372" height="1.6868476"></rect>
                                <rect id="Rectangle" fill="#16325C" x="168.307087" y="128.200418" width="32.9021372" height="1.6868476"></rect>
                                <rect id="Rectangle" fill="#16325C" x="168.307087" y="134.947808" width="32.9021372" height="1.6868476"></rect>
                                <rect id="Rectangle" fill="#16325C" x="168.307087" y="141.695198" width="32.9021372" height="1.6868476"></rect>
                                <rect id="Rectangle" fill="#16325C" x="168.307087" y="148.442589" width="32.9021372" height="1.6868476"></rect>
                                <rect id="Rectangle" fill="#16325C" x="168.307087" y="155.189979" width="32.9021372" height="1.6868476"></rect>
                                <rect id="Rectangle" fill="#16325C" x="168.307087" y="161.93737" width="32.9021372" height="1.6868476"></rect>
                                <rect id="Rectangle" fill="#16325C" x="168.307087" y="168.68476" width="32.9021372" height="1.6868476"></rect>
                                <rect id="Rectangle" fill="#16325C" x="168.307087" y="175.43215" width="32.9021372" height="1.6868476"></rect>
                            </g>
                        </g>
                    </g>
                </g>
            </g>
        </g>
    </g>
</svg>