<?xml version="1.0" encoding="UTF-8"?>
<svg width="1442px" height="324px" viewBox="0 0 1442 324" version="1.1" xmlns="http://www.w3.org/2000/svg" xmlns:xlink="http://www.w3.org/1999/xlink">
    <title>secondary menu</title>
    <defs>
        <rect id="path-1" x="0" y="0.8778957" width="1440" height="320"></rect>
    </defs>
    <g id="Policy-Holder-Screens-⚡️" stroke="none" stroke-width="1" fill="none" fill-rule="evenodd">
        <g id="Claims-Details-(Master)" transform="translate(1.000000, 1.000000)">
            <g id="Path-8" transform="translate(0.000000, 0.122104)">
                <mask id="mask-2" fill="white">
                    <use xlink:href="#path-1"></use>
                </mask>
                <use id="Mask" fill="#0070D2" xlink:href="#path-1"></use>
                <g id="Group" mask="url(#mask-2)">
                    <g transform="translate(860.000000, 117.877896)" id="Illustration/Hero/City">
                        <rect id="Rectangle" fill="#0070D2" x="0" y="0" width="405" height="218"></rect>
                        <g id="Group">
                            <g id="undraw_quite_town_mg2q" fill-rule="nonzero">
                                <ellipse id="Oval" fill="#1589EE" cx="66.2851519" cy="17.9770355" rx="17.9949381" ry="17.9770355"></ellipse>
                                <polygon id="Path" fill="#16325C" points="70.1078234 141.715474 101.023127 104.934459 161.804561 104.934459 198.948847 141.077858 198.198526 141.559825 198.4664 141.559825 198.4664 216.737967 70.1501912 216.737967 70.1501912 141.559825"></polygon>
                                <rect id="Rectangle" fill="#16325C" transform="translate(92.211851, 113.607742) rotate(-180.000000) translate(-92.211851, -113.607742) " x="88.7078607" y="101.49061" width="7.0079806" height="24.2342635"></rect>
                                <path d="M100.552799,107.546285 L136.649859,149.82462 L136.649859,214.737967 L72.1501912,214.737967 L72.1501912,141.32499 L100.552799,107.546285 Z" id="Path" stroke="#16325C" stroke-width="4" fill="#1589EE"></path>
                                <rect id="Rectangle" fill="#16325C" x="115.853762" y="157.944777" width="13.9893606" height="14.2898317"></rect>
                                <rect id="Rectangle" fill="#16325C" x="115.853762" y="177.388739" width="13.9893606" height="14.2898499"></rect>
                                <rect id="Rectangle" fill="#16325C" x="115.853762" y="157.944777" width="13.9893606" height="14.2898317"></rect>
                                <rect id="Rectangle" fill="#16325C" x="115.853762" y="177.388739" width="13.9893606" height="14.2898499"></rect>
                                <rect id="Rectangle" fill="#16325C" x="96.5065115" y="157.944777" width="13.9893606" height="14.2898317"></rect>
                                <rect id="Rectangle" fill="#16325C" x="96.5065115" y="177.388739" width="13.9893606" height="14.2898499"></rect>
                                <rect id="Rectangle" fill="#16325C" x="96.5065115" y="157.944777" width="13.9893606" height="14.2898317"></rect>
                                <rect id="Rectangle" fill="#16325C" x="96.5065115" y="177.388739" width="13.9893606" height="14.2898499"></rect>
                                <rect id="Rectangle" fill="#16325C" x="77.1592606" y="157.944777" width="13.9893606" height="14.2898317"></rect>
                                <rect id="Rectangle" fill="#16325C" x="77.1592606" y="177.388739" width="13.9893606" height="14.2898499"></rect>
                                <rect id="Rectangle" fill="#16325C" x="77.1592606" y="157.944777" width="13.9893606" height="14.2898317"></rect>
                                <rect id="Rectangle" fill="#16325C" x="77.1592606" y="177.388739" width="13.9893606" height="14.2898499"></rect>
                                <path d="M174.660292,20.8127834 L224.872891,34.3018976 L224.872891,215.08977 L174.660292,215.08977 L174.660292,20.8127834 Z" id="Rectangle" stroke="#16325C" stroke-width="4" fill="#1589EE"></path>
                                <polygon id="Rectangle" fill="#16325C" points="226.872891 32.7682672 248.740157 38.2296451 248.740157 217.08977 226.872891 217.08977"></polygon>
                                <rect id="Rectangle" fill="#16325C" x="197.260967" y="201.160752" width="8.20022497" height="15.473904"></rect>
                                <rect id="Rectangle" fill="#16325C" x="289.285714" y="99.2150313" width="6.37795276" height="9.4407699"></rect>
                                <rect id="Rectangle" stroke="#16325C" stroke-width="4" fill="#1589EE" x="242.995501" y="109.846593" width="50.2125984" height="105.243177"></rect>
                                <rect id="Rectangle" fill="#16325C" x="295.208099" y="107.846593" width="21.8672666" height="109.243177"></rect>
                                <rect id="Rectangle" fill="#16325C" x="251.70135" y="123.336117" width="8.20022497" height="8.19206681"></rect>
                                <rect id="Rectangle" fill="#16325C" x="264.912823" y="123.336117" width="8.20022497" height="8.19206681"></rect>
                                <rect id="Rectangle" fill="#16325C" x="278.124297" y="123.336117" width="8.20022497" height="8.19206681"></rect>
                                <rect id="Rectangle" fill="#16325C" x="251.929134" y="141.995825" width="8.20022497" height="8.19206681"></rect>
                                <rect id="Rectangle" fill="#16325C" x="265.140607" y="141.995825" width="8.20022497" height="8.19206681"></rect>
                                <rect id="Rectangle" fill="#16325C" x="278.352081" y="141.995825" width="8.20022497" height="8.19206681"></rect>
                                <rect id="Rectangle" fill="#16325C" x="252.156918" y="160.655532" width="8.20022497" height="8.19206681"></rect>
                                <rect id="Rectangle" fill="#16325C" x="265.368391" y="160.655532" width="8.20022497" height="8.19206681"></rect>
                                <rect id="Rectangle" fill="#16325C" x="278.579865" y="160.655532" width="8.20022497" height="8.19206681"></rect>
                                <rect id="Rectangle" fill="#16325C" x="252.384702" y="179.31524" width="8.20022497" height="8.19206681"></rect>
                                <rect id="Rectangle" fill="#16325C" x="265.596175" y="179.31524" width="8.20022497" height="8.19206681"></rect>
                                <rect id="Rectangle" fill="#16325C" x="265.596175" y="201.160752" width="8.20022497" height="15.473904"></rect>
                                <rect id="Rectangle" fill="#16325C" x="278.807649" y="179.31524" width="8.20022497" height="8.19206681"></rect>
                                <rect id="Rectangle" fill="#0089E0" x="295.208099" y="99.2150313" width="3.64454443" height="9.17103244"></rect>
                                <rect id="Rectangle" fill="#16325C" x="0.111199606" y="216.540069" width="404.544432" height="1.01978489"></rect>
                                <ellipse id="Oval" fill="#1589EE" cx="333.776349" cy="183.884852" rx="11.8632518" ry="11.8514494"></ellipse>
                                <path d="M342.600976,175.969017 C344.886479,181.309951 342.960826,187.518558 338.052871,190.632816 C333.144917,193.747074 326.701003,192.849231 322.833313,188.512246 C324.680506,192.829467 328.904486,195.650457 333.603915,195.705405 C338.303344,195.760353 342.592258,193.0389 344.54009,188.766052 C346.487922,184.493205 345.727455,179.474504 342.600999,175.969017 L342.600976,175.969017 Z" id="Path" fill="#000000" opacity="0.2"></path>
                                <polygon id="Path" fill="#16325C" points="333.808836 183.885048 333.841637 183.885048 334.427953 217.48572 333.189719 217.48572"></polygon>
                                <polygon id="Rectangle" fill="#16325C" transform="translate(334.851876, 202.443447) rotate(62.234130) translate(-334.851876, -202.443447) " points="334.559237 201.335701 335.145424 201.33546 335.144515 203.551193 334.558328 203.551434"></polygon>
                                <ellipse id="Oval" fill="#1589EE" cx="368.654065" cy="166.389665" rx="18.0401806" ry="18.0222329"></ellipse>
                                <path d="M382.073478,154.352233 C385.549041,162.474088 382.620747,171.915427 375.157298,176.651222 C367.69385,181.387017 357.894694,180.021651 352.013199,173.426437 C354.822185,179.991533 361.245495,184.281345 368.391808,184.364903 C375.538121,184.44846 382.060174,180.31001 385.022199,173.812391 C387.984225,167.314771 386.827805,159.682949 382.073478,154.352233 Z" id="Path" fill="#000000" opacity="0.2"></path>
                                <polygon id="Path" fill="#16325C" points="368.703526 166.389524 368.753183 166.389524 369.645186 217.48572 367.761867 217.48572"></polygon>
                                <polygon id="Rectangle" fill="#16325C" transform="translate(370.289597, 194.611299) rotate(62.234130) translate(-370.289597, -194.611299) " points="369.844586 192.926775 370.735989 192.926409 370.734607 196.295824 369.843204 196.29619"></polygon>
                                <ellipse id="Oval" fill="#1589EE" cx="12.1453031" cy="183.429737" rx="11.8632518" ry="11.8514494"></ellipse>
                                <path d="M20.9699296,175.513903 C23.2554329,180.854837 21.3297795,187.063443 16.421825,190.177701 C11.5138705,193.291959 5.06995677,192.394116 1.20226687,188.057131 C3.04945946,192.374352 7.27343982,195.195342 11.9728687,195.25029 C16.6722976,195.305238 20.9612121,192.583785 22.9090441,188.310937 C24.8568761,184.03809 24.0964093,179.019389 20.9699524,175.513903 L20.9699296,175.513903 Z" id="Path" fill="#000000" opacity="0.2"></path>
                                <polygon id="Path" fill="#16325C" points="12.1777897 183.429933 12.2105906 183.429933 12.7969066 217.030605 11.5586727 217.030605"></polygon>
                                <polygon id="Rectangle" fill="#16325C" transform="translate(13.220825, 201.988334) rotate(62.234130) translate(-13.220825, -201.988334) " points="12.9281863 200.880588 13.5143734 200.880347 13.5134645 203.09608 12.9272774 203.09632"></polygon>
                                <path d="M24.4895072,118.541893 L28.6833255,115.190978 C25.4253351,114.831892 24.0866848,116.606958 23.5388323,118.011943 C20.9935736,116.956077 18.2227222,118.339835 18.2227222,118.339835 L26.6137755,121.383056 C26.1904625,120.253509 25.4535737,119.267936 24.4895072,118.541893 L24.4895072,118.541893 Z" id="Path" fill="#16325C"></path>
                                <path d="M378.465885,110.349826 L382.659703,106.998911 C379.401713,106.639825 378.063063,108.414892 377.51521,109.819877 C374.969952,108.76401 372.1991,110.147769 372.1991,110.147769 L380.590153,113.190989 C380.16684,112.061442 379.429952,111.075869 378.465885,110.349826 L378.465885,110.349826 Z" id="Path" fill="#16325C"></path>
                                <path d="M130.181296,58.4667362 L134.375114,55.1158213 C131.117124,54.7567357 129.778473,56.5318018 129.230621,57.9367868 C126.685362,56.8809204 123.914511,58.2646788 123.914511,58.2646788 L132.305564,61.3078997 C131.882251,60.1783524 131.145362,59.1927794 130.181296,58.4667362 Z" id="Path" fill="#16325C"></path>
                                <path d="M271.251338,80.2530272 L275.445156,76.9021124 C272.187166,76.5430268 270.848515,78.3180929 270.300663,79.7230779 C267.755404,78.6672115 264.984553,80.0509699 264.984553,80.0509699 L273.375606,83.0941907 C272.952293,81.9646434 272.215404,80.9790704 271.251338,80.2530272 L271.251338,80.2530272 Z" id="Path" fill="#16325C"></path>
                                <polygon id="Path" fill="#16325C" points="48.2902137 207.532359 20.0449944 207.532359 20.0449944 208.442589 24.4498819 208.442589 24.4498819 217.08977 25.361018 217.08977 25.361018 208.442589 42.518622 208.442589 42.518622 217.08977 43.4297582 217.08977 43.4297582 208.442589 48.2902137 208.442589"></polygon>
                                <path d="M76.9910239,211.173278 C75.8761767,211.173133 74.780999,211.466649 73.8159241,212.024229 C71.813478,210.215195 68.9318089,209.755368 66.4649062,210.85123 C63.9980035,211.947092 62.4095574,214.392659 62.4128411,217.08977 L83.3459841,217.08977 C83.1092496,213.757549 80.3349536,211.174669 76.9910239,211.173278 L76.9910239,211.173278 Z" id="Path" fill="#0070D2"></path>
                                <path d="M184.960653,211.173278 C183.845805,211.173133 182.750628,211.466649 181.785553,212.024229 C179.783107,210.215195 176.901438,209.755368 174.434535,210.85123 C171.967632,211.947092 170.379186,214.392659 170.38247,217.08977 L191.315613,217.08977 C191.078878,213.757549 188.304582,211.174669 184.960653,211.173278 L184.960653,211.173278 Z" id="Path" fill="#0070D2"></path>
                                <path d="M255.573701,211.173278 C254.458854,211.173133 253.363676,211.466649 252.398601,212.024229 C250.396155,210.215195 247.514486,209.755368 245.047583,210.85123 C242.580681,211.947092 240.992235,214.392659 240.995518,217.08977 L261.928661,217.08977 C261.691927,213.757549 258.917631,211.174669 255.573701,211.173278 L255.573701,211.173278 Z" id="Path" fill="#0070D2"></path>
                                <path d="M348.509584,211.173278 C347.394737,211.173133 346.299559,211.466649 345.334484,212.024229 C343.332038,210.215195 340.450369,209.755368 337.983466,210.85123 C335.516564,211.947092 333.928118,214.392659 333.931401,217.08977 L354.864544,217.08977 C354.62781,213.757549 351.853514,211.174669 348.509584,211.173278 L348.509584,211.173278 Z" id="Path" fill="#0070D2"></path>
                                <path d="M393.155253,211.173278 C392.040406,211.173133 390.945228,211.466649 389.980154,212.024229 C387.977707,210.215195 385.096038,209.755368 382.629136,210.85123 C380.162233,211.947092 378.573787,214.392659 378.577071,217.08977 L399.510214,217.08977 C399.273479,213.757549 396.499183,211.174669 393.155253,211.173278 L393.155253,211.173278 Z" id="Path" fill="#0070D2"></path>
                                <polygon id="Path" fill="#16325C" points="58.768279 185.231733 51.4791901 185.231733 51.4791901 192.51357 54.8581384 192.51357 54.8581384 217.04972 55.7692745 217.04972 55.7692745 192.51357 58.768279 192.51357"></polygon>
                                <rect id="Rectangle" fill="#16325C" x="20.1005965" y="204.809157" width="28.2452193" height="1"></rect>
                                <rect id="Rectangle" fill="#16325C" x="20.1005965" y="202.533583" width="28.2452193" height="1"></rect>
                                <rect id="Rectangle" fill="#16325C" x="20.1005965" y="200.258009" width="28.2452193" height="1"></rect>
                            </g>
                            <rect id="Rectangle" fill="#16325C" x="181.771654" y="43.691023" width="35.5343082" height="1.82045929"></rect>
                            <rect id="Rectangle" fill="#16325C" x="181.771654" y="50.9728601" width="35.5343082" height="1.82045929"></rect>
                            <rect id="Rectangle" fill="#16325C" x="181.771654" y="58.2546973" width="35.5343082" height="1.82045929"></rect>
                            <rect id="Rectangle" fill="#16325C" x="181.771654" y="65.5365344" width="35.5343082" height="1.82045929"></rect>
                            <rect id="Rectangle" fill="#16325C" x="181.771654" y="72.8183716" width="35.5343082" height="1.82045929"></rect>
                            <rect id="Rectangle" fill="#16325C" x="181.771654" y="80.1002088" width="35.5343082" height="1.82045929"></rect>
                            <rect id="Rectangle" fill="#16325C" x="181.771654" y="87.3820459" width="35.5343082" height="1.82045929"></rect>
                            <rect id="Rectangle" fill="#16325C" x="181.771654" y="94.6638831" width="35.5343082" height="1.82045929"></rect>
                            <rect id="Rectangle" fill="#16325C" x="181.771654" y="101.94572" width="35.5343082" height="1.82045929"></rect>
                            <rect id="Rectangle" fill="#16325C" x="181.771654" y="109.227557" width="35.5343082" height="1.82045929"></rect>
                            <rect id="Rectangle" fill="#16325C" x="181.771654" y="116.509395" width="35.5343082" height="1.82045929"></rect>
                            <rect id="Rectangle" fill="#16325C" x="181.771654" y="123.791232" width="35.5343082" height="1.82045929"></rect>
                            <rect id="Rectangle" fill="#16325C" x="181.771654" y="131.073069" width="35.5343082" height="1.82045929"></rect>
                            <rect id="Rectangle" fill="#16325C" x="181.771654" y="138.354906" width="35.5343082" height="1.82045929"></rect>
                            <rect id="Rectangle" fill="#16325C" x="181.771654" y="145.636743" width="35.5343082" height="1.82045929"></rect>
                            <rect id="Rectangle" fill="#16325C" x="181.771654" y="152.91858" width="35.5343082" height="1.82045929"></rect>
                            <rect id="Rectangle" fill="#16325C" x="181.771654" y="160.200418" width="35.5343082" height="1.82045929"></rect>
                            <rect id="Rectangle" fill="#16325C" x="181.771654" y="167.482255" width="35.5343082" height="1.82045929"></rect>
                            <rect id="Rectangle" fill="#16325C" x="181.771654" y="174.764092" width="35.5343082" height="1.82045929"></rect>
                            <rect id="Rectangle" fill="#16325C" x="181.771654" y="182.045929" width="35.5343082" height="1.82045929"></rect>
                            <rect id="Rectangle" fill="#16325C" x="181.771654" y="189.327766" width="35.5343082" height="1.82045929"></rect>
                        </g>
                    </g>
                </g>
            </g>
        </g>
    </g>
</svg>