<?xml version="1.0" encoding="UTF-8"?>
<svg width="68px" height="68px" viewBox="0 0 68 68" version="1.1" xmlns="http://www.w3.org/2000/svg" xmlns:xlink="http://www.w3.org/1999/xlink">
    <title>Symbols</title>
    <g id="Symbols" stroke="none" stroke-width="1" fill="none" fill-rule="evenodd">
        <g id="Icons/Steering-Wheel" transform="translate(-2.000000, -2.000000)">
            <path d="M41,22 C50.500471,23.360021 56.500471,25.0266876 59,27 C61.499529,28.9733124 61.8328623,32.3066457 60,37 L58.4,42.2 L52,43 L44,49 L43,57 L43.0001603,58.9281733 C40.9643793,59.6427244 38.9643259,60 37,60 C34.8275138,60 32.4219562,59.592125 30.0083692,58.8888961 C30.6219963,51.0771632 27.0816932,45.5029075 19.3881388,42.1650302 L19,42 L13.4360925,42.0017043 C13.1453642,38.1640495 13,33.1634815 13,27 L21,24 L41,22 Z M56.3602364,48.8313056 L56,50 C51.6219758,54.3780242 47.3877049,57.3185162 43.2971871,58.821476 L43,59 C49.3136428,55.2118143 53.7670549,51.8222495 56.3602364,48.8313056 Z M13.7059939,44.8739855 C15.6735066,48.1446159 17.4635164,50.9603948 19.076023,53.3213221 L19.395,53.786 L19.0850476,53.5593537 C16.3150285,51.4970291 14.3637276,49.1823657 14,47 C13.9069767,46.4418605 13.8204435,45.831801 13.7404002,45.1698215 L13.7059939,44.8739855 Z M36,33 C31.581722,33 28,34.5670034 28,36.5 C28,38.4329966 31.581722,40 36,40 C40.418278,40 44,38.4329966 44,36.5 C44,34.5670034 40.418278,33 36,33 Z" id="Combined-Shape" fill="#D3EDFF"></path>
            <path d="M36,2 C54.7776815,2 70,17.2223185 70,36 C70,54.7776815 54.7776815,70 36,70 C17.2223185,70 2,54.7776815 2,36 C2,17.2223185 17.2223185,2 36,2 Z M36,5 C18.8791728,5 5,18.8791728 5,36 C5,53.1208272 18.8791728,67 36,67 C53.1208272,67 67,53.1208272 67,36 C67,18.8791728 53.1208272,5 36,5 Z M36,10 C50.3594035,10 62,21.6405965 62,36 C62,50.3594035 50.3594035,62 36,62 C21.6405965,62 10,50.3594035 10,36 C10,21.6405965 21.6405965,10 36,10 Z M36.1044042,23.1189966 C28.5038544,23.1189966 21.1831987,24.6017879 14.6666042,27.3883966 C13.5916542,30.0485709 13,32.9551913 13,36 C13,37.1477536 13.0840708,38.2758715 13.2463904,39.3785314 C22.8243247,40.4766915 30.2920051,48.5145736 30.4957289,58.3377575 C32.2592982,58.7702989 34.1028243,59 36,59 C37.8971757,59 39.7407018,58.7702989 41.5042844,58.3371907 C41.7079949,48.5145736 49.1756753,40.4766915 58.7534094,39.378014 C58.9159292,38.2758715 59,37.1477536 59,36 C59,32.914547 58.3924447,29.9709961 57.2904413,27.2824546 C50.840451,24.5650535 43.6095896,23.1189966 36.1044042,23.1189966 Z M13.9349238,42.5102461 L13.954884,42.5795728 C15.9631887,49.3183981 20.9771124,54.7618662 27.4416899,57.3550118 C26.8154737,49.8753515 21.2005346,43.8146252 13.9349238,42.5102461 Z M58.0655409,42.5106408 L57.8646158,42.5475197 C50.6963925,43.9264592 45.1787538,49.9442807 44.5581801,57.3545037 C51.0449154,54.7530302 56.070964,49.2812682 58.0655409,42.5106408 Z M36,30.5 C41.1366246,30.5 45.5,32.9543987 45.5,36.5 C45.5,40.0456013 41.1366246,42.5 36,42.5 C30.8633754,42.5 26.5,40.0456013 26.5,36.5 C26.5,32.9543987 30.8633754,30.5 36,30.5 Z M36,33 C32.0154585,33 29,34.837545 29,36.5 C29,38.162455 32.0154585,40 36,40 C39.9845415,40 43,38.162455 43,36.5 C43,34.837545 39.9845415,33 36,33 Z M36,13 C27.9139934,13 20.8025708,17.1726901 16.7015367,23.4822658 C22.7775942,21.2087701 28.9863562,20 36.1044042,20 C42.6690654,20 49.0461665,21.017656 54.9437242,22.9529649 C50.7950442,16.9403701 43.8576835,13 36,13 Z" id="Combined-Shape" fill="#16325C"></path>
        </g>
    </g>
</svg>