<?xml version="1.0" encoding="UTF-8"?>
<svg width="51px" height="53px" viewBox="0 0 51 53" version="1.1" xmlns="http://www.w3.org/2000/svg" xmlns:xlink="http://www.w3.org/1999/xlink">
    <title>Symbols</title>
    <g id="Symbols" stroke="none" stroke-width="1" fill="none" fill-rule="evenodd">
        <g id="Icons/Stethoscope" transform="translate(-11.000000, -10.000000)">
            <path d="M35,12 L38.5,13.5 L38.5,24.3333333 C38.5,29.6270949 35.1635162,34.1364872 30.5009133,35.8075654 L30.5,47 C30.5,53.1670564 34.0565273,56.5 40,56.5 C45.7716424,56.5 50.4577597,52.0453276 50.6074233,45.9669023 L50.6111111,45.6666667 C50.6111111,44.4000026 50.7492931,43.2901132 51.0301208,42.362751 C50.3862346,41.586116 50,40.5881629 50,39.5 C50,37.0147186 52.0147186,35 54.5,35 C56.9852814,35 59,37.0147186 59,39.5 C59,41.9852814 56.9852814,44 54.5,44 C54.2330237,44 53.9714775,43.9767508 53.7172757,43.9321665 C53.6564226,44.3365746 53.6210688,44.8238073 53.6129304,45.402344 L53.6111111,45.6666667 C53.6111111,53.5758107 47.5029275,59.5 40,59.5 C32.5544574,59.5 27.6480947,55.0062208 27.5032948,47.3501753 L27.5,47 L27.50042,36.4583434 C27.1705704,36.4859314 26.8369178,36.5 26.5,36.5 C19.9677456,36.5 14.6629344,31.2115301 14.5036822,24.6376417 L14.5,24.3333333 L14.5,13.5 L20,12 L21.25,13.5 L21.25,16.5 L17.5,16.4995926 L17.5,24.3333333 C17.5,29.3122754 21.3944419,33.3558837 26.2395481,33.4962322 L26.5,33.5 C31.3781198,33.5 35.3581427,29.5437416 35.4962912,24.5991507 L35.5,24.3333333 L35.5,16.4995926 L33.0625,16.5 L33.0625,13.5 L35,12 Z" id="Combined-Shape" fill="#D3EDFF"></path>
            <g id="Group" transform="translate(11.000000, 10.592593)" fill="#16325C">
                <path d="M8.75,0.907407407 L8.75,3.90740741 L3.5,3.907 L3.5,14.0740741 C3.5,20.5047643 8.70452842,25.743973 15.1948399,25.9036574 L15.5,25.9074074 C22.0295354,25.9074074 27.3345183,20.7671324 27.496203,14.3746252 L27.5,14.0740741 L27.5,3.907 L23.9375,3.90740741 L23.9375,0.907407407 L30.5,0.907407407 L30.5,14.0740741 C30.5,21.9377368 24.3146835,28.3659426 16.500417,28.8749299 L16.5,37.0740741 C16.5,43.5870317 22.1750674,48.9074074 29.2222222,48.9074074 C36.1641956,48.9074074 41.7747338,43.7446637 41.9406661,37.3648883 L41.9444444,37.0740741 C41.9444444,36.6845324 41.9101311,36.1875971 41.8929338,35.7218171 C38.8018312,34.9961892 36.5,32.220609 36.5,28.9074074 C36.5,25.0414142 39.6340068,21.9074074 43.5,21.9074074 C47.3659932,21.9074074 50.5,25.0414142 50.5,28.9074074 C50.5,32.2500581 48.1570677,35.0454877 45.0238273,35.7410718 C44.9924086,36.2021961 44.9496823,36.642895 44.9465985,36.8203501 L44.9444444,37.0740741 C44.9444444,45.2887098 37.8845003,51.9074074 29.2222222,51.9074074 C20.6682226,51.9074074 13.676749,45.453143 13.5032987,37.381365 L13.5,37.0740741 L13.5007332,28.7767658 C6.2671463,27.8238403 0.658525218,21.7719564 0.503302673,14.3885414 L0.5,14.0740741 L0.5,0.907407407 L8.75,0.907407407 Z M43.5,24.9074074 C41.290861,24.9074074 39.5,26.6982684 39.5,28.9074074 C39.5,31.1165464 41.290861,32.9074074 43.5,32.9074074 C45.709139,32.9074074 47.5,31.1165464 47.5,28.9074074 C47.5,26.6982684 45.709139,24.9074074 43.5,24.9074074 Z" id="Combined-Shape"></path>
            </g>
        </g>
    </g>
</svg>