<?xml version="1.0" encoding="UTF-8"?>
<svg width="60px" height="60px" viewBox="0 0 60 60" version="1.1" xmlns="http://www.w3.org/2000/svg" xmlns:xlink="http://www.w3.org/1999/xlink">
    <title>Symbols</title>
    <g id="Symbols" stroke="none" stroke-width="1" fill="none" fill-rule="evenodd">
        <g id="Icons/Success" transform="translate(-6.000000, -6.000000)" fill-rule="nonzero">
            <path d="M53.8786797,22.8786797 C55.0502525,21.7071068 56.9497475,21.7071068 58.1213203,22.8786797 C59.2460303,24.0033896 59.2910187,25.7989525 58.2562855,26.9773307 L58.1213203,27.1213203 L54.1155948,31.1270305 L34.0074867,51.1270305 C32.8840457,52.2444315 31.0966504,52.2891275 29.9200931,51.2611186 L29.7762971,51.1270305 L18.8844052,40.2936971 C17.7096787,39.1252864 17.7045588,37.2257983 18.8729695,36.0510719 C19.9946439,34.9233344 21.790079,34.8735064 22.971242,35.9050596 L23.1155948,36.0396362 L31.891,44.768 L49.8786797,26.8786797 L53.8786797,22.8786797 Z" id="Path-8" fill="#D3EDFF"></path>
            <path d="M36,9 C50.9116882,9 63,21.0883118 63,36 C63,50.9116882 50.9116882,63 36,63 C21.0883118,63 9,50.9116882 9,36 C9,21.0883118 21.0883118,9 36,9 Z M36,15 C24.4020203,15 15,24.4020203 15,36 C15,47.5979797 24.4020203,57 36,57 C47.5979797,57 57,47.5979797 57,36 C57,24.4020203 47.5979797,15 36,15 Z" id="Oval" fill="#D3EDFF"></path>
            <path d="M36,6.5 C19.7075999,6.5 6.5,19.7075999 6.5,36 C6.5,52.2924001 19.7075999,65.5 36,65.5 C52.2924001,65.5 65.5,52.2924001 65.5,36 C65.5,19.7075999 52.2924001,6.5 36,6.5 Z M36,9.5 C50.6355459,9.5 62.5,21.3644541 62.5,36 C62.5,50.6355459 50.6355459,62.5 36,62.5 C21.3644541,62.5 9.5,50.6355459 9.5,36 C9.5,21.3644541 21.3644541,9.5 36,9.5 Z" id="Oval" fill="#16325C"></path>
            <path d="M50.9422026,23.9364848 C51.5295658,23.3522794 52.4793099,23.3548393 53.0635152,23.9422026 C53.6112078,24.4928556 53.6431886,25.3620074 53.1610744,25.9498708 L53.0577974,26.0635152 L32.9496893,46.0635152 C32.4011341,46.6091212 31.5359809,46.6432216 30.9478509,46.1658163 L30.8340945,46.0635152 L19.9422026,35.2301819 C19.3548393,34.6459765 19.3522794,33.6962325 19.9364848,33.1088693 C20.4841773,32.5582162 21.353144,32.5215504 21.9435979,33.0004886 L22.0577974,33.1031514 L31.891,42.884 L50.9422026,23.9364848 Z" id="Path-8" fill="#16325C"></path>
        </g>
    </g>
</svg>