<?xml version="1.0" encoding="UTF-8"?>
<svg width="60px" height="59px" viewBox="0 0 60 59" version="1.1" xmlns="http://www.w3.org/2000/svg" xmlns:xlink="http://www.w3.org/1999/xlink">
    <title>Group 46</title>
    <g id="Symbols" stroke="none" stroke-width="1" fill="none" fill-rule="evenodd">
        <g id="Icons/Syringe" transform="translate(-6.000000, -7.000000)">
            <g id="Group-46" transform="translate(35.809625, 36.500000) rotate(-45.000000) translate(-35.809625, -36.500000) translate(25.809625, 5.000000)">
                <path d="M4.53846154,10.2307692 L10.7692308,10.2307692 L10.7692308,10.2307692 L10.7692308,47.1538462 C5.67121769,47.1538462 1.53846154,43.02109 1.53846154,37.9230769 L1.53846154,13.2307692 C1.53846154,11.573915 2.88160729,10.2307692 4.53846154,10.2307692 Z" id="Rectangle" fill="#D3EDFF"></path>
                <path d="M16.4615385,8.73076923 L3.53846154,8.73076923 C1.60546491,8.73076923 0.0384615385,10.2977726 0.0384615385,12.2307692 L0.0384615385,41.6017116 C0.0384615385,42.6404411 0.499842073,43.6255077 1.29781614,44.2904861 L8.40585233,50.2138496 C9.79649511,51.3727186 11.8413588,51.2799615 13.1213715,49.9999489 L18.9364122,44.1849081 C19.5927895,43.5285308 19.9615385,42.6382921 19.9615385,41.7100344 L19.9615385,12.2307692 C19.9615385,10.2977726 18.3945351,8.73076923 16.4615385,8.73076923 Z M3.53846154,11.7307692 L16.4615385,11.7307692 C16.7376808,11.7307692 16.9615385,11.9546269 16.9615385,12.2307692 L16.9615385,41.7100344 C16.9615385,41.8426427 16.90886,41.9698196 16.8150919,42.0635878 L11.0000511,47.8786285 C10.8171922,48.0614875 10.5250688,48.0747385 10.3264055,47.9091858 L3.21836934,41.9858223 C3.10437304,41.8908254 3.03846154,41.7501016 3.03846154,41.6017116 L3.03846154,12.2307692 C3.03846154,11.9546269 3.26231916,11.7307692 3.53846154,11.7307692 Z" id="Rectangle" fill="#16325C" fill-rule="nonzero"></path>
                <path d="M8.50820013,48.5070346 L13.1235847,48.5070346 L13.1235847,60.0454961 C13.1235847,61.3199994 12.0903957,62.3531884 10.8158924,62.3531884 C9.54138917,62.3531884 8.50820013,61.3199994 8.50820013,60.0454961 L8.50820013,48.5070346 L8.50820013,48.5070346 Z" id="Rectangle" fill="#16325C"></path>
                <rect id="Rectangle" fill="#16325C" x="0" y="0.0769230769" width="20" height="4" rx="1"></rect>
                <rect id="Rectangle" fill="#16325C" x="7.69230769" y="2.53846154" width="4.61538462" height="9.23076923"></rect>
                <rect id="Rectangle" fill="#16325C" x="12.3076923" y="25.6153846" width="6.15384615" height="3.07692308"></rect>
                <rect id="Rectangle" fill="#16325C" x="12.3076923" y="19.4615385" width="6.15384615" height="3.07692308"></rect>
                <rect id="Rectangle" fill="#16325C" x="12.3076923" y="31.7692308" width="6.15384615" height="3.07692308"></rect>
            </g>
        </g>
    </g>
</svg>