<?xml version="1.0" encoding="UTF-8"?>
<svg width="51px" height="51px" viewBox="0 0 51 51" version="1.1" xmlns="http://www.w3.org/2000/svg" xmlns:xlink="http://www.w3.org/1999/xlink">
    <title>Group 29</title>
    <g id="Symbols" stroke="none" stroke-width="1" fill="none" fill-rule="evenodd">
        <g id="Icons/Teeth" transform="translate(-10.000000, -11.000000)">
            <g id="Group-29" transform="translate(10.000000, 11.000000)">
                <path d="M20.8800858,5.13636364 C16.8377619,4.43939394 15.4992551,10.3636364 16.8645656,22.9090909 C18.1762686,26.3939394 19.5147754,27.7878788 20.8800858,27.0909091 C22.2453963,26.3939394 23.9520343,27.7878788 26,31.2727273 L22.9280515,33.3636364 L22.9280515,48 C19.6067606,47.5316877 17.2974101,46.865021 16,46 C9.13438065,41.4224921 5.56013542,33.1862338 4.49636055,23.9545455 C2.44839488,6.18181818 2.52880595,10.3636364 4.57677161,6.18181818 C5.94208205,3.39393939 7.99004772,2 10.7206686,2 L20.8800858,5.13636364 Z" id="Path-18" fill="#D3EDFF"></path>
                <path d="M38.1837564,0.5 L36.7878563,0.501636237 L36.5306056,0.599705144 C33.0287805,1.93466814 29.3056746,2.62651951 25.4876473,2.62651951 C21.66962,2.62651951 17.946514,1.93466814 14.4446889,0.599705144 L14.1874983,0.501659143 L12.8673194,0.5 C12.219064,0.5 11.5736661,0.550135414 10.9350487,0.649955158 C4.11430419,1.71607854 -0.550736878,8.10964844 0.515390873,14.9303913 C0.68938159,16.0435328 0.91892892,17.170823 1.20388444,18.3122256 C2.0875348,21.8517281 3.22613582,25.9134592 4.5548776,29.9342005 L4.94826412,31.1060971 L5.34290921,32.2442872 C5.47466395,32.617964 5.60662338,32.9858698 5.73878243,33.3478515 L6.13585335,34.4158706 C6.20212995,34.5908606 6.26845519,34.7643313 6.33482844,34.9362635 L6.73363883,35.9492412 C7.99833037,39.0975704 9.27989272,41.676671 10.5739766,43.5551755 C13.8986679,48.3813289 17.6910225,50.2144163 22.3344791,50.3393735 L23.8748466,50.3808254 L23.8746795,34.771257 L23.8791465,34.6383187 C23.9229762,33.8927676 24.5793006,33.2712731 25.3746795,33.2712731 L25.6006151,33.2712731 L25.7335695,33.2757402 C26.4791206,33.3195699 27.1006151,33.9758943 27.1006151,34.7712731 L27.0998587,50.4024621 L28.5267604,50.4721468 C33.6863175,50.724121 37.5854553,49.1683306 41.0708185,44.0845992 C42.3910328,42.1589419 43.6800954,39.2645026 44.9766911,35.5035651 L45.3151298,34.5028623 L45.6540629,33.4632511 L45.9936429,32.3851352 L46.3340226,31.268918 L46.50456,30.6966476 C46.6452859,30.2208902 46.7851083,29.7394824 46.9245299,29.2510246 L47.3420948,27.7631021 L47.7602707,26.2244833 L48.1820737,24.6267716 L48.7630391,22.3597495 L49.7714101,18.3122256 C49.9973477,17.4072219 50.2025748,16.5388886 50.3870866,15.7071409 C50.584273,14.8182581 50.6837515,13.9104917 50.6837515,13 C50.6837515,6.09644359 45.0873137,0.5 38.1837564,0.5 Z M37.334,3.501 L38.183,3.499 C43.4304585,3.50000333 47.6837515,7.75329736 47.6837515,13 C47.6837515,13.6919736 47.6081478,14.381876 47.4582862,15.0574269 C47.3242862,15.6614761 47.1787482,16.2865305 47.0216703,16.9325545 L46.1091502,20.6105439 L45.610793,22.5841667 L45.2794687,23.8685541 L44.8634545,25.4444157 C44.7945336,25.7018498 44.7257797,25.956792 44.6571319,26.2094119 L44.2460318,27.6986183 L43.8345596,29.1402209 L43.6277719,29.8457123 C43.5193638,30.2122117 43.4111216,30.5727499 43.3030564,30.9272116 L42.9794023,31.9722529 L42.6568756,32.9801458 C42.6032187,33.1449939 42.5496115,33.3082655 42.4960554,33.469946 L42.1753426,34.4208224 C42.1219963,34.5760815 42.0687038,34.7297208 42.0154664,34.8817261 L41.6967154,35.774033 L41.3793544,36.6264308 C40.4294219,39.1230706 39.4991405,41.0716202 38.5964903,42.3882207 L38.3936786,42.6788304 C36.0322668,46.0018846 33.6143446,47.2886891 30.4199189,47.4742175 L30.099,47.488 L30.1006151,34.7713457 C30.1006151,32.3842224 28.2372264,30.4164053 25.8636543,30.2788774 L25.6439335,30.2718987 L25.3746795,30.2712731 C22.9876287,30.2712731 21.0198117,32.1346618 20.8822837,34.5082338 L20.8753051,34.7279547 L20.874,47.214 L20.6629133,47.1838025 C17.7493206,46.7188344 15.347467,45.1962694 13.0444975,41.853257 C11.908792,40.2046561 10.7811123,37.9600086 9.69029475,35.3215845 L9.3068779,34.3743547 C9.17961379,34.0533809 9.05290684,33.7272862 8.926804,33.3964 L8.55035479,32.3896964 C8.42550713,32.0495567 8.30131055,31.7049548 8.17781199,31.3562202 L7.80945733,30.2979475 C7.74842955,30.1196122 7.68758802,29.9403259 7.6269386,29.7601301 L7.26539441,28.668368 L6.9087427,27.5567499 L6.55726518,26.4272519 C6.49913243,26.2376221 6.44122701,26.0473296 6.3835548,25.8564156 L6.04036684,24.7038032 C5.9836509,24.5105679 5.92717989,24.3167935 5.8709597,24.1225212 L5.53669519,22.9512407 L5.20873181,21.7699851 L4.88735129,20.5807304 L4.57283536,19.385453 L4.26546576,18.186129 C4.21484867,17.9860142 4.16454108,17.7858132 4.11454886,17.585567 C3.85105655,16.5301363 3.63939018,15.4906583 3.47940149,14.4670976 C2.66914433,9.28333259 6.21457534,4.42421974 11.3983414,3.61396593 L11.7632506,3.56415405 C12.1289882,3.52143289 12.4970038,3.5 12.8654356,3.5 L13.642,3.501 L13.3760498,3.40291944 C17.2176101,4.86739605 21.3027319,5.62651951 25.4876473,5.62651951 L26.1475731,5.62021884 C29.8822159,5.54885572 33.5309109,4.87203885 36.9906795,3.62828309 L37.334,3.501 Z" id="Combined-Shape" fill="#16325C" fill-rule="nonzero"></path>
                <path d="M12.8043347,18.3280197 C13.5338396,22.374837 15.3777063,27.3831259 18.3424608,33.3308221 C18.7120375,34.0722428 18.4105985,34.9728841 17.6691779,35.3424608 C16.9277572,35.7120375 16.0271159,35.4105985 15.6575392,34.6691779 C12.5761643,28.4875253 10.6387833,23.2252342 9.85192193,18.8602403 C9.70495328,18.044954 10.2467318,17.2648923 11.062018,17.1179236 C11.8773043,16.970955 12.6573661,17.5127335 12.8043347,18.3280197 Z M12.2629007,8.57367944 C13.0506358,8.83012618 13.4813301,9.6766028 13.2248834,10.4643379 C12.7958477,11.7822198 12.5540534,12.8081704 12.4947297,13.5139903 C12.4253456,14.3395067 11.6998855,14.9524731 10.874369,14.883089 C10.0488526,14.813705 9.43588624,14.0882448 9.5052703,13.2627284 C9.58725407,12.2873034 9.87783499,11.0543478 10.3722423,9.53566211 C10.628689,8.74792702 11.4751657,8.31723271 12.2629007,8.57367944 Z" id="Shape" fill="#16325C" fill-rule="nonzero"></path>
            </g>
        </g>
    </g>
</svg>