<?xml version="1.0" encoding="UTF-8"?>
<svg width="69px" height="74px" viewBox="0 0 69 74" version="1.1" xmlns="http://www.w3.org/2000/svg" xmlns:xlink="http://www.w3.org/1999/xlink">
    <title>Symbols</title>
    <g id="Symbols" stroke="none" stroke-width="1" fill="none" fill-rule="evenodd">
        <g id="Icons/Toothbrush" transform="translate(-2.000000, 1.000000)">
            <path d="M6,22 L23,38 L37,46 L43,50 L65,72 L58,72 L41,53 L27,45 L5,26 L6,22 Z M22,10 L24,14 L18,22 L19.5,20.9991458 L18,23 L27,20 L37,28 L31.783,21.2161458 L38,28 L33,35 L30,38 L10,21 L13,18 L22,10 Z M31.5254069,1.51914584 C35.1431625,6.58400371 37.0950678,6.65131079 38.9910144,6.36134249 L39.2493569,6.32002263 C39.3354563,6.3058017 39.4215912,6.29127838 39.5079129,6.27688847 L39.7675894,6.23455474 C41.3308248,5.98818307 43.0035588,5.92622996 45.6675425,8.59021365 C49.9101832,12.8328543 50.6172899,16.8397928 47.7888628,20.6110289 C44.4890312,23.9108606 42.3677108,24.1465628 41.4249018,21.3181357 C40.4820928,18.4897086 38.3607724,16.3683882 35.0609408,14.9541747 C28.932682,10.711534 27.7541707,6.23319104 31.5254069,1.51914584 Z M41.6,10.2 L40.4,11.8 L40.6758125,12.0107157 C42.8370118,13.6932646 43.9122796,15.2993389 43.9948432,16.8114737 L44,17 L46,17 L45.9946321,16.755185 C45.8944758,14.4739268 44.3940363,12.2955273 41.6,10.2 Z" id="Combined-Shape" fill="#D3EDFF"></path>
            <path d="M8.91690736,17.8127649 L9.03161697,17.911071 L27.855,35.744 L44.6386956,43.6427719 C44.7669244,43.7031149 44.8857363,43.7812213 44.9917077,43.874604 L45.0932721,43.9729868 L69.8118298,70.2862901 C70.3790335,70.8900877 70.3493684,71.8393717 69.7455709,72.4065754 C69.1795107,72.9383289 68.3098002,72.9454907 67.7359361,72.4467949 L67.6252856,72.3403165 L43.101,46.235 L26.3613044,38.3572281 C26.2650287,38.3119218 26.1739847,38.2565655 26.0896555,38.1921715 L25.968383,38.088929 L7.971,21.038 L7.84608293,21.1593238 C6.08112374,22.8913414 5.64846004,24.1490905 6.17765129,25.0570802 L6.24038975,25.156535 C6.28844339,25.2272021 6.34338863,25.3038884 6.40491844,25.3862636 L6.60895456,25.6501253 L6.8506559,25.9461373 L7.27980041,26.4461004 L7.78332928,27.0072499 L8.15726949,27.4120376 L8.77095577,28.0602948 L9.44244657,28.751895 L10.1655245,29.480147 L10.933972,30.2383595 L11.7415717,31.0198414 L12.2986524,31.5504523 L13.1576893,32.355847 L13.7433045,32.8962042 L14.6365079,33.7069248 L15.5419212,34.5119194 L16.149243,35.042097 L16.453327,35.3044967 C17.0783475,35.8416956 17.6989413,36.3633279 18.3139844,36.8682987 L19.2322457,37.6131218 C24.1059379,41.5174052 28.5884239,44.3203074 32.1042616,45.4611892 L32.4310218,45.5632606 C33.3784573,45.8474912 34.4242,46.3133412 35.5698412,46.9613969 L36.0669512,47.2502922 C36.3185689,47.4003194 36.5747843,47.5587169 36.8356129,47.7254907 L37.3634258,48.0702082 C37.4524213,48.129523 37.5419306,48.189769 37.6319542,48.2509463 L38.1782723,48.6291879 C38.2703555,48.6940914 38.3629542,48.7599266 38.456069,48.8266939 L39.020955,49.2384826 C39.2113177,49.3794745 39.4037493,49.5241961 39.5982544,49.6726489 L40.1879951,50.1292031 C40.2873235,50.2071617 40.3871715,50.2860535 40.4875395,50.3658788 L41.0959942,50.856034 L41.7169596,51.3686027 L42.3504637,51.9035951 L42.9965342,52.4610215 L43.655199,53.0408923 L44.326486,53.6432175 L45.0104229,54.2680075 C45.1254681,54.3740119 45.2410415,54.4809526 45.3571438,54.5888301 L46.0601079,55.2473365 L46.7757915,55.9283334 L47.5042225,56.631831 L48.2454287,57.3578396 L48.9994379,58.1063693 L49.7662781,58.8774306 L50.9406571,60.0762914 L52.1440622,61.3259057 L53.3765872,62.6263081 L54.2144948,63.5214758 L55.0654141,64.4392417 L55.9293731,65.3796159 L56.8063995,66.3426089 L58.1465015,67.8295307 L59.516162,69.3674022 C59.6699921,69.5411087 59.8243713,69.7157593 59.9793002,69.8913542 C60.52739,70.512554 60.4681226,71.4604504 59.8469229,72.0085402 C59.2257231,72.5566299 58.2778267,72.4973626 57.7297369,71.8761628 L56.8242966,70.8537874 L55.4905079,69.3622196 L54.6176052,68.3958536 L53.7577682,67.45191 L52.9110255,66.5303995 L52.0774062,65.6313326 L50.8516466,64.3248375 L49.6555767,63.0689005 L48.4892941,61.8635575 L47.3528961,60.7088445 L46.2464801,59.6047973 L45.5255743,58.8969313 L44.8180659,58.21161 L44.123984,57.5488441 L43.4433573,56.9086443 L42.7762147,56.2910211 L42.1225851,55.6959852 L41.4824973,55.1235472 L40.8559802,54.5737178 L40.2430627,54.0465077 L39.6437736,53.5419274 L39.0581418,53.0599876 L38.4861961,52.600699 C38.392014,52.526039 38.2984033,52.4523233 38.2053646,52.3795521 L37.6540024,51.9542601 L37.1163984,51.5516458 L36.5925816,51.1717199 L36.0825809,50.814493 L35.5864251,50.4799758 L35.104143,50.1681788 C35.0249204,50.1181066 34.9462771,50.0689815 34.8682137,50.0208037 L34.4067964,49.7431072 C34.2553134,49.6543322 34.1061547,49.5693483 33.9593251,49.4881574 L33.5258285,49.2559652 C32.9571625,48.9615521 32.4258396,48.727854 31.9321677,48.5549844 L31.5689782,48.4367394 C26.9707986,47.0572856 21.1929674,43.2727707 14.9885696,37.9990494 L14.1815164,37.3066384 L13.5498777,36.7552542 L12.6085214,35.9182619 L11.6799265,35.0751424 L10.7702124,34.2323893 L9.88549835,33.3964962 L9.31259981,32.8462521 L8.48315104,32.0362227 L7.95276203,31.5092336 L7.1955766,30.7431058 L6.48990826,30.011977 L5.8418763,29.322341 L5.4448971,28.8888418 L5.07806689,28.4785939 L4.7431988,28.0935214 C4.69015169,28.0315474 4.63851188,27.9707026 4.58831715,27.9110271 L4.30479187,27.5673251 L4.05776152,27.2536085 C4.01973177,27.203928 3.98329819,27.1555772 3.94849856,27.108596 L3.75961025,26.843465 C1.91294314,24.1277781 3.22984317,21.0550114 7.03396421,17.8524919 C7.5788711,17.3937591 8.36417867,17.38514 8.91690736,17.8127649 Z M21.2,7.5 C23.783634,7.5 25.1,9.45887798 25.1,12.5714286 C25.1,13.1042074 24.8310196,13.9038112 24.2662073,15.0481087 L24.102,15.373 L26.3096754,13.745185 C26.9109096,13.301766 27.7388081,13.3716332 28.2577126,13.8886488 L28.3572148,13.9979943 L39.1572148,27.0932324 C39.5779483,27.603381 39.6117601,28.3229281 39.2565318,28.866957 L39.167649,28.9892112 L34.367649,34.9415922 C33.847622,35.5864669 32.9032826,35.687676 32.2584078,35.167649 C31.6538378,34.6801237 31.5270988,33.8196675 31.9421071,33.1826545 L32.032351,33.0584078 L36.064,28.058 L26.946,17.003 L19.8903246,22.207196 C18.5886913,23.1671694 16.9338271,21.6799321 17.6683292,20.3077418 L17.7351274,20.1937138 L18.6800322,18.6945556 L19.5175916,17.3333042 L19.9671207,16.5870432 L20.5030568,15.6788918 L21.0684632,14.6907372 L21.3505994,14.1802272 L21.6585605,13.6002855 L21.8373692,13.2437736 L21.9313088,13.0446922 L22.0047694,12.8772563 L22.0575234,12.7421266 C22.0645775,12.7223339 22.0707594,12.7039148 22.0760642,12.686883 L22.097331,12.6014514 C22.0991087,12.5900243 22.1,12.5800121 22.1,12.5714286 C22.1,11.4957628 21.9793617,10.9420969 21.7244659,10.6870753 L21.674,10.642 L15.056426,17.2077346 C14.5050677,17.7547171 13.6358754,17.7855779 13.0486338,17.3027065 L12.9351225,17.1992832 C12.38814,16.6479248 12.3572793,15.7787326 12.8401506,15.191491 L12.943574,15.0779797 L20.143574,7.93512254 C20.4245272,7.6563991 20.8042457,7.5 21.2,7.5 Z M31.5782675,-0.885946301 L32.7311221,0.728050069 L33.129117,1.27681074 C33.1937526,1.36447628 33.2575606,1.45026677 33.3205721,1.53421557 L33.3205721,1.53421557 L33.6893318,2.01607495 L34.0404694,2.45533497 C35.9260055,4.75705239 37.0797536,5.1984782 38.6206228,4.97840966 L38.6206228,4.97840966 L39.505315,4.83717674 C42.238883,4.43046203 44.0809851,4.97798249 46.7133177,7.610315 C51.4435737,12.3405711 52.2947773,17.1640578 48.9739778,21.5917905 L48.9739778,21.5917905 L48.834638,21.7524506 C48.6334046,21.953684 48.4334005,22.1456854 48.2348358,22.3283183 L48.2348358,22.3283183 L47.8396878,22.6810522 C44.3017501,25.7425044 41.2755804,25.7390046 39.9869918,21.8732389 L39.9869918,21.8732389 L39.8902592,21.5991008 C39.0467714,19.3364394 37.267429,17.6189047 34.4551768,16.4136537 L34.4551768,16.4136537 L34.316389,16.3541733 L33.8874028,16.0541167 C27.3625435,11.4040724 26.0375493,6.0399515 30.3392186,0.662864788 L30.3392186,0.662864788 L31.5782675,-0.885946301 Z M31.5904249,4.18014 L31.5017002,4.35390822 C29.9359429,7.53498645 31.2246407,10.4803603 35.6210466,13.6060535 L35.6210466,13.6060535 L35.7849823,13.7204247 L36.0126718,13.8222129 C39.3544207,15.343748 41.6181927,17.6097589 42.7158797,20.5904304 L42.7158797,20.5904304 L42.9033831,21.1188545 L42.9786075,21.2918314 C43.2906524,21.9401968 43.7447507,22.0606645 44.6392241,21.4591951 L44.6392241,21.4591951 L44.8721895,21.2936751 C44.9934322,21.2032827 45.1219441,21.1013573 45.258308,20.98752 L45.258308,20.98752 L45.5416777,20.7438505 L45.8470217,20.4677423 L46.1753761,20.1585214 L46.6334146,19.7110333 L46.7191477,19.5928698 C48.837554,16.6073781 48.2926611,13.543 44.8273476,9.9705557 L44.8273476,9.9705557 L44.5919973,9.73163534 C42.8801197,8.01975775 41.9793234,7.60722086 40.5000355,7.73658951 L40.5000355,7.73658951 L40.1331879,7.77765476 C40.0067287,7.79455284 39.8758557,7.8145313 39.7398574,7.83720235 L39.7398574,7.83720235 L39.0588867,7.94619072 C36.3710591,8.3301661 34.2638206,7.43756597 31.5986059,4.19029861 L31.5986059,4.19029861 L31.5904249,4.18014 Z" id="Combined-Shape" fill="#16325C" fill-rule="nonzero"></path>
        </g>
    </g>
</svg>