<?xml version="1.0" encoding="UTF-8"?>
<svg width="66px" height="63px" viewBox="0 0 66 63" version="1.1" xmlns="http://www.w3.org/2000/svg" xmlns:xlink="http://www.w3.org/1999/xlink">
    <title>Symbols</title>
    <g id="Symbols" stroke="none" stroke-width="1" fill="none" fill-rule="evenodd">
        <g id="Icons/Umbrella" transform="translate(-3.000000, -3.000000)">
            <path d="M36,8 C47,7 51.7567568,23.0933115 51.7567568,31.2432432 C51.7567568,32.7369088 51.5012501,34.1787427 51.033721,35.5375728 C49.7608325,33.4881339 47.4163501,31.9761 44,31 C39.3333333,29.6666667 36.6666667,32.3333333 36,39 C36,33.6666667 33.6666667,31 29,31 C24.6853193,31 22.0803144,32.7096758 21.1849852,36.1290273 C20.5792311,34.6007435 20.2432432,32.9560723 20.2432432,31.2432432 C20.2432432,23.0933115 25,9 36,8 Z" id="Combined-Shape" fill="#D3EDFF"></path>
            <path d="M35.9361258,3 C36.4873251,3 36.9341604,3.44683533 36.9341604,3.99803464 L36.9348207,6.01511147 C53.6528715,6.52169799 67.1899179,19.7037813 68.2988432,36.296035 C68.4307922,36.9067119 68.5,37.539326 68.5,38.188 C68.5,38.448587 68.4336814,38.6936539 68.3170327,38.9071807 C68.1398655,39.5373342 67.5614571,40 66.8751996,40 C66.0484006,40 65.3781476,39.3284271 65.3781476,38.5 C65.3781476,37.9081329 65.3607517,37.3203369 65.3264442,36.7370972 C64.6427914,34.0274764 62.0872247,32 59.0186709,32 C55.4228446,32 52.5314458,34.784106 52.5314458,38.188 C52.5314458,38.9676961 51.9377269,39.6084487 51.1785699,39.6811334 L51.0343938,39.688 C50.2075948,39.688 49.5373418,39.0164271 49.5373418,38.188 C49.5373418,36.3495508 48.7371864,34.698356 47.4667809,33.5649705 C46.5309236,32.992761 45.4070327,32.5015891 44.0917445,32.0942098 L43.836,32.018 L43.6021222,32.0046104 C43.522295,32.0015461 43.4420795,32 43.3615035,32 C40.9070023,32 38.6907866,33.337342 37.6409825,35.3608452 C37.3607229,36.2330004 37.1476434,37.2658327 36.9998098,38.4649555 L37,56.2105263 C37,61.6054078 32.7588698,66 27.5,66 C22.2411302,66 18,61.6054078 18,56.2105263 C18,55.3820992 18.6715729,54.7105263 19.5,54.7105263 C20.3284271,54.7105263 21,55.3820992 21,56.2105263 C21,59.9719446 23.9223138,63 27.5,63 C31.0015652,63 33.8753495,60.0994273 33.9960531,56.4495988 L34,56.2105263 L34.0006285,36.6552139 C33.3485919,34.0915323 31.0989534,32.1675568 28.376599,32.0103887 C27.3264761,32.0519595 26.411418,32.2082455 25.6246201,32.4814753 L25.465024,32.5507662 C23.9239628,33.251919 22.7211802,34.5688329 22.1695785,36.1879895 L22.1157138,36.3823297 L21.9550831,36.9923157 C21.8794953,37.3791801 21.8398845,37.7789551 21.8398845,38.188 C21.8398845,38.6250562 21.6533305,39.0184546 21.3556558,39.292613 L21.3444124,39.3338073 L21.3361119,39.3102996 C21.1055551,39.5153065 20.811384,39.6500764 20.4870087,39.6811334 L20.3428326,39.688 C19.5160336,39.688 18.8457806,39.0164271 18.8457806,38.188 C18.8457806,34.770462 16.0807636,32 12.6699423,32 C9.34839181,32 6.639283,34.6273381 6.49974818,37.9210278 C6.49596193,38.1135741 6.49410392,38.3065697 6.49410392,38.5 C6.49410392,39.3284271 5.82385093,40 4.99705196,40 C4.17025299,40 3.5,39.3284271 3.5,38.5 L3.5,38.188 C3.5,38.0672775 3.50232368,37.9470988 3.50692868,37.8275063 C3.85752362,20.5213134 17.7088798,6.53652415 34.9386559,6.01507438 L34.9380911,3.99803464 C34.9380911,3.44683533 35.3849265,3 35.9361258,3 Z M36.0220187,9.53969073 C27.6870452,10.3036434 21.9361258,20.8568977 21.9361258,30.8196277 C21.9361258,30.9804379 21.9394519,31.1409317 21.9460782,31.3010542 C23.5636327,29.8686914 25.6884303,29 28.0157229,29 C29.6748615,29 31.2111586,29.4213208 32.5270325,30.1663271 C33.8654997,30.6759456 34.9029494,31.5453813 35.6292323,32.7567707 L35.78,33.021 L35.8832715,32.8703314 C36.2574321,32.3427197 36.6858635,31.8564171 37.1604121,31.4195856 C38.1235928,30.1627855 39.3826715,29.4549873 40.9239407,29.3273952 C41.7005612,29.1141884 42.5177235,29 43.3615035,29 C45.9213567,29 48.2362232,30.0509781 49.8997519,31.7457831 L49.9043161,31.679621 L49.9281561,31.2504943 L49.9361258,30.8196277 C49.9361258,26.6035135 48.6455434,21.0450915 46.4827405,16.8636296 C43.8777121,11.8271897 40.3321531,9.14463982 36.0220187,9.53969073 Z M28.5172103,9.9443084 L28.1314048,10.0476773 C18.1887928,12.7795504 10.3481576,20.6035704 7.57644912,30.5469449 C9.03375943,29.5695666 10.7854669,29 12.6699423,29 C15.2369798,29 17.5576536,30.0568857 19.2221817,31.760068 L19.2194889,31.6935768 L19.2123021,31.2432432 C19.2123021,22.9831251 22.7171364,14.3587771 28.5172103,9.9443084 Z M44.9819483,10.4185279 L45.1394357,10.5740916 C46.511832,11.9470435 47.7358408,13.6817375 48.800847,15.7280068 C51.2281044,20.3916626 52.6599495,26.5202624 52.6599495,31.2432432 L52.6593298,31.3755358 L52.6593298,31.3755358 C54.3407371,29.8981156 56.5739668,29 59.0186709,29 C60.9702997,29 62.7871565,29.5723663 64.2974994,30.5547815 C61.6439875,21.0249869 54.3352341,13.4411179 44.9819483,10.4185279 Z" id="Combined-Shape" fill="#16325C"></path>
        </g>
    </g>
</svg>