<?xml version="1.0" encoding="UTF-8"?>
<svg width="72px" height="31px" viewBox="0 0 72 31" version="1.1" xmlns="http://www.w3.org/2000/svg" xmlns:xlink="http://www.w3.org/1999/xlink">
    <title>Symbols</title>
    <g id="Symbols" stroke="none" stroke-width="1" fill="none" fill-rule="evenodd">
        <g id="Icons/Vision" transform="translate(0.000000, -20.000000)">
            <path d="M18.5,22 C25.9558441,22 32,28.0441559 32,35.5 C32,42.9558441 25.9558441,49 18.5,49 C11.0441559,49 5,42.9558441 5,35.5 C5,28.0441559 11.0441559,22 18.5,22 Z M53.5,22 C60.9558441,22 67,28.0441559 67,35.5 C67,42.9558441 60.9558441,49 53.5,49 C46.0441559,49 40,42.9558441 40,35.5 C40,28.0441559 46.0441559,22 53.5,22 Z M18.5,26.5 L18.5,29.5 L18.7249383,29.5041385 C21.9344251,29.6224282 24.5,32.2616031 24.5,35.5 L24.5,35.5 L27.5,35.5 L27.4961629,35.2346377 C27.3557914,30.3868137 23.3818027,26.5 18.5,26.5 L18.5,26.5 Z M53.5,26.5 L53.5,29.5 L53.7249383,29.5041385 C56.9344251,29.6224282 59.5,32.2616031 59.5,35.5 L59.5,35.5 L62.5,35.5 L62.4961629,35.2346377 C62.3557914,30.3868137 58.3818027,26.5 53.5,26.5 L53.5,26.5 Z" id="Combined-Shape" fill="#D3EDFF"></path>
            <path d="M53.5,20.5 C61.6170916,20.5 68.2283094,26.9474119 68.4918374,35.0004197 L72,35 L72,38 L68.2925513,38.0003136 C67.1022268,45.0944427 60.9323812,50.5 53.5,50.5 C45.3832434,50.5 38.7722363,44.0531203 38.5081952,36.0005775 L38.5,36 C38.5,34.6192881 37.3807119,33.5 36,33.5 C34.6745166,33.5 33.5899613,34.5315359 33.5053177,35.8356243 L33.5,36 C33.2277637,44.0531203 26.6167566,50.5 18.5,50.5 C11.0676188,50.5 4.89777317,45.0944427 3.70744872,38.0003136 L0,38 L0,35 L3.50816259,35.0004197 C3.77169056,26.9474119 10.3829084,20.5 18.5,20.5 C25.3733381,20.5 31.1669265,25.1229579 32.9410175,31.429126 C33.8148815,30.842307 34.8674657,30.5 36,30.5 C37.1325425,30.5 38.1851338,30.842312 39.0599538,31.429116 C40.8330735,25.1229579 46.6266619,20.5 53.5,20.5 Z M18.5,23.5 C11.872583,23.5 6.5,28.872583 6.5,35.5 C6.5,42.127417 11.872583,47.5 18.5,47.5 C25.127417,47.5 30.5,42.127417 30.5,35.5 C30.5,28.872583 25.127417,23.5 18.5,23.5 Z M53.5,23.5 C46.872583,23.5 41.5,28.872583 41.5,35.5 C41.5,42.127417 46.872583,47.5 53.5,47.5 C60.127417,47.5 65.5,42.127417 65.5,35.5 C65.5,28.872583 60.127417,23.5 53.5,23.5 Z" id="Combined-Shape" fill="#16325C" fill-rule="nonzero"></path>
        </g>
    </g>
</svg>